%TF.GenerationSoftware,KiCad,Pcbnew,7.0.5-0*%
%TF.CreationDate,2023-06-23T22:43:04+02:00*%
%TF.ProjectId,ps2_interface,7073325f-696e-4746-9572-666163652e6b,1.2*%
%TF.SameCoordinates,Original*%
%TF.FileFunction,Drillmap*%
%TF.FilePolarity,Positive*%
%FSLAX45Y45*%
G04 Gerber Fmt 4.5, Leading zero omitted, Abs format (unit mm)*
G04 Created by KiCad (PCBNEW 7.0.5-0) date 2023-06-23 22:43:04*
%MOMM*%
%LPD*%
G01*
G04 APERTURE LIST*
%ADD10C,0.100000*%
%ADD11C,0.200000*%
%ADD12C,0.030000*%
%ADD13C,0.050000*%
%ADD14C,0.060000*%
%ADD15C,0.080000*%
%ADD16C,0.090000*%
%ADD17C,0.110000*%
%ADD18C,0.160000*%
%ADD19C,0.320000*%
G04 APERTURE END LIST*
D10*
X8026400Y-5994400D02*
X15443200Y-5994400D01*
X7569200Y-8966200D02*
X7569200Y-6451600D01*
X15900400Y-6451600D02*
G75*
G03*
X15443200Y-5994400I-457200J0D01*
G01*
X15443200Y-9423400D02*
X8026400Y-9423400D01*
X8026400Y-5994400D02*
G75*
G03*
X7569200Y-6451600I0J-457200D01*
G01*
X7569200Y-8966200D02*
G75*
G03*
X8026400Y-9423400I457200J0D01*
G01*
X15900400Y-6451600D02*
X15900400Y-8966200D01*
X15443200Y-9423400D02*
G75*
G03*
X15900400Y-8966200I0J457200D01*
G01*
D11*
D12*
X12862800Y-8925800D02*
X12892800Y-8955800D01*
X12892800Y-8925800D02*
X12862800Y-8955800D01*
X13523200Y-7630400D02*
X13553200Y-7660400D01*
X13553200Y-7630400D02*
X13523200Y-7660400D01*
X14386800Y-7478000D02*
X14416800Y-7508000D01*
X14416800Y-7478000D02*
X14386800Y-7508000D01*
D13*
X8073000Y-7696200D02*
G75*
G03*
X8073000Y-7696200I-25000J0D01*
G01*
D11*
X8023000Y-7596200D02*
X8023000Y-7796200D01*
X8023000Y-7796200D02*
G75*
G03*
X8073000Y-7796200I25000J0D01*
G01*
X8073000Y-7796200D02*
X8073000Y-7596200D01*
X8073000Y-7596200D02*
G75*
G03*
X8023000Y-7596200I-25000J0D01*
G01*
D13*
X8153000Y-6996200D02*
G75*
G03*
X8153000Y-6996200I-25000J0D01*
G01*
D11*
X8213000Y-6971200D02*
X8043000Y-6971200D01*
X8043000Y-6971200D02*
G75*
G03*
X8043000Y-7021200I0J-25000D01*
G01*
X8043000Y-7021200D02*
X8213000Y-7021200D01*
X8213000Y-7021200D02*
G75*
G03*
X8213000Y-6971200I0J25000D01*
G01*
D13*
X8153000Y-8396200D02*
G75*
G03*
X8153000Y-8396200I-25000J0D01*
G01*
D11*
X8213000Y-8371200D02*
X8043000Y-8371200D01*
X8043000Y-8371200D02*
G75*
G03*
X8043000Y-8421200I0J-25000D01*
G01*
X8043000Y-8421200D02*
X8213000Y-8421200D01*
X8213000Y-8421200D02*
G75*
G03*
X8213000Y-8371200I0J25000D01*
G01*
D14*
X8634860Y-6269200D02*
X8634860Y-6329200D01*
X8604860Y-6299200D02*
X8664860Y-6299200D01*
X8834860Y-6269200D02*
X8834860Y-6329200D01*
X8804860Y-6299200D02*
X8864860Y-6299200D01*
D15*
X9096085Y-7394284D02*
X9096085Y-7337715D01*
X9039516Y-7337715D01*
X9039516Y-7394284D01*
X9096085Y-7394284D01*
X9096085Y-8156284D02*
X9096085Y-8099715D01*
X9039516Y-8099715D01*
X9039516Y-8156284D01*
X9096085Y-8156284D01*
X9096085Y-8435685D02*
X9096085Y-8379115D01*
X9039516Y-8379115D01*
X9039516Y-8435685D01*
X9096085Y-8435685D01*
X9096085Y-9197685D02*
X9096085Y-9141116D01*
X9039516Y-9141116D01*
X9039516Y-9197685D01*
X9096085Y-9197685D01*
X9400885Y-7394284D02*
X9400885Y-7337715D01*
X9344316Y-7337715D01*
X9344316Y-7394284D01*
X9400885Y-7394284D01*
X9400885Y-7673684D02*
X9400885Y-7617115D01*
X9344316Y-7617115D01*
X9344316Y-7673684D01*
X9400885Y-7673684D01*
X9400885Y-7927684D02*
X9400885Y-7871115D01*
X9344316Y-7871115D01*
X9344316Y-7927684D01*
X9400885Y-7927684D01*
X9400885Y-8181684D02*
X9400885Y-8125115D01*
X9344316Y-8125115D01*
X9344316Y-8181684D01*
X9400885Y-8181684D01*
X9400885Y-8435685D02*
X9400885Y-8379115D01*
X9344316Y-8379115D01*
X9344316Y-8435685D01*
X9400885Y-8435685D01*
X9400885Y-8689685D02*
X9400885Y-8633116D01*
X9344316Y-8633116D01*
X9344316Y-8689685D01*
X9400885Y-8689685D01*
X9400885Y-8943685D02*
X9400885Y-8887116D01*
X9344316Y-8887116D01*
X9344316Y-8943685D01*
X9400885Y-8943685D01*
X9400885Y-9197685D02*
X9400885Y-9141116D01*
X9344316Y-9141116D01*
X9344316Y-9197685D01*
X9400885Y-9197685D01*
X9650885Y-7394284D02*
X9650885Y-7337715D01*
X9594316Y-7337715D01*
X9594316Y-7394284D01*
X9650885Y-7394284D01*
X10162885Y-7673684D02*
X10162885Y-7617115D01*
X10106316Y-7617115D01*
X10106316Y-7673684D01*
X10162885Y-7673684D01*
X10162885Y-7927684D02*
X10162885Y-7871115D01*
X10106316Y-7871115D01*
X10106316Y-7927684D01*
X10162885Y-7927684D01*
X10162885Y-8181684D02*
X10162885Y-8125115D01*
X10106316Y-8125115D01*
X10106316Y-8181684D01*
X10162885Y-8181684D01*
X10162885Y-8435685D02*
X10162885Y-8379115D01*
X10106316Y-8379115D01*
X10106316Y-8435685D01*
X10162885Y-8435685D01*
X10162885Y-8689685D02*
X10162885Y-8633116D01*
X10106316Y-8633116D01*
X10106316Y-8689685D01*
X10162885Y-8689685D01*
X10162885Y-8943685D02*
X10162885Y-8887116D01*
X10106316Y-8887116D01*
X10106316Y-8943685D01*
X10162885Y-8943685D01*
X10162885Y-9197685D02*
X10162885Y-9141116D01*
X10106316Y-9141116D01*
X10106316Y-9197685D01*
X10162885Y-9197685D01*
X10289885Y-6987884D02*
X10289885Y-6931315D01*
X10233316Y-6931315D01*
X10233316Y-6987884D01*
X10289885Y-6987884D01*
X10440785Y-7369884D02*
X10440785Y-7313315D01*
X10384216Y-7313315D01*
X10384216Y-7369884D01*
X10440785Y-7369884D01*
X10440785Y-7619884D02*
X10440785Y-7563315D01*
X10384216Y-7563315D01*
X10384216Y-7619884D01*
X10440785Y-7619884D01*
X10440785Y-8462085D02*
X10440785Y-8405516D01*
X10384216Y-8405516D01*
X10384216Y-8462085D01*
X10440785Y-8462085D01*
X10440785Y-8712085D02*
X10440785Y-8655516D01*
X10384216Y-8655516D01*
X10384216Y-8712085D01*
X10440785Y-8712085D01*
X10746585Y-8460085D02*
X10746585Y-8403516D01*
X10690016Y-8403516D01*
X10690016Y-8460085D01*
X10746585Y-8460085D01*
X10746585Y-9222085D02*
X10746585Y-9165516D01*
X10690016Y-9165516D01*
X10690016Y-9222085D01*
X10746585Y-9222085D01*
X10747085Y-7367884D02*
X10747085Y-7311315D01*
X10690516Y-7311315D01*
X10690516Y-7367884D01*
X10747085Y-7367884D01*
X10747085Y-8129884D02*
X10747085Y-8073315D01*
X10690516Y-8073315D01*
X10690516Y-8129884D01*
X10747085Y-8129884D01*
X11000585Y-8460085D02*
X11000585Y-8403516D01*
X10944016Y-8403516D01*
X10944016Y-8460085D01*
X11000585Y-8460085D01*
X11000585Y-9222085D02*
X11000585Y-9165516D01*
X10944016Y-9165516D01*
X10944016Y-9222085D01*
X11000585Y-9222085D01*
X11001085Y-7367884D02*
X11001085Y-7311315D01*
X10944516Y-7311315D01*
X10944516Y-7367884D01*
X11001085Y-7367884D01*
X11001085Y-8129884D02*
X11001085Y-8073315D01*
X10944516Y-8073315D01*
X10944516Y-8129884D01*
X11001085Y-8129884D01*
X11051885Y-6987884D02*
X11051885Y-6931315D01*
X10995316Y-6931315D01*
X10995316Y-6987884D01*
X11051885Y-6987884D01*
X11254584Y-8460085D02*
X11254584Y-8403516D01*
X11198015Y-8403516D01*
X11198015Y-8460085D01*
X11254584Y-8460085D01*
X11254584Y-9222085D02*
X11254584Y-9165516D01*
X11198015Y-9165516D01*
X11198015Y-9222085D01*
X11254584Y-9222085D01*
X11255084Y-7367884D02*
X11255084Y-7311315D01*
X11198515Y-7311315D01*
X11198515Y-7367884D01*
X11255084Y-7367884D01*
X11255084Y-8129884D02*
X11255084Y-8073315D01*
X11198515Y-8073315D01*
X11198515Y-8129884D01*
X11255084Y-8129884D01*
X11335284Y-6987884D02*
X11335284Y-6931315D01*
X11278715Y-6931315D01*
X11278715Y-6987884D01*
X11335284Y-6987884D01*
X11508584Y-8460085D02*
X11508584Y-8403516D01*
X11452015Y-8403516D01*
X11452015Y-8460085D01*
X11508584Y-8460085D01*
X11508584Y-9222085D02*
X11508584Y-9165516D01*
X11452015Y-9165516D01*
X11452015Y-9222085D01*
X11508584Y-9222085D01*
X11509084Y-7367884D02*
X11509084Y-7311315D01*
X11452515Y-7311315D01*
X11452515Y-7367884D01*
X11509084Y-7367884D01*
X11509084Y-8129884D02*
X11509084Y-8073315D01*
X11452515Y-8073315D01*
X11452515Y-8129884D01*
X11509084Y-8129884D01*
X11762584Y-8460085D02*
X11762584Y-8403516D01*
X11706015Y-8403516D01*
X11706015Y-8460085D01*
X11762584Y-8460085D01*
X11762584Y-9222085D02*
X11762584Y-9165516D01*
X11706015Y-9165516D01*
X11706015Y-9222085D01*
X11762584Y-9222085D01*
X11763084Y-7367884D02*
X11763084Y-7311315D01*
X11706515Y-7311315D01*
X11706515Y-7367884D01*
X11763084Y-7367884D01*
X11763084Y-8129884D02*
X11763084Y-8073315D01*
X11706515Y-8073315D01*
X11706515Y-8129884D01*
X11763084Y-8129884D01*
X11835284Y-6987884D02*
X11835284Y-6931315D01*
X11778715Y-6931315D01*
X11778715Y-6987884D01*
X11835284Y-6987884D01*
X12016584Y-8460085D02*
X12016584Y-8403516D01*
X11960015Y-8403516D01*
X11960015Y-8460085D01*
X12016584Y-8460085D01*
X12016584Y-9222085D02*
X12016584Y-9165516D01*
X11960015Y-9165516D01*
X11960015Y-9222085D01*
X12016584Y-9222085D01*
X12017084Y-7367884D02*
X12017084Y-7311315D01*
X11960515Y-7311315D01*
X11960515Y-7367884D01*
X12017084Y-7367884D01*
X12017084Y-8129884D02*
X12017084Y-8073315D01*
X11960515Y-8073315D01*
X11960515Y-8129884D01*
X12017084Y-8129884D01*
X12093284Y-6987884D02*
X12093284Y-6931315D01*
X12036715Y-6931315D01*
X12036715Y-6987884D01*
X12093284Y-6987884D01*
X12270584Y-8460085D02*
X12270584Y-8403516D01*
X12214015Y-8403516D01*
X12214015Y-8460085D01*
X12270584Y-8460085D01*
X12270584Y-9222085D02*
X12270584Y-9165516D01*
X12214015Y-9165516D01*
X12214015Y-9222085D01*
X12270584Y-9222085D01*
X12271084Y-7367884D02*
X12271084Y-7311315D01*
X12214515Y-7311315D01*
X12214515Y-7367884D01*
X12271084Y-7367884D01*
X12271084Y-8129884D02*
X12271084Y-8073315D01*
X12214515Y-8073315D01*
X12214515Y-8129884D01*
X12271084Y-8129884D01*
X12575884Y-7368884D02*
X12575884Y-7312315D01*
X12519315Y-7312315D01*
X12519315Y-7368884D01*
X12575884Y-7368884D01*
X12575884Y-7618884D02*
X12575884Y-7562315D01*
X12519315Y-7562315D01*
X12519315Y-7618884D01*
X12575884Y-7618884D01*
X12575884Y-8461085D02*
X12575884Y-8404516D01*
X12519315Y-8404516D01*
X12519315Y-8461085D01*
X12575884Y-8461085D01*
X12575884Y-8711085D02*
X12575884Y-8654516D01*
X12519315Y-8654516D01*
X12519315Y-8711085D01*
X12575884Y-8711085D01*
X12855284Y-6987884D02*
X12855284Y-6931315D01*
X12798715Y-6931315D01*
X12798715Y-6987884D01*
X12855284Y-6987884D01*
X12880684Y-7368884D02*
X12880684Y-7312315D01*
X12824115Y-7312315D01*
X12824115Y-7368884D01*
X12880684Y-7368884D01*
X12880684Y-8130884D02*
X12880684Y-8074315D01*
X12824115Y-8074315D01*
X12824115Y-8130884D01*
X12880684Y-8130884D01*
X12880684Y-8461085D02*
X12880684Y-8404516D01*
X12824115Y-8404516D01*
X12824115Y-8461085D01*
X12880684Y-8461085D01*
X12880684Y-9223085D02*
X12880684Y-9166516D01*
X12824115Y-9166516D01*
X12824115Y-9223085D01*
X12880684Y-9223085D01*
X13134684Y-7368884D02*
X13134684Y-7312315D01*
X13078115Y-7312315D01*
X13078115Y-7368884D01*
X13134684Y-7368884D01*
X13134684Y-8130884D02*
X13134684Y-8074315D01*
X13078115Y-8074315D01*
X13078115Y-8130884D01*
X13134684Y-8130884D01*
X13134684Y-8461085D02*
X13134684Y-8404516D01*
X13078115Y-8404516D01*
X13078115Y-8461085D01*
X13134684Y-8461085D01*
X13134684Y-9223085D02*
X13134684Y-9166516D01*
X13078115Y-9166516D01*
X13078115Y-9223085D01*
X13134684Y-9223085D01*
X13388684Y-7368884D02*
X13388684Y-7312315D01*
X13332115Y-7312315D01*
X13332115Y-7368884D01*
X13388684Y-7368884D01*
X13388684Y-8130884D02*
X13388684Y-8074315D01*
X13332115Y-8074315D01*
X13332115Y-8130884D01*
X13388684Y-8130884D01*
X13388684Y-8461085D02*
X13388684Y-8404516D01*
X13332115Y-8404516D01*
X13332115Y-8461085D01*
X13388684Y-8461085D01*
X13388684Y-9223085D02*
X13388684Y-9166516D01*
X13332115Y-9166516D01*
X13332115Y-9223085D01*
X13388684Y-9223085D01*
X13642684Y-7368884D02*
X13642684Y-7312315D01*
X13586115Y-7312315D01*
X13586115Y-7368884D01*
X13642684Y-7368884D01*
X13642684Y-8130884D02*
X13642684Y-8074315D01*
X13586115Y-8074315D01*
X13586115Y-8130884D01*
X13642684Y-8130884D01*
X13642684Y-8461085D02*
X13642684Y-8404516D01*
X13586115Y-8404516D01*
X13586115Y-8461085D01*
X13642684Y-8461085D01*
X13642684Y-9223085D02*
X13642684Y-9166516D01*
X13586115Y-9166516D01*
X13586115Y-9223085D01*
X13642684Y-9223085D01*
X13896684Y-7368884D02*
X13896684Y-7312315D01*
X13840115Y-7312315D01*
X13840115Y-7368884D01*
X13896684Y-7368884D01*
X13896684Y-8130884D02*
X13896684Y-8074315D01*
X13840115Y-8074315D01*
X13840115Y-8130884D01*
X13896684Y-8130884D01*
X13896684Y-8461085D02*
X13896684Y-8404516D01*
X13840115Y-8404516D01*
X13840115Y-8461085D01*
X13896684Y-8461085D01*
X13896684Y-9223085D02*
X13896684Y-9166516D01*
X13840115Y-9166516D01*
X13840115Y-9223085D01*
X13896684Y-9223085D01*
X14150684Y-7368884D02*
X14150684Y-7312315D01*
X14094115Y-7312315D01*
X14094115Y-7368884D01*
X14150684Y-7368884D01*
X14150684Y-8130884D02*
X14150684Y-8074315D01*
X14094115Y-8074315D01*
X14094115Y-8130884D01*
X14150684Y-8130884D01*
X14150684Y-8461085D02*
X14150684Y-8404516D01*
X14094115Y-8404516D01*
X14094115Y-8461085D01*
X14150684Y-8461085D01*
X14150684Y-9223085D02*
X14150684Y-9166516D01*
X14094115Y-9166516D01*
X14094115Y-9223085D01*
X14150684Y-9223085D01*
X14404684Y-7368884D02*
X14404684Y-7312315D01*
X14348115Y-7312315D01*
X14348115Y-7368884D01*
X14404684Y-7368884D01*
X14404684Y-8130884D02*
X14404684Y-8074315D01*
X14348115Y-8074315D01*
X14348115Y-8130884D01*
X14404684Y-8130884D01*
X14404684Y-8461085D02*
X14404684Y-8404516D01*
X14348115Y-8404516D01*
X14348115Y-8461085D01*
X14404684Y-8461085D01*
X14404684Y-9223085D02*
X14404684Y-9166516D01*
X14348115Y-9166516D01*
X14348115Y-9223085D01*
X14404684Y-9223085D01*
X14658684Y-7368884D02*
X14658684Y-7312315D01*
X14602115Y-7312315D01*
X14602115Y-7368884D01*
X14658684Y-7368884D01*
X14658684Y-8130884D02*
X14658684Y-8074315D01*
X14602115Y-8074315D01*
X14602115Y-8130884D01*
X14658684Y-8130884D01*
X14658684Y-8461085D02*
X14658684Y-8404516D01*
X14602115Y-8404516D01*
X14602115Y-8461085D01*
X14658684Y-8461085D01*
X14658684Y-9223085D02*
X14658684Y-9166516D01*
X14602115Y-9166516D01*
X14602115Y-9223085D01*
X14658684Y-9223085D01*
X14734884Y-6862884D02*
X14734884Y-6806315D01*
X14678315Y-6806315D01*
X14678315Y-6862884D01*
X14734884Y-6862884D01*
X14734884Y-7112884D02*
X14734884Y-7056315D01*
X14678315Y-7056315D01*
X14678315Y-7112884D01*
X14734884Y-7112884D01*
X14989884Y-6987384D02*
X14989884Y-6930815D01*
X14933315Y-6930815D01*
X14933315Y-6987384D01*
X14989884Y-6987384D01*
X14989884Y-7241384D02*
X14989884Y-7184815D01*
X14933315Y-7184815D01*
X14933315Y-7241384D01*
X14989884Y-7241384D01*
X14989884Y-7495384D02*
X14989884Y-7438815D01*
X14933315Y-7438815D01*
X14933315Y-7495384D01*
X14989884Y-7495384D01*
X14989884Y-7749384D02*
X14989884Y-7692815D01*
X14933315Y-7692815D01*
X14933315Y-7749384D01*
X14989884Y-7749384D01*
X14989884Y-8003384D02*
X14989884Y-7946815D01*
X14933315Y-7946815D01*
X14933315Y-8003384D01*
X14989884Y-8003384D01*
X14989884Y-8257384D02*
X14989884Y-8200815D01*
X14933315Y-8200815D01*
X14933315Y-8257384D01*
X14989884Y-8257384D01*
X14989884Y-8511385D02*
X14989884Y-8454816D01*
X14933315Y-8454816D01*
X14933315Y-8511385D01*
X14989884Y-8511385D01*
X15751884Y-6987384D02*
X15751884Y-6930815D01*
X15695315Y-6930815D01*
X15695315Y-6987384D01*
X15751884Y-6987384D01*
X15751884Y-7241384D02*
X15751884Y-7184815D01*
X15695315Y-7184815D01*
X15695315Y-7241384D01*
X15751884Y-7241384D01*
X15751884Y-7495384D02*
X15751884Y-7438815D01*
X15695315Y-7438815D01*
X15695315Y-7495384D01*
X15751884Y-7495384D01*
X15751884Y-7749384D02*
X15751884Y-7692815D01*
X15695315Y-7692815D01*
X15695315Y-7749384D01*
X15751884Y-7749384D01*
X15751884Y-8003384D02*
X15751884Y-7946815D01*
X15695315Y-7946815D01*
X15695315Y-8003384D01*
X15751884Y-8003384D01*
X15751884Y-8257384D02*
X15751884Y-8200815D01*
X15695315Y-8200815D01*
X15695315Y-8257384D01*
X15751884Y-8257384D01*
X15751884Y-8511385D02*
X15751884Y-8454816D01*
X15695315Y-8454816D01*
X15695315Y-8511385D01*
X15751884Y-8511385D01*
D16*
X8440500Y-7401200D02*
X8485500Y-7356200D01*
X8440500Y-7311200D01*
X8395500Y-7356200D01*
X8440500Y-7401200D01*
X8440500Y-7611200D02*
X8485500Y-7566200D01*
X8440500Y-7521200D01*
X8395500Y-7566200D01*
X8440500Y-7611200D01*
X8440500Y-7871200D02*
X8485500Y-7826200D01*
X8440500Y-7781200D01*
X8395500Y-7826200D01*
X8440500Y-7871200D01*
X8440500Y-8081200D02*
X8485500Y-8036200D01*
X8440500Y-7991200D01*
X8395500Y-8036200D01*
X8440500Y-8081200D01*
X8703000Y-7401200D02*
X8748000Y-7356200D01*
X8703000Y-7311200D01*
X8658000Y-7356200D01*
X8703000Y-7401200D01*
X8703000Y-8081200D02*
X8748000Y-8036200D01*
X8703000Y-7991200D01*
X8658000Y-8036200D01*
X8703000Y-8081200D01*
D10*
X8408700Y-8636800D02*
X8508700Y-8736800D01*
X8508700Y-8636800D02*
X8408700Y-8736800D01*
X8508700Y-8686800D02*
G75*
G03*
X8508700Y-8686800I-50000J0D01*
G01*
X8662700Y-8636800D02*
X8762700Y-8736800D01*
X8762700Y-8636800D02*
X8662700Y-8736800D01*
X8762700Y-8686800D02*
G75*
G03*
X8762700Y-8686800I-50000J0D01*
G01*
X10313200Y-6198400D02*
X10413200Y-6298400D01*
X10413200Y-6198400D02*
X10313200Y-6298400D01*
X10413200Y-6248400D02*
G75*
G03*
X10413200Y-6248400I-50000J0D01*
G01*
X10567200Y-6198400D02*
X10667200Y-6298400D01*
X10667200Y-6198400D02*
X10567200Y-6298400D01*
X10667200Y-6248400D02*
G75*
G03*
X10667200Y-6248400I-50000J0D01*
G01*
X10821200Y-6198400D02*
X10921200Y-6298400D01*
X10921200Y-6198400D02*
X10821200Y-6298400D01*
X10921200Y-6248400D02*
G75*
G03*
X10921200Y-6248400I-50000J0D01*
G01*
X11075200Y-6198400D02*
X11175200Y-6298400D01*
X11175200Y-6198400D02*
X11075200Y-6298400D01*
X11175200Y-6248400D02*
G75*
G03*
X11175200Y-6248400I-50000J0D01*
G01*
X11329200Y-6198400D02*
X11429200Y-6298400D01*
X11429200Y-6198400D02*
X11329200Y-6298400D01*
X11429200Y-6248400D02*
G75*
G03*
X11429200Y-6248400I-50000J0D01*
G01*
X11583200Y-6198400D02*
X11683200Y-6298400D01*
X11683200Y-6198400D02*
X11583200Y-6298400D01*
X11683200Y-6248400D02*
G75*
G03*
X11683200Y-6248400I-50000J0D01*
G01*
X11837200Y-6198400D02*
X11937200Y-6298400D01*
X11937200Y-6198400D02*
X11837200Y-6298400D01*
X11937200Y-6248400D02*
G75*
G03*
X11937200Y-6248400I-50000J0D01*
G01*
X12091200Y-6198400D02*
X12191200Y-6298400D01*
X12191200Y-6198400D02*
X12091200Y-6298400D01*
X12191200Y-6248400D02*
G75*
G03*
X12191200Y-6248400I-50000J0D01*
G01*
X12345200Y-6198400D02*
X12445200Y-6298400D01*
X12445200Y-6198400D02*
X12345200Y-6298400D01*
X12445200Y-6248400D02*
G75*
G03*
X12445200Y-6248400I-50000J0D01*
G01*
X12599200Y-6198400D02*
X12699200Y-6298400D01*
X12699200Y-6198400D02*
X12599200Y-6298400D01*
X12699200Y-6248400D02*
G75*
G03*
X12699200Y-6248400I-50000J0D01*
G01*
X12853200Y-6198400D02*
X12953200Y-6298400D01*
X12953200Y-6198400D02*
X12853200Y-6298400D01*
X12953200Y-6248400D02*
G75*
G03*
X12953200Y-6248400I-50000J0D01*
G01*
X13107200Y-6198400D02*
X13207200Y-6298400D01*
X13207200Y-6198400D02*
X13107200Y-6298400D01*
X13207200Y-6248400D02*
G75*
G03*
X13207200Y-6248400I-50000J0D01*
G01*
X13361200Y-6198400D02*
X13461200Y-6298400D01*
X13461200Y-6198400D02*
X13361200Y-6298400D01*
X13461200Y-6248400D02*
G75*
G03*
X13461200Y-6248400I-50000J0D01*
G01*
X13615200Y-6198400D02*
X13715200Y-6298400D01*
X13715200Y-6198400D02*
X13615200Y-6298400D01*
X13715200Y-6248400D02*
G75*
G03*
X13715200Y-6248400I-50000J0D01*
G01*
D17*
X9139800Y-6193400D02*
X9249800Y-6303400D01*
X9249800Y-6193400D02*
X9139800Y-6303400D01*
X9194800Y-6193400D02*
X9194800Y-6303400D01*
X9139800Y-6248400D02*
X9249800Y-6248400D01*
X9139800Y-6549000D02*
X9249800Y-6659000D01*
X9249800Y-6549000D02*
X9139800Y-6659000D01*
X9194800Y-6549000D02*
X9194800Y-6659000D01*
X9139800Y-6604000D02*
X9249800Y-6604000D01*
X9139800Y-6904600D02*
X9249800Y-7014600D01*
X9249800Y-6904600D02*
X9139800Y-7014600D01*
X9194800Y-6904600D02*
X9194800Y-7014600D01*
X9139800Y-6959600D02*
X9249800Y-6959600D01*
X9901800Y-6193400D02*
X10011800Y-6303400D01*
X10011800Y-6193400D02*
X9901800Y-6303400D01*
X9956800Y-6193400D02*
X9956800Y-6303400D01*
X9901800Y-6248400D02*
X10011800Y-6248400D01*
X9901800Y-6549000D02*
X10011800Y-6659000D01*
X10011800Y-6549000D02*
X9901800Y-6659000D01*
X9956800Y-6549000D02*
X9956800Y-6659000D01*
X9901800Y-6604000D02*
X10011800Y-6604000D01*
X9901800Y-6904600D02*
X10011800Y-7014600D01*
X10011800Y-6904600D02*
X9901800Y-7014600D01*
X9956800Y-6904600D02*
X9956800Y-7014600D01*
X9901800Y-6959600D02*
X10011800Y-6959600D01*
D18*
X14753600Y-6320800D02*
X14913600Y-6480800D01*
X14913600Y-6320800D02*
X14753600Y-6480800D01*
X14890169Y-6457369D02*
X14890169Y-6344231D01*
X14777031Y-6344231D01*
X14777031Y-6457369D01*
X14890169Y-6457369D01*
D19*
X7841000Y-6266200D02*
X8161000Y-6586200D01*
X8161000Y-6266200D02*
X7841000Y-6586200D01*
X8001000Y-6586200D02*
X8161000Y-6426200D01*
X8001000Y-6266200D01*
X7841000Y-6426200D01*
X8001000Y-6586200D01*
X7841000Y-8831600D02*
X8161000Y-9151600D01*
X8161000Y-8831600D02*
X7841000Y-9151600D01*
X8001000Y-9151600D02*
X8161000Y-8991600D01*
X8001000Y-8831600D01*
X7841000Y-8991600D01*
X8001000Y-9151600D01*
X15308600Y-6266200D02*
X15628600Y-6586200D01*
X15628600Y-6266200D02*
X15308600Y-6586200D01*
X15468600Y-6586200D02*
X15628600Y-6426200D01*
X15468600Y-6266200D01*
X15308600Y-6426200D01*
X15468600Y-6586200D01*
X15308600Y-8831600D02*
X15628600Y-9151600D01*
X15628600Y-8831600D02*
X15308600Y-9151600D01*
X15468600Y-9151600D02*
X15628600Y-8991600D01*
X15468600Y-8831600D01*
X15308600Y-8991600D01*
X15468600Y-9151600D01*
D11*
X7824977Y-9739884D02*
X7824977Y-9539884D01*
X7824977Y-9539884D02*
X7872596Y-9539884D01*
X7872596Y-9539884D02*
X7901167Y-9549408D01*
X7901167Y-9549408D02*
X7920215Y-9568455D01*
X7920215Y-9568455D02*
X7929739Y-9587503D01*
X7929739Y-9587503D02*
X7939262Y-9625598D01*
X7939262Y-9625598D02*
X7939262Y-9654170D01*
X7939262Y-9654170D02*
X7929739Y-9692265D01*
X7929739Y-9692265D02*
X7920215Y-9711312D01*
X7920215Y-9711312D02*
X7901167Y-9730360D01*
X7901167Y-9730360D02*
X7872596Y-9739884D01*
X7872596Y-9739884D02*
X7824977Y-9739884D01*
X8024977Y-9739884D02*
X8024977Y-9606550D01*
X8024977Y-9644646D02*
X8034501Y-9625598D01*
X8034501Y-9625598D02*
X8044024Y-9616074D01*
X8044024Y-9616074D02*
X8063072Y-9606550D01*
X8063072Y-9606550D02*
X8082120Y-9606550D01*
X8148786Y-9739884D02*
X8148786Y-9606550D01*
X8148786Y-9539884D02*
X8139262Y-9549408D01*
X8139262Y-9549408D02*
X8148786Y-9558931D01*
X8148786Y-9558931D02*
X8158310Y-9549408D01*
X8158310Y-9549408D02*
X8148786Y-9539884D01*
X8148786Y-9539884D02*
X8148786Y-9558931D01*
X8272596Y-9739884D02*
X8253548Y-9730360D01*
X8253548Y-9730360D02*
X8244024Y-9711312D01*
X8244024Y-9711312D02*
X8244024Y-9539884D01*
X8377358Y-9739884D02*
X8358310Y-9730360D01*
X8358310Y-9730360D02*
X8348786Y-9711312D01*
X8348786Y-9711312D02*
X8348786Y-9539884D01*
X8605929Y-9739884D02*
X8605929Y-9539884D01*
X8605929Y-9539884D02*
X8672596Y-9682741D01*
X8672596Y-9682741D02*
X8739263Y-9539884D01*
X8739263Y-9539884D02*
X8739263Y-9739884D01*
X8920215Y-9739884D02*
X8920215Y-9635122D01*
X8920215Y-9635122D02*
X8910691Y-9616074D01*
X8910691Y-9616074D02*
X8891644Y-9606550D01*
X8891644Y-9606550D02*
X8853548Y-9606550D01*
X8853548Y-9606550D02*
X8834501Y-9616074D01*
X8920215Y-9730360D02*
X8901167Y-9739884D01*
X8901167Y-9739884D02*
X8853548Y-9739884D01*
X8853548Y-9739884D02*
X8834501Y-9730360D01*
X8834501Y-9730360D02*
X8824977Y-9711312D01*
X8824977Y-9711312D02*
X8824977Y-9692265D01*
X8824977Y-9692265D02*
X8834501Y-9673217D01*
X8834501Y-9673217D02*
X8853548Y-9663693D01*
X8853548Y-9663693D02*
X8901167Y-9663693D01*
X8901167Y-9663693D02*
X8920215Y-9654170D01*
X9015453Y-9606550D02*
X9015453Y-9806550D01*
X9015453Y-9616074D02*
X9034501Y-9606550D01*
X9034501Y-9606550D02*
X9072596Y-9606550D01*
X9072596Y-9606550D02*
X9091644Y-9616074D01*
X9091644Y-9616074D02*
X9101167Y-9625598D01*
X9101167Y-9625598D02*
X9110691Y-9644646D01*
X9110691Y-9644646D02*
X9110691Y-9701789D01*
X9110691Y-9701789D02*
X9101167Y-9720836D01*
X9101167Y-9720836D02*
X9091644Y-9730360D01*
X9091644Y-9730360D02*
X9072596Y-9739884D01*
X9072596Y-9739884D02*
X9034501Y-9739884D01*
X9034501Y-9739884D02*
X9015453Y-9730360D01*
X9196405Y-9720836D02*
X9205929Y-9730360D01*
X9205929Y-9730360D02*
X9196405Y-9739884D01*
X9196405Y-9739884D02*
X9186882Y-9730360D01*
X9186882Y-9730360D02*
X9196405Y-9720836D01*
X9196405Y-9720836D02*
X9196405Y-9739884D01*
X9196405Y-9616074D02*
X9205929Y-9625598D01*
X9205929Y-9625598D02*
X9196405Y-9635122D01*
X9196405Y-9635122D02*
X9186882Y-9625598D01*
X9186882Y-9625598D02*
X9196405Y-9616074D01*
X9196405Y-9616074D02*
X9196405Y-9635122D01*
D12*
X7534200Y-10053400D02*
X7564200Y-10083400D01*
X7564200Y-10053400D02*
X7534200Y-10083400D01*
D11*
X7863072Y-9959884D02*
X7882120Y-9959884D01*
X7882120Y-9959884D02*
X7901167Y-9969408D01*
X7901167Y-9969408D02*
X7910691Y-9978931D01*
X7910691Y-9978931D02*
X7920215Y-9997979D01*
X7920215Y-9997979D02*
X7929739Y-10036074D01*
X7929739Y-10036074D02*
X7929739Y-10083693D01*
X7929739Y-10083693D02*
X7920215Y-10121789D01*
X7920215Y-10121789D02*
X7910691Y-10140836D01*
X7910691Y-10140836D02*
X7901167Y-10150360D01*
X7901167Y-10150360D02*
X7882120Y-10159884D01*
X7882120Y-10159884D02*
X7863072Y-10159884D01*
X7863072Y-10159884D02*
X7844024Y-10150360D01*
X7844024Y-10150360D02*
X7834501Y-10140836D01*
X7834501Y-10140836D02*
X7824977Y-10121789D01*
X7824977Y-10121789D02*
X7815453Y-10083693D01*
X7815453Y-10083693D02*
X7815453Y-10036074D01*
X7815453Y-10036074D02*
X7824977Y-9997979D01*
X7824977Y-9997979D02*
X7834501Y-9978931D01*
X7834501Y-9978931D02*
X7844024Y-9969408D01*
X7844024Y-9969408D02*
X7863072Y-9959884D01*
X8015453Y-10140836D02*
X8024977Y-10150360D01*
X8024977Y-10150360D02*
X8015453Y-10159884D01*
X8015453Y-10159884D02*
X8005929Y-10150360D01*
X8005929Y-10150360D02*
X8015453Y-10140836D01*
X8015453Y-10140836D02*
X8015453Y-10159884D01*
X8091643Y-9959884D02*
X8215453Y-9959884D01*
X8215453Y-9959884D02*
X8148786Y-10036074D01*
X8148786Y-10036074D02*
X8177358Y-10036074D01*
X8177358Y-10036074D02*
X8196405Y-10045598D01*
X8196405Y-10045598D02*
X8205929Y-10055122D01*
X8205929Y-10055122D02*
X8215453Y-10074170D01*
X8215453Y-10074170D02*
X8215453Y-10121789D01*
X8215453Y-10121789D02*
X8205929Y-10140836D01*
X8205929Y-10140836D02*
X8196405Y-10150360D01*
X8196405Y-10150360D02*
X8177358Y-10159884D01*
X8177358Y-10159884D02*
X8120215Y-10159884D01*
X8120215Y-10159884D02*
X8101167Y-10150360D01*
X8101167Y-10150360D02*
X8091643Y-10140836D01*
X8339262Y-9959884D02*
X8358310Y-9959884D01*
X8358310Y-9959884D02*
X8377358Y-9969408D01*
X8377358Y-9969408D02*
X8386882Y-9978931D01*
X8386882Y-9978931D02*
X8396405Y-9997979D01*
X8396405Y-9997979D02*
X8405929Y-10036074D01*
X8405929Y-10036074D02*
X8405929Y-10083693D01*
X8405929Y-10083693D02*
X8396405Y-10121789D01*
X8396405Y-10121789D02*
X8386882Y-10140836D01*
X8386882Y-10140836D02*
X8377358Y-10150360D01*
X8377358Y-10150360D02*
X8358310Y-10159884D01*
X8358310Y-10159884D02*
X8339262Y-10159884D01*
X8339262Y-10159884D02*
X8320215Y-10150360D01*
X8320215Y-10150360D02*
X8310691Y-10140836D01*
X8310691Y-10140836D02*
X8301167Y-10121789D01*
X8301167Y-10121789D02*
X8291643Y-10083693D01*
X8291643Y-10083693D02*
X8291643Y-10036074D01*
X8291643Y-10036074D02*
X8301167Y-9997979D01*
X8301167Y-9997979D02*
X8310691Y-9978931D01*
X8310691Y-9978931D02*
X8320215Y-9969408D01*
X8320215Y-9969408D02*
X8339262Y-9959884D01*
X8529739Y-9959884D02*
X8548786Y-9959884D01*
X8548786Y-9959884D02*
X8567834Y-9969408D01*
X8567834Y-9969408D02*
X8577358Y-9978931D01*
X8577358Y-9978931D02*
X8586882Y-9997979D01*
X8586882Y-9997979D02*
X8596405Y-10036074D01*
X8596405Y-10036074D02*
X8596405Y-10083693D01*
X8596405Y-10083693D02*
X8586882Y-10121789D01*
X8586882Y-10121789D02*
X8577358Y-10140836D01*
X8577358Y-10140836D02*
X8567834Y-10150360D01*
X8567834Y-10150360D02*
X8548786Y-10159884D01*
X8548786Y-10159884D02*
X8529739Y-10159884D01*
X8529739Y-10159884D02*
X8510691Y-10150360D01*
X8510691Y-10150360D02*
X8501167Y-10140836D01*
X8501167Y-10140836D02*
X8491644Y-10121789D01*
X8491644Y-10121789D02*
X8482120Y-10083693D01*
X8482120Y-10083693D02*
X8482120Y-10036074D01*
X8482120Y-10036074D02*
X8491644Y-9997979D01*
X8491644Y-9997979D02*
X8501167Y-9978931D01*
X8501167Y-9978931D02*
X8510691Y-9969408D01*
X8510691Y-9969408D02*
X8529739Y-9959884D01*
X8682120Y-10159884D02*
X8682120Y-10026550D01*
X8682120Y-10045598D02*
X8691644Y-10036074D01*
X8691644Y-10036074D02*
X8710691Y-10026550D01*
X8710691Y-10026550D02*
X8739263Y-10026550D01*
X8739263Y-10026550D02*
X8758310Y-10036074D01*
X8758310Y-10036074D02*
X8767834Y-10055122D01*
X8767834Y-10055122D02*
X8767834Y-10159884D01*
X8767834Y-10055122D02*
X8777358Y-10036074D01*
X8777358Y-10036074D02*
X8796405Y-10026550D01*
X8796405Y-10026550D02*
X8824977Y-10026550D01*
X8824977Y-10026550D02*
X8844025Y-10036074D01*
X8844025Y-10036074D02*
X8853548Y-10055122D01*
X8853548Y-10055122D02*
X8853548Y-10159884D01*
X8948786Y-10159884D02*
X8948786Y-10026550D01*
X8948786Y-10045598D02*
X8958310Y-10036074D01*
X8958310Y-10036074D02*
X8977358Y-10026550D01*
X8977358Y-10026550D02*
X9005929Y-10026550D01*
X9005929Y-10026550D02*
X9024977Y-10036074D01*
X9024977Y-10036074D02*
X9034501Y-10055122D01*
X9034501Y-10055122D02*
X9034501Y-10159884D01*
X9034501Y-10055122D02*
X9044025Y-10036074D01*
X9044025Y-10036074D02*
X9063072Y-10026550D01*
X9063072Y-10026550D02*
X9091644Y-10026550D01*
X9091644Y-10026550D02*
X9110691Y-10036074D01*
X9110691Y-10036074D02*
X9120215Y-10055122D01*
X9120215Y-10055122D02*
X9120215Y-10159884D01*
X9510691Y-9950360D02*
X9339263Y-10207503D01*
X9767834Y-9959884D02*
X9786882Y-9959884D01*
X9786882Y-9959884D02*
X9805929Y-9969408D01*
X9805929Y-9969408D02*
X9815453Y-9978931D01*
X9815453Y-9978931D02*
X9824977Y-9997979D01*
X9824977Y-9997979D02*
X9834501Y-10036074D01*
X9834501Y-10036074D02*
X9834501Y-10083693D01*
X9834501Y-10083693D02*
X9824977Y-10121789D01*
X9824977Y-10121789D02*
X9815453Y-10140836D01*
X9815453Y-10140836D02*
X9805929Y-10150360D01*
X9805929Y-10150360D02*
X9786882Y-10159884D01*
X9786882Y-10159884D02*
X9767834Y-10159884D01*
X9767834Y-10159884D02*
X9748787Y-10150360D01*
X9748787Y-10150360D02*
X9739263Y-10140836D01*
X9739263Y-10140836D02*
X9729739Y-10121789D01*
X9729739Y-10121789D02*
X9720215Y-10083693D01*
X9720215Y-10083693D02*
X9720215Y-10036074D01*
X9720215Y-10036074D02*
X9729739Y-9997979D01*
X9729739Y-9997979D02*
X9739263Y-9978931D01*
X9739263Y-9978931D02*
X9748787Y-9969408D01*
X9748787Y-9969408D02*
X9767834Y-9959884D01*
X9920215Y-10140836D02*
X9929739Y-10150360D01*
X9929739Y-10150360D02*
X9920215Y-10159884D01*
X9920215Y-10159884D02*
X9910691Y-10150360D01*
X9910691Y-10150360D02*
X9920215Y-10140836D01*
X9920215Y-10140836D02*
X9920215Y-10159884D01*
X10053548Y-9959884D02*
X10072596Y-9959884D01*
X10072596Y-9959884D02*
X10091644Y-9969408D01*
X10091644Y-9969408D02*
X10101168Y-9978931D01*
X10101168Y-9978931D02*
X10110691Y-9997979D01*
X10110691Y-9997979D02*
X10120215Y-10036074D01*
X10120215Y-10036074D02*
X10120215Y-10083693D01*
X10120215Y-10083693D02*
X10110691Y-10121789D01*
X10110691Y-10121789D02*
X10101168Y-10140836D01*
X10101168Y-10140836D02*
X10091644Y-10150360D01*
X10091644Y-10150360D02*
X10072596Y-10159884D01*
X10072596Y-10159884D02*
X10053548Y-10159884D01*
X10053548Y-10159884D02*
X10034501Y-10150360D01*
X10034501Y-10150360D02*
X10024977Y-10140836D01*
X10024977Y-10140836D02*
X10015453Y-10121789D01*
X10015453Y-10121789D02*
X10005929Y-10083693D01*
X10005929Y-10083693D02*
X10005929Y-10036074D01*
X10005929Y-10036074D02*
X10015453Y-9997979D01*
X10015453Y-9997979D02*
X10024977Y-9978931D01*
X10024977Y-9978931D02*
X10034501Y-9969408D01*
X10034501Y-9969408D02*
X10053548Y-9959884D01*
X10310691Y-10159884D02*
X10196406Y-10159884D01*
X10253548Y-10159884D02*
X10253548Y-9959884D01*
X10253548Y-9959884D02*
X10234501Y-9988455D01*
X10234501Y-9988455D02*
X10215453Y-10007503D01*
X10215453Y-10007503D02*
X10196406Y-10017027D01*
X10501168Y-10159884D02*
X10386882Y-10159884D01*
X10444025Y-10159884D02*
X10444025Y-9959884D01*
X10444025Y-9959884D02*
X10424977Y-9988455D01*
X10424977Y-9988455D02*
X10405929Y-10007503D01*
X10405929Y-10007503D02*
X10386882Y-10017027D01*
X10615453Y-10045598D02*
X10596406Y-10036074D01*
X10596406Y-10036074D02*
X10586882Y-10026550D01*
X10586882Y-10026550D02*
X10577358Y-10007503D01*
X10577358Y-10007503D02*
X10577358Y-9997979D01*
X10577358Y-9997979D02*
X10586882Y-9978931D01*
X10586882Y-9978931D02*
X10596406Y-9969408D01*
X10596406Y-9969408D02*
X10615453Y-9959884D01*
X10615453Y-9959884D02*
X10653549Y-9959884D01*
X10653549Y-9959884D02*
X10672596Y-9969408D01*
X10672596Y-9969408D02*
X10682120Y-9978931D01*
X10682120Y-9978931D02*
X10691644Y-9997979D01*
X10691644Y-9997979D02*
X10691644Y-10007503D01*
X10691644Y-10007503D02*
X10682120Y-10026550D01*
X10682120Y-10026550D02*
X10672596Y-10036074D01*
X10672596Y-10036074D02*
X10653549Y-10045598D01*
X10653549Y-10045598D02*
X10615453Y-10045598D01*
X10615453Y-10045598D02*
X10596406Y-10055122D01*
X10596406Y-10055122D02*
X10586882Y-10064646D01*
X10586882Y-10064646D02*
X10577358Y-10083693D01*
X10577358Y-10083693D02*
X10577358Y-10121789D01*
X10577358Y-10121789D02*
X10586882Y-10140836D01*
X10586882Y-10140836D02*
X10596406Y-10150360D01*
X10596406Y-10150360D02*
X10615453Y-10159884D01*
X10615453Y-10159884D02*
X10653549Y-10159884D01*
X10653549Y-10159884D02*
X10672596Y-10150360D01*
X10672596Y-10150360D02*
X10682120Y-10140836D01*
X10682120Y-10140836D02*
X10691644Y-10121789D01*
X10691644Y-10121789D02*
X10691644Y-10083693D01*
X10691644Y-10083693D02*
X10682120Y-10064646D01*
X10682120Y-10064646D02*
X10672596Y-10055122D01*
X10672596Y-10055122D02*
X10653549Y-10045598D01*
X10767834Y-9959884D02*
X10767834Y-9997979D01*
X10844025Y-9959884D02*
X10844025Y-9997979D01*
X11139263Y-10236074D02*
X11129739Y-10226550D01*
X11129739Y-10226550D02*
X11110691Y-10197979D01*
X11110691Y-10197979D02*
X11101168Y-10178931D01*
X11101168Y-10178931D02*
X11091644Y-10150360D01*
X11091644Y-10150360D02*
X11082120Y-10102741D01*
X11082120Y-10102741D02*
X11082120Y-10064646D01*
X11082120Y-10064646D02*
X11091644Y-10017027D01*
X11091644Y-10017027D02*
X11101168Y-9988455D01*
X11101168Y-9988455D02*
X11110691Y-9969408D01*
X11110691Y-9969408D02*
X11129739Y-9940836D01*
X11129739Y-9940836D02*
X11139263Y-9931312D01*
X11196406Y-9959884D02*
X11320215Y-9959884D01*
X11320215Y-9959884D02*
X11253548Y-10036074D01*
X11253548Y-10036074D02*
X11282120Y-10036074D01*
X11282120Y-10036074D02*
X11301168Y-10045598D01*
X11301168Y-10045598D02*
X11310691Y-10055122D01*
X11310691Y-10055122D02*
X11320215Y-10074170D01*
X11320215Y-10074170D02*
X11320215Y-10121789D01*
X11320215Y-10121789D02*
X11310691Y-10140836D01*
X11310691Y-10140836D02*
X11301168Y-10150360D01*
X11301168Y-10150360D02*
X11282120Y-10159884D01*
X11282120Y-10159884D02*
X11224977Y-10159884D01*
X11224977Y-10159884D02*
X11205929Y-10150360D01*
X11205929Y-10150360D02*
X11196406Y-10140836D01*
X11558310Y-10159884D02*
X11558310Y-9959884D01*
X11644025Y-10159884D02*
X11644025Y-10055122D01*
X11644025Y-10055122D02*
X11634501Y-10036074D01*
X11634501Y-10036074D02*
X11615453Y-10026550D01*
X11615453Y-10026550D02*
X11586882Y-10026550D01*
X11586882Y-10026550D02*
X11567834Y-10036074D01*
X11567834Y-10036074D02*
X11558310Y-10045598D01*
X11767834Y-10159884D02*
X11748787Y-10150360D01*
X11748787Y-10150360D02*
X11739263Y-10140836D01*
X11739263Y-10140836D02*
X11729739Y-10121789D01*
X11729739Y-10121789D02*
X11729739Y-10064646D01*
X11729739Y-10064646D02*
X11739263Y-10045598D01*
X11739263Y-10045598D02*
X11748787Y-10036074D01*
X11748787Y-10036074D02*
X11767834Y-10026550D01*
X11767834Y-10026550D02*
X11796406Y-10026550D01*
X11796406Y-10026550D02*
X11815453Y-10036074D01*
X11815453Y-10036074D02*
X11824977Y-10045598D01*
X11824977Y-10045598D02*
X11834501Y-10064646D01*
X11834501Y-10064646D02*
X11834501Y-10121789D01*
X11834501Y-10121789D02*
X11824977Y-10140836D01*
X11824977Y-10140836D02*
X11815453Y-10150360D01*
X11815453Y-10150360D02*
X11796406Y-10159884D01*
X11796406Y-10159884D02*
X11767834Y-10159884D01*
X11948787Y-10159884D02*
X11929739Y-10150360D01*
X11929739Y-10150360D02*
X11920215Y-10131312D01*
X11920215Y-10131312D02*
X11920215Y-9959884D01*
X12101168Y-10150360D02*
X12082120Y-10159884D01*
X12082120Y-10159884D02*
X12044025Y-10159884D01*
X12044025Y-10159884D02*
X12024977Y-10150360D01*
X12024977Y-10150360D02*
X12015453Y-10131312D01*
X12015453Y-10131312D02*
X12015453Y-10055122D01*
X12015453Y-10055122D02*
X12024977Y-10036074D01*
X12024977Y-10036074D02*
X12044025Y-10026550D01*
X12044025Y-10026550D02*
X12082120Y-10026550D01*
X12082120Y-10026550D02*
X12101168Y-10036074D01*
X12101168Y-10036074D02*
X12110691Y-10055122D01*
X12110691Y-10055122D02*
X12110691Y-10074170D01*
X12110691Y-10074170D02*
X12015453Y-10093217D01*
X12186882Y-10150360D02*
X12205930Y-10159884D01*
X12205930Y-10159884D02*
X12244025Y-10159884D01*
X12244025Y-10159884D02*
X12263072Y-10150360D01*
X12263072Y-10150360D02*
X12272596Y-10131312D01*
X12272596Y-10131312D02*
X12272596Y-10121789D01*
X12272596Y-10121789D02*
X12263072Y-10102741D01*
X12263072Y-10102741D02*
X12244025Y-10093217D01*
X12244025Y-10093217D02*
X12215453Y-10093217D01*
X12215453Y-10093217D02*
X12196406Y-10083693D01*
X12196406Y-10083693D02*
X12186882Y-10064646D01*
X12186882Y-10064646D02*
X12186882Y-10055122D01*
X12186882Y-10055122D02*
X12196406Y-10036074D01*
X12196406Y-10036074D02*
X12215453Y-10026550D01*
X12215453Y-10026550D02*
X12244025Y-10026550D01*
X12244025Y-10026550D02*
X12263072Y-10036074D01*
X12339263Y-10236074D02*
X12348787Y-10226550D01*
X12348787Y-10226550D02*
X12367834Y-10197979D01*
X12367834Y-10197979D02*
X12377358Y-10178931D01*
X12377358Y-10178931D02*
X12386882Y-10150360D01*
X12386882Y-10150360D02*
X12396406Y-10102741D01*
X12396406Y-10102741D02*
X12396406Y-10064646D01*
X12396406Y-10064646D02*
X12386882Y-10017027D01*
X12386882Y-10017027D02*
X12377358Y-9988455D01*
X12377358Y-9988455D02*
X12367834Y-9969408D01*
X12367834Y-9969408D02*
X12348787Y-9940836D01*
X12348787Y-9940836D02*
X12339263Y-9931312D01*
D13*
X7564200Y-10332400D02*
G75*
G03*
X7564200Y-10332400I-25000J0D01*
G01*
D11*
X7863072Y-10223884D02*
X7882120Y-10223884D01*
X7882120Y-10223884D02*
X7901167Y-10233408D01*
X7901167Y-10233408D02*
X7910691Y-10242931D01*
X7910691Y-10242931D02*
X7920215Y-10261979D01*
X7920215Y-10261979D02*
X7929739Y-10300074D01*
X7929739Y-10300074D02*
X7929739Y-10347693D01*
X7929739Y-10347693D02*
X7920215Y-10385789D01*
X7920215Y-10385789D02*
X7910691Y-10404836D01*
X7910691Y-10404836D02*
X7901167Y-10414360D01*
X7901167Y-10414360D02*
X7882120Y-10423884D01*
X7882120Y-10423884D02*
X7863072Y-10423884D01*
X7863072Y-10423884D02*
X7844024Y-10414360D01*
X7844024Y-10414360D02*
X7834501Y-10404836D01*
X7834501Y-10404836D02*
X7824977Y-10385789D01*
X7824977Y-10385789D02*
X7815453Y-10347693D01*
X7815453Y-10347693D02*
X7815453Y-10300074D01*
X7815453Y-10300074D02*
X7824977Y-10261979D01*
X7824977Y-10261979D02*
X7834501Y-10242931D01*
X7834501Y-10242931D02*
X7844024Y-10233408D01*
X7844024Y-10233408D02*
X7863072Y-10223884D01*
X8015453Y-10404836D02*
X8024977Y-10414360D01*
X8024977Y-10414360D02*
X8015453Y-10423884D01*
X8015453Y-10423884D02*
X8005929Y-10414360D01*
X8005929Y-10414360D02*
X8015453Y-10404836D01*
X8015453Y-10404836D02*
X8015453Y-10423884D01*
X8205929Y-10223884D02*
X8110691Y-10223884D01*
X8110691Y-10223884D02*
X8101167Y-10319122D01*
X8101167Y-10319122D02*
X8110691Y-10309598D01*
X8110691Y-10309598D02*
X8129739Y-10300074D01*
X8129739Y-10300074D02*
X8177358Y-10300074D01*
X8177358Y-10300074D02*
X8196405Y-10309598D01*
X8196405Y-10309598D02*
X8205929Y-10319122D01*
X8205929Y-10319122D02*
X8215453Y-10338170D01*
X8215453Y-10338170D02*
X8215453Y-10385789D01*
X8215453Y-10385789D02*
X8205929Y-10404836D01*
X8205929Y-10404836D02*
X8196405Y-10414360D01*
X8196405Y-10414360D02*
X8177358Y-10423884D01*
X8177358Y-10423884D02*
X8129739Y-10423884D01*
X8129739Y-10423884D02*
X8110691Y-10414360D01*
X8110691Y-10414360D02*
X8101167Y-10404836D01*
X8339262Y-10223884D02*
X8358310Y-10223884D01*
X8358310Y-10223884D02*
X8377358Y-10233408D01*
X8377358Y-10233408D02*
X8386882Y-10242931D01*
X8386882Y-10242931D02*
X8396405Y-10261979D01*
X8396405Y-10261979D02*
X8405929Y-10300074D01*
X8405929Y-10300074D02*
X8405929Y-10347693D01*
X8405929Y-10347693D02*
X8396405Y-10385789D01*
X8396405Y-10385789D02*
X8386882Y-10404836D01*
X8386882Y-10404836D02*
X8377358Y-10414360D01*
X8377358Y-10414360D02*
X8358310Y-10423884D01*
X8358310Y-10423884D02*
X8339262Y-10423884D01*
X8339262Y-10423884D02*
X8320215Y-10414360D01*
X8320215Y-10414360D02*
X8310691Y-10404836D01*
X8310691Y-10404836D02*
X8301167Y-10385789D01*
X8301167Y-10385789D02*
X8291643Y-10347693D01*
X8291643Y-10347693D02*
X8291643Y-10300074D01*
X8291643Y-10300074D02*
X8301167Y-10261979D01*
X8301167Y-10261979D02*
X8310691Y-10242931D01*
X8310691Y-10242931D02*
X8320215Y-10233408D01*
X8320215Y-10233408D02*
X8339262Y-10223884D01*
X8529739Y-10223884D02*
X8548786Y-10223884D01*
X8548786Y-10223884D02*
X8567834Y-10233408D01*
X8567834Y-10233408D02*
X8577358Y-10242931D01*
X8577358Y-10242931D02*
X8586882Y-10261979D01*
X8586882Y-10261979D02*
X8596405Y-10300074D01*
X8596405Y-10300074D02*
X8596405Y-10347693D01*
X8596405Y-10347693D02*
X8586882Y-10385789D01*
X8586882Y-10385789D02*
X8577358Y-10404836D01*
X8577358Y-10404836D02*
X8567834Y-10414360D01*
X8567834Y-10414360D02*
X8548786Y-10423884D01*
X8548786Y-10423884D02*
X8529739Y-10423884D01*
X8529739Y-10423884D02*
X8510691Y-10414360D01*
X8510691Y-10414360D02*
X8501167Y-10404836D01*
X8501167Y-10404836D02*
X8491644Y-10385789D01*
X8491644Y-10385789D02*
X8482120Y-10347693D01*
X8482120Y-10347693D02*
X8482120Y-10300074D01*
X8482120Y-10300074D02*
X8491644Y-10261979D01*
X8491644Y-10261979D02*
X8501167Y-10242931D01*
X8501167Y-10242931D02*
X8510691Y-10233408D01*
X8510691Y-10233408D02*
X8529739Y-10223884D01*
X8682120Y-10423884D02*
X8682120Y-10290550D01*
X8682120Y-10309598D02*
X8691644Y-10300074D01*
X8691644Y-10300074D02*
X8710691Y-10290550D01*
X8710691Y-10290550D02*
X8739263Y-10290550D01*
X8739263Y-10290550D02*
X8758310Y-10300074D01*
X8758310Y-10300074D02*
X8767834Y-10319122D01*
X8767834Y-10319122D02*
X8767834Y-10423884D01*
X8767834Y-10319122D02*
X8777358Y-10300074D01*
X8777358Y-10300074D02*
X8796405Y-10290550D01*
X8796405Y-10290550D02*
X8824977Y-10290550D01*
X8824977Y-10290550D02*
X8844025Y-10300074D01*
X8844025Y-10300074D02*
X8853548Y-10319122D01*
X8853548Y-10319122D02*
X8853548Y-10423884D01*
X8948786Y-10423884D02*
X8948786Y-10290550D01*
X8948786Y-10309598D02*
X8958310Y-10300074D01*
X8958310Y-10300074D02*
X8977358Y-10290550D01*
X8977358Y-10290550D02*
X9005929Y-10290550D01*
X9005929Y-10290550D02*
X9024977Y-10300074D01*
X9024977Y-10300074D02*
X9034501Y-10319122D01*
X9034501Y-10319122D02*
X9034501Y-10423884D01*
X9034501Y-10319122D02*
X9044025Y-10300074D01*
X9044025Y-10300074D02*
X9063072Y-10290550D01*
X9063072Y-10290550D02*
X9091644Y-10290550D01*
X9091644Y-10290550D02*
X9110691Y-10300074D01*
X9110691Y-10300074D02*
X9120215Y-10319122D01*
X9120215Y-10319122D02*
X9120215Y-10423884D01*
X9510691Y-10214360D02*
X9339263Y-10471503D01*
X9767834Y-10223884D02*
X9786882Y-10223884D01*
X9786882Y-10223884D02*
X9805929Y-10233408D01*
X9805929Y-10233408D02*
X9815453Y-10242931D01*
X9815453Y-10242931D02*
X9824977Y-10261979D01*
X9824977Y-10261979D02*
X9834501Y-10300074D01*
X9834501Y-10300074D02*
X9834501Y-10347693D01*
X9834501Y-10347693D02*
X9824977Y-10385789D01*
X9824977Y-10385789D02*
X9815453Y-10404836D01*
X9815453Y-10404836D02*
X9805929Y-10414360D01*
X9805929Y-10414360D02*
X9786882Y-10423884D01*
X9786882Y-10423884D02*
X9767834Y-10423884D01*
X9767834Y-10423884D02*
X9748787Y-10414360D01*
X9748787Y-10414360D02*
X9739263Y-10404836D01*
X9739263Y-10404836D02*
X9729739Y-10385789D01*
X9729739Y-10385789D02*
X9720215Y-10347693D01*
X9720215Y-10347693D02*
X9720215Y-10300074D01*
X9720215Y-10300074D02*
X9729739Y-10261979D01*
X9729739Y-10261979D02*
X9739263Y-10242931D01*
X9739263Y-10242931D02*
X9748787Y-10233408D01*
X9748787Y-10233408D02*
X9767834Y-10223884D01*
X9920215Y-10404836D02*
X9929739Y-10414360D01*
X9929739Y-10414360D02*
X9920215Y-10423884D01*
X9920215Y-10423884D02*
X9910691Y-10414360D01*
X9910691Y-10414360D02*
X9920215Y-10404836D01*
X9920215Y-10404836D02*
X9920215Y-10423884D01*
X10053548Y-10223884D02*
X10072596Y-10223884D01*
X10072596Y-10223884D02*
X10091644Y-10233408D01*
X10091644Y-10233408D02*
X10101168Y-10242931D01*
X10101168Y-10242931D02*
X10110691Y-10261979D01*
X10110691Y-10261979D02*
X10120215Y-10300074D01*
X10120215Y-10300074D02*
X10120215Y-10347693D01*
X10120215Y-10347693D02*
X10110691Y-10385789D01*
X10110691Y-10385789D02*
X10101168Y-10404836D01*
X10101168Y-10404836D02*
X10091644Y-10414360D01*
X10091644Y-10414360D02*
X10072596Y-10423884D01*
X10072596Y-10423884D02*
X10053548Y-10423884D01*
X10053548Y-10423884D02*
X10034501Y-10414360D01*
X10034501Y-10414360D02*
X10024977Y-10404836D01*
X10024977Y-10404836D02*
X10015453Y-10385789D01*
X10015453Y-10385789D02*
X10005929Y-10347693D01*
X10005929Y-10347693D02*
X10005929Y-10300074D01*
X10005929Y-10300074D02*
X10015453Y-10261979D01*
X10015453Y-10261979D02*
X10024977Y-10242931D01*
X10024977Y-10242931D02*
X10034501Y-10233408D01*
X10034501Y-10233408D02*
X10053548Y-10223884D01*
X10310691Y-10423884D02*
X10196406Y-10423884D01*
X10253548Y-10423884D02*
X10253548Y-10223884D01*
X10253548Y-10223884D02*
X10234501Y-10252455D01*
X10234501Y-10252455D02*
X10215453Y-10271503D01*
X10215453Y-10271503D02*
X10196406Y-10281027D01*
X10405929Y-10423884D02*
X10444025Y-10423884D01*
X10444025Y-10423884D02*
X10463072Y-10414360D01*
X10463072Y-10414360D02*
X10472596Y-10404836D01*
X10472596Y-10404836D02*
X10491644Y-10376265D01*
X10491644Y-10376265D02*
X10501168Y-10338170D01*
X10501168Y-10338170D02*
X10501168Y-10261979D01*
X10501168Y-10261979D02*
X10491644Y-10242931D01*
X10491644Y-10242931D02*
X10482120Y-10233408D01*
X10482120Y-10233408D02*
X10463072Y-10223884D01*
X10463072Y-10223884D02*
X10424977Y-10223884D01*
X10424977Y-10223884D02*
X10405929Y-10233408D01*
X10405929Y-10233408D02*
X10396406Y-10242931D01*
X10396406Y-10242931D02*
X10386882Y-10261979D01*
X10386882Y-10261979D02*
X10386882Y-10309598D01*
X10386882Y-10309598D02*
X10396406Y-10328646D01*
X10396406Y-10328646D02*
X10405929Y-10338170D01*
X10405929Y-10338170D02*
X10424977Y-10347693D01*
X10424977Y-10347693D02*
X10463072Y-10347693D01*
X10463072Y-10347693D02*
X10482120Y-10338170D01*
X10482120Y-10338170D02*
X10491644Y-10328646D01*
X10491644Y-10328646D02*
X10501168Y-10309598D01*
X10567834Y-10223884D02*
X10701168Y-10223884D01*
X10701168Y-10223884D02*
X10615453Y-10423884D01*
X10767834Y-10223884D02*
X10767834Y-10261979D01*
X10844025Y-10223884D02*
X10844025Y-10261979D01*
X11139263Y-10500074D02*
X11129739Y-10490550D01*
X11129739Y-10490550D02*
X11110691Y-10461979D01*
X11110691Y-10461979D02*
X11101168Y-10442931D01*
X11101168Y-10442931D02*
X11091644Y-10414360D01*
X11091644Y-10414360D02*
X11082120Y-10366741D01*
X11082120Y-10366741D02*
X11082120Y-10328646D01*
X11082120Y-10328646D02*
X11091644Y-10281027D01*
X11091644Y-10281027D02*
X11101168Y-10252455D01*
X11101168Y-10252455D02*
X11110691Y-10233408D01*
X11110691Y-10233408D02*
X11129739Y-10204836D01*
X11129739Y-10204836D02*
X11139263Y-10195312D01*
X11253548Y-10223884D02*
X11272596Y-10223884D01*
X11272596Y-10223884D02*
X11291644Y-10233408D01*
X11291644Y-10233408D02*
X11301168Y-10242931D01*
X11301168Y-10242931D02*
X11310691Y-10261979D01*
X11310691Y-10261979D02*
X11320215Y-10300074D01*
X11320215Y-10300074D02*
X11320215Y-10347693D01*
X11320215Y-10347693D02*
X11310691Y-10385789D01*
X11310691Y-10385789D02*
X11301168Y-10404836D01*
X11301168Y-10404836D02*
X11291644Y-10414360D01*
X11291644Y-10414360D02*
X11272596Y-10423884D01*
X11272596Y-10423884D02*
X11253548Y-10423884D01*
X11253548Y-10423884D02*
X11234501Y-10414360D01*
X11234501Y-10414360D02*
X11224977Y-10404836D01*
X11224977Y-10404836D02*
X11215453Y-10385789D01*
X11215453Y-10385789D02*
X11205929Y-10347693D01*
X11205929Y-10347693D02*
X11205929Y-10300074D01*
X11205929Y-10300074D02*
X11215453Y-10261979D01*
X11215453Y-10261979D02*
X11224977Y-10242931D01*
X11224977Y-10242931D02*
X11234501Y-10233408D01*
X11234501Y-10233408D02*
X11253548Y-10223884D01*
X11558310Y-10423884D02*
X11558310Y-10223884D01*
X11644025Y-10423884D02*
X11644025Y-10319122D01*
X11644025Y-10319122D02*
X11634501Y-10300074D01*
X11634501Y-10300074D02*
X11615453Y-10290550D01*
X11615453Y-10290550D02*
X11586882Y-10290550D01*
X11586882Y-10290550D02*
X11567834Y-10300074D01*
X11567834Y-10300074D02*
X11558310Y-10309598D01*
X11767834Y-10423884D02*
X11748787Y-10414360D01*
X11748787Y-10414360D02*
X11739263Y-10404836D01*
X11739263Y-10404836D02*
X11729739Y-10385789D01*
X11729739Y-10385789D02*
X11729739Y-10328646D01*
X11729739Y-10328646D02*
X11739263Y-10309598D01*
X11739263Y-10309598D02*
X11748787Y-10300074D01*
X11748787Y-10300074D02*
X11767834Y-10290550D01*
X11767834Y-10290550D02*
X11796406Y-10290550D01*
X11796406Y-10290550D02*
X11815453Y-10300074D01*
X11815453Y-10300074D02*
X11824977Y-10309598D01*
X11824977Y-10309598D02*
X11834501Y-10328646D01*
X11834501Y-10328646D02*
X11834501Y-10385789D01*
X11834501Y-10385789D02*
X11824977Y-10404836D01*
X11824977Y-10404836D02*
X11815453Y-10414360D01*
X11815453Y-10414360D02*
X11796406Y-10423884D01*
X11796406Y-10423884D02*
X11767834Y-10423884D01*
X11948787Y-10423884D02*
X11929739Y-10414360D01*
X11929739Y-10414360D02*
X11920215Y-10395312D01*
X11920215Y-10395312D02*
X11920215Y-10223884D01*
X12101168Y-10414360D02*
X12082120Y-10423884D01*
X12082120Y-10423884D02*
X12044025Y-10423884D01*
X12044025Y-10423884D02*
X12024977Y-10414360D01*
X12024977Y-10414360D02*
X12015453Y-10395312D01*
X12015453Y-10395312D02*
X12015453Y-10319122D01*
X12015453Y-10319122D02*
X12024977Y-10300074D01*
X12024977Y-10300074D02*
X12044025Y-10290550D01*
X12044025Y-10290550D02*
X12082120Y-10290550D01*
X12082120Y-10290550D02*
X12101168Y-10300074D01*
X12101168Y-10300074D02*
X12110691Y-10319122D01*
X12110691Y-10319122D02*
X12110691Y-10338170D01*
X12110691Y-10338170D02*
X12015453Y-10357217D01*
X12186882Y-10414360D02*
X12205930Y-10423884D01*
X12205930Y-10423884D02*
X12244025Y-10423884D01*
X12244025Y-10423884D02*
X12263072Y-10414360D01*
X12263072Y-10414360D02*
X12272596Y-10395312D01*
X12272596Y-10395312D02*
X12272596Y-10385789D01*
X12272596Y-10385789D02*
X12263072Y-10366741D01*
X12263072Y-10366741D02*
X12244025Y-10357217D01*
X12244025Y-10357217D02*
X12215453Y-10357217D01*
X12215453Y-10357217D02*
X12196406Y-10347693D01*
X12196406Y-10347693D02*
X12186882Y-10328646D01*
X12186882Y-10328646D02*
X12186882Y-10319122D01*
X12186882Y-10319122D02*
X12196406Y-10300074D01*
X12196406Y-10300074D02*
X12215453Y-10290550D01*
X12215453Y-10290550D02*
X12244025Y-10290550D01*
X12244025Y-10290550D02*
X12263072Y-10300074D01*
X12510692Y-10347693D02*
X12663073Y-10347693D01*
X12586882Y-10423884D02*
X12586882Y-10271503D01*
X12891644Y-10223884D02*
X13015453Y-10223884D01*
X13015453Y-10223884D02*
X12948787Y-10300074D01*
X12948787Y-10300074D02*
X12977358Y-10300074D01*
X12977358Y-10300074D02*
X12996406Y-10309598D01*
X12996406Y-10309598D02*
X13005930Y-10319122D01*
X13005930Y-10319122D02*
X13015453Y-10338170D01*
X13015453Y-10338170D02*
X13015453Y-10385789D01*
X13015453Y-10385789D02*
X13005930Y-10404836D01*
X13005930Y-10404836D02*
X12996406Y-10414360D01*
X12996406Y-10414360D02*
X12977358Y-10423884D01*
X12977358Y-10423884D02*
X12920215Y-10423884D01*
X12920215Y-10423884D02*
X12901168Y-10414360D01*
X12901168Y-10414360D02*
X12891644Y-10404836D01*
X13244025Y-10414360D02*
X13263073Y-10423884D01*
X13263073Y-10423884D02*
X13301168Y-10423884D01*
X13301168Y-10423884D02*
X13320215Y-10414360D01*
X13320215Y-10414360D02*
X13329739Y-10395312D01*
X13329739Y-10395312D02*
X13329739Y-10385789D01*
X13329739Y-10385789D02*
X13320215Y-10366741D01*
X13320215Y-10366741D02*
X13301168Y-10357217D01*
X13301168Y-10357217D02*
X13272596Y-10357217D01*
X13272596Y-10357217D02*
X13253549Y-10347693D01*
X13253549Y-10347693D02*
X13244025Y-10328646D01*
X13244025Y-10328646D02*
X13244025Y-10319122D01*
X13244025Y-10319122D02*
X13253549Y-10300074D01*
X13253549Y-10300074D02*
X13272596Y-10290550D01*
X13272596Y-10290550D02*
X13301168Y-10290550D01*
X13301168Y-10290550D02*
X13320215Y-10300074D01*
X13444025Y-10423884D02*
X13424977Y-10414360D01*
X13424977Y-10414360D02*
X13415454Y-10395312D01*
X13415454Y-10395312D02*
X13415454Y-10223884D01*
X13548787Y-10423884D02*
X13529739Y-10414360D01*
X13529739Y-10414360D02*
X13520215Y-10404836D01*
X13520215Y-10404836D02*
X13510692Y-10385789D01*
X13510692Y-10385789D02*
X13510692Y-10328646D01*
X13510692Y-10328646D02*
X13520215Y-10309598D01*
X13520215Y-10309598D02*
X13529739Y-10300074D01*
X13529739Y-10300074D02*
X13548787Y-10290550D01*
X13548787Y-10290550D02*
X13577358Y-10290550D01*
X13577358Y-10290550D02*
X13596406Y-10300074D01*
X13596406Y-10300074D02*
X13605930Y-10309598D01*
X13605930Y-10309598D02*
X13615454Y-10328646D01*
X13615454Y-10328646D02*
X13615454Y-10385789D01*
X13615454Y-10385789D02*
X13605930Y-10404836D01*
X13605930Y-10404836D02*
X13596406Y-10414360D01*
X13596406Y-10414360D02*
X13577358Y-10423884D01*
X13577358Y-10423884D02*
X13548787Y-10423884D01*
X13672596Y-10290550D02*
X13748787Y-10290550D01*
X13701168Y-10223884D02*
X13701168Y-10395312D01*
X13701168Y-10395312D02*
X13710692Y-10414360D01*
X13710692Y-10414360D02*
X13729739Y-10423884D01*
X13729739Y-10423884D02*
X13748787Y-10423884D01*
X13805930Y-10414360D02*
X13824977Y-10423884D01*
X13824977Y-10423884D02*
X13863073Y-10423884D01*
X13863073Y-10423884D02*
X13882120Y-10414360D01*
X13882120Y-10414360D02*
X13891644Y-10395312D01*
X13891644Y-10395312D02*
X13891644Y-10385789D01*
X13891644Y-10385789D02*
X13882120Y-10366741D01*
X13882120Y-10366741D02*
X13863073Y-10357217D01*
X13863073Y-10357217D02*
X13834501Y-10357217D01*
X13834501Y-10357217D02*
X13815454Y-10347693D01*
X13815454Y-10347693D02*
X13805930Y-10328646D01*
X13805930Y-10328646D02*
X13805930Y-10319122D01*
X13805930Y-10319122D02*
X13815454Y-10300074D01*
X13815454Y-10300074D02*
X13834501Y-10290550D01*
X13834501Y-10290550D02*
X13863073Y-10290550D01*
X13863073Y-10290550D02*
X13882120Y-10300074D01*
X13958311Y-10500074D02*
X13967835Y-10490550D01*
X13967835Y-10490550D02*
X13986882Y-10461979D01*
X13986882Y-10461979D02*
X13996406Y-10442931D01*
X13996406Y-10442931D02*
X14005930Y-10414360D01*
X14005930Y-10414360D02*
X14015454Y-10366741D01*
X14015454Y-10366741D02*
X14015454Y-10328646D01*
X14015454Y-10328646D02*
X14005930Y-10281027D01*
X14005930Y-10281027D02*
X13996406Y-10252455D01*
X13996406Y-10252455D02*
X13986882Y-10233408D01*
X13986882Y-10233408D02*
X13967835Y-10204836D01*
X13967835Y-10204836D02*
X13958311Y-10195312D01*
D14*
X7534200Y-10566400D02*
X7534200Y-10626400D01*
X7504200Y-10596400D02*
X7564200Y-10596400D01*
D11*
X7863072Y-10487884D02*
X7882120Y-10487884D01*
X7882120Y-10487884D02*
X7901167Y-10497408D01*
X7901167Y-10497408D02*
X7910691Y-10506931D01*
X7910691Y-10506931D02*
X7920215Y-10525979D01*
X7920215Y-10525979D02*
X7929739Y-10564074D01*
X7929739Y-10564074D02*
X7929739Y-10611693D01*
X7929739Y-10611693D02*
X7920215Y-10649789D01*
X7920215Y-10649789D02*
X7910691Y-10668836D01*
X7910691Y-10668836D02*
X7901167Y-10678360D01*
X7901167Y-10678360D02*
X7882120Y-10687884D01*
X7882120Y-10687884D02*
X7863072Y-10687884D01*
X7863072Y-10687884D02*
X7844024Y-10678360D01*
X7844024Y-10678360D02*
X7834501Y-10668836D01*
X7834501Y-10668836D02*
X7824977Y-10649789D01*
X7824977Y-10649789D02*
X7815453Y-10611693D01*
X7815453Y-10611693D02*
X7815453Y-10564074D01*
X7815453Y-10564074D02*
X7824977Y-10525979D01*
X7824977Y-10525979D02*
X7834501Y-10506931D01*
X7834501Y-10506931D02*
X7844024Y-10497408D01*
X7844024Y-10497408D02*
X7863072Y-10487884D01*
X8015453Y-10668836D02*
X8024977Y-10678360D01*
X8024977Y-10678360D02*
X8015453Y-10687884D01*
X8015453Y-10687884D02*
X8005929Y-10678360D01*
X8005929Y-10678360D02*
X8015453Y-10668836D01*
X8015453Y-10668836D02*
X8015453Y-10687884D01*
X8196405Y-10487884D02*
X8158310Y-10487884D01*
X8158310Y-10487884D02*
X8139262Y-10497408D01*
X8139262Y-10497408D02*
X8129739Y-10506931D01*
X8129739Y-10506931D02*
X8110691Y-10535503D01*
X8110691Y-10535503D02*
X8101167Y-10573598D01*
X8101167Y-10573598D02*
X8101167Y-10649789D01*
X8101167Y-10649789D02*
X8110691Y-10668836D01*
X8110691Y-10668836D02*
X8120215Y-10678360D01*
X8120215Y-10678360D02*
X8139262Y-10687884D01*
X8139262Y-10687884D02*
X8177358Y-10687884D01*
X8177358Y-10687884D02*
X8196405Y-10678360D01*
X8196405Y-10678360D02*
X8205929Y-10668836D01*
X8205929Y-10668836D02*
X8215453Y-10649789D01*
X8215453Y-10649789D02*
X8215453Y-10602170D01*
X8215453Y-10602170D02*
X8205929Y-10583122D01*
X8205929Y-10583122D02*
X8196405Y-10573598D01*
X8196405Y-10573598D02*
X8177358Y-10564074D01*
X8177358Y-10564074D02*
X8139262Y-10564074D01*
X8139262Y-10564074D02*
X8120215Y-10573598D01*
X8120215Y-10573598D02*
X8110691Y-10583122D01*
X8110691Y-10583122D02*
X8101167Y-10602170D01*
X8339262Y-10487884D02*
X8358310Y-10487884D01*
X8358310Y-10487884D02*
X8377358Y-10497408D01*
X8377358Y-10497408D02*
X8386882Y-10506931D01*
X8386882Y-10506931D02*
X8396405Y-10525979D01*
X8396405Y-10525979D02*
X8405929Y-10564074D01*
X8405929Y-10564074D02*
X8405929Y-10611693D01*
X8405929Y-10611693D02*
X8396405Y-10649789D01*
X8396405Y-10649789D02*
X8386882Y-10668836D01*
X8386882Y-10668836D02*
X8377358Y-10678360D01*
X8377358Y-10678360D02*
X8358310Y-10687884D01*
X8358310Y-10687884D02*
X8339262Y-10687884D01*
X8339262Y-10687884D02*
X8320215Y-10678360D01*
X8320215Y-10678360D02*
X8310691Y-10668836D01*
X8310691Y-10668836D02*
X8301167Y-10649789D01*
X8301167Y-10649789D02*
X8291643Y-10611693D01*
X8291643Y-10611693D02*
X8291643Y-10564074D01*
X8291643Y-10564074D02*
X8301167Y-10525979D01*
X8301167Y-10525979D02*
X8310691Y-10506931D01*
X8310691Y-10506931D02*
X8320215Y-10497408D01*
X8320215Y-10497408D02*
X8339262Y-10487884D01*
X8529739Y-10487884D02*
X8548786Y-10487884D01*
X8548786Y-10487884D02*
X8567834Y-10497408D01*
X8567834Y-10497408D02*
X8577358Y-10506931D01*
X8577358Y-10506931D02*
X8586882Y-10525979D01*
X8586882Y-10525979D02*
X8596405Y-10564074D01*
X8596405Y-10564074D02*
X8596405Y-10611693D01*
X8596405Y-10611693D02*
X8586882Y-10649789D01*
X8586882Y-10649789D02*
X8577358Y-10668836D01*
X8577358Y-10668836D02*
X8567834Y-10678360D01*
X8567834Y-10678360D02*
X8548786Y-10687884D01*
X8548786Y-10687884D02*
X8529739Y-10687884D01*
X8529739Y-10687884D02*
X8510691Y-10678360D01*
X8510691Y-10678360D02*
X8501167Y-10668836D01*
X8501167Y-10668836D02*
X8491644Y-10649789D01*
X8491644Y-10649789D02*
X8482120Y-10611693D01*
X8482120Y-10611693D02*
X8482120Y-10564074D01*
X8482120Y-10564074D02*
X8491644Y-10525979D01*
X8491644Y-10525979D02*
X8501167Y-10506931D01*
X8501167Y-10506931D02*
X8510691Y-10497408D01*
X8510691Y-10497408D02*
X8529739Y-10487884D01*
X8682120Y-10687884D02*
X8682120Y-10554550D01*
X8682120Y-10573598D02*
X8691644Y-10564074D01*
X8691644Y-10564074D02*
X8710691Y-10554550D01*
X8710691Y-10554550D02*
X8739263Y-10554550D01*
X8739263Y-10554550D02*
X8758310Y-10564074D01*
X8758310Y-10564074D02*
X8767834Y-10583122D01*
X8767834Y-10583122D02*
X8767834Y-10687884D01*
X8767834Y-10583122D02*
X8777358Y-10564074D01*
X8777358Y-10564074D02*
X8796405Y-10554550D01*
X8796405Y-10554550D02*
X8824977Y-10554550D01*
X8824977Y-10554550D02*
X8844025Y-10564074D01*
X8844025Y-10564074D02*
X8853548Y-10583122D01*
X8853548Y-10583122D02*
X8853548Y-10687884D01*
X8948786Y-10687884D02*
X8948786Y-10554550D01*
X8948786Y-10573598D02*
X8958310Y-10564074D01*
X8958310Y-10564074D02*
X8977358Y-10554550D01*
X8977358Y-10554550D02*
X9005929Y-10554550D01*
X9005929Y-10554550D02*
X9024977Y-10564074D01*
X9024977Y-10564074D02*
X9034501Y-10583122D01*
X9034501Y-10583122D02*
X9034501Y-10687884D01*
X9034501Y-10583122D02*
X9044025Y-10564074D01*
X9044025Y-10564074D02*
X9063072Y-10554550D01*
X9063072Y-10554550D02*
X9091644Y-10554550D01*
X9091644Y-10554550D02*
X9110691Y-10564074D01*
X9110691Y-10564074D02*
X9120215Y-10583122D01*
X9120215Y-10583122D02*
X9120215Y-10687884D01*
X9510691Y-10478360D02*
X9339263Y-10735503D01*
X9767834Y-10487884D02*
X9786882Y-10487884D01*
X9786882Y-10487884D02*
X9805929Y-10497408D01*
X9805929Y-10497408D02*
X9815453Y-10506931D01*
X9815453Y-10506931D02*
X9824977Y-10525979D01*
X9824977Y-10525979D02*
X9834501Y-10564074D01*
X9834501Y-10564074D02*
X9834501Y-10611693D01*
X9834501Y-10611693D02*
X9824977Y-10649789D01*
X9824977Y-10649789D02*
X9815453Y-10668836D01*
X9815453Y-10668836D02*
X9805929Y-10678360D01*
X9805929Y-10678360D02*
X9786882Y-10687884D01*
X9786882Y-10687884D02*
X9767834Y-10687884D01*
X9767834Y-10687884D02*
X9748787Y-10678360D01*
X9748787Y-10678360D02*
X9739263Y-10668836D01*
X9739263Y-10668836D02*
X9729739Y-10649789D01*
X9729739Y-10649789D02*
X9720215Y-10611693D01*
X9720215Y-10611693D02*
X9720215Y-10564074D01*
X9720215Y-10564074D02*
X9729739Y-10525979D01*
X9729739Y-10525979D02*
X9739263Y-10506931D01*
X9739263Y-10506931D02*
X9748787Y-10497408D01*
X9748787Y-10497408D02*
X9767834Y-10487884D01*
X9920215Y-10668836D02*
X9929739Y-10678360D01*
X9929739Y-10678360D02*
X9920215Y-10687884D01*
X9920215Y-10687884D02*
X9910691Y-10678360D01*
X9910691Y-10678360D02*
X9920215Y-10668836D01*
X9920215Y-10668836D02*
X9920215Y-10687884D01*
X10053548Y-10487884D02*
X10072596Y-10487884D01*
X10072596Y-10487884D02*
X10091644Y-10497408D01*
X10091644Y-10497408D02*
X10101168Y-10506931D01*
X10101168Y-10506931D02*
X10110691Y-10525979D01*
X10110691Y-10525979D02*
X10120215Y-10564074D01*
X10120215Y-10564074D02*
X10120215Y-10611693D01*
X10120215Y-10611693D02*
X10110691Y-10649789D01*
X10110691Y-10649789D02*
X10101168Y-10668836D01*
X10101168Y-10668836D02*
X10091644Y-10678360D01*
X10091644Y-10678360D02*
X10072596Y-10687884D01*
X10072596Y-10687884D02*
X10053548Y-10687884D01*
X10053548Y-10687884D02*
X10034501Y-10678360D01*
X10034501Y-10678360D02*
X10024977Y-10668836D01*
X10024977Y-10668836D02*
X10015453Y-10649789D01*
X10015453Y-10649789D02*
X10005929Y-10611693D01*
X10005929Y-10611693D02*
X10005929Y-10564074D01*
X10005929Y-10564074D02*
X10015453Y-10525979D01*
X10015453Y-10525979D02*
X10024977Y-10506931D01*
X10024977Y-10506931D02*
X10034501Y-10497408D01*
X10034501Y-10497408D02*
X10053548Y-10487884D01*
X10196406Y-10506931D02*
X10205929Y-10497408D01*
X10205929Y-10497408D02*
X10224977Y-10487884D01*
X10224977Y-10487884D02*
X10272596Y-10487884D01*
X10272596Y-10487884D02*
X10291644Y-10497408D01*
X10291644Y-10497408D02*
X10301168Y-10506931D01*
X10301168Y-10506931D02*
X10310691Y-10525979D01*
X10310691Y-10525979D02*
X10310691Y-10545027D01*
X10310691Y-10545027D02*
X10301168Y-10573598D01*
X10301168Y-10573598D02*
X10186882Y-10687884D01*
X10186882Y-10687884D02*
X10310691Y-10687884D01*
X10377358Y-10487884D02*
X10501168Y-10487884D01*
X10501168Y-10487884D02*
X10434501Y-10564074D01*
X10434501Y-10564074D02*
X10463072Y-10564074D01*
X10463072Y-10564074D02*
X10482120Y-10573598D01*
X10482120Y-10573598D02*
X10491644Y-10583122D01*
X10491644Y-10583122D02*
X10501168Y-10602170D01*
X10501168Y-10602170D02*
X10501168Y-10649789D01*
X10501168Y-10649789D02*
X10491644Y-10668836D01*
X10491644Y-10668836D02*
X10482120Y-10678360D01*
X10482120Y-10678360D02*
X10463072Y-10687884D01*
X10463072Y-10687884D02*
X10405929Y-10687884D01*
X10405929Y-10687884D02*
X10386882Y-10678360D01*
X10386882Y-10678360D02*
X10377358Y-10668836D01*
X10672596Y-10487884D02*
X10634501Y-10487884D01*
X10634501Y-10487884D02*
X10615453Y-10497408D01*
X10615453Y-10497408D02*
X10605929Y-10506931D01*
X10605929Y-10506931D02*
X10586882Y-10535503D01*
X10586882Y-10535503D02*
X10577358Y-10573598D01*
X10577358Y-10573598D02*
X10577358Y-10649789D01*
X10577358Y-10649789D02*
X10586882Y-10668836D01*
X10586882Y-10668836D02*
X10596406Y-10678360D01*
X10596406Y-10678360D02*
X10615453Y-10687884D01*
X10615453Y-10687884D02*
X10653549Y-10687884D01*
X10653549Y-10687884D02*
X10672596Y-10678360D01*
X10672596Y-10678360D02*
X10682120Y-10668836D01*
X10682120Y-10668836D02*
X10691644Y-10649789D01*
X10691644Y-10649789D02*
X10691644Y-10602170D01*
X10691644Y-10602170D02*
X10682120Y-10583122D01*
X10682120Y-10583122D02*
X10672596Y-10573598D01*
X10672596Y-10573598D02*
X10653549Y-10564074D01*
X10653549Y-10564074D02*
X10615453Y-10564074D01*
X10615453Y-10564074D02*
X10596406Y-10573598D01*
X10596406Y-10573598D02*
X10586882Y-10583122D01*
X10586882Y-10583122D02*
X10577358Y-10602170D01*
X10767834Y-10487884D02*
X10767834Y-10525979D01*
X10844025Y-10487884D02*
X10844025Y-10525979D01*
X11139263Y-10764074D02*
X11129739Y-10754550D01*
X11129739Y-10754550D02*
X11110691Y-10725979D01*
X11110691Y-10725979D02*
X11101168Y-10706931D01*
X11101168Y-10706931D02*
X11091644Y-10678360D01*
X11091644Y-10678360D02*
X11082120Y-10630741D01*
X11082120Y-10630741D02*
X11082120Y-10592646D01*
X11082120Y-10592646D02*
X11091644Y-10545027D01*
X11091644Y-10545027D02*
X11101168Y-10516455D01*
X11101168Y-10516455D02*
X11110691Y-10497408D01*
X11110691Y-10497408D02*
X11129739Y-10468836D01*
X11129739Y-10468836D02*
X11139263Y-10459312D01*
X11205929Y-10506931D02*
X11215453Y-10497408D01*
X11215453Y-10497408D02*
X11234501Y-10487884D01*
X11234501Y-10487884D02*
X11282120Y-10487884D01*
X11282120Y-10487884D02*
X11301168Y-10497408D01*
X11301168Y-10497408D02*
X11310691Y-10506931D01*
X11310691Y-10506931D02*
X11320215Y-10525979D01*
X11320215Y-10525979D02*
X11320215Y-10545027D01*
X11320215Y-10545027D02*
X11310691Y-10573598D01*
X11310691Y-10573598D02*
X11196406Y-10687884D01*
X11196406Y-10687884D02*
X11320215Y-10687884D01*
X11558310Y-10687884D02*
X11558310Y-10487884D01*
X11644025Y-10687884D02*
X11644025Y-10583122D01*
X11644025Y-10583122D02*
X11634501Y-10564074D01*
X11634501Y-10564074D02*
X11615453Y-10554550D01*
X11615453Y-10554550D02*
X11586882Y-10554550D01*
X11586882Y-10554550D02*
X11567834Y-10564074D01*
X11567834Y-10564074D02*
X11558310Y-10573598D01*
X11767834Y-10687884D02*
X11748787Y-10678360D01*
X11748787Y-10678360D02*
X11739263Y-10668836D01*
X11739263Y-10668836D02*
X11729739Y-10649789D01*
X11729739Y-10649789D02*
X11729739Y-10592646D01*
X11729739Y-10592646D02*
X11739263Y-10573598D01*
X11739263Y-10573598D02*
X11748787Y-10564074D01*
X11748787Y-10564074D02*
X11767834Y-10554550D01*
X11767834Y-10554550D02*
X11796406Y-10554550D01*
X11796406Y-10554550D02*
X11815453Y-10564074D01*
X11815453Y-10564074D02*
X11824977Y-10573598D01*
X11824977Y-10573598D02*
X11834501Y-10592646D01*
X11834501Y-10592646D02*
X11834501Y-10649789D01*
X11834501Y-10649789D02*
X11824977Y-10668836D01*
X11824977Y-10668836D02*
X11815453Y-10678360D01*
X11815453Y-10678360D02*
X11796406Y-10687884D01*
X11796406Y-10687884D02*
X11767834Y-10687884D01*
X11948787Y-10687884D02*
X11929739Y-10678360D01*
X11929739Y-10678360D02*
X11920215Y-10659312D01*
X11920215Y-10659312D02*
X11920215Y-10487884D01*
X12101168Y-10678360D02*
X12082120Y-10687884D01*
X12082120Y-10687884D02*
X12044025Y-10687884D01*
X12044025Y-10687884D02*
X12024977Y-10678360D01*
X12024977Y-10678360D02*
X12015453Y-10659312D01*
X12015453Y-10659312D02*
X12015453Y-10583122D01*
X12015453Y-10583122D02*
X12024977Y-10564074D01*
X12024977Y-10564074D02*
X12044025Y-10554550D01*
X12044025Y-10554550D02*
X12082120Y-10554550D01*
X12082120Y-10554550D02*
X12101168Y-10564074D01*
X12101168Y-10564074D02*
X12110691Y-10583122D01*
X12110691Y-10583122D02*
X12110691Y-10602170D01*
X12110691Y-10602170D02*
X12015453Y-10621217D01*
X12186882Y-10678360D02*
X12205930Y-10687884D01*
X12205930Y-10687884D02*
X12244025Y-10687884D01*
X12244025Y-10687884D02*
X12263072Y-10678360D01*
X12263072Y-10678360D02*
X12272596Y-10659312D01*
X12272596Y-10659312D02*
X12272596Y-10649789D01*
X12272596Y-10649789D02*
X12263072Y-10630741D01*
X12263072Y-10630741D02*
X12244025Y-10621217D01*
X12244025Y-10621217D02*
X12215453Y-10621217D01*
X12215453Y-10621217D02*
X12196406Y-10611693D01*
X12196406Y-10611693D02*
X12186882Y-10592646D01*
X12186882Y-10592646D02*
X12186882Y-10583122D01*
X12186882Y-10583122D02*
X12196406Y-10564074D01*
X12196406Y-10564074D02*
X12215453Y-10554550D01*
X12215453Y-10554550D02*
X12244025Y-10554550D01*
X12244025Y-10554550D02*
X12263072Y-10564074D01*
X12339263Y-10764074D02*
X12348787Y-10754550D01*
X12348787Y-10754550D02*
X12367834Y-10725979D01*
X12367834Y-10725979D02*
X12377358Y-10706931D01*
X12377358Y-10706931D02*
X12386882Y-10678360D01*
X12386882Y-10678360D02*
X12396406Y-10630741D01*
X12396406Y-10630741D02*
X12396406Y-10592646D01*
X12396406Y-10592646D02*
X12386882Y-10545027D01*
X12386882Y-10545027D02*
X12377358Y-10516455D01*
X12377358Y-10516455D02*
X12367834Y-10497408D01*
X12367834Y-10497408D02*
X12348787Y-10468836D01*
X12348787Y-10468836D02*
X12339263Y-10459312D01*
D15*
X7552484Y-10888685D02*
X7552484Y-10832116D01*
X7495915Y-10832116D01*
X7495915Y-10888685D01*
X7552484Y-10888685D01*
D11*
X7863072Y-10751884D02*
X7882120Y-10751884D01*
X7882120Y-10751884D02*
X7901167Y-10761408D01*
X7901167Y-10761408D02*
X7910691Y-10770931D01*
X7910691Y-10770931D02*
X7920215Y-10789979D01*
X7920215Y-10789979D02*
X7929739Y-10828074D01*
X7929739Y-10828074D02*
X7929739Y-10875693D01*
X7929739Y-10875693D02*
X7920215Y-10913789D01*
X7920215Y-10913789D02*
X7910691Y-10932836D01*
X7910691Y-10932836D02*
X7901167Y-10942360D01*
X7901167Y-10942360D02*
X7882120Y-10951884D01*
X7882120Y-10951884D02*
X7863072Y-10951884D01*
X7863072Y-10951884D02*
X7844024Y-10942360D01*
X7844024Y-10942360D02*
X7834501Y-10932836D01*
X7834501Y-10932836D02*
X7824977Y-10913789D01*
X7824977Y-10913789D02*
X7815453Y-10875693D01*
X7815453Y-10875693D02*
X7815453Y-10828074D01*
X7815453Y-10828074D02*
X7824977Y-10789979D01*
X7824977Y-10789979D02*
X7834501Y-10770931D01*
X7834501Y-10770931D02*
X7844024Y-10761408D01*
X7844024Y-10761408D02*
X7863072Y-10751884D01*
X8015453Y-10932836D02*
X8024977Y-10942360D01*
X8024977Y-10942360D02*
X8015453Y-10951884D01*
X8015453Y-10951884D02*
X8005929Y-10942360D01*
X8005929Y-10942360D02*
X8015453Y-10932836D01*
X8015453Y-10932836D02*
X8015453Y-10951884D01*
X8139262Y-10837598D02*
X8120215Y-10828074D01*
X8120215Y-10828074D02*
X8110691Y-10818550D01*
X8110691Y-10818550D02*
X8101167Y-10799503D01*
X8101167Y-10799503D02*
X8101167Y-10789979D01*
X8101167Y-10789979D02*
X8110691Y-10770931D01*
X8110691Y-10770931D02*
X8120215Y-10761408D01*
X8120215Y-10761408D02*
X8139262Y-10751884D01*
X8139262Y-10751884D02*
X8177358Y-10751884D01*
X8177358Y-10751884D02*
X8196405Y-10761408D01*
X8196405Y-10761408D02*
X8205929Y-10770931D01*
X8205929Y-10770931D02*
X8215453Y-10789979D01*
X8215453Y-10789979D02*
X8215453Y-10799503D01*
X8215453Y-10799503D02*
X8205929Y-10818550D01*
X8205929Y-10818550D02*
X8196405Y-10828074D01*
X8196405Y-10828074D02*
X8177358Y-10837598D01*
X8177358Y-10837598D02*
X8139262Y-10837598D01*
X8139262Y-10837598D02*
X8120215Y-10847122D01*
X8120215Y-10847122D02*
X8110691Y-10856646D01*
X8110691Y-10856646D02*
X8101167Y-10875693D01*
X8101167Y-10875693D02*
X8101167Y-10913789D01*
X8101167Y-10913789D02*
X8110691Y-10932836D01*
X8110691Y-10932836D02*
X8120215Y-10942360D01*
X8120215Y-10942360D02*
X8139262Y-10951884D01*
X8139262Y-10951884D02*
X8177358Y-10951884D01*
X8177358Y-10951884D02*
X8196405Y-10942360D01*
X8196405Y-10942360D02*
X8205929Y-10932836D01*
X8205929Y-10932836D02*
X8215453Y-10913789D01*
X8215453Y-10913789D02*
X8215453Y-10875693D01*
X8215453Y-10875693D02*
X8205929Y-10856646D01*
X8205929Y-10856646D02*
X8196405Y-10847122D01*
X8196405Y-10847122D02*
X8177358Y-10837598D01*
X8339262Y-10751884D02*
X8358310Y-10751884D01*
X8358310Y-10751884D02*
X8377358Y-10761408D01*
X8377358Y-10761408D02*
X8386882Y-10770931D01*
X8386882Y-10770931D02*
X8396405Y-10789979D01*
X8396405Y-10789979D02*
X8405929Y-10828074D01*
X8405929Y-10828074D02*
X8405929Y-10875693D01*
X8405929Y-10875693D02*
X8396405Y-10913789D01*
X8396405Y-10913789D02*
X8386882Y-10932836D01*
X8386882Y-10932836D02*
X8377358Y-10942360D01*
X8377358Y-10942360D02*
X8358310Y-10951884D01*
X8358310Y-10951884D02*
X8339262Y-10951884D01*
X8339262Y-10951884D02*
X8320215Y-10942360D01*
X8320215Y-10942360D02*
X8310691Y-10932836D01*
X8310691Y-10932836D02*
X8301167Y-10913789D01*
X8301167Y-10913789D02*
X8291643Y-10875693D01*
X8291643Y-10875693D02*
X8291643Y-10828074D01*
X8291643Y-10828074D02*
X8301167Y-10789979D01*
X8301167Y-10789979D02*
X8310691Y-10770931D01*
X8310691Y-10770931D02*
X8320215Y-10761408D01*
X8320215Y-10761408D02*
X8339262Y-10751884D01*
X8529739Y-10751884D02*
X8548786Y-10751884D01*
X8548786Y-10751884D02*
X8567834Y-10761408D01*
X8567834Y-10761408D02*
X8577358Y-10770931D01*
X8577358Y-10770931D02*
X8586882Y-10789979D01*
X8586882Y-10789979D02*
X8596405Y-10828074D01*
X8596405Y-10828074D02*
X8596405Y-10875693D01*
X8596405Y-10875693D02*
X8586882Y-10913789D01*
X8586882Y-10913789D02*
X8577358Y-10932836D01*
X8577358Y-10932836D02*
X8567834Y-10942360D01*
X8567834Y-10942360D02*
X8548786Y-10951884D01*
X8548786Y-10951884D02*
X8529739Y-10951884D01*
X8529739Y-10951884D02*
X8510691Y-10942360D01*
X8510691Y-10942360D02*
X8501167Y-10932836D01*
X8501167Y-10932836D02*
X8491644Y-10913789D01*
X8491644Y-10913789D02*
X8482120Y-10875693D01*
X8482120Y-10875693D02*
X8482120Y-10828074D01*
X8482120Y-10828074D02*
X8491644Y-10789979D01*
X8491644Y-10789979D02*
X8501167Y-10770931D01*
X8501167Y-10770931D02*
X8510691Y-10761408D01*
X8510691Y-10761408D02*
X8529739Y-10751884D01*
X8682120Y-10951884D02*
X8682120Y-10818550D01*
X8682120Y-10837598D02*
X8691644Y-10828074D01*
X8691644Y-10828074D02*
X8710691Y-10818550D01*
X8710691Y-10818550D02*
X8739263Y-10818550D01*
X8739263Y-10818550D02*
X8758310Y-10828074D01*
X8758310Y-10828074D02*
X8767834Y-10847122D01*
X8767834Y-10847122D02*
X8767834Y-10951884D01*
X8767834Y-10847122D02*
X8777358Y-10828074D01*
X8777358Y-10828074D02*
X8796405Y-10818550D01*
X8796405Y-10818550D02*
X8824977Y-10818550D01*
X8824977Y-10818550D02*
X8844025Y-10828074D01*
X8844025Y-10828074D02*
X8853548Y-10847122D01*
X8853548Y-10847122D02*
X8853548Y-10951884D01*
X8948786Y-10951884D02*
X8948786Y-10818550D01*
X8948786Y-10837598D02*
X8958310Y-10828074D01*
X8958310Y-10828074D02*
X8977358Y-10818550D01*
X8977358Y-10818550D02*
X9005929Y-10818550D01*
X9005929Y-10818550D02*
X9024977Y-10828074D01*
X9024977Y-10828074D02*
X9034501Y-10847122D01*
X9034501Y-10847122D02*
X9034501Y-10951884D01*
X9034501Y-10847122D02*
X9044025Y-10828074D01*
X9044025Y-10828074D02*
X9063072Y-10818550D01*
X9063072Y-10818550D02*
X9091644Y-10818550D01*
X9091644Y-10818550D02*
X9110691Y-10828074D01*
X9110691Y-10828074D02*
X9120215Y-10847122D01*
X9120215Y-10847122D02*
X9120215Y-10951884D01*
X9510691Y-10742360D02*
X9339263Y-10999503D01*
X9767834Y-10751884D02*
X9786882Y-10751884D01*
X9786882Y-10751884D02*
X9805929Y-10761408D01*
X9805929Y-10761408D02*
X9815453Y-10770931D01*
X9815453Y-10770931D02*
X9824977Y-10789979D01*
X9824977Y-10789979D02*
X9834501Y-10828074D01*
X9834501Y-10828074D02*
X9834501Y-10875693D01*
X9834501Y-10875693D02*
X9824977Y-10913789D01*
X9824977Y-10913789D02*
X9815453Y-10932836D01*
X9815453Y-10932836D02*
X9805929Y-10942360D01*
X9805929Y-10942360D02*
X9786882Y-10951884D01*
X9786882Y-10951884D02*
X9767834Y-10951884D01*
X9767834Y-10951884D02*
X9748787Y-10942360D01*
X9748787Y-10942360D02*
X9739263Y-10932836D01*
X9739263Y-10932836D02*
X9729739Y-10913789D01*
X9729739Y-10913789D02*
X9720215Y-10875693D01*
X9720215Y-10875693D02*
X9720215Y-10828074D01*
X9720215Y-10828074D02*
X9729739Y-10789979D01*
X9729739Y-10789979D02*
X9739263Y-10770931D01*
X9739263Y-10770931D02*
X9748787Y-10761408D01*
X9748787Y-10761408D02*
X9767834Y-10751884D01*
X9920215Y-10932836D02*
X9929739Y-10942360D01*
X9929739Y-10942360D02*
X9920215Y-10951884D01*
X9920215Y-10951884D02*
X9910691Y-10942360D01*
X9910691Y-10942360D02*
X9920215Y-10932836D01*
X9920215Y-10932836D02*
X9920215Y-10951884D01*
X10053548Y-10751884D02*
X10072596Y-10751884D01*
X10072596Y-10751884D02*
X10091644Y-10761408D01*
X10091644Y-10761408D02*
X10101168Y-10770931D01*
X10101168Y-10770931D02*
X10110691Y-10789979D01*
X10110691Y-10789979D02*
X10120215Y-10828074D01*
X10120215Y-10828074D02*
X10120215Y-10875693D01*
X10120215Y-10875693D02*
X10110691Y-10913789D01*
X10110691Y-10913789D02*
X10101168Y-10932836D01*
X10101168Y-10932836D02*
X10091644Y-10942360D01*
X10091644Y-10942360D02*
X10072596Y-10951884D01*
X10072596Y-10951884D02*
X10053548Y-10951884D01*
X10053548Y-10951884D02*
X10034501Y-10942360D01*
X10034501Y-10942360D02*
X10024977Y-10932836D01*
X10024977Y-10932836D02*
X10015453Y-10913789D01*
X10015453Y-10913789D02*
X10005929Y-10875693D01*
X10005929Y-10875693D02*
X10005929Y-10828074D01*
X10005929Y-10828074D02*
X10015453Y-10789979D01*
X10015453Y-10789979D02*
X10024977Y-10770931D01*
X10024977Y-10770931D02*
X10034501Y-10761408D01*
X10034501Y-10761408D02*
X10053548Y-10751884D01*
X10186882Y-10751884D02*
X10310691Y-10751884D01*
X10310691Y-10751884D02*
X10244025Y-10828074D01*
X10244025Y-10828074D02*
X10272596Y-10828074D01*
X10272596Y-10828074D02*
X10291644Y-10837598D01*
X10291644Y-10837598D02*
X10301168Y-10847122D01*
X10301168Y-10847122D02*
X10310691Y-10866170D01*
X10310691Y-10866170D02*
X10310691Y-10913789D01*
X10310691Y-10913789D02*
X10301168Y-10932836D01*
X10301168Y-10932836D02*
X10291644Y-10942360D01*
X10291644Y-10942360D02*
X10272596Y-10951884D01*
X10272596Y-10951884D02*
X10215453Y-10951884D01*
X10215453Y-10951884D02*
X10196406Y-10942360D01*
X10196406Y-10942360D02*
X10186882Y-10932836D01*
X10501168Y-10951884D02*
X10386882Y-10951884D01*
X10444025Y-10951884D02*
X10444025Y-10751884D01*
X10444025Y-10751884D02*
X10424977Y-10780455D01*
X10424977Y-10780455D02*
X10405929Y-10799503D01*
X10405929Y-10799503D02*
X10386882Y-10809027D01*
X10682120Y-10751884D02*
X10586882Y-10751884D01*
X10586882Y-10751884D02*
X10577358Y-10847122D01*
X10577358Y-10847122D02*
X10586882Y-10837598D01*
X10586882Y-10837598D02*
X10605929Y-10828074D01*
X10605929Y-10828074D02*
X10653549Y-10828074D01*
X10653549Y-10828074D02*
X10672596Y-10837598D01*
X10672596Y-10837598D02*
X10682120Y-10847122D01*
X10682120Y-10847122D02*
X10691644Y-10866170D01*
X10691644Y-10866170D02*
X10691644Y-10913789D01*
X10691644Y-10913789D02*
X10682120Y-10932836D01*
X10682120Y-10932836D02*
X10672596Y-10942360D01*
X10672596Y-10942360D02*
X10653549Y-10951884D01*
X10653549Y-10951884D02*
X10605929Y-10951884D01*
X10605929Y-10951884D02*
X10586882Y-10942360D01*
X10586882Y-10942360D02*
X10577358Y-10932836D01*
X10767834Y-10751884D02*
X10767834Y-10789979D01*
X10844025Y-10751884D02*
X10844025Y-10789979D01*
X11139263Y-11028074D02*
X11129739Y-11018550D01*
X11129739Y-11018550D02*
X11110691Y-10989979D01*
X11110691Y-10989979D02*
X11101168Y-10970931D01*
X11101168Y-10970931D02*
X11091644Y-10942360D01*
X11091644Y-10942360D02*
X11082120Y-10894741D01*
X11082120Y-10894741D02*
X11082120Y-10856646D01*
X11082120Y-10856646D02*
X11091644Y-10809027D01*
X11091644Y-10809027D02*
X11101168Y-10780455D01*
X11101168Y-10780455D02*
X11110691Y-10761408D01*
X11110691Y-10761408D02*
X11129739Y-10732836D01*
X11129739Y-10732836D02*
X11139263Y-10723312D01*
X11320215Y-10951884D02*
X11205929Y-10951884D01*
X11263072Y-10951884D02*
X11263072Y-10751884D01*
X11263072Y-10751884D02*
X11244025Y-10780455D01*
X11244025Y-10780455D02*
X11224977Y-10799503D01*
X11224977Y-10799503D02*
X11205929Y-10809027D01*
X11510691Y-10951884D02*
X11396406Y-10951884D01*
X11453548Y-10951884D02*
X11453548Y-10751884D01*
X11453548Y-10751884D02*
X11434501Y-10780455D01*
X11434501Y-10780455D02*
X11415453Y-10799503D01*
X11415453Y-10799503D02*
X11396406Y-10809027D01*
X11634501Y-10751884D02*
X11653549Y-10751884D01*
X11653549Y-10751884D02*
X11672596Y-10761408D01*
X11672596Y-10761408D02*
X11682120Y-10770931D01*
X11682120Y-10770931D02*
X11691644Y-10789979D01*
X11691644Y-10789979D02*
X11701168Y-10828074D01*
X11701168Y-10828074D02*
X11701168Y-10875693D01*
X11701168Y-10875693D02*
X11691644Y-10913789D01*
X11691644Y-10913789D02*
X11682120Y-10932836D01*
X11682120Y-10932836D02*
X11672596Y-10942360D01*
X11672596Y-10942360D02*
X11653549Y-10951884D01*
X11653549Y-10951884D02*
X11634501Y-10951884D01*
X11634501Y-10951884D02*
X11615453Y-10942360D01*
X11615453Y-10942360D02*
X11605929Y-10932836D01*
X11605929Y-10932836D02*
X11596406Y-10913789D01*
X11596406Y-10913789D02*
X11586882Y-10875693D01*
X11586882Y-10875693D02*
X11586882Y-10828074D01*
X11586882Y-10828074D02*
X11596406Y-10789979D01*
X11596406Y-10789979D02*
X11605929Y-10770931D01*
X11605929Y-10770931D02*
X11615453Y-10761408D01*
X11615453Y-10761408D02*
X11634501Y-10751884D01*
X11939263Y-10951884D02*
X11939263Y-10751884D01*
X12024977Y-10951884D02*
X12024977Y-10847122D01*
X12024977Y-10847122D02*
X12015453Y-10828074D01*
X12015453Y-10828074D02*
X11996406Y-10818550D01*
X11996406Y-10818550D02*
X11967834Y-10818550D01*
X11967834Y-10818550D02*
X11948787Y-10828074D01*
X11948787Y-10828074D02*
X11939263Y-10837598D01*
X12148787Y-10951884D02*
X12129739Y-10942360D01*
X12129739Y-10942360D02*
X12120215Y-10932836D01*
X12120215Y-10932836D02*
X12110691Y-10913789D01*
X12110691Y-10913789D02*
X12110691Y-10856646D01*
X12110691Y-10856646D02*
X12120215Y-10837598D01*
X12120215Y-10837598D02*
X12129739Y-10828074D01*
X12129739Y-10828074D02*
X12148787Y-10818550D01*
X12148787Y-10818550D02*
X12177358Y-10818550D01*
X12177358Y-10818550D02*
X12196406Y-10828074D01*
X12196406Y-10828074D02*
X12205930Y-10837598D01*
X12205930Y-10837598D02*
X12215453Y-10856646D01*
X12215453Y-10856646D02*
X12215453Y-10913789D01*
X12215453Y-10913789D02*
X12205930Y-10932836D01*
X12205930Y-10932836D02*
X12196406Y-10942360D01*
X12196406Y-10942360D02*
X12177358Y-10951884D01*
X12177358Y-10951884D02*
X12148787Y-10951884D01*
X12329739Y-10951884D02*
X12310691Y-10942360D01*
X12310691Y-10942360D02*
X12301168Y-10923312D01*
X12301168Y-10923312D02*
X12301168Y-10751884D01*
X12482120Y-10942360D02*
X12463072Y-10951884D01*
X12463072Y-10951884D02*
X12424977Y-10951884D01*
X12424977Y-10951884D02*
X12405930Y-10942360D01*
X12405930Y-10942360D02*
X12396406Y-10923312D01*
X12396406Y-10923312D02*
X12396406Y-10847122D01*
X12396406Y-10847122D02*
X12405930Y-10828074D01*
X12405930Y-10828074D02*
X12424977Y-10818550D01*
X12424977Y-10818550D02*
X12463072Y-10818550D01*
X12463072Y-10818550D02*
X12482120Y-10828074D01*
X12482120Y-10828074D02*
X12491644Y-10847122D01*
X12491644Y-10847122D02*
X12491644Y-10866170D01*
X12491644Y-10866170D02*
X12396406Y-10885217D01*
X12567834Y-10942360D02*
X12586882Y-10951884D01*
X12586882Y-10951884D02*
X12624977Y-10951884D01*
X12624977Y-10951884D02*
X12644025Y-10942360D01*
X12644025Y-10942360D02*
X12653549Y-10923312D01*
X12653549Y-10923312D02*
X12653549Y-10913789D01*
X12653549Y-10913789D02*
X12644025Y-10894741D01*
X12644025Y-10894741D02*
X12624977Y-10885217D01*
X12624977Y-10885217D02*
X12596406Y-10885217D01*
X12596406Y-10885217D02*
X12577358Y-10875693D01*
X12577358Y-10875693D02*
X12567834Y-10856646D01*
X12567834Y-10856646D02*
X12567834Y-10847122D01*
X12567834Y-10847122D02*
X12577358Y-10828074D01*
X12577358Y-10828074D02*
X12596406Y-10818550D01*
X12596406Y-10818550D02*
X12624977Y-10818550D01*
X12624977Y-10818550D02*
X12644025Y-10828074D01*
X12720215Y-11028074D02*
X12729739Y-11018550D01*
X12729739Y-11018550D02*
X12748787Y-10989979D01*
X12748787Y-10989979D02*
X12758311Y-10970931D01*
X12758311Y-10970931D02*
X12767834Y-10942360D01*
X12767834Y-10942360D02*
X12777358Y-10894741D01*
X12777358Y-10894741D02*
X12777358Y-10856646D01*
X12777358Y-10856646D02*
X12767834Y-10809027D01*
X12767834Y-10809027D02*
X12758311Y-10780455D01*
X12758311Y-10780455D02*
X12748787Y-10761408D01*
X12748787Y-10761408D02*
X12729739Y-10732836D01*
X12729739Y-10732836D02*
X12720215Y-10723312D01*
D16*
X7519200Y-11169400D02*
X7564200Y-11124400D01*
X7519200Y-11079400D01*
X7474200Y-11124400D01*
X7519200Y-11169400D01*
D11*
X7863072Y-11015884D02*
X7882120Y-11015884D01*
X7882120Y-11015884D02*
X7901167Y-11025408D01*
X7901167Y-11025408D02*
X7910691Y-11034931D01*
X7910691Y-11034931D02*
X7920215Y-11053979D01*
X7920215Y-11053979D02*
X7929739Y-11092074D01*
X7929739Y-11092074D02*
X7929739Y-11139693D01*
X7929739Y-11139693D02*
X7920215Y-11177789D01*
X7920215Y-11177789D02*
X7910691Y-11196836D01*
X7910691Y-11196836D02*
X7901167Y-11206360D01*
X7901167Y-11206360D02*
X7882120Y-11215884D01*
X7882120Y-11215884D02*
X7863072Y-11215884D01*
X7863072Y-11215884D02*
X7844024Y-11206360D01*
X7844024Y-11206360D02*
X7834501Y-11196836D01*
X7834501Y-11196836D02*
X7824977Y-11177789D01*
X7824977Y-11177789D02*
X7815453Y-11139693D01*
X7815453Y-11139693D02*
X7815453Y-11092074D01*
X7815453Y-11092074D02*
X7824977Y-11053979D01*
X7824977Y-11053979D02*
X7834501Y-11034931D01*
X7834501Y-11034931D02*
X7844024Y-11025408D01*
X7844024Y-11025408D02*
X7863072Y-11015884D01*
X8015453Y-11196836D02*
X8024977Y-11206360D01*
X8024977Y-11206360D02*
X8015453Y-11215884D01*
X8015453Y-11215884D02*
X8005929Y-11206360D01*
X8005929Y-11206360D02*
X8015453Y-11196836D01*
X8015453Y-11196836D02*
X8015453Y-11215884D01*
X8120215Y-11215884D02*
X8158310Y-11215884D01*
X8158310Y-11215884D02*
X8177358Y-11206360D01*
X8177358Y-11206360D02*
X8186882Y-11196836D01*
X8186882Y-11196836D02*
X8205929Y-11168265D01*
X8205929Y-11168265D02*
X8215453Y-11130170D01*
X8215453Y-11130170D02*
X8215453Y-11053979D01*
X8215453Y-11053979D02*
X8205929Y-11034931D01*
X8205929Y-11034931D02*
X8196405Y-11025408D01*
X8196405Y-11025408D02*
X8177358Y-11015884D01*
X8177358Y-11015884D02*
X8139262Y-11015884D01*
X8139262Y-11015884D02*
X8120215Y-11025408D01*
X8120215Y-11025408D02*
X8110691Y-11034931D01*
X8110691Y-11034931D02*
X8101167Y-11053979D01*
X8101167Y-11053979D02*
X8101167Y-11101598D01*
X8101167Y-11101598D02*
X8110691Y-11120646D01*
X8110691Y-11120646D02*
X8120215Y-11130170D01*
X8120215Y-11130170D02*
X8139262Y-11139693D01*
X8139262Y-11139693D02*
X8177358Y-11139693D01*
X8177358Y-11139693D02*
X8196405Y-11130170D01*
X8196405Y-11130170D02*
X8205929Y-11120646D01*
X8205929Y-11120646D02*
X8215453Y-11101598D01*
X8339262Y-11015884D02*
X8358310Y-11015884D01*
X8358310Y-11015884D02*
X8377358Y-11025408D01*
X8377358Y-11025408D02*
X8386882Y-11034931D01*
X8386882Y-11034931D02*
X8396405Y-11053979D01*
X8396405Y-11053979D02*
X8405929Y-11092074D01*
X8405929Y-11092074D02*
X8405929Y-11139693D01*
X8405929Y-11139693D02*
X8396405Y-11177789D01*
X8396405Y-11177789D02*
X8386882Y-11196836D01*
X8386882Y-11196836D02*
X8377358Y-11206360D01*
X8377358Y-11206360D02*
X8358310Y-11215884D01*
X8358310Y-11215884D02*
X8339262Y-11215884D01*
X8339262Y-11215884D02*
X8320215Y-11206360D01*
X8320215Y-11206360D02*
X8310691Y-11196836D01*
X8310691Y-11196836D02*
X8301167Y-11177789D01*
X8301167Y-11177789D02*
X8291643Y-11139693D01*
X8291643Y-11139693D02*
X8291643Y-11092074D01*
X8291643Y-11092074D02*
X8301167Y-11053979D01*
X8301167Y-11053979D02*
X8310691Y-11034931D01*
X8310691Y-11034931D02*
X8320215Y-11025408D01*
X8320215Y-11025408D02*
X8339262Y-11015884D01*
X8529739Y-11015884D02*
X8548786Y-11015884D01*
X8548786Y-11015884D02*
X8567834Y-11025408D01*
X8567834Y-11025408D02*
X8577358Y-11034931D01*
X8577358Y-11034931D02*
X8586882Y-11053979D01*
X8586882Y-11053979D02*
X8596405Y-11092074D01*
X8596405Y-11092074D02*
X8596405Y-11139693D01*
X8596405Y-11139693D02*
X8586882Y-11177789D01*
X8586882Y-11177789D02*
X8577358Y-11196836D01*
X8577358Y-11196836D02*
X8567834Y-11206360D01*
X8567834Y-11206360D02*
X8548786Y-11215884D01*
X8548786Y-11215884D02*
X8529739Y-11215884D01*
X8529739Y-11215884D02*
X8510691Y-11206360D01*
X8510691Y-11206360D02*
X8501167Y-11196836D01*
X8501167Y-11196836D02*
X8491644Y-11177789D01*
X8491644Y-11177789D02*
X8482120Y-11139693D01*
X8482120Y-11139693D02*
X8482120Y-11092074D01*
X8482120Y-11092074D02*
X8491644Y-11053979D01*
X8491644Y-11053979D02*
X8501167Y-11034931D01*
X8501167Y-11034931D02*
X8510691Y-11025408D01*
X8510691Y-11025408D02*
X8529739Y-11015884D01*
X8682120Y-11215884D02*
X8682120Y-11082550D01*
X8682120Y-11101598D02*
X8691644Y-11092074D01*
X8691644Y-11092074D02*
X8710691Y-11082550D01*
X8710691Y-11082550D02*
X8739263Y-11082550D01*
X8739263Y-11082550D02*
X8758310Y-11092074D01*
X8758310Y-11092074D02*
X8767834Y-11111122D01*
X8767834Y-11111122D02*
X8767834Y-11215884D01*
X8767834Y-11111122D02*
X8777358Y-11092074D01*
X8777358Y-11092074D02*
X8796405Y-11082550D01*
X8796405Y-11082550D02*
X8824977Y-11082550D01*
X8824977Y-11082550D02*
X8844025Y-11092074D01*
X8844025Y-11092074D02*
X8853548Y-11111122D01*
X8853548Y-11111122D02*
X8853548Y-11215884D01*
X8948786Y-11215884D02*
X8948786Y-11082550D01*
X8948786Y-11101598D02*
X8958310Y-11092074D01*
X8958310Y-11092074D02*
X8977358Y-11082550D01*
X8977358Y-11082550D02*
X9005929Y-11082550D01*
X9005929Y-11082550D02*
X9024977Y-11092074D01*
X9024977Y-11092074D02*
X9034501Y-11111122D01*
X9034501Y-11111122D02*
X9034501Y-11215884D01*
X9034501Y-11111122D02*
X9044025Y-11092074D01*
X9044025Y-11092074D02*
X9063072Y-11082550D01*
X9063072Y-11082550D02*
X9091644Y-11082550D01*
X9091644Y-11082550D02*
X9110691Y-11092074D01*
X9110691Y-11092074D02*
X9120215Y-11111122D01*
X9120215Y-11111122D02*
X9120215Y-11215884D01*
X9510691Y-11006360D02*
X9339263Y-11263503D01*
X9767834Y-11015884D02*
X9786882Y-11015884D01*
X9786882Y-11015884D02*
X9805929Y-11025408D01*
X9805929Y-11025408D02*
X9815453Y-11034931D01*
X9815453Y-11034931D02*
X9824977Y-11053979D01*
X9824977Y-11053979D02*
X9834501Y-11092074D01*
X9834501Y-11092074D02*
X9834501Y-11139693D01*
X9834501Y-11139693D02*
X9824977Y-11177789D01*
X9824977Y-11177789D02*
X9815453Y-11196836D01*
X9815453Y-11196836D02*
X9805929Y-11206360D01*
X9805929Y-11206360D02*
X9786882Y-11215884D01*
X9786882Y-11215884D02*
X9767834Y-11215884D01*
X9767834Y-11215884D02*
X9748787Y-11206360D01*
X9748787Y-11206360D02*
X9739263Y-11196836D01*
X9739263Y-11196836D02*
X9729739Y-11177789D01*
X9729739Y-11177789D02*
X9720215Y-11139693D01*
X9720215Y-11139693D02*
X9720215Y-11092074D01*
X9720215Y-11092074D02*
X9729739Y-11053979D01*
X9729739Y-11053979D02*
X9739263Y-11034931D01*
X9739263Y-11034931D02*
X9748787Y-11025408D01*
X9748787Y-11025408D02*
X9767834Y-11015884D01*
X9920215Y-11196836D02*
X9929739Y-11206360D01*
X9929739Y-11206360D02*
X9920215Y-11215884D01*
X9920215Y-11215884D02*
X9910691Y-11206360D01*
X9910691Y-11206360D02*
X9920215Y-11196836D01*
X9920215Y-11196836D02*
X9920215Y-11215884D01*
X10053548Y-11015884D02*
X10072596Y-11015884D01*
X10072596Y-11015884D02*
X10091644Y-11025408D01*
X10091644Y-11025408D02*
X10101168Y-11034931D01*
X10101168Y-11034931D02*
X10110691Y-11053979D01*
X10110691Y-11053979D02*
X10120215Y-11092074D01*
X10120215Y-11092074D02*
X10120215Y-11139693D01*
X10120215Y-11139693D02*
X10110691Y-11177789D01*
X10110691Y-11177789D02*
X10101168Y-11196836D01*
X10101168Y-11196836D02*
X10091644Y-11206360D01*
X10091644Y-11206360D02*
X10072596Y-11215884D01*
X10072596Y-11215884D02*
X10053548Y-11215884D01*
X10053548Y-11215884D02*
X10034501Y-11206360D01*
X10034501Y-11206360D02*
X10024977Y-11196836D01*
X10024977Y-11196836D02*
X10015453Y-11177789D01*
X10015453Y-11177789D02*
X10005929Y-11139693D01*
X10005929Y-11139693D02*
X10005929Y-11092074D01*
X10005929Y-11092074D02*
X10015453Y-11053979D01*
X10015453Y-11053979D02*
X10024977Y-11034931D01*
X10024977Y-11034931D02*
X10034501Y-11025408D01*
X10034501Y-11025408D02*
X10053548Y-11015884D01*
X10186882Y-11015884D02*
X10310691Y-11015884D01*
X10310691Y-11015884D02*
X10244025Y-11092074D01*
X10244025Y-11092074D02*
X10272596Y-11092074D01*
X10272596Y-11092074D02*
X10291644Y-11101598D01*
X10291644Y-11101598D02*
X10301168Y-11111122D01*
X10301168Y-11111122D02*
X10310691Y-11130170D01*
X10310691Y-11130170D02*
X10310691Y-11177789D01*
X10310691Y-11177789D02*
X10301168Y-11196836D01*
X10301168Y-11196836D02*
X10291644Y-11206360D01*
X10291644Y-11206360D02*
X10272596Y-11215884D01*
X10272596Y-11215884D02*
X10215453Y-11215884D01*
X10215453Y-11215884D02*
X10196406Y-11206360D01*
X10196406Y-11206360D02*
X10186882Y-11196836D01*
X10491644Y-11015884D02*
X10396406Y-11015884D01*
X10396406Y-11015884D02*
X10386882Y-11111122D01*
X10386882Y-11111122D02*
X10396406Y-11101598D01*
X10396406Y-11101598D02*
X10415453Y-11092074D01*
X10415453Y-11092074D02*
X10463072Y-11092074D01*
X10463072Y-11092074D02*
X10482120Y-11101598D01*
X10482120Y-11101598D02*
X10491644Y-11111122D01*
X10491644Y-11111122D02*
X10501168Y-11130170D01*
X10501168Y-11130170D02*
X10501168Y-11177789D01*
X10501168Y-11177789D02*
X10491644Y-11196836D01*
X10491644Y-11196836D02*
X10482120Y-11206360D01*
X10482120Y-11206360D02*
X10463072Y-11215884D01*
X10463072Y-11215884D02*
X10415453Y-11215884D01*
X10415453Y-11215884D02*
X10396406Y-11206360D01*
X10396406Y-11206360D02*
X10386882Y-11196836D01*
X10672596Y-11082550D02*
X10672596Y-11215884D01*
X10624977Y-11006360D02*
X10577358Y-11149217D01*
X10577358Y-11149217D02*
X10701168Y-11149217D01*
X10767834Y-11015884D02*
X10767834Y-11053979D01*
X10844025Y-11015884D02*
X10844025Y-11053979D01*
X11139263Y-11292074D02*
X11129739Y-11282550D01*
X11129739Y-11282550D02*
X11110691Y-11253979D01*
X11110691Y-11253979D02*
X11101168Y-11234931D01*
X11101168Y-11234931D02*
X11091644Y-11206360D01*
X11091644Y-11206360D02*
X11082120Y-11158741D01*
X11082120Y-11158741D02*
X11082120Y-11120646D01*
X11082120Y-11120646D02*
X11091644Y-11073027D01*
X11091644Y-11073027D02*
X11101168Y-11044455D01*
X11101168Y-11044455D02*
X11110691Y-11025408D01*
X11110691Y-11025408D02*
X11129739Y-10996836D01*
X11129739Y-10996836D02*
X11139263Y-10987312D01*
X11301168Y-11015884D02*
X11263072Y-11015884D01*
X11263072Y-11015884D02*
X11244025Y-11025408D01*
X11244025Y-11025408D02*
X11234501Y-11034931D01*
X11234501Y-11034931D02*
X11215453Y-11063503D01*
X11215453Y-11063503D02*
X11205929Y-11101598D01*
X11205929Y-11101598D02*
X11205929Y-11177789D01*
X11205929Y-11177789D02*
X11215453Y-11196836D01*
X11215453Y-11196836D02*
X11224977Y-11206360D01*
X11224977Y-11206360D02*
X11244025Y-11215884D01*
X11244025Y-11215884D02*
X11282120Y-11215884D01*
X11282120Y-11215884D02*
X11301168Y-11206360D01*
X11301168Y-11206360D02*
X11310691Y-11196836D01*
X11310691Y-11196836D02*
X11320215Y-11177789D01*
X11320215Y-11177789D02*
X11320215Y-11130170D01*
X11320215Y-11130170D02*
X11310691Y-11111122D01*
X11310691Y-11111122D02*
X11301168Y-11101598D01*
X11301168Y-11101598D02*
X11282120Y-11092074D01*
X11282120Y-11092074D02*
X11244025Y-11092074D01*
X11244025Y-11092074D02*
X11224977Y-11101598D01*
X11224977Y-11101598D02*
X11215453Y-11111122D01*
X11215453Y-11111122D02*
X11205929Y-11130170D01*
X11558310Y-11215884D02*
X11558310Y-11015884D01*
X11644025Y-11215884D02*
X11644025Y-11111122D01*
X11644025Y-11111122D02*
X11634501Y-11092074D01*
X11634501Y-11092074D02*
X11615453Y-11082550D01*
X11615453Y-11082550D02*
X11586882Y-11082550D01*
X11586882Y-11082550D02*
X11567834Y-11092074D01*
X11567834Y-11092074D02*
X11558310Y-11101598D01*
X11767834Y-11215884D02*
X11748787Y-11206360D01*
X11748787Y-11206360D02*
X11739263Y-11196836D01*
X11739263Y-11196836D02*
X11729739Y-11177789D01*
X11729739Y-11177789D02*
X11729739Y-11120646D01*
X11729739Y-11120646D02*
X11739263Y-11101598D01*
X11739263Y-11101598D02*
X11748787Y-11092074D01*
X11748787Y-11092074D02*
X11767834Y-11082550D01*
X11767834Y-11082550D02*
X11796406Y-11082550D01*
X11796406Y-11082550D02*
X11815453Y-11092074D01*
X11815453Y-11092074D02*
X11824977Y-11101598D01*
X11824977Y-11101598D02*
X11834501Y-11120646D01*
X11834501Y-11120646D02*
X11834501Y-11177789D01*
X11834501Y-11177789D02*
X11824977Y-11196836D01*
X11824977Y-11196836D02*
X11815453Y-11206360D01*
X11815453Y-11206360D02*
X11796406Y-11215884D01*
X11796406Y-11215884D02*
X11767834Y-11215884D01*
X11948787Y-11215884D02*
X11929739Y-11206360D01*
X11929739Y-11206360D02*
X11920215Y-11187312D01*
X11920215Y-11187312D02*
X11920215Y-11015884D01*
X12101168Y-11206360D02*
X12082120Y-11215884D01*
X12082120Y-11215884D02*
X12044025Y-11215884D01*
X12044025Y-11215884D02*
X12024977Y-11206360D01*
X12024977Y-11206360D02*
X12015453Y-11187312D01*
X12015453Y-11187312D02*
X12015453Y-11111122D01*
X12015453Y-11111122D02*
X12024977Y-11092074D01*
X12024977Y-11092074D02*
X12044025Y-11082550D01*
X12044025Y-11082550D02*
X12082120Y-11082550D01*
X12082120Y-11082550D02*
X12101168Y-11092074D01*
X12101168Y-11092074D02*
X12110691Y-11111122D01*
X12110691Y-11111122D02*
X12110691Y-11130170D01*
X12110691Y-11130170D02*
X12015453Y-11149217D01*
X12186882Y-11206360D02*
X12205930Y-11215884D01*
X12205930Y-11215884D02*
X12244025Y-11215884D01*
X12244025Y-11215884D02*
X12263072Y-11206360D01*
X12263072Y-11206360D02*
X12272596Y-11187312D01*
X12272596Y-11187312D02*
X12272596Y-11177789D01*
X12272596Y-11177789D02*
X12263072Y-11158741D01*
X12263072Y-11158741D02*
X12244025Y-11149217D01*
X12244025Y-11149217D02*
X12215453Y-11149217D01*
X12215453Y-11149217D02*
X12196406Y-11139693D01*
X12196406Y-11139693D02*
X12186882Y-11120646D01*
X12186882Y-11120646D02*
X12186882Y-11111122D01*
X12186882Y-11111122D02*
X12196406Y-11092074D01*
X12196406Y-11092074D02*
X12215453Y-11082550D01*
X12215453Y-11082550D02*
X12244025Y-11082550D01*
X12244025Y-11082550D02*
X12263072Y-11092074D01*
X12339263Y-11292074D02*
X12348787Y-11282550D01*
X12348787Y-11282550D02*
X12367834Y-11253979D01*
X12367834Y-11253979D02*
X12377358Y-11234931D01*
X12377358Y-11234931D02*
X12386882Y-11206360D01*
X12386882Y-11206360D02*
X12396406Y-11158741D01*
X12396406Y-11158741D02*
X12396406Y-11120646D01*
X12396406Y-11120646D02*
X12386882Y-11073027D01*
X12386882Y-11073027D02*
X12377358Y-11044455D01*
X12377358Y-11044455D02*
X12367834Y-11025408D01*
X12367834Y-11025408D02*
X12348787Y-10996836D01*
X12348787Y-10996836D02*
X12339263Y-10987312D01*
D10*
X7464200Y-11338400D02*
X7564200Y-11438400D01*
X7564200Y-11338400D02*
X7464200Y-11438400D01*
X7564200Y-11388400D02*
G75*
G03*
X7564200Y-11388400I-50000J0D01*
G01*
D11*
X7929739Y-11479884D02*
X7815453Y-11479884D01*
X7872596Y-11479884D02*
X7872596Y-11279884D01*
X7872596Y-11279884D02*
X7853548Y-11308455D01*
X7853548Y-11308455D02*
X7834501Y-11327503D01*
X7834501Y-11327503D02*
X7815453Y-11337027D01*
X8015453Y-11460836D02*
X8024977Y-11470360D01*
X8024977Y-11470360D02*
X8015453Y-11479884D01*
X8015453Y-11479884D02*
X8005929Y-11470360D01*
X8005929Y-11470360D02*
X8015453Y-11460836D01*
X8015453Y-11460836D02*
X8015453Y-11479884D01*
X8148786Y-11279884D02*
X8167834Y-11279884D01*
X8167834Y-11279884D02*
X8186882Y-11289408D01*
X8186882Y-11289408D02*
X8196405Y-11298931D01*
X8196405Y-11298931D02*
X8205929Y-11317979D01*
X8205929Y-11317979D02*
X8215453Y-11356074D01*
X8215453Y-11356074D02*
X8215453Y-11403693D01*
X8215453Y-11403693D02*
X8205929Y-11441788D01*
X8205929Y-11441788D02*
X8196405Y-11460836D01*
X8196405Y-11460836D02*
X8186882Y-11470360D01*
X8186882Y-11470360D02*
X8167834Y-11479884D01*
X8167834Y-11479884D02*
X8148786Y-11479884D01*
X8148786Y-11479884D02*
X8129739Y-11470360D01*
X8129739Y-11470360D02*
X8120215Y-11460836D01*
X8120215Y-11460836D02*
X8110691Y-11441788D01*
X8110691Y-11441788D02*
X8101167Y-11403693D01*
X8101167Y-11403693D02*
X8101167Y-11356074D01*
X8101167Y-11356074D02*
X8110691Y-11317979D01*
X8110691Y-11317979D02*
X8120215Y-11298931D01*
X8120215Y-11298931D02*
X8129739Y-11289408D01*
X8129739Y-11289408D02*
X8148786Y-11279884D01*
X8339262Y-11279884D02*
X8358310Y-11279884D01*
X8358310Y-11279884D02*
X8377358Y-11289408D01*
X8377358Y-11289408D02*
X8386882Y-11298931D01*
X8386882Y-11298931D02*
X8396405Y-11317979D01*
X8396405Y-11317979D02*
X8405929Y-11356074D01*
X8405929Y-11356074D02*
X8405929Y-11403693D01*
X8405929Y-11403693D02*
X8396405Y-11441788D01*
X8396405Y-11441788D02*
X8386882Y-11460836D01*
X8386882Y-11460836D02*
X8377358Y-11470360D01*
X8377358Y-11470360D02*
X8358310Y-11479884D01*
X8358310Y-11479884D02*
X8339262Y-11479884D01*
X8339262Y-11479884D02*
X8320215Y-11470360D01*
X8320215Y-11470360D02*
X8310691Y-11460836D01*
X8310691Y-11460836D02*
X8301167Y-11441788D01*
X8301167Y-11441788D02*
X8291643Y-11403693D01*
X8291643Y-11403693D02*
X8291643Y-11356074D01*
X8291643Y-11356074D02*
X8301167Y-11317979D01*
X8301167Y-11317979D02*
X8310691Y-11298931D01*
X8310691Y-11298931D02*
X8320215Y-11289408D01*
X8320215Y-11289408D02*
X8339262Y-11279884D01*
X8529739Y-11279884D02*
X8548786Y-11279884D01*
X8548786Y-11279884D02*
X8567834Y-11289408D01*
X8567834Y-11289408D02*
X8577358Y-11298931D01*
X8577358Y-11298931D02*
X8586882Y-11317979D01*
X8586882Y-11317979D02*
X8596405Y-11356074D01*
X8596405Y-11356074D02*
X8596405Y-11403693D01*
X8596405Y-11403693D02*
X8586882Y-11441788D01*
X8586882Y-11441788D02*
X8577358Y-11460836D01*
X8577358Y-11460836D02*
X8567834Y-11470360D01*
X8567834Y-11470360D02*
X8548786Y-11479884D01*
X8548786Y-11479884D02*
X8529739Y-11479884D01*
X8529739Y-11479884D02*
X8510691Y-11470360D01*
X8510691Y-11470360D02*
X8501167Y-11460836D01*
X8501167Y-11460836D02*
X8491644Y-11441788D01*
X8491644Y-11441788D02*
X8482120Y-11403693D01*
X8482120Y-11403693D02*
X8482120Y-11356074D01*
X8482120Y-11356074D02*
X8491644Y-11317979D01*
X8491644Y-11317979D02*
X8501167Y-11298931D01*
X8501167Y-11298931D02*
X8510691Y-11289408D01*
X8510691Y-11289408D02*
X8529739Y-11279884D01*
X8682120Y-11479884D02*
X8682120Y-11346550D01*
X8682120Y-11365598D02*
X8691644Y-11356074D01*
X8691644Y-11356074D02*
X8710691Y-11346550D01*
X8710691Y-11346550D02*
X8739263Y-11346550D01*
X8739263Y-11346550D02*
X8758310Y-11356074D01*
X8758310Y-11356074D02*
X8767834Y-11375122D01*
X8767834Y-11375122D02*
X8767834Y-11479884D01*
X8767834Y-11375122D02*
X8777358Y-11356074D01*
X8777358Y-11356074D02*
X8796405Y-11346550D01*
X8796405Y-11346550D02*
X8824977Y-11346550D01*
X8824977Y-11346550D02*
X8844025Y-11356074D01*
X8844025Y-11356074D02*
X8853548Y-11375122D01*
X8853548Y-11375122D02*
X8853548Y-11479884D01*
X8948786Y-11479884D02*
X8948786Y-11346550D01*
X8948786Y-11365598D02*
X8958310Y-11356074D01*
X8958310Y-11356074D02*
X8977358Y-11346550D01*
X8977358Y-11346550D02*
X9005929Y-11346550D01*
X9005929Y-11346550D02*
X9024977Y-11356074D01*
X9024977Y-11356074D02*
X9034501Y-11375122D01*
X9034501Y-11375122D02*
X9034501Y-11479884D01*
X9034501Y-11375122D02*
X9044025Y-11356074D01*
X9044025Y-11356074D02*
X9063072Y-11346550D01*
X9063072Y-11346550D02*
X9091644Y-11346550D01*
X9091644Y-11346550D02*
X9110691Y-11356074D01*
X9110691Y-11356074D02*
X9120215Y-11375122D01*
X9120215Y-11375122D02*
X9120215Y-11479884D01*
X9510691Y-11270360D02*
X9339263Y-11527503D01*
X9767834Y-11279884D02*
X9786882Y-11279884D01*
X9786882Y-11279884D02*
X9805929Y-11289408D01*
X9805929Y-11289408D02*
X9815453Y-11298931D01*
X9815453Y-11298931D02*
X9824977Y-11317979D01*
X9824977Y-11317979D02*
X9834501Y-11356074D01*
X9834501Y-11356074D02*
X9834501Y-11403693D01*
X9834501Y-11403693D02*
X9824977Y-11441788D01*
X9824977Y-11441788D02*
X9815453Y-11460836D01*
X9815453Y-11460836D02*
X9805929Y-11470360D01*
X9805929Y-11470360D02*
X9786882Y-11479884D01*
X9786882Y-11479884D02*
X9767834Y-11479884D01*
X9767834Y-11479884D02*
X9748787Y-11470360D01*
X9748787Y-11470360D02*
X9739263Y-11460836D01*
X9739263Y-11460836D02*
X9729739Y-11441788D01*
X9729739Y-11441788D02*
X9720215Y-11403693D01*
X9720215Y-11403693D02*
X9720215Y-11356074D01*
X9720215Y-11356074D02*
X9729739Y-11317979D01*
X9729739Y-11317979D02*
X9739263Y-11298931D01*
X9739263Y-11298931D02*
X9748787Y-11289408D01*
X9748787Y-11289408D02*
X9767834Y-11279884D01*
X9920215Y-11460836D02*
X9929739Y-11470360D01*
X9929739Y-11470360D02*
X9920215Y-11479884D01*
X9920215Y-11479884D02*
X9910691Y-11470360D01*
X9910691Y-11470360D02*
X9920215Y-11460836D01*
X9920215Y-11460836D02*
X9920215Y-11479884D01*
X10053548Y-11279884D02*
X10072596Y-11279884D01*
X10072596Y-11279884D02*
X10091644Y-11289408D01*
X10091644Y-11289408D02*
X10101168Y-11298931D01*
X10101168Y-11298931D02*
X10110691Y-11317979D01*
X10110691Y-11317979D02*
X10120215Y-11356074D01*
X10120215Y-11356074D02*
X10120215Y-11403693D01*
X10120215Y-11403693D02*
X10110691Y-11441788D01*
X10110691Y-11441788D02*
X10101168Y-11460836D01*
X10101168Y-11460836D02*
X10091644Y-11470360D01*
X10091644Y-11470360D02*
X10072596Y-11479884D01*
X10072596Y-11479884D02*
X10053548Y-11479884D01*
X10053548Y-11479884D02*
X10034501Y-11470360D01*
X10034501Y-11470360D02*
X10024977Y-11460836D01*
X10024977Y-11460836D02*
X10015453Y-11441788D01*
X10015453Y-11441788D02*
X10005929Y-11403693D01*
X10005929Y-11403693D02*
X10005929Y-11356074D01*
X10005929Y-11356074D02*
X10015453Y-11317979D01*
X10015453Y-11317979D02*
X10024977Y-11298931D01*
X10024977Y-11298931D02*
X10034501Y-11289408D01*
X10034501Y-11289408D02*
X10053548Y-11279884D01*
X10186882Y-11279884D02*
X10310691Y-11279884D01*
X10310691Y-11279884D02*
X10244025Y-11356074D01*
X10244025Y-11356074D02*
X10272596Y-11356074D01*
X10272596Y-11356074D02*
X10291644Y-11365598D01*
X10291644Y-11365598D02*
X10301168Y-11375122D01*
X10301168Y-11375122D02*
X10310691Y-11394169D01*
X10310691Y-11394169D02*
X10310691Y-11441788D01*
X10310691Y-11441788D02*
X10301168Y-11460836D01*
X10301168Y-11460836D02*
X10291644Y-11470360D01*
X10291644Y-11470360D02*
X10272596Y-11479884D01*
X10272596Y-11479884D02*
X10215453Y-11479884D01*
X10215453Y-11479884D02*
X10196406Y-11470360D01*
X10196406Y-11470360D02*
X10186882Y-11460836D01*
X10405929Y-11479884D02*
X10444025Y-11479884D01*
X10444025Y-11479884D02*
X10463072Y-11470360D01*
X10463072Y-11470360D02*
X10472596Y-11460836D01*
X10472596Y-11460836D02*
X10491644Y-11432265D01*
X10491644Y-11432265D02*
X10501168Y-11394169D01*
X10501168Y-11394169D02*
X10501168Y-11317979D01*
X10501168Y-11317979D02*
X10491644Y-11298931D01*
X10491644Y-11298931D02*
X10482120Y-11289408D01*
X10482120Y-11289408D02*
X10463072Y-11279884D01*
X10463072Y-11279884D02*
X10424977Y-11279884D01*
X10424977Y-11279884D02*
X10405929Y-11289408D01*
X10405929Y-11289408D02*
X10396406Y-11298931D01*
X10396406Y-11298931D02*
X10386882Y-11317979D01*
X10386882Y-11317979D02*
X10386882Y-11365598D01*
X10386882Y-11365598D02*
X10396406Y-11384646D01*
X10396406Y-11384646D02*
X10405929Y-11394169D01*
X10405929Y-11394169D02*
X10424977Y-11403693D01*
X10424977Y-11403693D02*
X10463072Y-11403693D01*
X10463072Y-11403693D02*
X10482120Y-11394169D01*
X10482120Y-11394169D02*
X10491644Y-11384646D01*
X10491644Y-11384646D02*
X10501168Y-11365598D01*
X10672596Y-11346550D02*
X10672596Y-11479884D01*
X10624977Y-11270360D02*
X10577358Y-11413217D01*
X10577358Y-11413217D02*
X10701168Y-11413217D01*
X10767834Y-11279884D02*
X10767834Y-11317979D01*
X10844025Y-11279884D02*
X10844025Y-11317979D01*
X11139263Y-11556074D02*
X11129739Y-11546550D01*
X11129739Y-11546550D02*
X11110691Y-11517979D01*
X11110691Y-11517979D02*
X11101168Y-11498931D01*
X11101168Y-11498931D02*
X11091644Y-11470360D01*
X11091644Y-11470360D02*
X11082120Y-11422741D01*
X11082120Y-11422741D02*
X11082120Y-11384646D01*
X11082120Y-11384646D02*
X11091644Y-11337027D01*
X11091644Y-11337027D02*
X11101168Y-11308455D01*
X11101168Y-11308455D02*
X11110691Y-11289408D01*
X11110691Y-11289408D02*
X11129739Y-11260836D01*
X11129739Y-11260836D02*
X11139263Y-11251312D01*
X11320215Y-11479884D02*
X11205929Y-11479884D01*
X11263072Y-11479884D02*
X11263072Y-11279884D01*
X11263072Y-11279884D02*
X11244025Y-11308455D01*
X11244025Y-11308455D02*
X11224977Y-11327503D01*
X11224977Y-11327503D02*
X11205929Y-11337027D01*
X11491644Y-11279884D02*
X11453548Y-11279884D01*
X11453548Y-11279884D02*
X11434501Y-11289408D01*
X11434501Y-11289408D02*
X11424977Y-11298931D01*
X11424977Y-11298931D02*
X11405929Y-11327503D01*
X11405929Y-11327503D02*
X11396406Y-11365598D01*
X11396406Y-11365598D02*
X11396406Y-11441788D01*
X11396406Y-11441788D02*
X11405929Y-11460836D01*
X11405929Y-11460836D02*
X11415453Y-11470360D01*
X11415453Y-11470360D02*
X11434501Y-11479884D01*
X11434501Y-11479884D02*
X11472596Y-11479884D01*
X11472596Y-11479884D02*
X11491644Y-11470360D01*
X11491644Y-11470360D02*
X11501168Y-11460836D01*
X11501168Y-11460836D02*
X11510691Y-11441788D01*
X11510691Y-11441788D02*
X11510691Y-11394169D01*
X11510691Y-11394169D02*
X11501168Y-11375122D01*
X11501168Y-11375122D02*
X11491644Y-11365598D01*
X11491644Y-11365598D02*
X11472596Y-11356074D01*
X11472596Y-11356074D02*
X11434501Y-11356074D01*
X11434501Y-11356074D02*
X11415453Y-11365598D01*
X11415453Y-11365598D02*
X11405929Y-11375122D01*
X11405929Y-11375122D02*
X11396406Y-11394169D01*
X11748787Y-11479884D02*
X11748787Y-11279884D01*
X11834501Y-11479884D02*
X11834501Y-11375122D01*
X11834501Y-11375122D02*
X11824977Y-11356074D01*
X11824977Y-11356074D02*
X11805930Y-11346550D01*
X11805930Y-11346550D02*
X11777358Y-11346550D01*
X11777358Y-11346550D02*
X11758310Y-11356074D01*
X11758310Y-11356074D02*
X11748787Y-11365598D01*
X11958310Y-11479884D02*
X11939263Y-11470360D01*
X11939263Y-11470360D02*
X11929739Y-11460836D01*
X11929739Y-11460836D02*
X11920215Y-11441788D01*
X11920215Y-11441788D02*
X11920215Y-11384646D01*
X11920215Y-11384646D02*
X11929739Y-11365598D01*
X11929739Y-11365598D02*
X11939263Y-11356074D01*
X11939263Y-11356074D02*
X11958310Y-11346550D01*
X11958310Y-11346550D02*
X11986882Y-11346550D01*
X11986882Y-11346550D02*
X12005930Y-11356074D01*
X12005930Y-11356074D02*
X12015453Y-11365598D01*
X12015453Y-11365598D02*
X12024977Y-11384646D01*
X12024977Y-11384646D02*
X12024977Y-11441788D01*
X12024977Y-11441788D02*
X12015453Y-11460836D01*
X12015453Y-11460836D02*
X12005930Y-11470360D01*
X12005930Y-11470360D02*
X11986882Y-11479884D01*
X11986882Y-11479884D02*
X11958310Y-11479884D01*
X12139263Y-11479884D02*
X12120215Y-11470360D01*
X12120215Y-11470360D02*
X12110691Y-11451312D01*
X12110691Y-11451312D02*
X12110691Y-11279884D01*
X12291644Y-11470360D02*
X12272596Y-11479884D01*
X12272596Y-11479884D02*
X12234501Y-11479884D01*
X12234501Y-11479884D02*
X12215453Y-11470360D01*
X12215453Y-11470360D02*
X12205930Y-11451312D01*
X12205930Y-11451312D02*
X12205930Y-11375122D01*
X12205930Y-11375122D02*
X12215453Y-11356074D01*
X12215453Y-11356074D02*
X12234501Y-11346550D01*
X12234501Y-11346550D02*
X12272596Y-11346550D01*
X12272596Y-11346550D02*
X12291644Y-11356074D01*
X12291644Y-11356074D02*
X12301168Y-11375122D01*
X12301168Y-11375122D02*
X12301168Y-11394169D01*
X12301168Y-11394169D02*
X12205930Y-11413217D01*
X12377358Y-11470360D02*
X12396406Y-11479884D01*
X12396406Y-11479884D02*
X12434501Y-11479884D01*
X12434501Y-11479884D02*
X12453549Y-11470360D01*
X12453549Y-11470360D02*
X12463072Y-11451312D01*
X12463072Y-11451312D02*
X12463072Y-11441788D01*
X12463072Y-11441788D02*
X12453549Y-11422741D01*
X12453549Y-11422741D02*
X12434501Y-11413217D01*
X12434501Y-11413217D02*
X12405930Y-11413217D01*
X12405930Y-11413217D02*
X12386882Y-11403693D01*
X12386882Y-11403693D02*
X12377358Y-11384646D01*
X12377358Y-11384646D02*
X12377358Y-11375122D01*
X12377358Y-11375122D02*
X12386882Y-11356074D01*
X12386882Y-11356074D02*
X12405930Y-11346550D01*
X12405930Y-11346550D02*
X12434501Y-11346550D01*
X12434501Y-11346550D02*
X12453549Y-11356074D01*
X12529739Y-11556074D02*
X12539263Y-11546550D01*
X12539263Y-11546550D02*
X12558311Y-11517979D01*
X12558311Y-11517979D02*
X12567834Y-11498931D01*
X12567834Y-11498931D02*
X12577358Y-11470360D01*
X12577358Y-11470360D02*
X12586882Y-11422741D01*
X12586882Y-11422741D02*
X12586882Y-11384646D01*
X12586882Y-11384646D02*
X12577358Y-11337027D01*
X12577358Y-11337027D02*
X12567834Y-11308455D01*
X12567834Y-11308455D02*
X12558311Y-11289408D01*
X12558311Y-11289408D02*
X12539263Y-11260836D01*
X12539263Y-11260836D02*
X12529739Y-11251312D01*
D17*
X7454200Y-11597400D02*
X7564200Y-11707400D01*
X7564200Y-11597400D02*
X7454200Y-11707400D01*
X7509200Y-11597400D02*
X7509200Y-11707400D01*
X7454200Y-11652400D02*
X7564200Y-11652400D01*
D11*
X7929739Y-11743884D02*
X7815453Y-11743884D01*
X7872596Y-11743884D02*
X7872596Y-11543884D01*
X7872596Y-11543884D02*
X7853548Y-11572455D01*
X7853548Y-11572455D02*
X7834501Y-11591503D01*
X7834501Y-11591503D02*
X7815453Y-11601027D01*
X8015453Y-11724836D02*
X8024977Y-11734360D01*
X8024977Y-11734360D02*
X8015453Y-11743884D01*
X8015453Y-11743884D02*
X8005929Y-11734360D01*
X8005929Y-11734360D02*
X8015453Y-11724836D01*
X8015453Y-11724836D02*
X8015453Y-11743884D01*
X8215453Y-11743884D02*
X8101167Y-11743884D01*
X8158310Y-11743884D02*
X8158310Y-11543884D01*
X8158310Y-11543884D02*
X8139262Y-11572455D01*
X8139262Y-11572455D02*
X8120215Y-11591503D01*
X8120215Y-11591503D02*
X8101167Y-11601027D01*
X8339262Y-11543884D02*
X8358310Y-11543884D01*
X8358310Y-11543884D02*
X8377358Y-11553408D01*
X8377358Y-11553408D02*
X8386882Y-11562931D01*
X8386882Y-11562931D02*
X8396405Y-11581979D01*
X8396405Y-11581979D02*
X8405929Y-11620074D01*
X8405929Y-11620074D02*
X8405929Y-11667693D01*
X8405929Y-11667693D02*
X8396405Y-11705788D01*
X8396405Y-11705788D02*
X8386882Y-11724836D01*
X8386882Y-11724836D02*
X8377358Y-11734360D01*
X8377358Y-11734360D02*
X8358310Y-11743884D01*
X8358310Y-11743884D02*
X8339262Y-11743884D01*
X8339262Y-11743884D02*
X8320215Y-11734360D01*
X8320215Y-11734360D02*
X8310691Y-11724836D01*
X8310691Y-11724836D02*
X8301167Y-11705788D01*
X8301167Y-11705788D02*
X8291643Y-11667693D01*
X8291643Y-11667693D02*
X8291643Y-11620074D01*
X8291643Y-11620074D02*
X8301167Y-11581979D01*
X8301167Y-11581979D02*
X8310691Y-11562931D01*
X8310691Y-11562931D02*
X8320215Y-11553408D01*
X8320215Y-11553408D02*
X8339262Y-11543884D01*
X8529739Y-11543884D02*
X8548786Y-11543884D01*
X8548786Y-11543884D02*
X8567834Y-11553408D01*
X8567834Y-11553408D02*
X8577358Y-11562931D01*
X8577358Y-11562931D02*
X8586882Y-11581979D01*
X8586882Y-11581979D02*
X8596405Y-11620074D01*
X8596405Y-11620074D02*
X8596405Y-11667693D01*
X8596405Y-11667693D02*
X8586882Y-11705788D01*
X8586882Y-11705788D02*
X8577358Y-11724836D01*
X8577358Y-11724836D02*
X8567834Y-11734360D01*
X8567834Y-11734360D02*
X8548786Y-11743884D01*
X8548786Y-11743884D02*
X8529739Y-11743884D01*
X8529739Y-11743884D02*
X8510691Y-11734360D01*
X8510691Y-11734360D02*
X8501167Y-11724836D01*
X8501167Y-11724836D02*
X8491644Y-11705788D01*
X8491644Y-11705788D02*
X8482120Y-11667693D01*
X8482120Y-11667693D02*
X8482120Y-11620074D01*
X8482120Y-11620074D02*
X8491644Y-11581979D01*
X8491644Y-11581979D02*
X8501167Y-11562931D01*
X8501167Y-11562931D02*
X8510691Y-11553408D01*
X8510691Y-11553408D02*
X8529739Y-11543884D01*
X8682120Y-11743884D02*
X8682120Y-11610550D01*
X8682120Y-11629598D02*
X8691644Y-11620074D01*
X8691644Y-11620074D02*
X8710691Y-11610550D01*
X8710691Y-11610550D02*
X8739263Y-11610550D01*
X8739263Y-11610550D02*
X8758310Y-11620074D01*
X8758310Y-11620074D02*
X8767834Y-11639122D01*
X8767834Y-11639122D02*
X8767834Y-11743884D01*
X8767834Y-11639122D02*
X8777358Y-11620074D01*
X8777358Y-11620074D02*
X8796405Y-11610550D01*
X8796405Y-11610550D02*
X8824977Y-11610550D01*
X8824977Y-11610550D02*
X8844025Y-11620074D01*
X8844025Y-11620074D02*
X8853548Y-11639122D01*
X8853548Y-11639122D02*
X8853548Y-11743884D01*
X8948786Y-11743884D02*
X8948786Y-11610550D01*
X8948786Y-11629598D02*
X8958310Y-11620074D01*
X8958310Y-11620074D02*
X8977358Y-11610550D01*
X8977358Y-11610550D02*
X9005929Y-11610550D01*
X9005929Y-11610550D02*
X9024977Y-11620074D01*
X9024977Y-11620074D02*
X9034501Y-11639122D01*
X9034501Y-11639122D02*
X9034501Y-11743884D01*
X9034501Y-11639122D02*
X9044025Y-11620074D01*
X9044025Y-11620074D02*
X9063072Y-11610550D01*
X9063072Y-11610550D02*
X9091644Y-11610550D01*
X9091644Y-11610550D02*
X9110691Y-11620074D01*
X9110691Y-11620074D02*
X9120215Y-11639122D01*
X9120215Y-11639122D02*
X9120215Y-11743884D01*
X9510691Y-11534360D02*
X9339263Y-11791503D01*
X9767834Y-11543884D02*
X9786882Y-11543884D01*
X9786882Y-11543884D02*
X9805929Y-11553408D01*
X9805929Y-11553408D02*
X9815453Y-11562931D01*
X9815453Y-11562931D02*
X9824977Y-11581979D01*
X9824977Y-11581979D02*
X9834501Y-11620074D01*
X9834501Y-11620074D02*
X9834501Y-11667693D01*
X9834501Y-11667693D02*
X9824977Y-11705788D01*
X9824977Y-11705788D02*
X9815453Y-11724836D01*
X9815453Y-11724836D02*
X9805929Y-11734360D01*
X9805929Y-11734360D02*
X9786882Y-11743884D01*
X9786882Y-11743884D02*
X9767834Y-11743884D01*
X9767834Y-11743884D02*
X9748787Y-11734360D01*
X9748787Y-11734360D02*
X9739263Y-11724836D01*
X9739263Y-11724836D02*
X9729739Y-11705788D01*
X9729739Y-11705788D02*
X9720215Y-11667693D01*
X9720215Y-11667693D02*
X9720215Y-11620074D01*
X9720215Y-11620074D02*
X9729739Y-11581979D01*
X9729739Y-11581979D02*
X9739263Y-11562931D01*
X9739263Y-11562931D02*
X9748787Y-11553408D01*
X9748787Y-11553408D02*
X9767834Y-11543884D01*
X9920215Y-11724836D02*
X9929739Y-11734360D01*
X9929739Y-11734360D02*
X9920215Y-11743884D01*
X9920215Y-11743884D02*
X9910691Y-11734360D01*
X9910691Y-11734360D02*
X9920215Y-11724836D01*
X9920215Y-11724836D02*
X9920215Y-11743884D01*
X10053548Y-11543884D02*
X10072596Y-11543884D01*
X10072596Y-11543884D02*
X10091644Y-11553408D01*
X10091644Y-11553408D02*
X10101168Y-11562931D01*
X10101168Y-11562931D02*
X10110691Y-11581979D01*
X10110691Y-11581979D02*
X10120215Y-11620074D01*
X10120215Y-11620074D02*
X10120215Y-11667693D01*
X10120215Y-11667693D02*
X10110691Y-11705788D01*
X10110691Y-11705788D02*
X10101168Y-11724836D01*
X10101168Y-11724836D02*
X10091644Y-11734360D01*
X10091644Y-11734360D02*
X10072596Y-11743884D01*
X10072596Y-11743884D02*
X10053548Y-11743884D01*
X10053548Y-11743884D02*
X10034501Y-11734360D01*
X10034501Y-11734360D02*
X10024977Y-11724836D01*
X10024977Y-11724836D02*
X10015453Y-11705788D01*
X10015453Y-11705788D02*
X10005929Y-11667693D01*
X10005929Y-11667693D02*
X10005929Y-11620074D01*
X10005929Y-11620074D02*
X10015453Y-11581979D01*
X10015453Y-11581979D02*
X10024977Y-11562931D01*
X10024977Y-11562931D02*
X10034501Y-11553408D01*
X10034501Y-11553408D02*
X10053548Y-11543884D01*
X10291644Y-11610550D02*
X10291644Y-11743884D01*
X10244025Y-11534360D02*
X10196406Y-11677217D01*
X10196406Y-11677217D02*
X10320215Y-11677217D01*
X10377358Y-11543884D02*
X10501168Y-11543884D01*
X10501168Y-11543884D02*
X10434501Y-11620074D01*
X10434501Y-11620074D02*
X10463072Y-11620074D01*
X10463072Y-11620074D02*
X10482120Y-11629598D01*
X10482120Y-11629598D02*
X10491644Y-11639122D01*
X10491644Y-11639122D02*
X10501168Y-11658169D01*
X10501168Y-11658169D02*
X10501168Y-11705788D01*
X10501168Y-11705788D02*
X10491644Y-11724836D01*
X10491644Y-11724836D02*
X10482120Y-11734360D01*
X10482120Y-11734360D02*
X10463072Y-11743884D01*
X10463072Y-11743884D02*
X10405929Y-11743884D01*
X10405929Y-11743884D02*
X10386882Y-11734360D01*
X10386882Y-11734360D02*
X10377358Y-11724836D01*
X10567834Y-11543884D02*
X10691644Y-11543884D01*
X10691644Y-11543884D02*
X10624977Y-11620074D01*
X10624977Y-11620074D02*
X10653549Y-11620074D01*
X10653549Y-11620074D02*
X10672596Y-11629598D01*
X10672596Y-11629598D02*
X10682120Y-11639122D01*
X10682120Y-11639122D02*
X10691644Y-11658169D01*
X10691644Y-11658169D02*
X10691644Y-11705788D01*
X10691644Y-11705788D02*
X10682120Y-11724836D01*
X10682120Y-11724836D02*
X10672596Y-11734360D01*
X10672596Y-11734360D02*
X10653549Y-11743884D01*
X10653549Y-11743884D02*
X10596406Y-11743884D01*
X10596406Y-11743884D02*
X10577358Y-11734360D01*
X10577358Y-11734360D02*
X10567834Y-11724836D01*
X10767834Y-11543884D02*
X10767834Y-11581979D01*
X10844025Y-11543884D02*
X10844025Y-11581979D01*
X11139263Y-11820074D02*
X11129739Y-11810550D01*
X11129739Y-11810550D02*
X11110691Y-11781979D01*
X11110691Y-11781979D02*
X11101168Y-11762931D01*
X11101168Y-11762931D02*
X11091644Y-11734360D01*
X11091644Y-11734360D02*
X11082120Y-11686741D01*
X11082120Y-11686741D02*
X11082120Y-11648646D01*
X11082120Y-11648646D02*
X11091644Y-11601027D01*
X11091644Y-11601027D02*
X11101168Y-11572455D01*
X11101168Y-11572455D02*
X11110691Y-11553408D01*
X11110691Y-11553408D02*
X11129739Y-11524836D01*
X11129739Y-11524836D02*
X11139263Y-11515312D01*
X11301168Y-11543884D02*
X11263072Y-11543884D01*
X11263072Y-11543884D02*
X11244025Y-11553408D01*
X11244025Y-11553408D02*
X11234501Y-11562931D01*
X11234501Y-11562931D02*
X11215453Y-11591503D01*
X11215453Y-11591503D02*
X11205929Y-11629598D01*
X11205929Y-11629598D02*
X11205929Y-11705788D01*
X11205929Y-11705788D02*
X11215453Y-11724836D01*
X11215453Y-11724836D02*
X11224977Y-11734360D01*
X11224977Y-11734360D02*
X11244025Y-11743884D01*
X11244025Y-11743884D02*
X11282120Y-11743884D01*
X11282120Y-11743884D02*
X11301168Y-11734360D01*
X11301168Y-11734360D02*
X11310691Y-11724836D01*
X11310691Y-11724836D02*
X11320215Y-11705788D01*
X11320215Y-11705788D02*
X11320215Y-11658169D01*
X11320215Y-11658169D02*
X11310691Y-11639122D01*
X11310691Y-11639122D02*
X11301168Y-11629598D01*
X11301168Y-11629598D02*
X11282120Y-11620074D01*
X11282120Y-11620074D02*
X11244025Y-11620074D01*
X11244025Y-11620074D02*
X11224977Y-11629598D01*
X11224977Y-11629598D02*
X11215453Y-11639122D01*
X11215453Y-11639122D02*
X11205929Y-11658169D01*
X11558310Y-11743884D02*
X11558310Y-11543884D01*
X11644025Y-11743884D02*
X11644025Y-11639122D01*
X11644025Y-11639122D02*
X11634501Y-11620074D01*
X11634501Y-11620074D02*
X11615453Y-11610550D01*
X11615453Y-11610550D02*
X11586882Y-11610550D01*
X11586882Y-11610550D02*
X11567834Y-11620074D01*
X11567834Y-11620074D02*
X11558310Y-11629598D01*
X11767834Y-11743884D02*
X11748787Y-11734360D01*
X11748787Y-11734360D02*
X11739263Y-11724836D01*
X11739263Y-11724836D02*
X11729739Y-11705788D01*
X11729739Y-11705788D02*
X11729739Y-11648646D01*
X11729739Y-11648646D02*
X11739263Y-11629598D01*
X11739263Y-11629598D02*
X11748787Y-11620074D01*
X11748787Y-11620074D02*
X11767834Y-11610550D01*
X11767834Y-11610550D02*
X11796406Y-11610550D01*
X11796406Y-11610550D02*
X11815453Y-11620074D01*
X11815453Y-11620074D02*
X11824977Y-11629598D01*
X11824977Y-11629598D02*
X11834501Y-11648646D01*
X11834501Y-11648646D02*
X11834501Y-11705788D01*
X11834501Y-11705788D02*
X11824977Y-11724836D01*
X11824977Y-11724836D02*
X11815453Y-11734360D01*
X11815453Y-11734360D02*
X11796406Y-11743884D01*
X11796406Y-11743884D02*
X11767834Y-11743884D01*
X11948787Y-11743884D02*
X11929739Y-11734360D01*
X11929739Y-11734360D02*
X11920215Y-11715312D01*
X11920215Y-11715312D02*
X11920215Y-11543884D01*
X12101168Y-11734360D02*
X12082120Y-11743884D01*
X12082120Y-11743884D02*
X12044025Y-11743884D01*
X12044025Y-11743884D02*
X12024977Y-11734360D01*
X12024977Y-11734360D02*
X12015453Y-11715312D01*
X12015453Y-11715312D02*
X12015453Y-11639122D01*
X12015453Y-11639122D02*
X12024977Y-11620074D01*
X12024977Y-11620074D02*
X12044025Y-11610550D01*
X12044025Y-11610550D02*
X12082120Y-11610550D01*
X12082120Y-11610550D02*
X12101168Y-11620074D01*
X12101168Y-11620074D02*
X12110691Y-11639122D01*
X12110691Y-11639122D02*
X12110691Y-11658169D01*
X12110691Y-11658169D02*
X12015453Y-11677217D01*
X12186882Y-11734360D02*
X12205930Y-11743884D01*
X12205930Y-11743884D02*
X12244025Y-11743884D01*
X12244025Y-11743884D02*
X12263072Y-11734360D01*
X12263072Y-11734360D02*
X12272596Y-11715312D01*
X12272596Y-11715312D02*
X12272596Y-11705788D01*
X12272596Y-11705788D02*
X12263072Y-11686741D01*
X12263072Y-11686741D02*
X12244025Y-11677217D01*
X12244025Y-11677217D02*
X12215453Y-11677217D01*
X12215453Y-11677217D02*
X12196406Y-11667693D01*
X12196406Y-11667693D02*
X12186882Y-11648646D01*
X12186882Y-11648646D02*
X12186882Y-11639122D01*
X12186882Y-11639122D02*
X12196406Y-11620074D01*
X12196406Y-11620074D02*
X12215453Y-11610550D01*
X12215453Y-11610550D02*
X12244025Y-11610550D01*
X12244025Y-11610550D02*
X12263072Y-11620074D01*
X12339263Y-11820074D02*
X12348787Y-11810550D01*
X12348787Y-11810550D02*
X12367834Y-11781979D01*
X12367834Y-11781979D02*
X12377358Y-11762931D01*
X12377358Y-11762931D02*
X12386882Y-11734360D01*
X12386882Y-11734360D02*
X12396406Y-11686741D01*
X12396406Y-11686741D02*
X12396406Y-11648646D01*
X12396406Y-11648646D02*
X12386882Y-11601027D01*
X12386882Y-11601027D02*
X12377358Y-11572455D01*
X12377358Y-11572455D02*
X12367834Y-11553408D01*
X12367834Y-11553408D02*
X12348787Y-11524836D01*
X12348787Y-11524836D02*
X12339263Y-11515312D01*
D18*
X7404200Y-11836400D02*
X7564200Y-11996400D01*
X7564200Y-11836400D02*
X7404200Y-11996400D01*
X7540769Y-11972969D02*
X7540769Y-11859831D01*
X7427631Y-11859831D01*
X7427631Y-11972969D01*
X7540769Y-11972969D01*
D11*
X7929739Y-12007884D02*
X7815453Y-12007884D01*
X7872596Y-12007884D02*
X7872596Y-11807884D01*
X7872596Y-11807884D02*
X7853548Y-11836455D01*
X7853548Y-11836455D02*
X7834501Y-11855503D01*
X7834501Y-11855503D02*
X7815453Y-11865027D01*
X8015453Y-11988836D02*
X8024977Y-11998360D01*
X8024977Y-11998360D02*
X8015453Y-12007884D01*
X8015453Y-12007884D02*
X8005929Y-11998360D01*
X8005929Y-11998360D02*
X8015453Y-11988836D01*
X8015453Y-11988836D02*
X8015453Y-12007884D01*
X8196405Y-11807884D02*
X8158310Y-11807884D01*
X8158310Y-11807884D02*
X8139262Y-11817408D01*
X8139262Y-11817408D02*
X8129739Y-11826931D01*
X8129739Y-11826931D02*
X8110691Y-11855503D01*
X8110691Y-11855503D02*
X8101167Y-11893598D01*
X8101167Y-11893598D02*
X8101167Y-11969788D01*
X8101167Y-11969788D02*
X8110691Y-11988836D01*
X8110691Y-11988836D02*
X8120215Y-11998360D01*
X8120215Y-11998360D02*
X8139262Y-12007884D01*
X8139262Y-12007884D02*
X8177358Y-12007884D01*
X8177358Y-12007884D02*
X8196405Y-11998360D01*
X8196405Y-11998360D02*
X8205929Y-11988836D01*
X8205929Y-11988836D02*
X8215453Y-11969788D01*
X8215453Y-11969788D02*
X8215453Y-11922169D01*
X8215453Y-11922169D02*
X8205929Y-11903122D01*
X8205929Y-11903122D02*
X8196405Y-11893598D01*
X8196405Y-11893598D02*
X8177358Y-11884074D01*
X8177358Y-11884074D02*
X8139262Y-11884074D01*
X8139262Y-11884074D02*
X8120215Y-11893598D01*
X8120215Y-11893598D02*
X8110691Y-11903122D01*
X8110691Y-11903122D02*
X8101167Y-11922169D01*
X8339262Y-11807884D02*
X8358310Y-11807884D01*
X8358310Y-11807884D02*
X8377358Y-11817408D01*
X8377358Y-11817408D02*
X8386882Y-11826931D01*
X8386882Y-11826931D02*
X8396405Y-11845979D01*
X8396405Y-11845979D02*
X8405929Y-11884074D01*
X8405929Y-11884074D02*
X8405929Y-11931693D01*
X8405929Y-11931693D02*
X8396405Y-11969788D01*
X8396405Y-11969788D02*
X8386882Y-11988836D01*
X8386882Y-11988836D02*
X8377358Y-11998360D01*
X8377358Y-11998360D02*
X8358310Y-12007884D01*
X8358310Y-12007884D02*
X8339262Y-12007884D01*
X8339262Y-12007884D02*
X8320215Y-11998360D01*
X8320215Y-11998360D02*
X8310691Y-11988836D01*
X8310691Y-11988836D02*
X8301167Y-11969788D01*
X8301167Y-11969788D02*
X8291643Y-11931693D01*
X8291643Y-11931693D02*
X8291643Y-11884074D01*
X8291643Y-11884074D02*
X8301167Y-11845979D01*
X8301167Y-11845979D02*
X8310691Y-11826931D01*
X8310691Y-11826931D02*
X8320215Y-11817408D01*
X8320215Y-11817408D02*
X8339262Y-11807884D01*
X8529739Y-11807884D02*
X8548786Y-11807884D01*
X8548786Y-11807884D02*
X8567834Y-11817408D01*
X8567834Y-11817408D02*
X8577358Y-11826931D01*
X8577358Y-11826931D02*
X8586882Y-11845979D01*
X8586882Y-11845979D02*
X8596405Y-11884074D01*
X8596405Y-11884074D02*
X8596405Y-11931693D01*
X8596405Y-11931693D02*
X8586882Y-11969788D01*
X8586882Y-11969788D02*
X8577358Y-11988836D01*
X8577358Y-11988836D02*
X8567834Y-11998360D01*
X8567834Y-11998360D02*
X8548786Y-12007884D01*
X8548786Y-12007884D02*
X8529739Y-12007884D01*
X8529739Y-12007884D02*
X8510691Y-11998360D01*
X8510691Y-11998360D02*
X8501167Y-11988836D01*
X8501167Y-11988836D02*
X8491644Y-11969788D01*
X8491644Y-11969788D02*
X8482120Y-11931693D01*
X8482120Y-11931693D02*
X8482120Y-11884074D01*
X8482120Y-11884074D02*
X8491644Y-11845979D01*
X8491644Y-11845979D02*
X8501167Y-11826931D01*
X8501167Y-11826931D02*
X8510691Y-11817408D01*
X8510691Y-11817408D02*
X8529739Y-11807884D01*
X8682120Y-12007884D02*
X8682120Y-11874550D01*
X8682120Y-11893598D02*
X8691644Y-11884074D01*
X8691644Y-11884074D02*
X8710691Y-11874550D01*
X8710691Y-11874550D02*
X8739263Y-11874550D01*
X8739263Y-11874550D02*
X8758310Y-11884074D01*
X8758310Y-11884074D02*
X8767834Y-11903122D01*
X8767834Y-11903122D02*
X8767834Y-12007884D01*
X8767834Y-11903122D02*
X8777358Y-11884074D01*
X8777358Y-11884074D02*
X8796405Y-11874550D01*
X8796405Y-11874550D02*
X8824977Y-11874550D01*
X8824977Y-11874550D02*
X8844025Y-11884074D01*
X8844025Y-11884074D02*
X8853548Y-11903122D01*
X8853548Y-11903122D02*
X8853548Y-12007884D01*
X8948786Y-12007884D02*
X8948786Y-11874550D01*
X8948786Y-11893598D02*
X8958310Y-11884074D01*
X8958310Y-11884074D02*
X8977358Y-11874550D01*
X8977358Y-11874550D02*
X9005929Y-11874550D01*
X9005929Y-11874550D02*
X9024977Y-11884074D01*
X9024977Y-11884074D02*
X9034501Y-11903122D01*
X9034501Y-11903122D02*
X9034501Y-12007884D01*
X9034501Y-11903122D02*
X9044025Y-11884074D01*
X9044025Y-11884074D02*
X9063072Y-11874550D01*
X9063072Y-11874550D02*
X9091644Y-11874550D01*
X9091644Y-11874550D02*
X9110691Y-11884074D01*
X9110691Y-11884074D02*
X9120215Y-11903122D01*
X9120215Y-11903122D02*
X9120215Y-12007884D01*
X9510691Y-11798360D02*
X9339263Y-12055503D01*
X9767834Y-11807884D02*
X9786882Y-11807884D01*
X9786882Y-11807884D02*
X9805929Y-11817408D01*
X9805929Y-11817408D02*
X9815453Y-11826931D01*
X9815453Y-11826931D02*
X9824977Y-11845979D01*
X9824977Y-11845979D02*
X9834501Y-11884074D01*
X9834501Y-11884074D02*
X9834501Y-11931693D01*
X9834501Y-11931693D02*
X9824977Y-11969788D01*
X9824977Y-11969788D02*
X9815453Y-11988836D01*
X9815453Y-11988836D02*
X9805929Y-11998360D01*
X9805929Y-11998360D02*
X9786882Y-12007884D01*
X9786882Y-12007884D02*
X9767834Y-12007884D01*
X9767834Y-12007884D02*
X9748787Y-11998360D01*
X9748787Y-11998360D02*
X9739263Y-11988836D01*
X9739263Y-11988836D02*
X9729739Y-11969788D01*
X9729739Y-11969788D02*
X9720215Y-11931693D01*
X9720215Y-11931693D02*
X9720215Y-11884074D01*
X9720215Y-11884074D02*
X9729739Y-11845979D01*
X9729739Y-11845979D02*
X9739263Y-11826931D01*
X9739263Y-11826931D02*
X9748787Y-11817408D01*
X9748787Y-11817408D02*
X9767834Y-11807884D01*
X9920215Y-11988836D02*
X9929739Y-11998360D01*
X9929739Y-11998360D02*
X9920215Y-12007884D01*
X9920215Y-12007884D02*
X9910691Y-11998360D01*
X9910691Y-11998360D02*
X9920215Y-11988836D01*
X9920215Y-11988836D02*
X9920215Y-12007884D01*
X10053548Y-11807884D02*
X10072596Y-11807884D01*
X10072596Y-11807884D02*
X10091644Y-11817408D01*
X10091644Y-11817408D02*
X10101168Y-11826931D01*
X10101168Y-11826931D02*
X10110691Y-11845979D01*
X10110691Y-11845979D02*
X10120215Y-11884074D01*
X10120215Y-11884074D02*
X10120215Y-11931693D01*
X10120215Y-11931693D02*
X10110691Y-11969788D01*
X10110691Y-11969788D02*
X10101168Y-11988836D01*
X10101168Y-11988836D02*
X10091644Y-11998360D01*
X10091644Y-11998360D02*
X10072596Y-12007884D01*
X10072596Y-12007884D02*
X10053548Y-12007884D01*
X10053548Y-12007884D02*
X10034501Y-11998360D01*
X10034501Y-11998360D02*
X10024977Y-11988836D01*
X10024977Y-11988836D02*
X10015453Y-11969788D01*
X10015453Y-11969788D02*
X10005929Y-11931693D01*
X10005929Y-11931693D02*
X10005929Y-11884074D01*
X10005929Y-11884074D02*
X10015453Y-11845979D01*
X10015453Y-11845979D02*
X10024977Y-11826931D01*
X10024977Y-11826931D02*
X10034501Y-11817408D01*
X10034501Y-11817408D02*
X10053548Y-11807884D01*
X10291644Y-11807884D02*
X10253548Y-11807884D01*
X10253548Y-11807884D02*
X10234501Y-11817408D01*
X10234501Y-11817408D02*
X10224977Y-11826931D01*
X10224977Y-11826931D02*
X10205929Y-11855503D01*
X10205929Y-11855503D02*
X10196406Y-11893598D01*
X10196406Y-11893598D02*
X10196406Y-11969788D01*
X10196406Y-11969788D02*
X10205929Y-11988836D01*
X10205929Y-11988836D02*
X10215453Y-11998360D01*
X10215453Y-11998360D02*
X10234501Y-12007884D01*
X10234501Y-12007884D02*
X10272596Y-12007884D01*
X10272596Y-12007884D02*
X10291644Y-11998360D01*
X10291644Y-11998360D02*
X10301168Y-11988836D01*
X10301168Y-11988836D02*
X10310691Y-11969788D01*
X10310691Y-11969788D02*
X10310691Y-11922169D01*
X10310691Y-11922169D02*
X10301168Y-11903122D01*
X10301168Y-11903122D02*
X10291644Y-11893598D01*
X10291644Y-11893598D02*
X10272596Y-11884074D01*
X10272596Y-11884074D02*
X10234501Y-11884074D01*
X10234501Y-11884074D02*
X10215453Y-11893598D01*
X10215453Y-11893598D02*
X10205929Y-11903122D01*
X10205929Y-11903122D02*
X10196406Y-11922169D01*
X10377358Y-11807884D02*
X10501168Y-11807884D01*
X10501168Y-11807884D02*
X10434501Y-11884074D01*
X10434501Y-11884074D02*
X10463072Y-11884074D01*
X10463072Y-11884074D02*
X10482120Y-11893598D01*
X10482120Y-11893598D02*
X10491644Y-11903122D01*
X10491644Y-11903122D02*
X10501168Y-11922169D01*
X10501168Y-11922169D02*
X10501168Y-11969788D01*
X10501168Y-11969788D02*
X10491644Y-11988836D01*
X10491644Y-11988836D02*
X10482120Y-11998360D01*
X10482120Y-11998360D02*
X10463072Y-12007884D01*
X10463072Y-12007884D02*
X10405929Y-12007884D01*
X10405929Y-12007884D02*
X10386882Y-11998360D01*
X10386882Y-11998360D02*
X10377358Y-11988836D01*
X10624977Y-11807884D02*
X10644025Y-11807884D01*
X10644025Y-11807884D02*
X10663072Y-11817408D01*
X10663072Y-11817408D02*
X10672596Y-11826931D01*
X10672596Y-11826931D02*
X10682120Y-11845979D01*
X10682120Y-11845979D02*
X10691644Y-11884074D01*
X10691644Y-11884074D02*
X10691644Y-11931693D01*
X10691644Y-11931693D02*
X10682120Y-11969788D01*
X10682120Y-11969788D02*
X10672596Y-11988836D01*
X10672596Y-11988836D02*
X10663072Y-11998360D01*
X10663072Y-11998360D02*
X10644025Y-12007884D01*
X10644025Y-12007884D02*
X10624977Y-12007884D01*
X10624977Y-12007884D02*
X10605929Y-11998360D01*
X10605929Y-11998360D02*
X10596406Y-11988836D01*
X10596406Y-11988836D02*
X10586882Y-11969788D01*
X10586882Y-11969788D02*
X10577358Y-11931693D01*
X10577358Y-11931693D02*
X10577358Y-11884074D01*
X10577358Y-11884074D02*
X10586882Y-11845979D01*
X10586882Y-11845979D02*
X10596406Y-11826931D01*
X10596406Y-11826931D02*
X10605929Y-11817408D01*
X10605929Y-11817408D02*
X10624977Y-11807884D01*
X10767834Y-11807884D02*
X10767834Y-11845979D01*
X10844025Y-11807884D02*
X10844025Y-11845979D01*
X11139263Y-12084074D02*
X11129739Y-12074550D01*
X11129739Y-12074550D02*
X11110691Y-12045979D01*
X11110691Y-12045979D02*
X11101168Y-12026931D01*
X11101168Y-12026931D02*
X11091644Y-11998360D01*
X11091644Y-11998360D02*
X11082120Y-11950741D01*
X11082120Y-11950741D02*
X11082120Y-11912646D01*
X11082120Y-11912646D02*
X11091644Y-11865027D01*
X11091644Y-11865027D02*
X11101168Y-11836455D01*
X11101168Y-11836455D02*
X11110691Y-11817408D01*
X11110691Y-11817408D02*
X11129739Y-11788836D01*
X11129739Y-11788836D02*
X11139263Y-11779312D01*
X11320215Y-12007884D02*
X11205929Y-12007884D01*
X11263072Y-12007884D02*
X11263072Y-11807884D01*
X11263072Y-11807884D02*
X11244025Y-11836455D01*
X11244025Y-11836455D02*
X11224977Y-11855503D01*
X11224977Y-11855503D02*
X11205929Y-11865027D01*
X11558310Y-12007884D02*
X11558310Y-11807884D01*
X11644025Y-12007884D02*
X11644025Y-11903122D01*
X11644025Y-11903122D02*
X11634501Y-11884074D01*
X11634501Y-11884074D02*
X11615453Y-11874550D01*
X11615453Y-11874550D02*
X11586882Y-11874550D01*
X11586882Y-11874550D02*
X11567834Y-11884074D01*
X11567834Y-11884074D02*
X11558310Y-11893598D01*
X11767834Y-12007884D02*
X11748787Y-11998360D01*
X11748787Y-11998360D02*
X11739263Y-11988836D01*
X11739263Y-11988836D02*
X11729739Y-11969788D01*
X11729739Y-11969788D02*
X11729739Y-11912646D01*
X11729739Y-11912646D02*
X11739263Y-11893598D01*
X11739263Y-11893598D02*
X11748787Y-11884074D01*
X11748787Y-11884074D02*
X11767834Y-11874550D01*
X11767834Y-11874550D02*
X11796406Y-11874550D01*
X11796406Y-11874550D02*
X11815453Y-11884074D01*
X11815453Y-11884074D02*
X11824977Y-11893598D01*
X11824977Y-11893598D02*
X11834501Y-11912646D01*
X11834501Y-11912646D02*
X11834501Y-11969788D01*
X11834501Y-11969788D02*
X11824977Y-11988836D01*
X11824977Y-11988836D02*
X11815453Y-11998360D01*
X11815453Y-11998360D02*
X11796406Y-12007884D01*
X11796406Y-12007884D02*
X11767834Y-12007884D01*
X11948787Y-12007884D02*
X11929739Y-11998360D01*
X11929739Y-11998360D02*
X11920215Y-11979312D01*
X11920215Y-11979312D02*
X11920215Y-11807884D01*
X12101168Y-11998360D02*
X12082120Y-12007884D01*
X12082120Y-12007884D02*
X12044025Y-12007884D01*
X12044025Y-12007884D02*
X12024977Y-11998360D01*
X12024977Y-11998360D02*
X12015453Y-11979312D01*
X12015453Y-11979312D02*
X12015453Y-11903122D01*
X12015453Y-11903122D02*
X12024977Y-11884074D01*
X12024977Y-11884074D02*
X12044025Y-11874550D01*
X12044025Y-11874550D02*
X12082120Y-11874550D01*
X12082120Y-11874550D02*
X12101168Y-11884074D01*
X12101168Y-11884074D02*
X12110691Y-11903122D01*
X12110691Y-11903122D02*
X12110691Y-11922169D01*
X12110691Y-11922169D02*
X12015453Y-11941217D01*
X12177358Y-12084074D02*
X12186882Y-12074550D01*
X12186882Y-12074550D02*
X12205930Y-12045979D01*
X12205930Y-12045979D02*
X12215453Y-12026931D01*
X12215453Y-12026931D02*
X12224977Y-11998360D01*
X12224977Y-11998360D02*
X12234501Y-11950741D01*
X12234501Y-11950741D02*
X12234501Y-11912646D01*
X12234501Y-11912646D02*
X12224977Y-11865027D01*
X12224977Y-11865027D02*
X12215453Y-11836455D01*
X12215453Y-11836455D02*
X12205930Y-11817408D01*
X12205930Y-11817408D02*
X12186882Y-11788836D01*
X12186882Y-11788836D02*
X12177358Y-11779312D01*
X7364200Y-12096400D02*
X7564200Y-12296400D01*
X7564200Y-12096400D02*
X7364200Y-12296400D01*
X7464200Y-12296400D02*
X7564200Y-12196400D01*
X7464200Y-12096400D01*
X7364200Y-12196400D01*
X7464200Y-12296400D01*
X7805929Y-12087884D02*
X7929739Y-12087884D01*
X7929739Y-12087884D02*
X7863072Y-12164074D01*
X7863072Y-12164074D02*
X7891643Y-12164074D01*
X7891643Y-12164074D02*
X7910691Y-12173598D01*
X7910691Y-12173598D02*
X7920215Y-12183122D01*
X7920215Y-12183122D02*
X7929739Y-12202169D01*
X7929739Y-12202169D02*
X7929739Y-12249788D01*
X7929739Y-12249788D02*
X7920215Y-12268836D01*
X7920215Y-12268836D02*
X7910691Y-12278360D01*
X7910691Y-12278360D02*
X7891643Y-12287884D01*
X7891643Y-12287884D02*
X7834501Y-12287884D01*
X7834501Y-12287884D02*
X7815453Y-12278360D01*
X7815453Y-12278360D02*
X7805929Y-12268836D01*
X8015453Y-12268836D02*
X8024977Y-12278360D01*
X8024977Y-12278360D02*
X8015453Y-12287884D01*
X8015453Y-12287884D02*
X8005929Y-12278360D01*
X8005929Y-12278360D02*
X8015453Y-12268836D01*
X8015453Y-12268836D02*
X8015453Y-12287884D01*
X8101167Y-12106931D02*
X8110691Y-12097408D01*
X8110691Y-12097408D02*
X8129739Y-12087884D01*
X8129739Y-12087884D02*
X8177358Y-12087884D01*
X8177358Y-12087884D02*
X8196405Y-12097408D01*
X8196405Y-12097408D02*
X8205929Y-12106931D01*
X8205929Y-12106931D02*
X8215453Y-12125979D01*
X8215453Y-12125979D02*
X8215453Y-12145027D01*
X8215453Y-12145027D02*
X8205929Y-12173598D01*
X8205929Y-12173598D02*
X8091643Y-12287884D01*
X8091643Y-12287884D02*
X8215453Y-12287884D01*
X8339262Y-12087884D02*
X8358310Y-12087884D01*
X8358310Y-12087884D02*
X8377358Y-12097408D01*
X8377358Y-12097408D02*
X8386882Y-12106931D01*
X8386882Y-12106931D02*
X8396405Y-12125979D01*
X8396405Y-12125979D02*
X8405929Y-12164074D01*
X8405929Y-12164074D02*
X8405929Y-12211693D01*
X8405929Y-12211693D02*
X8396405Y-12249788D01*
X8396405Y-12249788D02*
X8386882Y-12268836D01*
X8386882Y-12268836D02*
X8377358Y-12278360D01*
X8377358Y-12278360D02*
X8358310Y-12287884D01*
X8358310Y-12287884D02*
X8339262Y-12287884D01*
X8339262Y-12287884D02*
X8320215Y-12278360D01*
X8320215Y-12278360D02*
X8310691Y-12268836D01*
X8310691Y-12268836D02*
X8301167Y-12249788D01*
X8301167Y-12249788D02*
X8291643Y-12211693D01*
X8291643Y-12211693D02*
X8291643Y-12164074D01*
X8291643Y-12164074D02*
X8301167Y-12125979D01*
X8301167Y-12125979D02*
X8310691Y-12106931D01*
X8310691Y-12106931D02*
X8320215Y-12097408D01*
X8320215Y-12097408D02*
X8339262Y-12087884D01*
X8529739Y-12087884D02*
X8548786Y-12087884D01*
X8548786Y-12087884D02*
X8567834Y-12097408D01*
X8567834Y-12097408D02*
X8577358Y-12106931D01*
X8577358Y-12106931D02*
X8586882Y-12125979D01*
X8586882Y-12125979D02*
X8596405Y-12164074D01*
X8596405Y-12164074D02*
X8596405Y-12211693D01*
X8596405Y-12211693D02*
X8586882Y-12249788D01*
X8586882Y-12249788D02*
X8577358Y-12268836D01*
X8577358Y-12268836D02*
X8567834Y-12278360D01*
X8567834Y-12278360D02*
X8548786Y-12287884D01*
X8548786Y-12287884D02*
X8529739Y-12287884D01*
X8529739Y-12287884D02*
X8510691Y-12278360D01*
X8510691Y-12278360D02*
X8501167Y-12268836D01*
X8501167Y-12268836D02*
X8491644Y-12249788D01*
X8491644Y-12249788D02*
X8482120Y-12211693D01*
X8482120Y-12211693D02*
X8482120Y-12164074D01*
X8482120Y-12164074D02*
X8491644Y-12125979D01*
X8491644Y-12125979D02*
X8501167Y-12106931D01*
X8501167Y-12106931D02*
X8510691Y-12097408D01*
X8510691Y-12097408D02*
X8529739Y-12087884D01*
X8682120Y-12287884D02*
X8682120Y-12154550D01*
X8682120Y-12173598D02*
X8691644Y-12164074D01*
X8691644Y-12164074D02*
X8710691Y-12154550D01*
X8710691Y-12154550D02*
X8739263Y-12154550D01*
X8739263Y-12154550D02*
X8758310Y-12164074D01*
X8758310Y-12164074D02*
X8767834Y-12183122D01*
X8767834Y-12183122D02*
X8767834Y-12287884D01*
X8767834Y-12183122D02*
X8777358Y-12164074D01*
X8777358Y-12164074D02*
X8796405Y-12154550D01*
X8796405Y-12154550D02*
X8824977Y-12154550D01*
X8824977Y-12154550D02*
X8844025Y-12164074D01*
X8844025Y-12164074D02*
X8853548Y-12183122D01*
X8853548Y-12183122D02*
X8853548Y-12287884D01*
X8948786Y-12287884D02*
X8948786Y-12154550D01*
X8948786Y-12173598D02*
X8958310Y-12164074D01*
X8958310Y-12164074D02*
X8977358Y-12154550D01*
X8977358Y-12154550D02*
X9005929Y-12154550D01*
X9005929Y-12154550D02*
X9024977Y-12164074D01*
X9024977Y-12164074D02*
X9034501Y-12183122D01*
X9034501Y-12183122D02*
X9034501Y-12287884D01*
X9034501Y-12183122D02*
X9044025Y-12164074D01*
X9044025Y-12164074D02*
X9063072Y-12154550D01*
X9063072Y-12154550D02*
X9091644Y-12154550D01*
X9091644Y-12154550D02*
X9110691Y-12164074D01*
X9110691Y-12164074D02*
X9120215Y-12183122D01*
X9120215Y-12183122D02*
X9120215Y-12287884D01*
X9510691Y-12078360D02*
X9339263Y-12335503D01*
X9767834Y-12087884D02*
X9786882Y-12087884D01*
X9786882Y-12087884D02*
X9805929Y-12097408D01*
X9805929Y-12097408D02*
X9815453Y-12106931D01*
X9815453Y-12106931D02*
X9824977Y-12125979D01*
X9824977Y-12125979D02*
X9834501Y-12164074D01*
X9834501Y-12164074D02*
X9834501Y-12211693D01*
X9834501Y-12211693D02*
X9824977Y-12249788D01*
X9824977Y-12249788D02*
X9815453Y-12268836D01*
X9815453Y-12268836D02*
X9805929Y-12278360D01*
X9805929Y-12278360D02*
X9786882Y-12287884D01*
X9786882Y-12287884D02*
X9767834Y-12287884D01*
X9767834Y-12287884D02*
X9748787Y-12278360D01*
X9748787Y-12278360D02*
X9739263Y-12268836D01*
X9739263Y-12268836D02*
X9729739Y-12249788D01*
X9729739Y-12249788D02*
X9720215Y-12211693D01*
X9720215Y-12211693D02*
X9720215Y-12164074D01*
X9720215Y-12164074D02*
X9729739Y-12125979D01*
X9729739Y-12125979D02*
X9739263Y-12106931D01*
X9739263Y-12106931D02*
X9748787Y-12097408D01*
X9748787Y-12097408D02*
X9767834Y-12087884D01*
X9920215Y-12268836D02*
X9929739Y-12278360D01*
X9929739Y-12278360D02*
X9920215Y-12287884D01*
X9920215Y-12287884D02*
X9910691Y-12278360D01*
X9910691Y-12278360D02*
X9920215Y-12268836D01*
X9920215Y-12268836D02*
X9920215Y-12287884D01*
X10120215Y-12287884D02*
X10005929Y-12287884D01*
X10063072Y-12287884D02*
X10063072Y-12087884D01*
X10063072Y-12087884D02*
X10044025Y-12116455D01*
X10044025Y-12116455D02*
X10024977Y-12135503D01*
X10024977Y-12135503D02*
X10005929Y-12145027D01*
X10196406Y-12106931D02*
X10205929Y-12097408D01*
X10205929Y-12097408D02*
X10224977Y-12087884D01*
X10224977Y-12087884D02*
X10272596Y-12087884D01*
X10272596Y-12087884D02*
X10291644Y-12097408D01*
X10291644Y-12097408D02*
X10301168Y-12106931D01*
X10301168Y-12106931D02*
X10310691Y-12125979D01*
X10310691Y-12125979D02*
X10310691Y-12145027D01*
X10310691Y-12145027D02*
X10301168Y-12173598D01*
X10301168Y-12173598D02*
X10186882Y-12287884D01*
X10186882Y-12287884D02*
X10310691Y-12287884D01*
X10482120Y-12087884D02*
X10444025Y-12087884D01*
X10444025Y-12087884D02*
X10424977Y-12097408D01*
X10424977Y-12097408D02*
X10415453Y-12106931D01*
X10415453Y-12106931D02*
X10396406Y-12135503D01*
X10396406Y-12135503D02*
X10386882Y-12173598D01*
X10386882Y-12173598D02*
X10386882Y-12249788D01*
X10386882Y-12249788D02*
X10396406Y-12268836D01*
X10396406Y-12268836D02*
X10405929Y-12278360D01*
X10405929Y-12278360D02*
X10424977Y-12287884D01*
X10424977Y-12287884D02*
X10463072Y-12287884D01*
X10463072Y-12287884D02*
X10482120Y-12278360D01*
X10482120Y-12278360D02*
X10491644Y-12268836D01*
X10491644Y-12268836D02*
X10501168Y-12249788D01*
X10501168Y-12249788D02*
X10501168Y-12202169D01*
X10501168Y-12202169D02*
X10491644Y-12183122D01*
X10491644Y-12183122D02*
X10482120Y-12173598D01*
X10482120Y-12173598D02*
X10463072Y-12164074D01*
X10463072Y-12164074D02*
X10424977Y-12164074D01*
X10424977Y-12164074D02*
X10405929Y-12173598D01*
X10405929Y-12173598D02*
X10396406Y-12183122D01*
X10396406Y-12183122D02*
X10386882Y-12202169D01*
X10624977Y-12087884D02*
X10644025Y-12087884D01*
X10644025Y-12087884D02*
X10663072Y-12097408D01*
X10663072Y-12097408D02*
X10672596Y-12106931D01*
X10672596Y-12106931D02*
X10682120Y-12125979D01*
X10682120Y-12125979D02*
X10691644Y-12164074D01*
X10691644Y-12164074D02*
X10691644Y-12211693D01*
X10691644Y-12211693D02*
X10682120Y-12249788D01*
X10682120Y-12249788D02*
X10672596Y-12268836D01*
X10672596Y-12268836D02*
X10663072Y-12278360D01*
X10663072Y-12278360D02*
X10644025Y-12287884D01*
X10644025Y-12287884D02*
X10624977Y-12287884D01*
X10624977Y-12287884D02*
X10605929Y-12278360D01*
X10605929Y-12278360D02*
X10596406Y-12268836D01*
X10596406Y-12268836D02*
X10586882Y-12249788D01*
X10586882Y-12249788D02*
X10577358Y-12211693D01*
X10577358Y-12211693D02*
X10577358Y-12164074D01*
X10577358Y-12164074D02*
X10586882Y-12125979D01*
X10586882Y-12125979D02*
X10596406Y-12106931D01*
X10596406Y-12106931D02*
X10605929Y-12097408D01*
X10605929Y-12097408D02*
X10624977Y-12087884D01*
X10767834Y-12087884D02*
X10767834Y-12125979D01*
X10844025Y-12087884D02*
X10844025Y-12125979D01*
X11139263Y-12364074D02*
X11129739Y-12354550D01*
X11129739Y-12354550D02*
X11110691Y-12325979D01*
X11110691Y-12325979D02*
X11101168Y-12306931D01*
X11101168Y-12306931D02*
X11091644Y-12278360D01*
X11091644Y-12278360D02*
X11082120Y-12230741D01*
X11082120Y-12230741D02*
X11082120Y-12192646D01*
X11082120Y-12192646D02*
X11091644Y-12145027D01*
X11091644Y-12145027D02*
X11101168Y-12116455D01*
X11101168Y-12116455D02*
X11110691Y-12097408D01*
X11110691Y-12097408D02*
X11129739Y-12068836D01*
X11129739Y-12068836D02*
X11139263Y-12059312D01*
X11301168Y-12154550D02*
X11301168Y-12287884D01*
X11253548Y-12078360D02*
X11205929Y-12221217D01*
X11205929Y-12221217D02*
X11329739Y-12221217D01*
X11558310Y-12287884D02*
X11558310Y-12087884D01*
X11644025Y-12287884D02*
X11644025Y-12183122D01*
X11644025Y-12183122D02*
X11634501Y-12164074D01*
X11634501Y-12164074D02*
X11615453Y-12154550D01*
X11615453Y-12154550D02*
X11586882Y-12154550D01*
X11586882Y-12154550D02*
X11567834Y-12164074D01*
X11567834Y-12164074D02*
X11558310Y-12173598D01*
X11767834Y-12287884D02*
X11748787Y-12278360D01*
X11748787Y-12278360D02*
X11739263Y-12268836D01*
X11739263Y-12268836D02*
X11729739Y-12249788D01*
X11729739Y-12249788D02*
X11729739Y-12192646D01*
X11729739Y-12192646D02*
X11739263Y-12173598D01*
X11739263Y-12173598D02*
X11748787Y-12164074D01*
X11748787Y-12164074D02*
X11767834Y-12154550D01*
X11767834Y-12154550D02*
X11796406Y-12154550D01*
X11796406Y-12154550D02*
X11815453Y-12164074D01*
X11815453Y-12164074D02*
X11824977Y-12173598D01*
X11824977Y-12173598D02*
X11834501Y-12192646D01*
X11834501Y-12192646D02*
X11834501Y-12249788D01*
X11834501Y-12249788D02*
X11824977Y-12268836D01*
X11824977Y-12268836D02*
X11815453Y-12278360D01*
X11815453Y-12278360D02*
X11796406Y-12287884D01*
X11796406Y-12287884D02*
X11767834Y-12287884D01*
X11948787Y-12287884D02*
X11929739Y-12278360D01*
X11929739Y-12278360D02*
X11920215Y-12259312D01*
X11920215Y-12259312D02*
X11920215Y-12087884D01*
X12101168Y-12278360D02*
X12082120Y-12287884D01*
X12082120Y-12287884D02*
X12044025Y-12287884D01*
X12044025Y-12287884D02*
X12024977Y-12278360D01*
X12024977Y-12278360D02*
X12015453Y-12259312D01*
X12015453Y-12259312D02*
X12015453Y-12183122D01*
X12015453Y-12183122D02*
X12024977Y-12164074D01*
X12024977Y-12164074D02*
X12044025Y-12154550D01*
X12044025Y-12154550D02*
X12082120Y-12154550D01*
X12082120Y-12154550D02*
X12101168Y-12164074D01*
X12101168Y-12164074D02*
X12110691Y-12183122D01*
X12110691Y-12183122D02*
X12110691Y-12202169D01*
X12110691Y-12202169D02*
X12015453Y-12221217D01*
X12186882Y-12278360D02*
X12205930Y-12287884D01*
X12205930Y-12287884D02*
X12244025Y-12287884D01*
X12244025Y-12287884D02*
X12263072Y-12278360D01*
X12263072Y-12278360D02*
X12272596Y-12259312D01*
X12272596Y-12259312D02*
X12272596Y-12249788D01*
X12272596Y-12249788D02*
X12263072Y-12230741D01*
X12263072Y-12230741D02*
X12244025Y-12221217D01*
X12244025Y-12221217D02*
X12215453Y-12221217D01*
X12215453Y-12221217D02*
X12196406Y-12211693D01*
X12196406Y-12211693D02*
X12186882Y-12192646D01*
X12186882Y-12192646D02*
X12186882Y-12183122D01*
X12186882Y-12183122D02*
X12196406Y-12164074D01*
X12196406Y-12164074D02*
X12215453Y-12154550D01*
X12215453Y-12154550D02*
X12244025Y-12154550D01*
X12244025Y-12154550D02*
X12263072Y-12164074D01*
X12339263Y-12364074D02*
X12348787Y-12354550D01*
X12348787Y-12354550D02*
X12367834Y-12325979D01*
X12367834Y-12325979D02*
X12377358Y-12306931D01*
X12377358Y-12306931D02*
X12386882Y-12278360D01*
X12386882Y-12278360D02*
X12396406Y-12230741D01*
X12396406Y-12230741D02*
X12396406Y-12192646D01*
X12396406Y-12192646D02*
X12386882Y-12145027D01*
X12386882Y-12145027D02*
X12377358Y-12116455D01*
X12377358Y-12116455D02*
X12367834Y-12097408D01*
X12367834Y-12097408D02*
X12348787Y-12068836D01*
X12348787Y-12068836D02*
X12339263Y-12059312D01*
M02*
