G04 #@! TF.GenerationSoftware,KiCad,Pcbnew,7.0.5-0*
G04 #@! TF.CreationDate,2023-06-23T22:43:01+02:00*
G04 #@! TF.ProjectId,ps2_interface,7073325f-696e-4746-9572-666163652e6b,1.2*
G04 #@! TF.SameCoordinates,Original*
G04 #@! TF.FileFunction,Copper,L2,Bot*
G04 #@! TF.FilePolarity,Positive*
%FSLAX46Y46*%
G04 Gerber Fmt 4.6, Leading zero omitted, Abs format (unit mm)*
G04 Created by KiCad (PCBNEW 7.0.5-0) date 2023-06-23 22:43:01*
%MOMM*%
%LPD*%
G01*
G04 APERTURE LIST*
G04 #@! TA.AperFunction,ComponentPad*
%ADD10C,1.600000*%
G04 #@! TD*
G04 #@! TA.AperFunction,ComponentPad*
%ADD11R,2.200000X2.200000*%
G04 #@! TD*
G04 #@! TA.AperFunction,ComponentPad*
%ADD12O,2.200000X2.200000*%
G04 #@! TD*
G04 #@! TA.AperFunction,ComponentPad*
%ADD13O,1.600000X1.600000*%
G04 #@! TD*
G04 #@! TA.AperFunction,ComponentPad*
%ADD14R,1.600000X1.600000*%
G04 #@! TD*
G04 #@! TA.AperFunction,ComponentPad*
%ADD15C,1.700000*%
G04 #@! TD*
G04 #@! TA.AperFunction,ComponentPad*
%ADD16R,3.200000X2.200000*%
G04 #@! TD*
G04 #@! TA.AperFunction,ComponentPad*
%ADD17R,2.200000X3.700000*%
G04 #@! TD*
G04 #@! TA.AperFunction,ComponentPad*
%ADD18C,6.400000*%
G04 #@! TD*
G04 #@! TA.AperFunction,ComponentPad*
%ADD19R,1.200000X1.200000*%
G04 #@! TD*
G04 #@! TA.AperFunction,ComponentPad*
%ADD20C,1.200000*%
G04 #@! TD*
G04 #@! TA.AperFunction,ComponentPad*
%ADD21R,1.700000X1.700000*%
G04 #@! TD*
G04 #@! TA.AperFunction,ComponentPad*
%ADD22O,1.700000X1.700000*%
G04 #@! TD*
G04 #@! TA.AperFunction,ComponentPad*
%ADD23C,3.000000*%
G04 #@! TD*
G04 #@! TA.AperFunction,ViaPad*
%ADD24C,0.600000*%
G04 #@! TD*
G04 #@! TA.AperFunction,Conductor*
%ADD25C,0.254000*%
G04 #@! TD*
G04 #@! TA.AperFunction,Conductor*
%ADD26C,0.152400*%
G04 #@! TD*
G04 APERTURE END LIST*
D10*
X118070000Y-69596000D03*
X113070000Y-69596000D03*
X147066000Y-70846000D03*
X147066000Y-68346000D03*
X125476000Y-84328000D03*
X125476000Y-86828000D03*
X125476000Y-73406000D03*
X125476000Y-75906000D03*
X104125000Y-84338000D03*
X104125000Y-86838000D03*
X104125000Y-73416000D03*
X104125000Y-75916000D03*
X93726000Y-73660000D03*
X96226000Y-73660000D03*
D11*
X99568000Y-69596000D03*
D12*
X91948000Y-69596000D03*
D10*
X110236000Y-69596000D03*
D13*
X102616000Y-69596000D03*
D10*
X90678000Y-91694000D03*
D13*
X90678000Y-84074000D03*
D10*
X120650000Y-69596000D03*
D13*
X128270000Y-69596000D03*
D14*
X128524000Y-91948000D03*
D13*
X131064000Y-91948000D03*
X133604000Y-91948000D03*
X136144000Y-91948000D03*
X138684000Y-91948000D03*
X141224000Y-91948000D03*
X143764000Y-91948000D03*
X146304000Y-91948000D03*
X146304000Y-84328000D03*
X143764000Y-84328000D03*
X141224000Y-84328000D03*
X138684000Y-84328000D03*
X136144000Y-84328000D03*
X133604000Y-84328000D03*
X131064000Y-84328000D03*
X128524000Y-84328000D03*
D14*
X128524000Y-81026000D03*
D13*
X131064000Y-81026000D03*
X133604000Y-81026000D03*
X136144000Y-81026000D03*
X138684000Y-81026000D03*
X141224000Y-81026000D03*
X143764000Y-81026000D03*
X146304000Y-81026000D03*
X146304000Y-73406000D03*
X143764000Y-73406000D03*
X141224000Y-73406000D03*
X138684000Y-73406000D03*
X136144000Y-73406000D03*
X133604000Y-73406000D03*
X131064000Y-73406000D03*
X128524000Y-73406000D03*
D14*
X107183000Y-91938000D03*
D13*
X109723000Y-91938000D03*
X112263000Y-91938000D03*
X114803000Y-91938000D03*
X117343000Y-91938000D03*
X119883000Y-91938000D03*
X122423000Y-91938000D03*
X122423000Y-84318000D03*
X119883000Y-84318000D03*
X117343000Y-84318000D03*
X114803000Y-84318000D03*
X112263000Y-84318000D03*
X109723000Y-84318000D03*
X107183000Y-84318000D03*
D15*
X84405000Y-78262000D03*
X84405000Y-75662000D03*
X84405000Y-80362000D03*
X84405000Y-73562000D03*
X87030000Y-80362000D03*
X87030000Y-73562000D03*
D16*
X81280000Y-83962000D03*
D17*
X80480000Y-76962000D03*
D16*
X81280000Y-69962000D03*
D18*
X80010000Y-89916000D03*
X154686000Y-64262000D03*
X154686000Y-89916000D03*
X80010000Y-64262000D03*
D14*
X107188000Y-81016000D03*
D13*
X109728000Y-81016000D03*
X112268000Y-81016000D03*
X114808000Y-81016000D03*
X117348000Y-81016000D03*
X119888000Y-81016000D03*
X122428000Y-81016000D03*
X122428000Y-73396000D03*
X119888000Y-73396000D03*
X117348000Y-73396000D03*
X114808000Y-73396000D03*
X112268000Y-73396000D03*
X109728000Y-73396000D03*
X107188000Y-73396000D03*
D10*
X90678000Y-73660000D03*
D13*
X90678000Y-81280000D03*
D19*
X88348600Y-62992000D03*
D20*
X86348600Y-62992000D03*
D21*
X87127000Y-86868000D03*
D22*
X84587000Y-86868000D03*
D23*
X148336000Y-64008000D03*
D14*
X93726000Y-76454000D03*
D13*
X93726000Y-78994000D03*
X93726000Y-81534000D03*
X93726000Y-84074000D03*
X93726000Y-86614000D03*
X93726000Y-89154000D03*
X93726000Y-91694000D03*
X101346000Y-91694000D03*
X101346000Y-89154000D03*
X101346000Y-86614000D03*
X101346000Y-84074000D03*
X101346000Y-81534000D03*
X101346000Y-78994000D03*
X101346000Y-76454000D03*
D11*
X99568000Y-66040000D03*
D12*
X91948000Y-66040000D03*
D11*
X99568000Y-62484000D03*
D12*
X91948000Y-62484000D03*
D14*
X149616000Y-69591000D03*
D13*
X149616000Y-72131000D03*
X149616000Y-74671000D03*
X149616000Y-77211000D03*
X149616000Y-79751000D03*
X149616000Y-82291000D03*
X149616000Y-84831000D03*
X157236000Y-84831000D03*
X157236000Y-82291000D03*
X157236000Y-79751000D03*
X157236000Y-77211000D03*
X157236000Y-74671000D03*
X157236000Y-72131000D03*
X157236000Y-69591000D03*
D21*
X103632000Y-62484000D03*
D22*
X106172000Y-62484000D03*
X108712000Y-62484000D03*
X111252000Y-62484000D03*
X113792000Y-62484000D03*
X116332000Y-62484000D03*
X118872000Y-62484000D03*
X121412000Y-62484000D03*
X123952000Y-62484000D03*
X126492000Y-62484000D03*
X129032000Y-62484000D03*
X131572000Y-62484000D03*
X134112000Y-62484000D03*
X136652000Y-62484000D03*
D24*
X128778000Y-89408000D03*
X144018000Y-74930000D03*
X135382000Y-76454000D03*
D25*
X97782200Y-68078022D02*
X97790000Y-68070222D01*
X102944000Y-77097000D02*
X102944000Y-85657000D01*
X150797000Y-77724000D02*
X150797000Y-71641813D01*
X81280000Y-65532000D02*
X81280000Y-69962000D01*
X81005000Y-76962000D02*
X84405000Y-80362000D01*
X102944000Y-85657000D02*
X104125000Y-86838000D01*
X125476000Y-91186000D02*
X127419000Y-93129000D01*
X125476000Y-75906000D02*
X125476000Y-77968000D01*
X84405000Y-80362000D02*
X81280000Y-83487000D01*
X150021187Y-70866000D02*
X148590000Y-70866000D01*
X127419000Y-93129000D02*
X145123000Y-93129000D01*
X88337600Y-61003000D02*
X86348600Y-62992000D01*
X125476000Y-77968000D02*
X122428000Y-81016000D01*
X150797000Y-71641813D02*
X150021187Y-70866000D01*
X81280000Y-83962000D02*
X81280000Y-88646000D01*
X123604000Y-82192000D02*
X122428000Y-81016000D01*
X146304000Y-81026000D02*
X148760000Y-78570000D01*
X97790000Y-72096000D02*
X97790000Y-71121778D01*
X122423000Y-89881000D02*
X125476000Y-86828000D01*
X97790000Y-71121778D02*
X97782200Y-71113978D01*
X148760000Y-78570000D02*
X149951000Y-78570000D01*
X125476000Y-86828000D02*
X123604000Y-84956000D01*
X104125000Y-75916000D02*
X102944000Y-77097000D01*
X122423000Y-91938000D02*
X122423000Y-89881000D01*
X149951000Y-78570000D02*
X150797000Y-77724000D01*
X145123000Y-93129000D02*
X146304000Y-91948000D01*
X148247000Y-70523000D02*
X148247000Y-69527000D01*
X81280000Y-69962000D02*
X81280000Y-76162000D01*
X126657000Y-74725000D02*
X126657000Y-71209000D01*
X97790000Y-68070222D02*
X97790000Y-61511000D01*
X96226000Y-73660000D02*
X97790000Y-72096000D01*
X147066000Y-65278000D02*
X148336000Y-64008000D01*
X98298000Y-61003000D02*
X88337600Y-61003000D01*
X106172000Y-62484000D02*
X104691000Y-61003000D01*
X125476000Y-75906000D02*
X126657000Y-74725000D01*
X126657000Y-71209000D02*
X128270000Y-69596000D01*
X147066000Y-68346000D02*
X147066000Y-65278000D01*
X149616000Y-84831000D02*
X146304000Y-81519000D01*
X86348600Y-62992000D02*
X81280000Y-62992000D01*
X148247000Y-69527000D02*
X147066000Y-68346000D01*
X104691000Y-61003000D02*
X98298000Y-61003000D01*
X123604000Y-84956000D02*
X123604000Y-82192000D01*
X97790000Y-61511000D02*
X98298000Y-61003000D01*
X125476000Y-86828000D02*
X125476000Y-91186000D01*
X148336000Y-64008000D02*
X154432000Y-64008000D01*
X97782200Y-71113978D02*
X97782200Y-68078022D01*
X154686000Y-89916000D02*
X149616000Y-84846000D01*
X148590000Y-70866000D02*
X148247000Y-70523000D01*
D26*
X105928000Y-69596000D02*
X109728000Y-73396000D01*
X102616000Y-69596000D02*
X105928000Y-69596000D01*
D25*
X100165000Y-80353000D02*
X101346000Y-81534000D01*
X91135199Y-86664801D02*
X91135199Y-91629379D01*
X101346000Y-81534000D02*
X100165000Y-82715000D01*
X100165000Y-82715000D02*
X100165000Y-85433000D01*
X101346000Y-76454000D02*
X100165000Y-77635000D01*
X100165000Y-85433000D02*
X101346000Y-86614000D01*
X104125000Y-84338000D02*
X107163000Y-84338000D01*
X93726000Y-84074000D02*
X91135199Y-86664801D01*
X100165000Y-77635000D02*
X100165000Y-80353000D01*
X93726000Y-76454000D02*
X93726000Y-84074000D01*
X93726000Y-73660000D02*
X93726000Y-76454000D01*
D26*
X114808000Y-81016000D02*
X114808000Y-79756000D01*
X110998000Y-75946000D02*
X110998000Y-72644000D01*
X110236000Y-71882000D02*
X110236000Y-69596000D01*
X110998000Y-72644000D02*
X110236000Y-71882000D01*
X114808000Y-79756000D02*
X110998000Y-75946000D01*
X135382000Y-63754000D02*
X136144000Y-63754000D01*
X145034000Y-72644000D02*
X145034000Y-74676000D01*
X136144000Y-63754000D02*
X145034000Y-72644000D01*
X147569000Y-77211000D02*
X149616000Y-77211000D01*
X134112000Y-62484000D02*
X135382000Y-63754000D01*
X145034000Y-74676000D02*
X147569000Y-77211000D01*
X137922000Y-63754000D02*
X137922000Y-62228629D01*
X132650600Y-61405400D02*
X131572000Y-62484000D01*
X146304000Y-72136000D02*
X137922000Y-63754000D01*
X137922000Y-62228629D02*
X137098771Y-61405400D01*
X137098771Y-61405400D02*
X132650600Y-61405400D01*
X149611000Y-72136000D02*
X146304000Y-72136000D01*
X142735400Y-71615400D02*
X142735400Y-90919400D01*
X142735400Y-90919400D02*
X143764000Y-91948000D01*
X136144000Y-65024000D02*
X142735400Y-71615400D01*
X131572000Y-65024000D02*
X136144000Y-65024000D01*
X129032000Y-62484000D02*
X131572000Y-65024000D01*
X134924800Y-65328800D02*
X140195400Y-70599400D01*
X126492000Y-62484000D02*
X129336800Y-65328800D01*
X140195400Y-70599400D02*
X140195400Y-90919400D01*
X140195400Y-90919400D02*
X141224000Y-91948000D01*
X129336800Y-65328800D02*
X134924800Y-65328800D01*
X133604000Y-66040000D02*
X137172600Y-69608600D01*
X137172600Y-69608600D02*
X137172600Y-90436600D01*
X123952000Y-62484000D02*
X127508000Y-66040000D01*
X127508000Y-66040000D02*
X133604000Y-66040000D01*
X137172600Y-90436600D02*
X138684000Y-91948000D01*
X134569200Y-83184252D02*
X134632600Y-83247652D01*
X131572000Y-66548000D02*
X134632600Y-69608600D01*
X134632600Y-69608600D02*
X134632600Y-82868348D01*
X134632600Y-83247652D02*
X134632600Y-90436600D01*
X121412000Y-62484000D02*
X125476000Y-66548000D01*
X134632600Y-90436600D02*
X136144000Y-91948000D01*
X134632600Y-82868348D02*
X134569200Y-82931748D01*
X125476000Y-66548000D02*
X131572000Y-66548000D01*
X134569200Y-82931748D02*
X134569200Y-83184252D01*
X133604000Y-91948000D02*
X132397400Y-90741400D01*
X132397400Y-69659400D02*
X129794000Y-67056000D01*
X123444000Y-67056000D02*
X118872000Y-62484000D01*
X132397400Y-90741400D02*
X132397400Y-69659400D01*
X129794000Y-67056000D02*
X123444000Y-67056000D01*
X129069173Y-67818000D02*
X132092600Y-70841427D01*
X116332000Y-62484000D02*
X121666000Y-67818000D01*
X132092600Y-70841427D02*
X132092600Y-90919400D01*
X121666000Y-67818000D02*
X129069173Y-67818000D01*
X132092600Y-90919400D02*
X131064000Y-91948000D01*
X88392000Y-66040000D02*
X91948000Y-62484000D01*
X87030000Y-80362000D02*
X88392000Y-79000000D01*
X88392000Y-79000000D02*
X88392000Y-66040000D01*
X87030000Y-80362000D02*
X90678000Y-84010000D01*
X90678000Y-84074000D02*
X87884000Y-86868000D01*
X89547800Y-68440200D02*
X91948000Y-66040000D01*
X89547800Y-80149800D02*
X89547800Y-68440200D01*
X84587000Y-86868000D02*
X85585200Y-85869800D01*
X85585200Y-85869800D02*
X85585200Y-79442200D01*
X90678000Y-81280000D02*
X89547800Y-80149800D01*
X85585200Y-79442200D02*
X84405000Y-78262000D01*
X119888000Y-73396000D02*
X119888000Y-70358000D01*
X113792000Y-62484000D02*
X120650000Y-69342000D01*
X119888000Y-70358000D02*
X120650000Y-69596000D01*
X131064000Y-87122000D02*
X131064000Y-84328000D01*
X128778000Y-89408000D02*
X131064000Y-87122000D01*
X116078000Y-88123000D02*
X116078000Y-67310000D01*
X112263000Y-91938000D02*
X116078000Y-88123000D01*
X116078000Y-67310000D02*
X111252000Y-62484000D01*
X111264600Y-72392600D02*
X111264600Y-65036600D01*
X112268000Y-73396000D02*
X111264600Y-72392600D01*
X111264600Y-65036600D02*
X108712000Y-62484000D01*
X142430600Y-74612600D02*
X142430600Y-83121400D01*
X141224000Y-73406000D02*
X142430600Y-74612600D01*
X109728000Y-81016000D02*
X109728000Y-84313000D01*
X142430600Y-83121400D02*
X141224000Y-84328000D01*
X146304000Y-84328000D02*
X144792600Y-82816600D01*
X144792600Y-82816600D02*
X144792600Y-75704600D01*
X144018000Y-74930000D02*
X144792600Y-75704600D01*
X139712600Y-74434600D02*
X139712600Y-83299400D01*
X138684000Y-73406000D02*
X139712600Y-74434600D01*
X139712600Y-83299400D02*
X138684000Y-84328000D01*
X134937400Y-82994600D02*
X134937400Y-76898600D01*
X134937400Y-76009400D02*
X134937400Y-74612600D01*
X134937400Y-76898600D02*
X135382000Y-76454000D01*
X134874000Y-83058000D02*
X134937400Y-82994600D01*
X136144000Y-84328000D02*
X134937400Y-83121400D01*
X135382000Y-76454000D02*
X134937400Y-76009400D01*
X134937400Y-74612600D02*
X136144000Y-73406000D01*
X101346000Y-78994000D02*
X102476200Y-77863800D01*
X102476200Y-77863800D02*
X102476200Y-70910861D01*
X101346000Y-64262000D02*
X99568000Y-62484000D01*
X102476200Y-70910861D02*
X101346000Y-69780661D01*
X101346000Y-69780661D02*
X101346000Y-64262000D01*
X98247200Y-70924600D02*
X98247199Y-86055199D01*
X99568000Y-66938800D02*
X98239400Y-68267400D01*
X98239400Y-70916800D02*
X98247200Y-70924600D01*
X98239400Y-68267400D02*
X98239400Y-70916800D01*
X98247199Y-86055199D02*
X101346000Y-89154000D01*
X118371600Y-90909400D02*
X117343000Y-91938000D01*
X119888000Y-81016000D02*
X118371600Y-82532400D01*
X118371600Y-82532400D02*
X118371600Y-90909400D01*
X111003000Y-93218000D02*
X118603000Y-93218000D01*
X118603000Y-93218000D02*
X119883000Y-91938000D01*
X111003000Y-93218000D02*
X109723000Y-91938000D01*
M02*
