G04 #@! TF.GenerationSoftware,KiCad,Pcbnew,7.0.5-0*
G04 #@! TF.CreationDate,2023-06-22T10:16:06+02:00*
G04 #@! TF.ProjectId,ps2_interface,7073325f-696e-4746-9572-666163652e6b,1.2*
G04 #@! TF.SameCoordinates,Original*
G04 #@! TF.FileFunction,Copper,L1,Top*
G04 #@! TF.FilePolarity,Positive*
%FSLAX46Y46*%
G04 Gerber Fmt 4.6, Leading zero omitted, Abs format (unit mm)*
G04 Created by KiCad (PCBNEW 7.0.5-0) date 2023-06-22 10:16:06*
%MOMM*%
%LPD*%
G01*
G04 APERTURE LIST*
G04 #@! TA.AperFunction,ComponentPad*
%ADD10C,1.600000*%
G04 #@! TD*
G04 #@! TA.AperFunction,ComponentPad*
%ADD11R,2.200000X2.200000*%
G04 #@! TD*
G04 #@! TA.AperFunction,ComponentPad*
%ADD12O,2.200000X2.200000*%
G04 #@! TD*
G04 #@! TA.AperFunction,ComponentPad*
%ADD13O,1.600000X1.600000*%
G04 #@! TD*
G04 #@! TA.AperFunction,ComponentPad*
%ADD14R,1.600000X1.600000*%
G04 #@! TD*
G04 #@! TA.AperFunction,ComponentPad*
%ADD15C,1.700000*%
G04 #@! TD*
G04 #@! TA.AperFunction,ComponentPad*
%ADD16R,3.200000X2.200000*%
G04 #@! TD*
G04 #@! TA.AperFunction,ComponentPad*
%ADD17R,2.200000X3.700000*%
G04 #@! TD*
G04 #@! TA.AperFunction,ComponentPad*
%ADD18C,6.400000*%
G04 #@! TD*
G04 #@! TA.AperFunction,ComponentPad*
%ADD19R,1.200000X1.200000*%
G04 #@! TD*
G04 #@! TA.AperFunction,ComponentPad*
%ADD20C,1.200000*%
G04 #@! TD*
G04 #@! TA.AperFunction,ComponentPad*
%ADD21R,1.700000X1.700000*%
G04 #@! TD*
G04 #@! TA.AperFunction,ComponentPad*
%ADD22O,1.700000X1.700000*%
G04 #@! TD*
G04 #@! TA.AperFunction,ComponentPad*
%ADD23C,3.000000*%
G04 #@! TD*
G04 #@! TA.AperFunction,ViaPad*
%ADD24C,0.600000*%
G04 #@! TD*
G04 #@! TA.AperFunction,Conductor*
%ADD25C,0.254000*%
G04 #@! TD*
G04 #@! TA.AperFunction,Conductor*
%ADD26C,0.152400*%
G04 #@! TD*
G04 APERTURE END LIST*
D10*
X150154000Y-81788000D03*
X155154000Y-81788000D03*
X90424000Y-75692000D03*
X90424000Y-78192000D03*
X100838000Y-69850000D03*
X98338000Y-69850000D03*
X111760000Y-69850000D03*
X109260000Y-69850000D03*
X122682000Y-69850000D03*
X120182000Y-69850000D03*
X133604000Y-69850000D03*
X131104000Y-69850000D03*
X144526000Y-69850000D03*
X142026000Y-69850000D03*
D11*
X156718000Y-72644000D03*
D12*
X149098000Y-72644000D03*
D10*
X149098000Y-77216000D03*
D13*
X156718000Y-77216000D03*
D10*
X90525600Y-83108800D03*
D13*
X90525600Y-90728800D03*
D10*
X139446000Y-62484000D03*
D13*
X147066000Y-62484000D03*
D14*
X93218000Y-72898000D03*
D13*
X93218000Y-75438000D03*
X93218000Y-77978000D03*
X93218000Y-80518000D03*
X93218000Y-83058000D03*
X93218000Y-85598000D03*
X93218000Y-88138000D03*
X93218000Y-90678000D03*
X100838000Y-90678000D03*
X100838000Y-88138000D03*
X100838000Y-85598000D03*
X100838000Y-83058000D03*
X100838000Y-80518000D03*
X100838000Y-77978000D03*
X100838000Y-75438000D03*
X100838000Y-72898000D03*
D14*
X104140000Y-72898000D03*
D13*
X104140000Y-75438000D03*
X104140000Y-77978000D03*
X104140000Y-80518000D03*
X104140000Y-83058000D03*
X104140000Y-85598000D03*
X104140000Y-88138000D03*
X104140000Y-90678000D03*
X111760000Y-90678000D03*
X111760000Y-88138000D03*
X111760000Y-85598000D03*
X111760000Y-83058000D03*
X111760000Y-80518000D03*
X111760000Y-77978000D03*
X111760000Y-75438000D03*
X111760000Y-72898000D03*
D14*
X125984000Y-72898000D03*
D13*
X125984000Y-75438000D03*
X125984000Y-77978000D03*
X125984000Y-80518000D03*
X125984000Y-83058000D03*
X125984000Y-85598000D03*
X125984000Y-88138000D03*
X133604000Y-88138000D03*
X133604000Y-85598000D03*
X133604000Y-83058000D03*
X133604000Y-80518000D03*
X133604000Y-77978000D03*
X133604000Y-75438000D03*
X133604000Y-72898000D03*
D15*
X84405000Y-78262000D03*
X84405000Y-75662000D03*
X84405000Y-80362000D03*
X84405000Y-73562000D03*
X87030000Y-80362000D03*
X87030000Y-73562000D03*
D16*
X81280000Y-83962000D03*
D17*
X80480000Y-76962000D03*
D16*
X81280000Y-69962000D03*
D18*
X80010000Y-89916000D03*
X154686000Y-64262000D03*
X154686000Y-89916000D03*
X80010000Y-64262000D03*
D14*
X136906000Y-72898000D03*
D13*
X136906000Y-75438000D03*
X136906000Y-77978000D03*
X136906000Y-80518000D03*
X136906000Y-83058000D03*
X136906000Y-85598000D03*
X136906000Y-88138000D03*
X144526000Y-88138000D03*
X144526000Y-85598000D03*
X144526000Y-83058000D03*
X144526000Y-80518000D03*
X144526000Y-77978000D03*
X144526000Y-75438000D03*
X144526000Y-72898000D03*
D10*
X90525600Y-63271400D03*
D13*
X90525600Y-70891400D03*
D19*
X98298000Y-62865000D03*
D20*
X96298000Y-62865000D03*
D21*
X86334600Y-64008000D03*
D22*
X86334600Y-66548000D03*
D23*
X148336000Y-67564000D03*
D14*
X115062000Y-72898000D03*
D13*
X115062000Y-75438000D03*
X115062000Y-77978000D03*
X115062000Y-80518000D03*
X115062000Y-83058000D03*
X115062000Y-85598000D03*
X115062000Y-88138000D03*
X122682000Y-88138000D03*
X122682000Y-85598000D03*
X122682000Y-83058000D03*
X122682000Y-80518000D03*
X122682000Y-77978000D03*
X122682000Y-75438000D03*
X122682000Y-72898000D03*
D21*
X103632000Y-62484000D03*
D22*
X106172000Y-62484000D03*
X108712000Y-62484000D03*
X111252000Y-62484000D03*
X113792000Y-62484000D03*
X116332000Y-62484000D03*
X118872000Y-62484000D03*
X121412000Y-62484000D03*
X123952000Y-62484000D03*
X126492000Y-62484000D03*
X129032000Y-62484000D03*
X131572000Y-62484000D03*
X134112000Y-62484000D03*
D24*
X129286000Y-73914000D03*
X128270000Y-74930000D03*
X116840018Y-79756000D03*
X130556000Y-66548000D03*
X132842000Y-67310000D03*
X108712000Y-89916000D03*
X119634000Y-82296000D03*
D25*
X115062000Y-89154000D02*
X115062000Y-88138000D01*
X86575000Y-78192000D02*
X90424000Y-78192000D01*
X105321000Y-91859000D02*
X112357000Y-91859000D01*
X97910000Y-61253000D02*
X104941000Y-61253000D01*
X93218000Y-90678000D02*
X91986200Y-91909800D01*
X98338000Y-69850000D02*
X99519000Y-68669000D01*
X129923000Y-68669000D02*
X131104000Y-69850000D01*
X115062000Y-88138000D02*
X116243000Y-89319000D01*
X112357000Y-91859000D02*
X115062000Y-89154000D01*
X95523400Y-62090400D02*
X82181600Y-62090400D01*
X135725000Y-89319000D02*
X136906000Y-88138000D01*
X132285000Y-68669000D02*
X135890000Y-68669000D01*
X147066000Y-62484000D02*
X152908000Y-62484000D01*
X124803000Y-89319000D02*
X125984000Y-88138000D01*
X135890000Y-68669000D02*
X140845000Y-68669000D01*
X131104000Y-69850000D02*
X132285000Y-68669000D01*
X91986200Y-91909800D02*
X82003800Y-91909800D01*
X84405000Y-80362000D02*
X86575000Y-78192000D01*
X81005000Y-76962000D02*
X80480000Y-76962000D01*
X102959000Y-91859000D02*
X104140000Y-90678000D01*
X104140000Y-90678000D02*
X105321000Y-91859000D01*
X96298000Y-62865000D02*
X97910000Y-61253000D01*
X84405000Y-80362000D02*
X81005000Y-76962000D01*
X109260000Y-69850000D02*
X110441000Y-68669000D01*
X127165000Y-89319000D02*
X135725000Y-89319000D01*
X136906000Y-88138000D02*
X138684000Y-89916000D01*
X99519000Y-68669000D02*
X108079000Y-68669000D01*
X96298000Y-62865000D02*
X95523400Y-62090400D01*
X125984000Y-88138000D02*
X127165000Y-89319000D01*
X94399000Y-91859000D02*
X102959000Y-91859000D01*
X120182000Y-69850000D02*
X121363000Y-68669000D01*
X121363000Y-68669000D02*
X129923000Y-68669000D01*
X119001000Y-68669000D02*
X120182000Y-69850000D01*
X140845000Y-68669000D02*
X142026000Y-69850000D01*
X108079000Y-68669000D02*
X109260000Y-69850000D01*
X110441000Y-68669000D02*
X119001000Y-68669000D01*
X138684000Y-89916000D02*
X154686000Y-89916000D01*
X104941000Y-61253000D02*
X106172000Y-62484000D01*
X116243000Y-89319000D02*
X124803000Y-89319000D01*
X93218000Y-90678000D02*
X94399000Y-91859000D01*
D26*
X136906000Y-83058000D02*
X138176000Y-81788000D01*
X138176000Y-81788000D02*
X150154000Y-81788000D01*
X150154000Y-81788000D02*
X152146000Y-81788000D01*
X152146000Y-81788000D02*
X156718000Y-77216000D01*
D25*
X91605000Y-76873000D02*
X91605000Y-82029400D01*
X133604000Y-69850000D02*
X134785000Y-71031000D01*
X143345000Y-71031000D02*
X144526000Y-69850000D01*
X97091601Y-64071399D02*
X98298000Y-62865000D01*
X91325599Y-64071399D02*
X97091601Y-64071399D01*
X122682000Y-69850000D02*
X123863000Y-71031000D01*
X132423000Y-71031000D02*
X133604000Y-69850000D01*
X111760000Y-69850000D02*
X112941000Y-71031000D01*
X123863000Y-71031000D02*
X132423000Y-71031000D01*
X100838000Y-69850000D02*
X102019000Y-71031000D01*
X134785000Y-71031000D02*
X143345000Y-71031000D01*
X86535000Y-75692000D02*
X84405000Y-73562000D01*
X121501000Y-71031000D02*
X122682000Y-69850000D01*
X91605000Y-82029400D02*
X90525600Y-83108800D01*
X98298000Y-62865000D02*
X103251000Y-62865000D01*
X90525600Y-63271400D02*
X91325599Y-64071399D01*
X102019000Y-71031000D02*
X110579000Y-71031000D01*
X112941000Y-71031000D02*
X121501000Y-71031000D01*
X90424000Y-75692000D02*
X91605000Y-76873000D01*
X90424000Y-75692000D02*
X86535000Y-75692000D01*
X110579000Y-71031000D02*
X111760000Y-69850000D01*
D26*
X113931800Y-74028200D02*
X115062000Y-72898000D01*
X104140000Y-72898000D02*
X105270200Y-74028200D01*
X115062000Y-72898000D02*
X116192200Y-74028200D01*
X129171800Y-74028200D02*
X129286000Y-73914000D01*
X105270200Y-74028200D02*
X113931800Y-74028200D01*
X116192200Y-74028200D02*
X129171800Y-74028200D01*
X120522030Y-76466600D02*
X113919970Y-76466600D01*
X113919970Y-76466600D02*
X112891370Y-75438000D01*
X127749400Y-74409400D02*
X128270000Y-74930000D01*
X112891370Y-75438000D02*
X111760000Y-75438000D01*
X121550630Y-75438000D02*
X120522030Y-76466600D01*
X123710600Y-74409400D02*
X127749400Y-74409400D01*
X122682000Y-75438000D02*
X123710600Y-74409400D01*
X122682000Y-75438000D02*
X121550630Y-75438000D01*
X112153800Y-89268200D02*
X108495252Y-89268200D01*
X101918348Y-89166600D02*
X101816748Y-89268200D01*
X108495252Y-89268200D02*
X108393652Y-89166600D01*
X114414200Y-87007800D02*
X112153800Y-89268200D01*
X94348200Y-89268200D02*
X93218000Y-88138000D01*
X122682000Y-88138000D02*
X121551800Y-87007800D01*
X108393652Y-89166600D02*
X101918348Y-89166600D01*
X101816748Y-89268200D02*
X94348200Y-89268200D01*
X121551800Y-87007800D02*
X114414200Y-87007800D01*
X93218000Y-85598000D02*
X94246600Y-86626600D01*
X121653400Y-86626600D02*
X122682000Y-85598000D01*
X94246600Y-86626600D02*
X121653400Y-86626600D01*
X94246600Y-84086600D02*
X115711296Y-84086600D01*
X115711296Y-84086600D02*
X116739896Y-83058000D01*
X93218000Y-83058000D02*
X94246600Y-84086600D01*
X116739896Y-83058000D02*
X122682000Y-83058000D01*
X93218000Y-80518000D02*
X94246600Y-81546600D01*
X94246600Y-81546600D02*
X118110000Y-81546600D01*
X119138600Y-80518000D02*
X122682000Y-80518000D01*
X118110000Y-81546600D02*
X119138600Y-80518000D01*
X113855400Y-79311400D02*
X115062000Y-80518000D01*
X109830148Y-79006600D02*
X110134948Y-79311400D01*
X94246600Y-79006600D02*
X109830148Y-79006600D01*
X93218000Y-77978000D02*
X94246600Y-79006600D01*
X110134948Y-79311400D02*
X113855400Y-79311400D01*
X114503200Y-79374252D02*
X116458270Y-79374252D01*
X104712348Y-76949400D02*
X105029748Y-77266800D01*
X105029748Y-77266800D02*
X108521400Y-77266800D01*
X122682000Y-77978000D02*
X118618018Y-77978000D01*
X110261200Y-79006600D02*
X114135548Y-79006600D01*
X114135548Y-79006600D02*
X114503200Y-79374252D01*
X108521400Y-77266800D02*
X110261200Y-79006600D01*
X118618018Y-77978000D02*
X116840018Y-79756000D01*
X94729400Y-76949400D02*
X104712348Y-76949400D01*
X116458270Y-79374252D02*
X116840018Y-79756000D01*
X93218000Y-75438000D02*
X94729400Y-76949400D01*
X94119800Y-71767800D02*
X86360000Y-64008000D01*
X117233800Y-71767800D02*
X94119800Y-71767800D01*
X140716000Y-71628000D02*
X117373600Y-71628000D01*
X144526000Y-75438000D02*
X140716000Y-71628000D01*
X117373600Y-71628000D02*
X117233800Y-71767800D01*
X94488000Y-77724000D02*
X93472000Y-76708000D01*
X91948000Y-76200000D02*
X91948000Y-72313800D01*
X86334600Y-66548000D02*
X90525600Y-70739000D01*
X93472000Y-76708000D02*
X92456000Y-76708000D01*
X91948000Y-72313800D02*
X90525600Y-70891400D01*
X92456000Y-76708000D02*
X91948000Y-76200000D01*
X100584000Y-77724000D02*
X94488000Y-77724000D01*
X113792000Y-62484000D02*
X114870600Y-61405400D01*
X138367400Y-61405400D02*
X139446000Y-62484000D01*
X114870600Y-61405400D02*
X138367400Y-61405400D01*
X114629452Y-79069452D02*
X112509400Y-76949400D01*
X102044600Y-76644600D02*
X100838000Y-75438000D01*
X116841496Y-79069452D02*
X114629452Y-79069452D01*
X121348600Y-76771400D02*
X120446800Y-77673200D01*
X132397400Y-76771400D02*
X121348600Y-76771400D01*
X118237748Y-77673200D02*
X116841496Y-79069452D01*
X112509400Y-76949400D02*
X105143400Y-76949400D01*
X105143400Y-76949400D02*
X104838600Y-76644600D01*
X120446800Y-77673200D02*
X118237748Y-77673200D01*
X133604000Y-77978000D02*
X132397400Y-76771400D01*
X104838600Y-76644600D02*
X102044600Y-76644600D01*
X130556000Y-66802000D02*
X130556000Y-66548000D01*
X111252000Y-62484000D02*
X115570000Y-66802000D01*
X115570000Y-66802000D02*
X130556000Y-66802000D01*
X113538000Y-67310000D02*
X132842000Y-67310000D01*
X108712000Y-62484000D02*
X113538000Y-67310000D01*
X110731400Y-84569400D02*
X111760000Y-85598000D01*
X111760000Y-85598000D02*
X112826800Y-84531200D01*
X124777400Y-84264600D02*
X124714000Y-84264600D01*
X100838000Y-85598000D02*
X101866600Y-84569400D01*
X101866600Y-84569400D02*
X110731400Y-84569400D01*
X112826800Y-84531200D02*
X115697748Y-84531200D01*
X125984000Y-80518000D02*
X127012600Y-79489400D01*
X125984000Y-83058000D02*
X124777400Y-84264600D01*
X127012600Y-79489400D02*
X143014600Y-79489400D01*
X115964348Y-84264600D02*
X124714000Y-84264600D01*
X143014600Y-79489400D02*
X144526000Y-77978000D01*
X115697748Y-84531200D02*
X115964348Y-84264600D01*
X102044600Y-89471400D02*
X108267400Y-89471400D01*
X108267400Y-89471400D02*
X108712000Y-89916000D01*
X100838000Y-90678000D02*
X102044600Y-89471400D01*
X94653000Y-74333000D02*
X93218000Y-72898000D01*
X115062000Y-75438000D02*
X113957000Y-74333000D01*
X113957000Y-74333000D02*
X94653000Y-74333000D01*
X113016452Y-76771400D02*
X120917548Y-76771400D01*
X133559139Y-74028200D02*
X135775800Y-74028200D01*
X112889652Y-76644600D02*
X113016452Y-76771400D01*
X104140000Y-75438000D02*
X105346600Y-76644600D01*
X121222348Y-76466600D02*
X131064000Y-76466600D01*
X105346600Y-76644600D02*
X112889652Y-76644600D01*
X135775800Y-74028200D02*
X136906000Y-72898000D01*
X131064000Y-76466600D02*
X131120739Y-76466600D01*
X131120739Y-76466600D02*
X133559139Y-74028200D01*
X120917548Y-76771400D02*
X121222348Y-76466600D01*
X112966600Y-81851400D02*
X118872000Y-81851400D01*
X123952000Y-81280000D02*
X123952000Y-80010000D01*
X118872000Y-81851400D02*
X119176800Y-81546600D01*
X119176800Y-81546600D02*
X123685400Y-81546600D01*
X111760000Y-83058000D02*
X112966600Y-81851400D01*
X123685400Y-81546600D02*
X123952000Y-81280000D01*
X123952000Y-80010000D02*
X125984000Y-77978000D01*
X101866600Y-82029400D02*
X110731400Y-82029400D01*
X100838000Y-83058000D02*
X101866600Y-82029400D01*
X110731400Y-82029400D02*
X111760000Y-83058000D01*
X101866600Y-87109400D02*
X110731400Y-87109400D01*
X108192148Y-79413200D02*
X109296948Y-80518000D01*
X110731400Y-87109400D02*
X111760000Y-88138000D01*
X135572600Y-81851400D02*
X120078600Y-81851400D01*
X109296948Y-80518000D02*
X111760000Y-80518000D01*
X100838000Y-88138000D02*
X101866600Y-87109400D01*
X136906000Y-80518000D02*
X135572600Y-81851400D01*
X101942800Y-79413200D02*
X108192148Y-79413200D01*
X120078600Y-81851400D02*
X119634000Y-82296000D01*
X100838000Y-80518000D02*
X101942800Y-79413200D01*
X132092600Y-84569400D02*
X133604000Y-83058000D01*
X116090600Y-84569400D02*
X132092600Y-84569400D01*
X115062000Y-85598000D02*
X116090600Y-84569400D01*
X133604000Y-75438000D02*
X136906000Y-75438000D01*
M02*
