G04 #@! TF.GenerationSoftware,KiCad,Pcbnew,7.0.5-0*
G04 #@! TF.CreationDate,2023-06-23T22:43:01+02:00*
G04 #@! TF.ProjectId,ps2_interface,7073325f-696e-4746-9572-666163652e6b,1.2*
G04 #@! TF.SameCoordinates,Original*
G04 #@! TF.FileFunction,Copper,L1,Top*
G04 #@! TF.FilePolarity,Positive*
%FSLAX46Y46*%
G04 Gerber Fmt 4.6, Leading zero omitted, Abs format (unit mm)*
G04 Created by KiCad (PCBNEW 7.0.5-0) date 2023-06-23 22:43:01*
%MOMM*%
%LPD*%
G01*
G04 APERTURE LIST*
G04 #@! TA.AperFunction,ComponentPad*
%ADD10C,1.600000*%
G04 #@! TD*
G04 #@! TA.AperFunction,ComponentPad*
%ADD11R,2.200000X2.200000*%
G04 #@! TD*
G04 #@! TA.AperFunction,ComponentPad*
%ADD12O,2.200000X2.200000*%
G04 #@! TD*
G04 #@! TA.AperFunction,ComponentPad*
%ADD13O,1.600000X1.600000*%
G04 #@! TD*
G04 #@! TA.AperFunction,ComponentPad*
%ADD14R,1.600000X1.600000*%
G04 #@! TD*
G04 #@! TA.AperFunction,ComponentPad*
%ADD15C,1.700000*%
G04 #@! TD*
G04 #@! TA.AperFunction,ComponentPad*
%ADD16R,3.200000X2.200000*%
G04 #@! TD*
G04 #@! TA.AperFunction,ComponentPad*
%ADD17R,2.200000X3.700000*%
G04 #@! TD*
G04 #@! TA.AperFunction,ComponentPad*
%ADD18C,6.400000*%
G04 #@! TD*
G04 #@! TA.AperFunction,ComponentPad*
%ADD19R,1.200000X1.200000*%
G04 #@! TD*
G04 #@! TA.AperFunction,ComponentPad*
%ADD20C,1.200000*%
G04 #@! TD*
G04 #@! TA.AperFunction,ComponentPad*
%ADD21R,1.700000X1.700000*%
G04 #@! TD*
G04 #@! TA.AperFunction,ComponentPad*
%ADD22O,1.700000X1.700000*%
G04 #@! TD*
G04 #@! TA.AperFunction,ComponentPad*
%ADD23C,3.000000*%
G04 #@! TD*
G04 #@! TA.AperFunction,ViaPad*
%ADD24C,0.600000*%
G04 #@! TD*
G04 #@! TA.AperFunction,Conductor*
%ADD25C,0.254000*%
G04 #@! TD*
G04 #@! TA.AperFunction,Conductor*
%ADD26C,0.152400*%
G04 #@! TD*
G04 APERTURE END LIST*
D10*
X118070000Y-69596000D03*
X113070000Y-69596000D03*
X147066000Y-70846000D03*
X147066000Y-68346000D03*
X125476000Y-84328000D03*
X125476000Y-86828000D03*
X125476000Y-73406000D03*
X125476000Y-75906000D03*
X104125000Y-84338000D03*
X104125000Y-86838000D03*
X104125000Y-73416000D03*
X104125000Y-75916000D03*
X93726000Y-73660000D03*
X96226000Y-73660000D03*
D11*
X99568000Y-69596000D03*
D12*
X91948000Y-69596000D03*
D10*
X110236000Y-69596000D03*
D13*
X102616000Y-69596000D03*
D10*
X90678000Y-91694000D03*
D13*
X90678000Y-84074000D03*
D10*
X120650000Y-69596000D03*
D13*
X128270000Y-69596000D03*
D14*
X128524000Y-91948000D03*
D13*
X131064000Y-91948000D03*
X133604000Y-91948000D03*
X136144000Y-91948000D03*
X138684000Y-91948000D03*
X141224000Y-91948000D03*
X143764000Y-91948000D03*
X146304000Y-91948000D03*
X146304000Y-84328000D03*
X143764000Y-84328000D03*
X141224000Y-84328000D03*
X138684000Y-84328000D03*
X136144000Y-84328000D03*
X133604000Y-84328000D03*
X131064000Y-84328000D03*
X128524000Y-84328000D03*
D14*
X128524000Y-81026000D03*
D13*
X131064000Y-81026000D03*
X133604000Y-81026000D03*
X136144000Y-81026000D03*
X138684000Y-81026000D03*
X141224000Y-81026000D03*
X143764000Y-81026000D03*
X146304000Y-81026000D03*
X146304000Y-73406000D03*
X143764000Y-73406000D03*
X141224000Y-73406000D03*
X138684000Y-73406000D03*
X136144000Y-73406000D03*
X133604000Y-73406000D03*
X131064000Y-73406000D03*
X128524000Y-73406000D03*
D14*
X107183000Y-91938000D03*
D13*
X109723000Y-91938000D03*
X112263000Y-91938000D03*
X114803000Y-91938000D03*
X117343000Y-91938000D03*
X119883000Y-91938000D03*
X122423000Y-91938000D03*
X122423000Y-84318000D03*
X119883000Y-84318000D03*
X117343000Y-84318000D03*
X114803000Y-84318000D03*
X112263000Y-84318000D03*
X109723000Y-84318000D03*
X107183000Y-84318000D03*
D15*
X84405000Y-78262000D03*
X84405000Y-75662000D03*
X84405000Y-80362000D03*
X84405000Y-73562000D03*
X87030000Y-80362000D03*
X87030000Y-73562000D03*
D16*
X81280000Y-83962000D03*
D17*
X80480000Y-76962000D03*
D16*
X81280000Y-69962000D03*
D18*
X80010000Y-89916000D03*
X154686000Y-64262000D03*
X154686000Y-89916000D03*
X80010000Y-64262000D03*
D14*
X107188000Y-81016000D03*
D13*
X109728000Y-81016000D03*
X112268000Y-81016000D03*
X114808000Y-81016000D03*
X117348000Y-81016000D03*
X119888000Y-81016000D03*
X122428000Y-81016000D03*
X122428000Y-73396000D03*
X119888000Y-73396000D03*
X117348000Y-73396000D03*
X114808000Y-73396000D03*
X112268000Y-73396000D03*
X109728000Y-73396000D03*
X107188000Y-73396000D03*
D10*
X90678000Y-73660000D03*
D13*
X90678000Y-81280000D03*
D19*
X88348600Y-62992000D03*
D20*
X86348600Y-62992000D03*
D21*
X87127000Y-86868000D03*
D22*
X84587000Y-86868000D03*
D23*
X148336000Y-64008000D03*
D14*
X93726000Y-76454000D03*
D13*
X93726000Y-78994000D03*
X93726000Y-81534000D03*
X93726000Y-84074000D03*
X93726000Y-86614000D03*
X93726000Y-89154000D03*
X93726000Y-91694000D03*
X101346000Y-91694000D03*
X101346000Y-89154000D03*
X101346000Y-86614000D03*
X101346000Y-84074000D03*
X101346000Y-81534000D03*
X101346000Y-78994000D03*
X101346000Y-76454000D03*
D11*
X99568000Y-66040000D03*
D12*
X91948000Y-66040000D03*
D11*
X99568000Y-62484000D03*
D12*
X91948000Y-62484000D03*
D14*
X149616000Y-69591000D03*
D13*
X149616000Y-72131000D03*
X149616000Y-74671000D03*
X149616000Y-77211000D03*
X149616000Y-79751000D03*
X149616000Y-82291000D03*
X149616000Y-84831000D03*
X157236000Y-84831000D03*
X157236000Y-82291000D03*
X157236000Y-79751000D03*
X157236000Y-77211000D03*
X157236000Y-74671000D03*
X157236000Y-72131000D03*
X157236000Y-69591000D03*
D21*
X103632000Y-62484000D03*
D22*
X106172000Y-62484000D03*
X108712000Y-62484000D03*
X111252000Y-62484000D03*
X113792000Y-62484000D03*
X116332000Y-62484000D03*
X118872000Y-62484000D03*
X121412000Y-62484000D03*
X123952000Y-62484000D03*
X126492000Y-62484000D03*
X129032000Y-62484000D03*
X131572000Y-62484000D03*
X134112000Y-62484000D03*
X136652000Y-62484000D03*
D24*
X128778000Y-89408000D03*
X144018000Y-74930000D03*
X135382000Y-76454000D03*
D25*
X128270000Y-69596000D02*
X145816000Y-69596000D01*
X114251000Y-68415000D02*
X113070000Y-69596000D01*
X80010000Y-89916000D02*
X91948000Y-89916000D01*
X145816000Y-69596000D02*
X147066000Y-68346000D01*
X154686000Y-64262000D02*
X151384000Y-60960000D01*
X107696000Y-60960000D02*
X106172000Y-62484000D01*
X121143000Y-93218000D02*
X122423000Y-91938000D01*
X93726000Y-91694000D02*
X97447000Y-87973000D01*
X106101000Y-93218000D02*
X121143000Y-93218000D01*
X146304000Y-91948000D02*
X152654000Y-91948000D01*
X104349000Y-75692000D02*
X125262000Y-75692000D01*
X104125000Y-86838000D02*
X104125000Y-91242000D01*
X91948000Y-89916000D02*
X93726000Y-91694000D01*
X101869000Y-73660000D02*
X104125000Y-75916000D01*
X128270000Y-69596000D02*
X127089000Y-68415000D01*
X104125000Y-91242000D02*
X106101000Y-93218000D01*
X96226000Y-73660000D02*
X101869000Y-73660000D01*
X127089000Y-68415000D02*
X114251000Y-68415000D01*
X97447000Y-87973000D02*
X102990000Y-87973000D01*
X151384000Y-60960000D02*
X107696000Y-60960000D01*
X102990000Y-87973000D02*
X104125000Y-86838000D01*
D26*
X112397800Y-70726200D02*
X116939800Y-70726200D01*
X116939800Y-70726200D02*
X118070000Y-69596000D01*
X109728000Y-73396000D02*
X112397800Y-70726200D01*
X99568000Y-69596000D02*
X102616000Y-69596000D01*
D25*
X129705000Y-72225000D02*
X145687000Y-72225000D01*
X124066200Y-82918200D02*
X125476000Y-84328000D01*
X107188000Y-73396000D02*
X108369000Y-74577000D01*
X108369000Y-74577000D02*
X113627000Y-74577000D01*
X125476000Y-84328000D02*
X128524000Y-84328000D01*
X103188000Y-72479000D02*
X94907000Y-72479000D01*
X148336000Y-69088000D02*
X148336000Y-68509000D01*
X102151000Y-61003000D02*
X90337600Y-61003000D01*
X85636000Y-72331000D02*
X89349000Y-72331000D01*
X145687000Y-72225000D02*
X147066000Y-70846000D01*
X156055000Y-68410000D02*
X157236000Y-69591000D01*
X124285000Y-72215000D02*
X115989000Y-72215000D01*
X89349000Y-72331000D02*
X90354711Y-73336711D01*
X93726000Y-76454000D02*
X101346000Y-76454000D01*
X128524000Y-73406000D02*
X129705000Y-72225000D01*
X103632000Y-62484000D02*
X102151000Y-61003000D01*
X88348600Y-64813400D02*
X84405000Y-68757000D01*
X147066000Y-70358000D02*
X148336000Y-69088000D01*
X101849000Y-86614000D02*
X104125000Y-84338000D01*
X84405000Y-73562000D02*
X85636000Y-72331000D01*
X125476000Y-73406000D02*
X128524000Y-73406000D01*
X104125000Y-73416000D02*
X103188000Y-72479000D01*
X90337600Y-61003000D02*
X88348600Y-62992000D01*
X93726000Y-73660000D02*
X90678000Y-73660000D01*
X148435000Y-68410000D02*
X156055000Y-68410000D01*
X108582800Y-82918200D02*
X124066200Y-82918200D01*
X88348600Y-62992000D02*
X88348600Y-64813400D01*
X84405000Y-68757000D02*
X84405000Y-73562000D01*
X104125000Y-73416000D02*
X107168000Y-73416000D01*
X125476000Y-73406000D02*
X124285000Y-72215000D01*
X107183000Y-84318000D02*
X108582800Y-82918200D01*
X115989000Y-72215000D02*
X114808000Y-73396000D01*
X94907000Y-72479000D02*
X93726000Y-73660000D01*
X113627000Y-74577000D02*
X114808000Y-73396000D01*
X148336000Y-68509000D02*
X148435000Y-68410000D01*
D26*
X93276600Y-68267400D02*
X108907400Y-68267400D01*
X108907400Y-68267400D02*
X110236000Y-69596000D01*
X91948000Y-69596000D02*
X93276600Y-68267400D01*
X132339000Y-77211000D02*
X149616000Y-77211000D01*
X132339000Y-77211000D02*
X128524000Y-81026000D01*
X133350000Y-75692000D02*
X131064000Y-73406000D01*
X133350000Y-75692000D02*
X146055000Y-75692000D01*
X149616000Y-72131000D02*
X146055000Y-75692000D01*
X153800657Y-84831000D02*
X147902857Y-90728800D01*
X157236000Y-84831000D02*
X153800657Y-84831000D01*
X147902857Y-90728800D02*
X144983200Y-90728800D01*
X144983200Y-90728800D02*
X143764000Y-91948000D01*
X155909605Y-82291000D02*
X147776605Y-90424000D01*
X142748000Y-90424000D02*
X141224000Y-91948000D01*
X147776605Y-90424000D02*
X142748000Y-90424000D01*
X157236000Y-82291000D02*
X155909605Y-82291000D01*
X147650353Y-90119200D02*
X140512800Y-90119200D01*
X157236000Y-79751000D02*
X157236000Y-80533553D01*
X140512800Y-90119200D02*
X138684000Y-91948000D01*
X157236000Y-80533553D02*
X147650353Y-90119200D01*
X157236000Y-77211000D02*
X151790400Y-82656600D01*
X151790400Y-85548101D02*
X147524101Y-89814400D01*
X138277600Y-89814400D02*
X136144000Y-91948000D01*
X147524101Y-89814400D02*
X138277600Y-89814400D01*
X151790400Y-82656600D02*
X151790400Y-85548101D01*
X136042400Y-89509600D02*
X133604000Y-91948000D01*
X151485600Y-80421400D02*
X151485600Y-85421849D01*
X157236000Y-74671000D02*
X151485600Y-80421400D01*
X151485600Y-85421849D02*
X147397849Y-89509600D01*
X147397849Y-89509600D02*
X136042400Y-89509600D01*
X151180800Y-78186200D02*
X151180800Y-85295597D01*
X133807200Y-89204800D02*
X131064000Y-91948000D01*
X147271597Y-89204800D02*
X133807200Y-89204800D01*
X157236000Y-72131000D02*
X151180800Y-78186200D01*
X151180800Y-85295597D02*
X147271597Y-89204800D01*
X108216600Y-79987400D02*
X111239400Y-79987400D01*
X87242200Y-80149800D02*
X106321800Y-80149800D01*
X106321800Y-80149800D02*
X107188000Y-81016000D01*
X111239400Y-79987400D02*
X112268000Y-81016000D01*
X107188000Y-81016000D02*
X108216600Y-79987400D01*
X102017345Y-82461000D02*
X101814145Y-82664200D01*
X101814145Y-82664200D02*
X92062200Y-82664200D01*
X131737000Y-82461000D02*
X102017345Y-82461000D01*
X85585200Y-80518000D02*
X85585200Y-79442200D01*
X90678000Y-81280000D02*
X89878001Y-82079999D01*
X85585200Y-79442200D02*
X84405000Y-78262000D01*
X92062200Y-82664200D02*
X90678000Y-81280000D01*
X87147199Y-82079999D02*
X85585200Y-80518000D01*
X89878001Y-82079999D02*
X87147199Y-82079999D01*
X133604000Y-84328000D02*
X131737000Y-82461000D01*
X114803000Y-91938000D02*
X117333000Y-89408000D01*
X117333000Y-89408000D02*
X128778000Y-89408000D01*
X102362000Y-83058000D02*
X104902000Y-83058000D01*
X115903200Y-87958200D02*
X137593800Y-87958200D01*
X137593800Y-87958200D02*
X141224000Y-84328000D01*
X112263000Y-84318000D02*
X109723000Y-84318000D01*
X105664000Y-84836000D02*
X106426000Y-85598000D01*
X104902000Y-83058000D02*
X105664000Y-83820000D01*
X112263000Y-84318000D02*
X115903200Y-87958200D01*
X106426000Y-85598000D02*
X108443000Y-85598000D01*
X105664000Y-83820000D02*
X105664000Y-84836000D01*
X101346000Y-84074000D02*
X102362000Y-83058000D01*
X108443000Y-85598000D02*
X109723000Y-84318000D01*
X144018000Y-74930000D02*
X135128000Y-74930000D01*
X135128000Y-74930000D02*
X133604000Y-73406000D01*
X131572000Y-88900000D02*
X128524000Y-91948000D01*
X147145345Y-88900000D02*
X131572000Y-88900000D01*
X149616000Y-69591000D02*
X150876000Y-70851000D01*
X150876000Y-85169345D02*
X147145345Y-88900000D01*
X150876000Y-70851000D02*
X150876000Y-85169345D01*
X126504600Y-82054600D02*
X130035400Y-82054600D01*
X117348000Y-81016000D02*
X118478200Y-79885800D01*
X130035400Y-82054600D02*
X131064000Y-81026000D01*
X118478200Y-79885800D02*
X124335800Y-79885800D01*
X124335800Y-79885800D02*
X126504600Y-82054600D01*
X122423000Y-84318000D02*
X123703000Y-85598000D01*
X123703000Y-85598000D02*
X137414000Y-85598000D01*
X137414000Y-85598000D02*
X138684000Y-84328000D01*
X133096000Y-76454000D02*
X135382000Y-76454000D01*
X142735400Y-83299400D02*
X143764000Y-84328000D01*
X131417800Y-74775800D02*
X133096000Y-76454000D01*
X136144000Y-73406000D02*
X137172600Y-74434600D01*
X122428000Y-73396000D02*
X123807800Y-74775800D01*
X142735400Y-74434600D02*
X143764000Y-73406000D01*
X137172600Y-83299400D02*
X142735400Y-83299400D01*
X136144000Y-84328000D02*
X137172600Y-83299400D01*
X137172600Y-74434600D02*
X142735400Y-74434600D01*
X123807800Y-74775800D02*
X131417800Y-74775800D01*
X143893000Y-88263000D02*
X149616000Y-82540000D01*
X110858000Y-88263000D02*
X143893000Y-88263000D01*
X107183000Y-91938000D02*
X110858000Y-88263000D01*
X135471800Y-63664200D02*
X100748200Y-63664200D01*
X136652000Y-62484000D02*
X135471800Y-63664200D01*
X100748200Y-63664200D02*
X99568000Y-62484000D01*
X114803000Y-84318000D02*
X119883000Y-84318000D01*
M02*
