G04 #@! TF.GenerationSoftware,KiCad,Pcbnew,7.0.5-0*
G04 #@! TF.CreationDate,2023-06-22T10:16:06+02:00*
G04 #@! TF.ProjectId,ps2_interface,7073325f-696e-4746-9572-666163652e6b,1.2*
G04 #@! TF.SameCoordinates,Original*
G04 #@! TF.FileFunction,Legend,Top*
G04 #@! TF.FilePolarity,Positive*
%FSLAX46Y46*%
G04 Gerber Fmt 4.6, Leading zero omitted, Abs format (unit mm)*
G04 Created by KiCad (PCBNEW 7.0.5-0) date 2023-06-22 10:16:06*
%MOMM*%
%LPD*%
G01*
G04 APERTURE LIST*
%ADD10C,0.150000*%
%ADD11C,0.120000*%
%ADD12C,0.100000*%
%ADD13C,1.600000*%
%ADD14R,2.200000X2.200000*%
%ADD15O,2.200000X2.200000*%
%ADD16O,1.600000X1.600000*%
%ADD17R,1.600000X1.600000*%
%ADD18C,1.700000*%
%ADD19R,3.200000X2.200000*%
%ADD20R,2.200000X3.700000*%
%ADD21C,6.400000*%
%ADD22R,1.200000X1.200000*%
%ADD23C,1.200000*%
%ADD24R,1.700000X1.700000*%
%ADD25O,1.700000X1.700000*%
%ADD26C,3.000000*%
G04 APERTURE END LIST*
D10*
X116786819Y-65947969D02*
X115786819Y-65947969D01*
X115786819Y-65947969D02*
X115786819Y-65709874D01*
X115786819Y-65709874D02*
X115834438Y-65567017D01*
X115834438Y-65567017D02*
X115929676Y-65471779D01*
X115929676Y-65471779D02*
X116024914Y-65424160D01*
X116024914Y-65424160D02*
X116215390Y-65376541D01*
X116215390Y-65376541D02*
X116358247Y-65376541D01*
X116358247Y-65376541D02*
X116548723Y-65424160D01*
X116548723Y-65424160D02*
X116643961Y-65471779D01*
X116643961Y-65471779D02*
X116739200Y-65567017D01*
X116739200Y-65567017D02*
X116786819Y-65709874D01*
X116786819Y-65709874D02*
X116786819Y-65947969D01*
X115786819Y-65043207D02*
X115786819Y-64376541D01*
X115786819Y-64376541D02*
X116786819Y-64805112D01*
X84758400Y-62049819D02*
X84758400Y-61049819D01*
X84758400Y-61049819D02*
X84996495Y-61049819D01*
X84996495Y-61049819D02*
X85139352Y-61097438D01*
X85139352Y-61097438D02*
X85234590Y-61192676D01*
X85234590Y-61192676D02*
X85282209Y-61287914D01*
X85282209Y-61287914D02*
X85329828Y-61478390D01*
X85329828Y-61478390D02*
X85329828Y-61621247D01*
X85329828Y-61621247D02*
X85282209Y-61811723D01*
X85282209Y-61811723D02*
X85234590Y-61906961D01*
X85234590Y-61906961D02*
X85139352Y-62002200D01*
X85139352Y-62002200D02*
X84996495Y-62049819D01*
X84996495Y-62049819D02*
X84758400Y-62049819D01*
X85710781Y-61764104D02*
X86186971Y-61764104D01*
X85615543Y-62049819D02*
X85948876Y-61049819D01*
X85948876Y-61049819D02*
X86282209Y-62049819D01*
X86472686Y-61049819D02*
X87044114Y-61049819D01*
X86758400Y-62049819D02*
X86758400Y-61049819D01*
X87329829Y-61764104D02*
X87806019Y-61764104D01*
X87234591Y-62049819D02*
X87567924Y-61049819D01*
X87567924Y-61049819D02*
X87901257Y-62049819D01*
X115610095Y-90132819D02*
X116276761Y-90132819D01*
X116276761Y-90132819D02*
X115848190Y-91132819D01*
X117086285Y-90466152D02*
X117086285Y-91132819D01*
X116848190Y-90085200D02*
X116610095Y-90799485D01*
X116610095Y-90799485D02*
X117229142Y-90799485D01*
X117610095Y-91132819D02*
X117610095Y-90132819D01*
X117610095Y-90609009D02*
X118181523Y-90609009D01*
X118181523Y-91132819D02*
X118181523Y-90132819D01*
X119229142Y-91037580D02*
X119181523Y-91085200D01*
X119181523Y-91085200D02*
X119038666Y-91132819D01*
X119038666Y-91132819D02*
X118943428Y-91132819D01*
X118943428Y-91132819D02*
X118800571Y-91085200D01*
X118800571Y-91085200D02*
X118705333Y-90989961D01*
X118705333Y-90989961D02*
X118657714Y-90894723D01*
X118657714Y-90894723D02*
X118610095Y-90704247D01*
X118610095Y-90704247D02*
X118610095Y-90561390D01*
X118610095Y-90561390D02*
X118657714Y-90370914D01*
X118657714Y-90370914D02*
X118705333Y-90275676D01*
X118705333Y-90275676D02*
X118800571Y-90180438D01*
X118800571Y-90180438D02*
X118943428Y-90132819D01*
X118943428Y-90132819D02*
X119038666Y-90132819D01*
X119038666Y-90132819D02*
X119181523Y-90180438D01*
X119181523Y-90180438D02*
X119229142Y-90228057D01*
X119610095Y-90228057D02*
X119657714Y-90180438D01*
X119657714Y-90180438D02*
X119752952Y-90132819D01*
X119752952Y-90132819D02*
X119991047Y-90132819D01*
X119991047Y-90132819D02*
X120086285Y-90180438D01*
X120086285Y-90180438D02*
X120133904Y-90228057D01*
X120133904Y-90228057D02*
X120181523Y-90323295D01*
X120181523Y-90323295D02*
X120181523Y-90418533D01*
X120181523Y-90418533D02*
X120133904Y-90561390D01*
X120133904Y-90561390D02*
X119562476Y-91132819D01*
X119562476Y-91132819D02*
X120181523Y-91132819D01*
X120752952Y-90561390D02*
X120657714Y-90513771D01*
X120657714Y-90513771D02*
X120610095Y-90466152D01*
X120610095Y-90466152D02*
X120562476Y-90370914D01*
X120562476Y-90370914D02*
X120562476Y-90323295D01*
X120562476Y-90323295D02*
X120610095Y-90228057D01*
X120610095Y-90228057D02*
X120657714Y-90180438D01*
X120657714Y-90180438D02*
X120752952Y-90132819D01*
X120752952Y-90132819D02*
X120943428Y-90132819D01*
X120943428Y-90132819D02*
X121038666Y-90180438D01*
X121038666Y-90180438D02*
X121086285Y-90228057D01*
X121086285Y-90228057D02*
X121133904Y-90323295D01*
X121133904Y-90323295D02*
X121133904Y-90370914D01*
X121133904Y-90370914D02*
X121086285Y-90466152D01*
X121086285Y-90466152D02*
X121038666Y-90513771D01*
X121038666Y-90513771D02*
X120943428Y-90561390D01*
X120943428Y-90561390D02*
X120752952Y-90561390D01*
X120752952Y-90561390D02*
X120657714Y-90609009D01*
X120657714Y-90609009D02*
X120610095Y-90656628D01*
X120610095Y-90656628D02*
X120562476Y-90751866D01*
X120562476Y-90751866D02*
X120562476Y-90942342D01*
X120562476Y-90942342D02*
X120610095Y-91037580D01*
X120610095Y-91037580D02*
X120657714Y-91085200D01*
X120657714Y-91085200D02*
X120752952Y-91132819D01*
X120752952Y-91132819D02*
X120943428Y-91132819D01*
X120943428Y-91132819D02*
X121038666Y-91085200D01*
X121038666Y-91085200D02*
X121086285Y-91037580D01*
X121086285Y-91037580D02*
X121133904Y-90942342D01*
X121133904Y-90942342D02*
X121133904Y-90751866D01*
X121133904Y-90751866D02*
X121086285Y-90656628D01*
X121086285Y-90656628D02*
X121038666Y-90609009D01*
X121038666Y-90609009D02*
X120943428Y-90561390D01*
X121752952Y-90132819D02*
X121848190Y-90132819D01*
X121848190Y-90132819D02*
X121943428Y-90180438D01*
X121943428Y-90180438D02*
X121991047Y-90228057D01*
X121991047Y-90228057D02*
X122038666Y-90323295D01*
X122038666Y-90323295D02*
X122086285Y-90513771D01*
X122086285Y-90513771D02*
X122086285Y-90751866D01*
X122086285Y-90751866D02*
X122038666Y-90942342D01*
X122038666Y-90942342D02*
X121991047Y-91037580D01*
X121991047Y-91037580D02*
X121943428Y-91085200D01*
X121943428Y-91085200D02*
X121848190Y-91132819D01*
X121848190Y-91132819D02*
X121752952Y-91132819D01*
X121752952Y-91132819D02*
X121657714Y-91085200D01*
X121657714Y-91085200D02*
X121610095Y-91037580D01*
X121610095Y-91037580D02*
X121562476Y-90942342D01*
X121562476Y-90942342D02*
X121514857Y-90751866D01*
X121514857Y-90751866D02*
X121514857Y-90513771D01*
X121514857Y-90513771D02*
X121562476Y-90323295D01*
X121562476Y-90323295D02*
X121610095Y-90228057D01*
X121610095Y-90228057D02*
X121657714Y-90180438D01*
X121657714Y-90180438D02*
X121752952Y-90132819D01*
X121866819Y-65947969D02*
X120866819Y-65947969D01*
X120866819Y-65947969D02*
X120866819Y-65709874D01*
X120866819Y-65709874D02*
X120914438Y-65567017D01*
X120914438Y-65567017D02*
X121009676Y-65471779D01*
X121009676Y-65471779D02*
X121104914Y-65424160D01*
X121104914Y-65424160D02*
X121295390Y-65376541D01*
X121295390Y-65376541D02*
X121438247Y-65376541D01*
X121438247Y-65376541D02*
X121628723Y-65424160D01*
X121628723Y-65424160D02*
X121723961Y-65471779D01*
X121723961Y-65471779D02*
X121819200Y-65567017D01*
X121819200Y-65567017D02*
X121866819Y-65709874D01*
X121866819Y-65709874D02*
X121866819Y-65947969D01*
X120866819Y-64471779D02*
X120866819Y-64947969D01*
X120866819Y-64947969D02*
X121343009Y-64995588D01*
X121343009Y-64995588D02*
X121295390Y-64947969D01*
X121295390Y-64947969D02*
X121247771Y-64852731D01*
X121247771Y-64852731D02*
X121247771Y-64614636D01*
X121247771Y-64614636D02*
X121295390Y-64519398D01*
X121295390Y-64519398D02*
X121343009Y-64471779D01*
X121343009Y-64471779D02*
X121438247Y-64424160D01*
X121438247Y-64424160D02*
X121676342Y-64424160D01*
X121676342Y-64424160D02*
X121771580Y-64471779D01*
X121771580Y-64471779D02*
X121819200Y-64519398D01*
X121819200Y-64519398D02*
X121866819Y-64614636D01*
X121866819Y-64614636D02*
X121866819Y-64852731D01*
X121866819Y-64852731D02*
X121819200Y-64947969D01*
X121819200Y-64947969D02*
X121771580Y-64995588D01*
X105674438Y-66519398D02*
X105626819Y-66614636D01*
X105626819Y-66614636D02*
X105626819Y-66757493D01*
X105626819Y-66757493D02*
X105674438Y-66900350D01*
X105674438Y-66900350D02*
X105769676Y-66995588D01*
X105769676Y-66995588D02*
X105864914Y-67043207D01*
X105864914Y-67043207D02*
X106055390Y-67090826D01*
X106055390Y-67090826D02*
X106198247Y-67090826D01*
X106198247Y-67090826D02*
X106388723Y-67043207D01*
X106388723Y-67043207D02*
X106483961Y-66995588D01*
X106483961Y-66995588D02*
X106579200Y-66900350D01*
X106579200Y-66900350D02*
X106626819Y-66757493D01*
X106626819Y-66757493D02*
X106626819Y-66662255D01*
X106626819Y-66662255D02*
X106579200Y-66519398D01*
X106579200Y-66519398D02*
X106531580Y-66471779D01*
X106531580Y-66471779D02*
X106198247Y-66471779D01*
X106198247Y-66471779D02*
X106198247Y-66662255D01*
X106626819Y-66043207D02*
X105626819Y-66043207D01*
X105626819Y-66043207D02*
X106626819Y-65471779D01*
X106626819Y-65471779D02*
X105626819Y-65471779D01*
X106626819Y-64995588D02*
X105626819Y-64995588D01*
X105626819Y-64995588D02*
X105626819Y-64757493D01*
X105626819Y-64757493D02*
X105674438Y-64614636D01*
X105674438Y-64614636D02*
X105769676Y-64519398D01*
X105769676Y-64519398D02*
X105864914Y-64471779D01*
X105864914Y-64471779D02*
X106055390Y-64424160D01*
X106055390Y-64424160D02*
X106198247Y-64424160D01*
X106198247Y-64424160D02*
X106388723Y-64471779D01*
X106388723Y-64471779D02*
X106483961Y-64519398D01*
X106483961Y-64519398D02*
X106579200Y-64614636D01*
X106579200Y-64614636D02*
X106626819Y-64757493D01*
X106626819Y-64757493D02*
X106626819Y-64995588D01*
X132026819Y-65947969D02*
X131026819Y-65947969D01*
X131026819Y-65947969D02*
X131026819Y-65709874D01*
X131026819Y-65709874D02*
X131074438Y-65567017D01*
X131074438Y-65567017D02*
X131169676Y-65471779D01*
X131169676Y-65471779D02*
X131264914Y-65424160D01*
X131264914Y-65424160D02*
X131455390Y-65376541D01*
X131455390Y-65376541D02*
X131598247Y-65376541D01*
X131598247Y-65376541D02*
X131788723Y-65424160D01*
X131788723Y-65424160D02*
X131883961Y-65471779D01*
X131883961Y-65471779D02*
X131979200Y-65567017D01*
X131979200Y-65567017D02*
X132026819Y-65709874D01*
X132026819Y-65709874D02*
X132026819Y-65947969D01*
X132026819Y-64424160D02*
X132026819Y-64995588D01*
X132026819Y-64709874D02*
X131026819Y-64709874D01*
X131026819Y-64709874D02*
X131169676Y-64805112D01*
X131169676Y-64805112D02*
X131264914Y-64900350D01*
X131264914Y-64900350D02*
X131312533Y-64995588D01*
X119326819Y-65947969D02*
X118326819Y-65947969D01*
X118326819Y-65947969D02*
X118326819Y-65709874D01*
X118326819Y-65709874D02*
X118374438Y-65567017D01*
X118374438Y-65567017D02*
X118469676Y-65471779D01*
X118469676Y-65471779D02*
X118564914Y-65424160D01*
X118564914Y-65424160D02*
X118755390Y-65376541D01*
X118755390Y-65376541D02*
X118898247Y-65376541D01*
X118898247Y-65376541D02*
X119088723Y-65424160D01*
X119088723Y-65424160D02*
X119183961Y-65471779D01*
X119183961Y-65471779D02*
X119279200Y-65567017D01*
X119279200Y-65567017D02*
X119326819Y-65709874D01*
X119326819Y-65709874D02*
X119326819Y-65947969D01*
X118326819Y-64519398D02*
X118326819Y-64709874D01*
X118326819Y-64709874D02*
X118374438Y-64805112D01*
X118374438Y-64805112D02*
X118422057Y-64852731D01*
X118422057Y-64852731D02*
X118564914Y-64947969D01*
X118564914Y-64947969D02*
X118755390Y-64995588D01*
X118755390Y-64995588D02*
X119136342Y-64995588D01*
X119136342Y-64995588D02*
X119231580Y-64947969D01*
X119231580Y-64947969D02*
X119279200Y-64900350D01*
X119279200Y-64900350D02*
X119326819Y-64805112D01*
X119326819Y-64805112D02*
X119326819Y-64614636D01*
X119326819Y-64614636D02*
X119279200Y-64519398D01*
X119279200Y-64519398D02*
X119231580Y-64471779D01*
X119231580Y-64471779D02*
X119136342Y-64424160D01*
X119136342Y-64424160D02*
X118898247Y-64424160D01*
X118898247Y-64424160D02*
X118803009Y-64471779D01*
X118803009Y-64471779D02*
X118755390Y-64519398D01*
X118755390Y-64519398D02*
X118707771Y-64614636D01*
X118707771Y-64614636D02*
X118707771Y-64805112D01*
X118707771Y-64805112D02*
X118755390Y-64900350D01*
X118755390Y-64900350D02*
X118803009Y-64947969D01*
X118803009Y-64947969D02*
X118898247Y-64995588D01*
X104688095Y-92672819D02*
X105354761Y-92672819D01*
X105354761Y-92672819D02*
X104926190Y-93672819D01*
X106164285Y-93006152D02*
X106164285Y-93672819D01*
X105926190Y-92625200D02*
X105688095Y-93339485D01*
X105688095Y-93339485D02*
X106307142Y-93339485D01*
X106688095Y-93672819D02*
X106688095Y-92672819D01*
X106688095Y-93149009D02*
X107259523Y-93149009D01*
X107259523Y-93672819D02*
X107259523Y-92672819D01*
X108307142Y-93577580D02*
X108259523Y-93625200D01*
X108259523Y-93625200D02*
X108116666Y-93672819D01*
X108116666Y-93672819D02*
X108021428Y-93672819D01*
X108021428Y-93672819D02*
X107878571Y-93625200D01*
X107878571Y-93625200D02*
X107783333Y-93529961D01*
X107783333Y-93529961D02*
X107735714Y-93434723D01*
X107735714Y-93434723D02*
X107688095Y-93244247D01*
X107688095Y-93244247D02*
X107688095Y-93101390D01*
X107688095Y-93101390D02*
X107735714Y-92910914D01*
X107735714Y-92910914D02*
X107783333Y-92815676D01*
X107783333Y-92815676D02*
X107878571Y-92720438D01*
X107878571Y-92720438D02*
X108021428Y-92672819D01*
X108021428Y-92672819D02*
X108116666Y-92672819D01*
X108116666Y-92672819D02*
X108259523Y-92720438D01*
X108259523Y-92720438D02*
X108307142Y-92768057D01*
X109211904Y-92672819D02*
X108735714Y-92672819D01*
X108735714Y-92672819D02*
X108688095Y-93149009D01*
X108688095Y-93149009D02*
X108735714Y-93101390D01*
X108735714Y-93101390D02*
X108830952Y-93053771D01*
X108830952Y-93053771D02*
X109069047Y-93053771D01*
X109069047Y-93053771D02*
X109164285Y-93101390D01*
X109164285Y-93101390D02*
X109211904Y-93149009D01*
X109211904Y-93149009D02*
X109259523Y-93244247D01*
X109259523Y-93244247D02*
X109259523Y-93482342D01*
X109259523Y-93482342D02*
X109211904Y-93577580D01*
X109211904Y-93577580D02*
X109164285Y-93625200D01*
X109164285Y-93625200D02*
X109069047Y-93672819D01*
X109069047Y-93672819D02*
X108830952Y-93672819D01*
X108830952Y-93672819D02*
X108735714Y-93625200D01*
X108735714Y-93625200D02*
X108688095Y-93577580D01*
X109735714Y-93672819D02*
X109926190Y-93672819D01*
X109926190Y-93672819D02*
X110021428Y-93625200D01*
X110021428Y-93625200D02*
X110069047Y-93577580D01*
X110069047Y-93577580D02*
X110164285Y-93434723D01*
X110164285Y-93434723D02*
X110211904Y-93244247D01*
X110211904Y-93244247D02*
X110211904Y-92863295D01*
X110211904Y-92863295D02*
X110164285Y-92768057D01*
X110164285Y-92768057D02*
X110116666Y-92720438D01*
X110116666Y-92720438D02*
X110021428Y-92672819D01*
X110021428Y-92672819D02*
X109830952Y-92672819D01*
X109830952Y-92672819D02*
X109735714Y-92720438D01*
X109735714Y-92720438D02*
X109688095Y-92768057D01*
X109688095Y-92768057D02*
X109640476Y-92863295D01*
X109640476Y-92863295D02*
X109640476Y-93101390D01*
X109640476Y-93101390D02*
X109688095Y-93196628D01*
X109688095Y-93196628D02*
X109735714Y-93244247D01*
X109735714Y-93244247D02*
X109830952Y-93291866D01*
X109830952Y-93291866D02*
X110021428Y-93291866D01*
X110021428Y-93291866D02*
X110116666Y-93244247D01*
X110116666Y-93244247D02*
X110164285Y-93196628D01*
X110164285Y-93196628D02*
X110211904Y-93101390D01*
X111116666Y-92672819D02*
X110640476Y-92672819D01*
X110640476Y-92672819D02*
X110592857Y-93149009D01*
X110592857Y-93149009D02*
X110640476Y-93101390D01*
X110640476Y-93101390D02*
X110735714Y-93053771D01*
X110735714Y-93053771D02*
X110973809Y-93053771D01*
X110973809Y-93053771D02*
X111069047Y-93101390D01*
X111069047Y-93101390D02*
X111116666Y-93149009D01*
X111116666Y-93149009D02*
X111164285Y-93244247D01*
X111164285Y-93244247D02*
X111164285Y-93482342D01*
X111164285Y-93482342D02*
X111116666Y-93577580D01*
X111116666Y-93577580D02*
X111069047Y-93625200D01*
X111069047Y-93625200D02*
X110973809Y-93672819D01*
X110973809Y-93672819D02*
X110735714Y-93672819D01*
X110735714Y-93672819D02*
X110640476Y-93625200D01*
X110640476Y-93625200D02*
X110592857Y-93577580D01*
X129486819Y-65947969D02*
X128486819Y-65947969D01*
X128486819Y-65947969D02*
X128486819Y-65709874D01*
X128486819Y-65709874D02*
X128534438Y-65567017D01*
X128534438Y-65567017D02*
X128629676Y-65471779D01*
X128629676Y-65471779D02*
X128724914Y-65424160D01*
X128724914Y-65424160D02*
X128915390Y-65376541D01*
X128915390Y-65376541D02*
X129058247Y-65376541D01*
X129058247Y-65376541D02*
X129248723Y-65424160D01*
X129248723Y-65424160D02*
X129343961Y-65471779D01*
X129343961Y-65471779D02*
X129439200Y-65567017D01*
X129439200Y-65567017D02*
X129486819Y-65709874D01*
X129486819Y-65709874D02*
X129486819Y-65947969D01*
X128582057Y-64995588D02*
X128534438Y-64947969D01*
X128534438Y-64947969D02*
X128486819Y-64852731D01*
X128486819Y-64852731D02*
X128486819Y-64614636D01*
X128486819Y-64614636D02*
X128534438Y-64519398D01*
X128534438Y-64519398D02*
X128582057Y-64471779D01*
X128582057Y-64471779D02*
X128677295Y-64424160D01*
X128677295Y-64424160D02*
X128772533Y-64424160D01*
X128772533Y-64424160D02*
X128915390Y-64471779D01*
X128915390Y-64471779D02*
X129486819Y-65043207D01*
X129486819Y-65043207D02*
X129486819Y-64424160D01*
X127008286Y-90132819D02*
X127674952Y-90132819D01*
X127674952Y-90132819D02*
X127246381Y-91132819D01*
X128484476Y-90466152D02*
X128484476Y-91132819D01*
X128246381Y-90085200D02*
X128008286Y-90799485D01*
X128008286Y-90799485D02*
X128627333Y-90799485D01*
X129008286Y-91132819D02*
X129008286Y-90132819D01*
X129008286Y-90609009D02*
X129579714Y-90609009D01*
X129579714Y-91132819D02*
X129579714Y-90132819D01*
X130627333Y-91037580D02*
X130579714Y-91085200D01*
X130579714Y-91085200D02*
X130436857Y-91132819D01*
X130436857Y-91132819D02*
X130341619Y-91132819D01*
X130341619Y-91132819D02*
X130198762Y-91085200D01*
X130198762Y-91085200D02*
X130103524Y-90989961D01*
X130103524Y-90989961D02*
X130055905Y-90894723D01*
X130055905Y-90894723D02*
X130008286Y-90704247D01*
X130008286Y-90704247D02*
X130008286Y-90561390D01*
X130008286Y-90561390D02*
X130055905Y-90370914D01*
X130055905Y-90370914D02*
X130103524Y-90275676D01*
X130103524Y-90275676D02*
X130198762Y-90180438D01*
X130198762Y-90180438D02*
X130341619Y-90132819D01*
X130341619Y-90132819D02*
X130436857Y-90132819D01*
X130436857Y-90132819D02*
X130579714Y-90180438D01*
X130579714Y-90180438D02*
X130627333Y-90228057D01*
X131246381Y-90132819D02*
X131341619Y-90132819D01*
X131341619Y-90132819D02*
X131436857Y-90180438D01*
X131436857Y-90180438D02*
X131484476Y-90228057D01*
X131484476Y-90228057D02*
X131532095Y-90323295D01*
X131532095Y-90323295D02*
X131579714Y-90513771D01*
X131579714Y-90513771D02*
X131579714Y-90751866D01*
X131579714Y-90751866D02*
X131532095Y-90942342D01*
X131532095Y-90942342D02*
X131484476Y-91037580D01*
X131484476Y-91037580D02*
X131436857Y-91085200D01*
X131436857Y-91085200D02*
X131341619Y-91132819D01*
X131341619Y-91132819D02*
X131246381Y-91132819D01*
X131246381Y-91132819D02*
X131151143Y-91085200D01*
X131151143Y-91085200D02*
X131103524Y-91037580D01*
X131103524Y-91037580D02*
X131055905Y-90942342D01*
X131055905Y-90942342D02*
X131008286Y-90751866D01*
X131008286Y-90751866D02*
X131008286Y-90513771D01*
X131008286Y-90513771D02*
X131055905Y-90323295D01*
X131055905Y-90323295D02*
X131103524Y-90228057D01*
X131103524Y-90228057D02*
X131151143Y-90180438D01*
X131151143Y-90180438D02*
X131246381Y-90132819D01*
X132151143Y-90561390D02*
X132055905Y-90513771D01*
X132055905Y-90513771D02*
X132008286Y-90466152D01*
X132008286Y-90466152D02*
X131960667Y-90370914D01*
X131960667Y-90370914D02*
X131960667Y-90323295D01*
X131960667Y-90323295D02*
X132008286Y-90228057D01*
X132008286Y-90228057D02*
X132055905Y-90180438D01*
X132055905Y-90180438D02*
X132151143Y-90132819D01*
X132151143Y-90132819D02*
X132341619Y-90132819D01*
X132341619Y-90132819D02*
X132436857Y-90180438D01*
X132436857Y-90180438D02*
X132484476Y-90228057D01*
X132484476Y-90228057D02*
X132532095Y-90323295D01*
X132532095Y-90323295D02*
X132532095Y-90370914D01*
X132532095Y-90370914D02*
X132484476Y-90466152D01*
X132484476Y-90466152D02*
X132436857Y-90513771D01*
X132436857Y-90513771D02*
X132341619Y-90561390D01*
X132341619Y-90561390D02*
X132151143Y-90561390D01*
X132151143Y-90561390D02*
X132055905Y-90609009D01*
X132055905Y-90609009D02*
X132008286Y-90656628D01*
X132008286Y-90656628D02*
X131960667Y-90751866D01*
X131960667Y-90751866D02*
X131960667Y-90942342D01*
X131960667Y-90942342D02*
X132008286Y-91037580D01*
X132008286Y-91037580D02*
X132055905Y-91085200D01*
X132055905Y-91085200D02*
X132151143Y-91132819D01*
X132151143Y-91132819D02*
X132341619Y-91132819D01*
X132341619Y-91132819D02*
X132436857Y-91085200D01*
X132436857Y-91085200D02*
X132484476Y-91037580D01*
X132484476Y-91037580D02*
X132532095Y-90942342D01*
X132532095Y-90942342D02*
X132532095Y-90751866D01*
X132532095Y-90751866D02*
X132484476Y-90656628D01*
X132484476Y-90656628D02*
X132436857Y-90609009D01*
X132436857Y-90609009D02*
X132341619Y-90561390D01*
X77128019Y-81708048D02*
X77842304Y-81708048D01*
X77842304Y-81708048D02*
X77985161Y-81755667D01*
X77985161Y-81755667D02*
X78080400Y-81850905D01*
X78080400Y-81850905D02*
X78128019Y-81993762D01*
X78128019Y-81993762D02*
X78128019Y-82089000D01*
X78128019Y-80755667D02*
X78128019Y-81231857D01*
X78128019Y-81231857D02*
X77128019Y-81231857D01*
X78032780Y-79850905D02*
X78080400Y-79898524D01*
X78080400Y-79898524D02*
X78128019Y-80041381D01*
X78128019Y-80041381D02*
X78128019Y-80136619D01*
X78128019Y-80136619D02*
X78080400Y-80279476D01*
X78080400Y-80279476D02*
X77985161Y-80374714D01*
X77985161Y-80374714D02*
X77889923Y-80422333D01*
X77889923Y-80422333D02*
X77699447Y-80469952D01*
X77699447Y-80469952D02*
X77556590Y-80469952D01*
X77556590Y-80469952D02*
X77366114Y-80422333D01*
X77366114Y-80422333D02*
X77270876Y-80374714D01*
X77270876Y-80374714D02*
X77175638Y-80279476D01*
X77175638Y-80279476D02*
X77128019Y-80136619D01*
X77128019Y-80136619D02*
X77128019Y-80041381D01*
X77128019Y-80041381D02*
X77175638Y-79898524D01*
X77175638Y-79898524D02*
X77223257Y-79850905D01*
X77128019Y-79136619D02*
X77842304Y-79136619D01*
X77842304Y-79136619D02*
X77985161Y-79184238D01*
X77985161Y-79184238D02*
X78080400Y-79279476D01*
X78080400Y-79279476D02*
X78128019Y-79422333D01*
X78128019Y-79422333D02*
X78128019Y-79517571D01*
X78128019Y-78184238D02*
X78128019Y-78660428D01*
X78128019Y-78660428D02*
X77128019Y-78660428D01*
X78032780Y-77279476D02*
X78080400Y-77327095D01*
X78080400Y-77327095D02*
X78128019Y-77469952D01*
X78128019Y-77469952D02*
X78128019Y-77565190D01*
X78128019Y-77565190D02*
X78080400Y-77708047D01*
X78080400Y-77708047D02*
X77985161Y-77803285D01*
X77985161Y-77803285D02*
X77889923Y-77850904D01*
X77889923Y-77850904D02*
X77699447Y-77898523D01*
X77699447Y-77898523D02*
X77556590Y-77898523D01*
X77556590Y-77898523D02*
X77366114Y-77850904D01*
X77366114Y-77850904D02*
X77270876Y-77803285D01*
X77270876Y-77803285D02*
X77175638Y-77708047D01*
X77175638Y-77708047D02*
X77128019Y-77565190D01*
X77128019Y-77565190D02*
X77128019Y-77469952D01*
X77128019Y-77469952D02*
X77175638Y-77327095D01*
X77175638Y-77327095D02*
X77223257Y-77279476D01*
X77128019Y-76565190D02*
X77842304Y-76565190D01*
X77842304Y-76565190D02*
X77985161Y-76612809D01*
X77985161Y-76612809D02*
X78080400Y-76708047D01*
X78080400Y-76708047D02*
X78128019Y-76850904D01*
X78128019Y-76850904D02*
X78128019Y-76946142D01*
X78128019Y-75612809D02*
X78128019Y-76088999D01*
X78128019Y-76088999D02*
X77128019Y-76088999D01*
X78032780Y-74708047D02*
X78080400Y-74755666D01*
X78080400Y-74755666D02*
X78128019Y-74898523D01*
X78128019Y-74898523D02*
X78128019Y-74993761D01*
X78128019Y-74993761D02*
X78080400Y-75136618D01*
X78080400Y-75136618D02*
X77985161Y-75231856D01*
X77985161Y-75231856D02*
X77889923Y-75279475D01*
X77889923Y-75279475D02*
X77699447Y-75327094D01*
X77699447Y-75327094D02*
X77556590Y-75327094D01*
X77556590Y-75327094D02*
X77366114Y-75279475D01*
X77366114Y-75279475D02*
X77270876Y-75231856D01*
X77270876Y-75231856D02*
X77175638Y-75136618D01*
X77175638Y-75136618D02*
X77128019Y-74993761D01*
X77128019Y-74993761D02*
X77128019Y-74898523D01*
X77128019Y-74898523D02*
X77175638Y-74755666D01*
X77175638Y-74755666D02*
X77223257Y-74708047D01*
X77128019Y-73993761D02*
X77842304Y-73993761D01*
X77842304Y-73993761D02*
X77985161Y-74041380D01*
X77985161Y-74041380D02*
X78080400Y-74136618D01*
X78080400Y-74136618D02*
X78128019Y-74279475D01*
X78128019Y-74279475D02*
X78128019Y-74374713D01*
X78128019Y-73041380D02*
X78128019Y-73517570D01*
X78128019Y-73517570D02*
X77128019Y-73517570D01*
X78032780Y-72136618D02*
X78080400Y-72184237D01*
X78080400Y-72184237D02*
X78128019Y-72327094D01*
X78128019Y-72327094D02*
X78128019Y-72422332D01*
X78128019Y-72422332D02*
X78080400Y-72565189D01*
X78080400Y-72565189D02*
X77985161Y-72660427D01*
X77985161Y-72660427D02*
X77889923Y-72708046D01*
X77889923Y-72708046D02*
X77699447Y-72755665D01*
X77699447Y-72755665D02*
X77556590Y-72755665D01*
X77556590Y-72755665D02*
X77366114Y-72708046D01*
X77366114Y-72708046D02*
X77270876Y-72660427D01*
X77270876Y-72660427D02*
X77175638Y-72565189D01*
X77175638Y-72565189D02*
X77128019Y-72422332D01*
X77128019Y-72422332D02*
X77128019Y-72327094D01*
X77128019Y-72327094D02*
X77175638Y-72184237D01*
X77175638Y-72184237D02*
X77223257Y-72136618D01*
X85739361Y-69701580D02*
X85691742Y-69749200D01*
X85691742Y-69749200D02*
X85548885Y-69796819D01*
X85548885Y-69796819D02*
X85453647Y-69796819D01*
X85453647Y-69796819D02*
X85310790Y-69749200D01*
X85310790Y-69749200D02*
X85215552Y-69653961D01*
X85215552Y-69653961D02*
X85167933Y-69558723D01*
X85167933Y-69558723D02*
X85120314Y-69368247D01*
X85120314Y-69368247D02*
X85120314Y-69225390D01*
X85120314Y-69225390D02*
X85167933Y-69034914D01*
X85167933Y-69034914D02*
X85215552Y-68939676D01*
X85215552Y-68939676D02*
X85310790Y-68844438D01*
X85310790Y-68844438D02*
X85453647Y-68796819D01*
X85453647Y-68796819D02*
X85548885Y-68796819D01*
X85548885Y-68796819D02*
X85691742Y-68844438D01*
X85691742Y-68844438D02*
X85739361Y-68892057D01*
X86644123Y-69796819D02*
X86167933Y-69796819D01*
X86167933Y-69796819D02*
X86167933Y-68796819D01*
X86977457Y-69796819D02*
X86977457Y-68796819D01*
X87548885Y-69796819D02*
X87120314Y-69225390D01*
X87548885Y-68796819D02*
X86977457Y-69368247D01*
X137930286Y-90132819D02*
X138596952Y-90132819D01*
X138596952Y-90132819D02*
X138168381Y-91132819D01*
X139406476Y-90466152D02*
X139406476Y-91132819D01*
X139168381Y-90085200D02*
X138930286Y-90799485D01*
X138930286Y-90799485D02*
X139549333Y-90799485D01*
X139930286Y-91132819D02*
X139930286Y-90132819D01*
X139930286Y-90609009D02*
X140501714Y-90609009D01*
X140501714Y-91132819D02*
X140501714Y-90132819D01*
X141549333Y-91037580D02*
X141501714Y-91085200D01*
X141501714Y-91085200D02*
X141358857Y-91132819D01*
X141358857Y-91132819D02*
X141263619Y-91132819D01*
X141263619Y-91132819D02*
X141120762Y-91085200D01*
X141120762Y-91085200D02*
X141025524Y-90989961D01*
X141025524Y-90989961D02*
X140977905Y-90894723D01*
X140977905Y-90894723D02*
X140930286Y-90704247D01*
X140930286Y-90704247D02*
X140930286Y-90561390D01*
X140930286Y-90561390D02*
X140977905Y-90370914D01*
X140977905Y-90370914D02*
X141025524Y-90275676D01*
X141025524Y-90275676D02*
X141120762Y-90180438D01*
X141120762Y-90180438D02*
X141263619Y-90132819D01*
X141263619Y-90132819D02*
X141358857Y-90132819D01*
X141358857Y-90132819D02*
X141501714Y-90180438D01*
X141501714Y-90180438D02*
X141549333Y-90228057D01*
X142501714Y-91132819D02*
X141930286Y-91132819D01*
X142216000Y-91132819D02*
X142216000Y-90132819D01*
X142216000Y-90132819D02*
X142120762Y-90275676D01*
X142120762Y-90275676D02*
X142025524Y-90370914D01*
X142025524Y-90370914D02*
X141930286Y-90418533D01*
X143358857Y-90466152D02*
X143358857Y-91132819D01*
X143120762Y-90085200D02*
X142882667Y-90799485D01*
X142882667Y-90799485D02*
X143501714Y-90799485D01*
X93893095Y-92672819D02*
X94559761Y-92672819D01*
X94559761Y-92672819D02*
X94131190Y-93672819D01*
X95369285Y-93006152D02*
X95369285Y-93672819D01*
X95131190Y-92625200D02*
X94893095Y-93339485D01*
X94893095Y-93339485D02*
X95512142Y-93339485D01*
X95893095Y-93672819D02*
X95893095Y-92672819D01*
X95893095Y-93149009D02*
X96464523Y-93149009D01*
X96464523Y-93672819D02*
X96464523Y-92672819D01*
X97512142Y-93577580D02*
X97464523Y-93625200D01*
X97464523Y-93625200D02*
X97321666Y-93672819D01*
X97321666Y-93672819D02*
X97226428Y-93672819D01*
X97226428Y-93672819D02*
X97083571Y-93625200D01*
X97083571Y-93625200D02*
X96988333Y-93529961D01*
X96988333Y-93529961D02*
X96940714Y-93434723D01*
X96940714Y-93434723D02*
X96893095Y-93244247D01*
X96893095Y-93244247D02*
X96893095Y-93101390D01*
X96893095Y-93101390D02*
X96940714Y-92910914D01*
X96940714Y-92910914D02*
X96988333Y-92815676D01*
X96988333Y-92815676D02*
X97083571Y-92720438D01*
X97083571Y-92720438D02*
X97226428Y-92672819D01*
X97226428Y-92672819D02*
X97321666Y-92672819D01*
X97321666Y-92672819D02*
X97464523Y-92720438D01*
X97464523Y-92720438D02*
X97512142Y-92768057D01*
X98416904Y-92672819D02*
X97940714Y-92672819D01*
X97940714Y-92672819D02*
X97893095Y-93149009D01*
X97893095Y-93149009D02*
X97940714Y-93101390D01*
X97940714Y-93101390D02*
X98035952Y-93053771D01*
X98035952Y-93053771D02*
X98274047Y-93053771D01*
X98274047Y-93053771D02*
X98369285Y-93101390D01*
X98369285Y-93101390D02*
X98416904Y-93149009D01*
X98416904Y-93149009D02*
X98464523Y-93244247D01*
X98464523Y-93244247D02*
X98464523Y-93482342D01*
X98464523Y-93482342D02*
X98416904Y-93577580D01*
X98416904Y-93577580D02*
X98369285Y-93625200D01*
X98369285Y-93625200D02*
X98274047Y-93672819D01*
X98274047Y-93672819D02*
X98035952Y-93672819D01*
X98035952Y-93672819D02*
X97940714Y-93625200D01*
X97940714Y-93625200D02*
X97893095Y-93577580D01*
X98940714Y-93672819D02*
X99131190Y-93672819D01*
X99131190Y-93672819D02*
X99226428Y-93625200D01*
X99226428Y-93625200D02*
X99274047Y-93577580D01*
X99274047Y-93577580D02*
X99369285Y-93434723D01*
X99369285Y-93434723D02*
X99416904Y-93244247D01*
X99416904Y-93244247D02*
X99416904Y-92863295D01*
X99416904Y-92863295D02*
X99369285Y-92768057D01*
X99369285Y-92768057D02*
X99321666Y-92720438D01*
X99321666Y-92720438D02*
X99226428Y-92672819D01*
X99226428Y-92672819D02*
X99035952Y-92672819D01*
X99035952Y-92672819D02*
X98940714Y-92720438D01*
X98940714Y-92720438D02*
X98893095Y-92768057D01*
X98893095Y-92768057D02*
X98845476Y-92863295D01*
X98845476Y-92863295D02*
X98845476Y-93101390D01*
X98845476Y-93101390D02*
X98893095Y-93196628D01*
X98893095Y-93196628D02*
X98940714Y-93244247D01*
X98940714Y-93244247D02*
X99035952Y-93291866D01*
X99035952Y-93291866D02*
X99226428Y-93291866D01*
X99226428Y-93291866D02*
X99321666Y-93244247D01*
X99321666Y-93244247D02*
X99369285Y-93196628D01*
X99369285Y-93196628D02*
X99416904Y-93101390D01*
X100321666Y-92672819D02*
X99845476Y-92672819D01*
X99845476Y-92672819D02*
X99797857Y-93149009D01*
X99797857Y-93149009D02*
X99845476Y-93101390D01*
X99845476Y-93101390D02*
X99940714Y-93053771D01*
X99940714Y-93053771D02*
X100178809Y-93053771D01*
X100178809Y-93053771D02*
X100274047Y-93101390D01*
X100274047Y-93101390D02*
X100321666Y-93149009D01*
X100321666Y-93149009D02*
X100369285Y-93244247D01*
X100369285Y-93244247D02*
X100369285Y-93482342D01*
X100369285Y-93482342D02*
X100321666Y-93577580D01*
X100321666Y-93577580D02*
X100274047Y-93625200D01*
X100274047Y-93625200D02*
X100178809Y-93672819D01*
X100178809Y-93672819D02*
X99940714Y-93672819D01*
X99940714Y-93672819D02*
X99845476Y-93625200D01*
X99845476Y-93625200D02*
X99797857Y-93577580D01*
X113246819Y-65757493D02*
X113246819Y-65567017D01*
X113246819Y-65567017D02*
X113294438Y-65471779D01*
X113294438Y-65471779D02*
X113389676Y-65376541D01*
X113389676Y-65376541D02*
X113580152Y-65328922D01*
X113580152Y-65328922D02*
X113913485Y-65328922D01*
X113913485Y-65328922D02*
X114103961Y-65376541D01*
X114103961Y-65376541D02*
X114199200Y-65471779D01*
X114199200Y-65471779D02*
X114246819Y-65567017D01*
X114246819Y-65567017D02*
X114246819Y-65757493D01*
X114246819Y-65757493D02*
X114199200Y-65852731D01*
X114199200Y-65852731D02*
X114103961Y-65947969D01*
X114103961Y-65947969D02*
X113913485Y-65995588D01*
X113913485Y-65995588D02*
X113580152Y-65995588D01*
X113580152Y-65995588D02*
X113389676Y-65947969D01*
X113389676Y-65947969D02*
X113294438Y-65852731D01*
X113294438Y-65852731D02*
X113246819Y-65757493D01*
X113723009Y-64900350D02*
X113723009Y-64567017D01*
X114246819Y-64424160D02*
X114246819Y-64900350D01*
X114246819Y-64900350D02*
X113246819Y-64900350D01*
X113246819Y-64900350D02*
X113246819Y-64424160D01*
X110706819Y-66709874D02*
X110706819Y-66519398D01*
X110706819Y-66519398D02*
X110754438Y-66424160D01*
X110754438Y-66424160D02*
X110849676Y-66328922D01*
X110849676Y-66328922D02*
X111040152Y-66281303D01*
X111040152Y-66281303D02*
X111373485Y-66281303D01*
X111373485Y-66281303D02*
X111563961Y-66328922D01*
X111563961Y-66328922D02*
X111659200Y-66424160D01*
X111659200Y-66424160D02*
X111706819Y-66519398D01*
X111706819Y-66519398D02*
X111706819Y-66709874D01*
X111706819Y-66709874D02*
X111659200Y-66805112D01*
X111659200Y-66805112D02*
X111563961Y-66900350D01*
X111563961Y-66900350D02*
X111373485Y-66947969D01*
X111373485Y-66947969D02*
X111040152Y-66947969D01*
X111040152Y-66947969D02*
X110849676Y-66900350D01*
X110849676Y-66900350D02*
X110754438Y-66805112D01*
X110754438Y-66805112D02*
X110706819Y-66709874D01*
X111706819Y-65852731D02*
X110706819Y-65852731D01*
X111706819Y-65281303D02*
X111135390Y-65709874D01*
X110706819Y-65281303D02*
X111278247Y-65852731D01*
X111611580Y-64709874D02*
X111659200Y-64662255D01*
X111659200Y-64662255D02*
X111706819Y-64709874D01*
X111706819Y-64709874D02*
X111659200Y-64757493D01*
X111659200Y-64757493D02*
X111611580Y-64709874D01*
X111611580Y-64709874D02*
X111706819Y-64709874D01*
X110754438Y-64900350D02*
X110706819Y-64805112D01*
X110706819Y-64805112D02*
X110706819Y-64567017D01*
X110706819Y-64567017D02*
X110754438Y-64471779D01*
X110754438Y-64471779D02*
X110849676Y-64424160D01*
X110849676Y-64424160D02*
X110944914Y-64424160D01*
X110944914Y-64424160D02*
X111040152Y-64471779D01*
X111040152Y-64471779D02*
X111087771Y-64519398D01*
X111087771Y-64519398D02*
X111135390Y-64614636D01*
X111135390Y-64614636D02*
X111183009Y-64662255D01*
X111183009Y-64662255D02*
X111278247Y-64709874D01*
X111278247Y-64709874D02*
X111325866Y-64709874D01*
X126946819Y-65947969D02*
X125946819Y-65947969D01*
X125946819Y-65947969D02*
X125946819Y-65709874D01*
X125946819Y-65709874D02*
X125994438Y-65567017D01*
X125994438Y-65567017D02*
X126089676Y-65471779D01*
X126089676Y-65471779D02*
X126184914Y-65424160D01*
X126184914Y-65424160D02*
X126375390Y-65376541D01*
X126375390Y-65376541D02*
X126518247Y-65376541D01*
X126518247Y-65376541D02*
X126708723Y-65424160D01*
X126708723Y-65424160D02*
X126803961Y-65471779D01*
X126803961Y-65471779D02*
X126899200Y-65567017D01*
X126899200Y-65567017D02*
X126946819Y-65709874D01*
X126946819Y-65709874D02*
X126946819Y-65947969D01*
X125946819Y-65043207D02*
X125946819Y-64424160D01*
X125946819Y-64424160D02*
X126327771Y-64757493D01*
X126327771Y-64757493D02*
X126327771Y-64614636D01*
X126327771Y-64614636D02*
X126375390Y-64519398D01*
X126375390Y-64519398D02*
X126423009Y-64471779D01*
X126423009Y-64471779D02*
X126518247Y-64424160D01*
X126518247Y-64424160D02*
X126756342Y-64424160D01*
X126756342Y-64424160D02*
X126851580Y-64471779D01*
X126851580Y-64471779D02*
X126899200Y-64519398D01*
X126899200Y-64519398D02*
X126946819Y-64614636D01*
X126946819Y-64614636D02*
X126946819Y-64900350D01*
X126946819Y-64900350D02*
X126899200Y-64995588D01*
X126899200Y-64995588D02*
X126851580Y-65043207D01*
X134566819Y-65947969D02*
X133566819Y-65947969D01*
X133566819Y-65947969D02*
X133566819Y-65709874D01*
X133566819Y-65709874D02*
X133614438Y-65567017D01*
X133614438Y-65567017D02*
X133709676Y-65471779D01*
X133709676Y-65471779D02*
X133804914Y-65424160D01*
X133804914Y-65424160D02*
X133995390Y-65376541D01*
X133995390Y-65376541D02*
X134138247Y-65376541D01*
X134138247Y-65376541D02*
X134328723Y-65424160D01*
X134328723Y-65424160D02*
X134423961Y-65471779D01*
X134423961Y-65471779D02*
X134519200Y-65567017D01*
X134519200Y-65567017D02*
X134566819Y-65709874D01*
X134566819Y-65709874D02*
X134566819Y-65947969D01*
X133566819Y-64757493D02*
X133566819Y-64662255D01*
X133566819Y-64662255D02*
X133614438Y-64567017D01*
X133614438Y-64567017D02*
X133662057Y-64519398D01*
X133662057Y-64519398D02*
X133757295Y-64471779D01*
X133757295Y-64471779D02*
X133947771Y-64424160D01*
X133947771Y-64424160D02*
X134185866Y-64424160D01*
X134185866Y-64424160D02*
X134376342Y-64471779D01*
X134376342Y-64471779D02*
X134471580Y-64519398D01*
X134471580Y-64519398D02*
X134519200Y-64567017D01*
X134519200Y-64567017D02*
X134566819Y-64662255D01*
X134566819Y-64662255D02*
X134566819Y-64757493D01*
X134566819Y-64757493D02*
X134519200Y-64852731D01*
X134519200Y-64852731D02*
X134471580Y-64900350D01*
X134471580Y-64900350D02*
X134376342Y-64947969D01*
X134376342Y-64947969D02*
X134185866Y-64995588D01*
X134185866Y-64995588D02*
X133947771Y-64995588D01*
X133947771Y-64995588D02*
X133757295Y-64947969D01*
X133757295Y-64947969D02*
X133662057Y-64900350D01*
X133662057Y-64900350D02*
X133614438Y-64852731D01*
X133614438Y-64852731D02*
X133566819Y-64757493D01*
X124406819Y-65947969D02*
X123406819Y-65947969D01*
X123406819Y-65947969D02*
X123406819Y-65709874D01*
X123406819Y-65709874D02*
X123454438Y-65567017D01*
X123454438Y-65567017D02*
X123549676Y-65471779D01*
X123549676Y-65471779D02*
X123644914Y-65424160D01*
X123644914Y-65424160D02*
X123835390Y-65376541D01*
X123835390Y-65376541D02*
X123978247Y-65376541D01*
X123978247Y-65376541D02*
X124168723Y-65424160D01*
X124168723Y-65424160D02*
X124263961Y-65471779D01*
X124263961Y-65471779D02*
X124359200Y-65567017D01*
X124359200Y-65567017D02*
X124406819Y-65709874D01*
X124406819Y-65709874D02*
X124406819Y-65947969D01*
X123740152Y-64519398D02*
X124406819Y-64519398D01*
X123359200Y-64757493D02*
X124073485Y-64995588D01*
X124073485Y-64995588D02*
X124073485Y-64376541D01*
X103086819Y-66995588D02*
X104086819Y-66662255D01*
X104086819Y-66662255D02*
X103086819Y-66328922D01*
X103991580Y-65424160D02*
X104039200Y-65471779D01*
X104039200Y-65471779D02*
X104086819Y-65614636D01*
X104086819Y-65614636D02*
X104086819Y-65709874D01*
X104086819Y-65709874D02*
X104039200Y-65852731D01*
X104039200Y-65852731D02*
X103943961Y-65947969D01*
X103943961Y-65947969D02*
X103848723Y-65995588D01*
X103848723Y-65995588D02*
X103658247Y-66043207D01*
X103658247Y-66043207D02*
X103515390Y-66043207D01*
X103515390Y-66043207D02*
X103324914Y-65995588D01*
X103324914Y-65995588D02*
X103229676Y-65947969D01*
X103229676Y-65947969D02*
X103134438Y-65852731D01*
X103134438Y-65852731D02*
X103086819Y-65709874D01*
X103086819Y-65709874D02*
X103086819Y-65614636D01*
X103086819Y-65614636D02*
X103134438Y-65471779D01*
X103134438Y-65471779D02*
X103182057Y-65424160D01*
X103991580Y-64424160D02*
X104039200Y-64471779D01*
X104039200Y-64471779D02*
X104086819Y-64614636D01*
X104086819Y-64614636D02*
X104086819Y-64709874D01*
X104086819Y-64709874D02*
X104039200Y-64852731D01*
X104039200Y-64852731D02*
X103943961Y-64947969D01*
X103943961Y-64947969D02*
X103848723Y-64995588D01*
X103848723Y-64995588D02*
X103658247Y-65043207D01*
X103658247Y-65043207D02*
X103515390Y-65043207D01*
X103515390Y-65043207D02*
X103324914Y-64995588D01*
X103324914Y-64995588D02*
X103229676Y-64947969D01*
X103229676Y-64947969D02*
X103134438Y-64852731D01*
X103134438Y-64852731D02*
X103086819Y-64709874D01*
X103086819Y-64709874D02*
X103086819Y-64614636D01*
X103086819Y-64614636D02*
X103134438Y-64471779D01*
X103134438Y-64471779D02*
X103182057Y-64424160D01*
X109166819Y-66519397D02*
X108166819Y-66519397D01*
X109166819Y-65471779D02*
X108690628Y-65805112D01*
X109166819Y-66043207D02*
X108166819Y-66043207D01*
X108166819Y-66043207D02*
X108166819Y-65662255D01*
X108166819Y-65662255D02*
X108214438Y-65567017D01*
X108214438Y-65567017D02*
X108262057Y-65519398D01*
X108262057Y-65519398D02*
X108357295Y-65471779D01*
X108357295Y-65471779D02*
X108500152Y-65471779D01*
X108500152Y-65471779D02*
X108595390Y-65519398D01*
X108595390Y-65519398D02*
X108643009Y-65567017D01*
X108643009Y-65567017D02*
X108690628Y-65662255D01*
X108690628Y-65662255D02*
X108690628Y-66043207D01*
X109262057Y-64376541D02*
X109214438Y-64471779D01*
X109214438Y-64471779D02*
X109119200Y-64567017D01*
X109119200Y-64567017D02*
X108976342Y-64709874D01*
X108976342Y-64709874D02*
X108928723Y-64805112D01*
X108928723Y-64805112D02*
X108928723Y-64900350D01*
X109166819Y-64852731D02*
X109119200Y-64947969D01*
X109119200Y-64947969D02*
X109023961Y-65043207D01*
X109023961Y-65043207D02*
X108833485Y-65090826D01*
X108833485Y-65090826D02*
X108500152Y-65090826D01*
X108500152Y-65090826D02*
X108309676Y-65043207D01*
X108309676Y-65043207D02*
X108214438Y-64947969D01*
X108214438Y-64947969D02*
X108166819Y-64852731D01*
X108166819Y-64852731D02*
X108166819Y-64662255D01*
X108166819Y-64662255D02*
X108214438Y-64567017D01*
X108214438Y-64567017D02*
X108309676Y-64471779D01*
X108309676Y-64471779D02*
X108500152Y-64424160D01*
X108500152Y-64424160D02*
X108833485Y-64424160D01*
X108833485Y-64424160D02*
X109023961Y-64471779D01*
X109023961Y-64471779D02*
X109119200Y-64567017D01*
X109119200Y-64567017D02*
X109166819Y-64662255D01*
X109166819Y-64662255D02*
X109166819Y-64852731D01*
X152487333Y-84179580D02*
X152439714Y-84227200D01*
X152439714Y-84227200D02*
X152296857Y-84274819D01*
X152296857Y-84274819D02*
X152201619Y-84274819D01*
X152201619Y-84274819D02*
X152058762Y-84227200D01*
X152058762Y-84227200D02*
X151963524Y-84131961D01*
X151963524Y-84131961D02*
X151915905Y-84036723D01*
X151915905Y-84036723D02*
X151868286Y-83846247D01*
X151868286Y-83846247D02*
X151868286Y-83703390D01*
X151868286Y-83703390D02*
X151915905Y-83512914D01*
X151915905Y-83512914D02*
X151963524Y-83417676D01*
X151963524Y-83417676D02*
X152058762Y-83322438D01*
X152058762Y-83322438D02*
X152201619Y-83274819D01*
X152201619Y-83274819D02*
X152296857Y-83274819D01*
X152296857Y-83274819D02*
X152439714Y-83322438D01*
X152439714Y-83322438D02*
X152487333Y-83370057D01*
X153439714Y-84274819D02*
X152868286Y-84274819D01*
X153154000Y-84274819D02*
X153154000Y-83274819D01*
X153154000Y-83274819D02*
X153058762Y-83417676D01*
X153058762Y-83417676D02*
X152963524Y-83512914D01*
X152963524Y-83512914D02*
X152868286Y-83560533D01*
X90358933Y-74273580D02*
X90311314Y-74321200D01*
X90311314Y-74321200D02*
X90168457Y-74368819D01*
X90168457Y-74368819D02*
X90073219Y-74368819D01*
X90073219Y-74368819D02*
X89930362Y-74321200D01*
X89930362Y-74321200D02*
X89835124Y-74225961D01*
X89835124Y-74225961D02*
X89787505Y-74130723D01*
X89787505Y-74130723D02*
X89739886Y-73940247D01*
X89739886Y-73940247D02*
X89739886Y-73797390D01*
X89739886Y-73797390D02*
X89787505Y-73606914D01*
X89787505Y-73606914D02*
X89835124Y-73511676D01*
X89835124Y-73511676D02*
X89930362Y-73416438D01*
X89930362Y-73416438D02*
X90073219Y-73368819D01*
X90073219Y-73368819D02*
X90168457Y-73368819D01*
X90168457Y-73368819D02*
X90311314Y-73416438D01*
X90311314Y-73416438D02*
X90358933Y-73464057D01*
X90739886Y-73464057D02*
X90787505Y-73416438D01*
X90787505Y-73416438D02*
X90882743Y-73368819D01*
X90882743Y-73368819D02*
X91120838Y-73368819D01*
X91120838Y-73368819D02*
X91216076Y-73416438D01*
X91216076Y-73416438D02*
X91263695Y-73464057D01*
X91263695Y-73464057D02*
X91311314Y-73559295D01*
X91311314Y-73559295D02*
X91311314Y-73654533D01*
X91311314Y-73654533D02*
X91263695Y-73797390D01*
X91263695Y-73797390D02*
X90692267Y-74368819D01*
X90692267Y-74368819D02*
X91311314Y-74368819D01*
X95865333Y-70209580D02*
X95817714Y-70257200D01*
X95817714Y-70257200D02*
X95674857Y-70304819D01*
X95674857Y-70304819D02*
X95579619Y-70304819D01*
X95579619Y-70304819D02*
X95436762Y-70257200D01*
X95436762Y-70257200D02*
X95341524Y-70161961D01*
X95341524Y-70161961D02*
X95293905Y-70066723D01*
X95293905Y-70066723D02*
X95246286Y-69876247D01*
X95246286Y-69876247D02*
X95246286Y-69733390D01*
X95246286Y-69733390D02*
X95293905Y-69542914D01*
X95293905Y-69542914D02*
X95341524Y-69447676D01*
X95341524Y-69447676D02*
X95436762Y-69352438D01*
X95436762Y-69352438D02*
X95579619Y-69304819D01*
X95579619Y-69304819D02*
X95674857Y-69304819D01*
X95674857Y-69304819D02*
X95817714Y-69352438D01*
X95817714Y-69352438D02*
X95865333Y-69400057D01*
X96198667Y-69304819D02*
X96817714Y-69304819D01*
X96817714Y-69304819D02*
X96484381Y-69685771D01*
X96484381Y-69685771D02*
X96627238Y-69685771D01*
X96627238Y-69685771D02*
X96722476Y-69733390D01*
X96722476Y-69733390D02*
X96770095Y-69781009D01*
X96770095Y-69781009D02*
X96817714Y-69876247D01*
X96817714Y-69876247D02*
X96817714Y-70114342D01*
X96817714Y-70114342D02*
X96770095Y-70209580D01*
X96770095Y-70209580D02*
X96722476Y-70257200D01*
X96722476Y-70257200D02*
X96627238Y-70304819D01*
X96627238Y-70304819D02*
X96341524Y-70304819D01*
X96341524Y-70304819D02*
X96246286Y-70257200D01*
X96246286Y-70257200D02*
X96198667Y-70209580D01*
X106513333Y-70209580D02*
X106465714Y-70257200D01*
X106465714Y-70257200D02*
X106322857Y-70304819D01*
X106322857Y-70304819D02*
X106227619Y-70304819D01*
X106227619Y-70304819D02*
X106084762Y-70257200D01*
X106084762Y-70257200D02*
X105989524Y-70161961D01*
X105989524Y-70161961D02*
X105941905Y-70066723D01*
X105941905Y-70066723D02*
X105894286Y-69876247D01*
X105894286Y-69876247D02*
X105894286Y-69733390D01*
X105894286Y-69733390D02*
X105941905Y-69542914D01*
X105941905Y-69542914D02*
X105989524Y-69447676D01*
X105989524Y-69447676D02*
X106084762Y-69352438D01*
X106084762Y-69352438D02*
X106227619Y-69304819D01*
X106227619Y-69304819D02*
X106322857Y-69304819D01*
X106322857Y-69304819D02*
X106465714Y-69352438D01*
X106465714Y-69352438D02*
X106513333Y-69400057D01*
X107370476Y-69638152D02*
X107370476Y-70304819D01*
X107132381Y-69257200D02*
X106894286Y-69971485D01*
X106894286Y-69971485D02*
X107513333Y-69971485D01*
X117689333Y-70209580D02*
X117641714Y-70257200D01*
X117641714Y-70257200D02*
X117498857Y-70304819D01*
X117498857Y-70304819D02*
X117403619Y-70304819D01*
X117403619Y-70304819D02*
X117260762Y-70257200D01*
X117260762Y-70257200D02*
X117165524Y-70161961D01*
X117165524Y-70161961D02*
X117117905Y-70066723D01*
X117117905Y-70066723D02*
X117070286Y-69876247D01*
X117070286Y-69876247D02*
X117070286Y-69733390D01*
X117070286Y-69733390D02*
X117117905Y-69542914D01*
X117117905Y-69542914D02*
X117165524Y-69447676D01*
X117165524Y-69447676D02*
X117260762Y-69352438D01*
X117260762Y-69352438D02*
X117403619Y-69304819D01*
X117403619Y-69304819D02*
X117498857Y-69304819D01*
X117498857Y-69304819D02*
X117641714Y-69352438D01*
X117641714Y-69352438D02*
X117689333Y-69400057D01*
X118594095Y-69304819D02*
X118117905Y-69304819D01*
X118117905Y-69304819D02*
X118070286Y-69781009D01*
X118070286Y-69781009D02*
X118117905Y-69733390D01*
X118117905Y-69733390D02*
X118213143Y-69685771D01*
X118213143Y-69685771D02*
X118451238Y-69685771D01*
X118451238Y-69685771D02*
X118546476Y-69733390D01*
X118546476Y-69733390D02*
X118594095Y-69781009D01*
X118594095Y-69781009D02*
X118641714Y-69876247D01*
X118641714Y-69876247D02*
X118641714Y-70114342D01*
X118641714Y-70114342D02*
X118594095Y-70209580D01*
X118594095Y-70209580D02*
X118546476Y-70257200D01*
X118546476Y-70257200D02*
X118451238Y-70304819D01*
X118451238Y-70304819D02*
X118213143Y-70304819D01*
X118213143Y-70304819D02*
X118117905Y-70257200D01*
X118117905Y-70257200D02*
X118070286Y-70209580D01*
X128631333Y-70209580D02*
X128583714Y-70257200D01*
X128583714Y-70257200D02*
X128440857Y-70304819D01*
X128440857Y-70304819D02*
X128345619Y-70304819D01*
X128345619Y-70304819D02*
X128202762Y-70257200D01*
X128202762Y-70257200D02*
X128107524Y-70161961D01*
X128107524Y-70161961D02*
X128059905Y-70066723D01*
X128059905Y-70066723D02*
X128012286Y-69876247D01*
X128012286Y-69876247D02*
X128012286Y-69733390D01*
X128012286Y-69733390D02*
X128059905Y-69542914D01*
X128059905Y-69542914D02*
X128107524Y-69447676D01*
X128107524Y-69447676D02*
X128202762Y-69352438D01*
X128202762Y-69352438D02*
X128345619Y-69304819D01*
X128345619Y-69304819D02*
X128440857Y-69304819D01*
X128440857Y-69304819D02*
X128583714Y-69352438D01*
X128583714Y-69352438D02*
X128631333Y-69400057D01*
X129488476Y-69304819D02*
X129298000Y-69304819D01*
X129298000Y-69304819D02*
X129202762Y-69352438D01*
X129202762Y-69352438D02*
X129155143Y-69400057D01*
X129155143Y-69400057D02*
X129059905Y-69542914D01*
X129059905Y-69542914D02*
X129012286Y-69733390D01*
X129012286Y-69733390D02*
X129012286Y-70114342D01*
X129012286Y-70114342D02*
X129059905Y-70209580D01*
X129059905Y-70209580D02*
X129107524Y-70257200D01*
X129107524Y-70257200D02*
X129202762Y-70304819D01*
X129202762Y-70304819D02*
X129393238Y-70304819D01*
X129393238Y-70304819D02*
X129488476Y-70257200D01*
X129488476Y-70257200D02*
X129536095Y-70209580D01*
X129536095Y-70209580D02*
X129583714Y-70114342D01*
X129583714Y-70114342D02*
X129583714Y-69876247D01*
X129583714Y-69876247D02*
X129536095Y-69781009D01*
X129536095Y-69781009D02*
X129488476Y-69733390D01*
X129488476Y-69733390D02*
X129393238Y-69685771D01*
X129393238Y-69685771D02*
X129202762Y-69685771D01*
X129202762Y-69685771D02*
X129107524Y-69733390D01*
X129107524Y-69733390D02*
X129059905Y-69781009D01*
X129059905Y-69781009D02*
X129012286Y-69876247D01*
X139533333Y-70209580D02*
X139485714Y-70257200D01*
X139485714Y-70257200D02*
X139342857Y-70304819D01*
X139342857Y-70304819D02*
X139247619Y-70304819D01*
X139247619Y-70304819D02*
X139104762Y-70257200D01*
X139104762Y-70257200D02*
X139009524Y-70161961D01*
X139009524Y-70161961D02*
X138961905Y-70066723D01*
X138961905Y-70066723D02*
X138914286Y-69876247D01*
X138914286Y-69876247D02*
X138914286Y-69733390D01*
X138914286Y-69733390D02*
X138961905Y-69542914D01*
X138961905Y-69542914D02*
X139009524Y-69447676D01*
X139009524Y-69447676D02*
X139104762Y-69352438D01*
X139104762Y-69352438D02*
X139247619Y-69304819D01*
X139247619Y-69304819D02*
X139342857Y-69304819D01*
X139342857Y-69304819D02*
X139485714Y-69352438D01*
X139485714Y-69352438D02*
X139533333Y-69400057D01*
X139866667Y-69304819D02*
X140533333Y-69304819D01*
X140533333Y-69304819D02*
X140104762Y-70304819D01*
X148359905Y-75130819D02*
X148359905Y-74130819D01*
X148359905Y-74130819D02*
X148598000Y-74130819D01*
X148598000Y-74130819D02*
X148740857Y-74178438D01*
X148740857Y-74178438D02*
X148836095Y-74273676D01*
X148836095Y-74273676D02*
X148883714Y-74368914D01*
X148883714Y-74368914D02*
X148931333Y-74559390D01*
X148931333Y-74559390D02*
X148931333Y-74702247D01*
X148931333Y-74702247D02*
X148883714Y-74892723D01*
X148883714Y-74892723D02*
X148836095Y-74987961D01*
X148836095Y-74987961D02*
X148740857Y-75083200D01*
X148740857Y-75083200D02*
X148598000Y-75130819D01*
X148598000Y-75130819D02*
X148359905Y-75130819D01*
X149883714Y-75130819D02*
X149312286Y-75130819D01*
X149598000Y-75130819D02*
X149598000Y-74130819D01*
X149598000Y-74130819D02*
X149502762Y-74273676D01*
X149502762Y-74273676D02*
X149407524Y-74368914D01*
X149407524Y-74368914D02*
X149312286Y-74416533D01*
X156456095Y-75198819D02*
X156456095Y-74198819D01*
X157027523Y-75198819D02*
X156598952Y-74627390D01*
X157027523Y-74198819D02*
X156456095Y-74770247D01*
X152487333Y-79956819D02*
X152154000Y-79480628D01*
X151915905Y-79956819D02*
X151915905Y-78956819D01*
X151915905Y-78956819D02*
X152296857Y-78956819D01*
X152296857Y-78956819D02*
X152392095Y-79004438D01*
X152392095Y-79004438D02*
X152439714Y-79052057D01*
X152439714Y-79052057D02*
X152487333Y-79147295D01*
X152487333Y-79147295D02*
X152487333Y-79290152D01*
X152487333Y-79290152D02*
X152439714Y-79385390D01*
X152439714Y-79385390D02*
X152392095Y-79433009D01*
X152392095Y-79433009D02*
X152296857Y-79480628D01*
X152296857Y-79480628D02*
X151915905Y-79480628D01*
X153439714Y-79956819D02*
X152868286Y-79956819D01*
X153154000Y-79956819D02*
X153154000Y-78956819D01*
X153154000Y-78956819D02*
X153058762Y-79099676D01*
X153058762Y-79099676D02*
X152963524Y-79194914D01*
X152963524Y-79194914D02*
X152868286Y-79242533D01*
X90257333Y-81734819D02*
X89924000Y-81258628D01*
X89685905Y-81734819D02*
X89685905Y-80734819D01*
X89685905Y-80734819D02*
X90066857Y-80734819D01*
X90066857Y-80734819D02*
X90162095Y-80782438D01*
X90162095Y-80782438D02*
X90209714Y-80830057D01*
X90209714Y-80830057D02*
X90257333Y-80925295D01*
X90257333Y-80925295D02*
X90257333Y-81068152D01*
X90257333Y-81068152D02*
X90209714Y-81163390D01*
X90209714Y-81163390D02*
X90162095Y-81211009D01*
X90162095Y-81211009D02*
X90066857Y-81258628D01*
X90066857Y-81258628D02*
X89685905Y-81258628D01*
X90638286Y-80830057D02*
X90685905Y-80782438D01*
X90685905Y-80782438D02*
X90781143Y-80734819D01*
X90781143Y-80734819D02*
X91019238Y-80734819D01*
X91019238Y-80734819D02*
X91114476Y-80782438D01*
X91114476Y-80782438D02*
X91162095Y-80830057D01*
X91162095Y-80830057D02*
X91209714Y-80925295D01*
X91209714Y-80925295D02*
X91209714Y-81020533D01*
X91209714Y-81020533D02*
X91162095Y-81163390D01*
X91162095Y-81163390D02*
X90590667Y-81734819D01*
X90590667Y-81734819D02*
X91209714Y-81734819D01*
X143089333Y-65478819D02*
X142756000Y-65002628D01*
X142517905Y-65478819D02*
X142517905Y-64478819D01*
X142517905Y-64478819D02*
X142898857Y-64478819D01*
X142898857Y-64478819D02*
X142994095Y-64526438D01*
X142994095Y-64526438D02*
X143041714Y-64574057D01*
X143041714Y-64574057D02*
X143089333Y-64669295D01*
X143089333Y-64669295D02*
X143089333Y-64812152D01*
X143089333Y-64812152D02*
X143041714Y-64907390D01*
X143041714Y-64907390D02*
X142994095Y-64955009D01*
X142994095Y-64955009D02*
X142898857Y-65002628D01*
X142898857Y-65002628D02*
X142517905Y-65002628D01*
X143946476Y-64812152D02*
X143946476Y-65478819D01*
X143708381Y-64431200D02*
X143470286Y-65145485D01*
X143470286Y-65145485D02*
X144089333Y-65145485D01*
X92202095Y-70022819D02*
X92202095Y-70832342D01*
X92202095Y-70832342D02*
X92249714Y-70927580D01*
X92249714Y-70927580D02*
X92297333Y-70975200D01*
X92297333Y-70975200D02*
X92392571Y-71022819D01*
X92392571Y-71022819D02*
X92583047Y-71022819D01*
X92583047Y-71022819D02*
X92678285Y-70975200D01*
X92678285Y-70975200D02*
X92725904Y-70927580D01*
X92725904Y-70927580D02*
X92773523Y-70832342D01*
X92773523Y-70832342D02*
X92773523Y-70022819D01*
X93773523Y-71022819D02*
X93202095Y-71022819D01*
X93487809Y-71022819D02*
X93487809Y-70022819D01*
X93487809Y-70022819D02*
X93392571Y-70165676D01*
X93392571Y-70165676D02*
X93297333Y-70260914D01*
X93297333Y-70260914D02*
X93202095Y-70308533D01*
X103378095Y-70022819D02*
X103378095Y-70832342D01*
X103378095Y-70832342D02*
X103425714Y-70927580D01*
X103425714Y-70927580D02*
X103473333Y-70975200D01*
X103473333Y-70975200D02*
X103568571Y-71022819D01*
X103568571Y-71022819D02*
X103759047Y-71022819D01*
X103759047Y-71022819D02*
X103854285Y-70975200D01*
X103854285Y-70975200D02*
X103901904Y-70927580D01*
X103901904Y-70927580D02*
X103949523Y-70832342D01*
X103949523Y-70832342D02*
X103949523Y-70022819D01*
X104378095Y-70118057D02*
X104425714Y-70070438D01*
X104425714Y-70070438D02*
X104520952Y-70022819D01*
X104520952Y-70022819D02*
X104759047Y-70022819D01*
X104759047Y-70022819D02*
X104854285Y-70070438D01*
X104854285Y-70070438D02*
X104901904Y-70118057D01*
X104901904Y-70118057D02*
X104949523Y-70213295D01*
X104949523Y-70213295D02*
X104949523Y-70308533D01*
X104949523Y-70308533D02*
X104901904Y-70451390D01*
X104901904Y-70451390D02*
X104330476Y-71022819D01*
X104330476Y-71022819D02*
X104949523Y-71022819D01*
X125222095Y-70066819D02*
X125222095Y-70876342D01*
X125222095Y-70876342D02*
X125269714Y-70971580D01*
X125269714Y-70971580D02*
X125317333Y-71019200D01*
X125317333Y-71019200D02*
X125412571Y-71066819D01*
X125412571Y-71066819D02*
X125603047Y-71066819D01*
X125603047Y-71066819D02*
X125698285Y-71019200D01*
X125698285Y-71019200D02*
X125745904Y-70971580D01*
X125745904Y-70971580D02*
X125793523Y-70876342D01*
X125793523Y-70876342D02*
X125793523Y-70066819D01*
X126698285Y-70400152D02*
X126698285Y-71066819D01*
X126460190Y-70019200D02*
X126222095Y-70733485D01*
X126222095Y-70733485D02*
X126841142Y-70733485D01*
X135890095Y-70022819D02*
X135890095Y-70832342D01*
X135890095Y-70832342D02*
X135937714Y-70927580D01*
X135937714Y-70927580D02*
X135985333Y-70975200D01*
X135985333Y-70975200D02*
X136080571Y-71022819D01*
X136080571Y-71022819D02*
X136271047Y-71022819D01*
X136271047Y-71022819D02*
X136366285Y-70975200D01*
X136366285Y-70975200D02*
X136413904Y-70927580D01*
X136413904Y-70927580D02*
X136461523Y-70832342D01*
X136461523Y-70832342D02*
X136461523Y-70022819D01*
X137413904Y-70022819D02*
X136937714Y-70022819D01*
X136937714Y-70022819D02*
X136890095Y-70499009D01*
X136890095Y-70499009D02*
X136937714Y-70451390D01*
X136937714Y-70451390D02*
X137032952Y-70403771D01*
X137032952Y-70403771D02*
X137271047Y-70403771D01*
X137271047Y-70403771D02*
X137366285Y-70451390D01*
X137366285Y-70451390D02*
X137413904Y-70499009D01*
X137413904Y-70499009D02*
X137461523Y-70594247D01*
X137461523Y-70594247D02*
X137461523Y-70832342D01*
X137461523Y-70832342D02*
X137413904Y-70927580D01*
X137413904Y-70927580D02*
X137366285Y-70975200D01*
X137366285Y-70975200D02*
X137271047Y-71022819D01*
X137271047Y-71022819D02*
X137032952Y-71022819D01*
X137032952Y-71022819D02*
X136937714Y-70975200D01*
X136937714Y-70975200D02*
X136890095Y-70927580D01*
X92924333Y-68603019D02*
X92591000Y-68126828D01*
X92352905Y-68603019D02*
X92352905Y-67603019D01*
X92352905Y-67603019D02*
X92733857Y-67603019D01*
X92733857Y-67603019D02*
X92829095Y-67650638D01*
X92829095Y-67650638D02*
X92876714Y-67698257D01*
X92876714Y-67698257D02*
X92924333Y-67793495D01*
X92924333Y-67793495D02*
X92924333Y-67936352D01*
X92924333Y-67936352D02*
X92876714Y-68031590D01*
X92876714Y-68031590D02*
X92829095Y-68079209D01*
X92829095Y-68079209D02*
X92733857Y-68126828D01*
X92733857Y-68126828D02*
X92352905Y-68126828D01*
X93257667Y-67603019D02*
X93876714Y-67603019D01*
X93876714Y-67603019D02*
X93543381Y-67983971D01*
X93543381Y-67983971D02*
X93686238Y-67983971D01*
X93686238Y-67983971D02*
X93781476Y-68031590D01*
X93781476Y-68031590D02*
X93829095Y-68079209D01*
X93829095Y-68079209D02*
X93876714Y-68174447D01*
X93876714Y-68174447D02*
X93876714Y-68412542D01*
X93876714Y-68412542D02*
X93829095Y-68507780D01*
X93829095Y-68507780D02*
X93781476Y-68555400D01*
X93781476Y-68555400D02*
X93686238Y-68603019D01*
X93686238Y-68603019D02*
X93400524Y-68603019D01*
X93400524Y-68603019D02*
X93305286Y-68555400D01*
X93305286Y-68555400D02*
X93257667Y-68507780D01*
X93584733Y-63097580D02*
X93537114Y-63145200D01*
X93537114Y-63145200D02*
X93394257Y-63192819D01*
X93394257Y-63192819D02*
X93299019Y-63192819D01*
X93299019Y-63192819D02*
X93156162Y-63145200D01*
X93156162Y-63145200D02*
X93060924Y-63049961D01*
X93060924Y-63049961D02*
X93013305Y-62954723D01*
X93013305Y-62954723D02*
X92965686Y-62764247D01*
X92965686Y-62764247D02*
X92965686Y-62621390D01*
X92965686Y-62621390D02*
X93013305Y-62430914D01*
X93013305Y-62430914D02*
X93060924Y-62335676D01*
X93060924Y-62335676D02*
X93156162Y-62240438D01*
X93156162Y-62240438D02*
X93299019Y-62192819D01*
X93299019Y-62192819D02*
X93394257Y-62192819D01*
X93394257Y-62192819D02*
X93537114Y-62240438D01*
X93537114Y-62240438D02*
X93584733Y-62288057D01*
X94156162Y-62621390D02*
X94060924Y-62573771D01*
X94060924Y-62573771D02*
X94013305Y-62526152D01*
X94013305Y-62526152D02*
X93965686Y-62430914D01*
X93965686Y-62430914D02*
X93965686Y-62383295D01*
X93965686Y-62383295D02*
X94013305Y-62288057D01*
X94013305Y-62288057D02*
X94060924Y-62240438D01*
X94060924Y-62240438D02*
X94156162Y-62192819D01*
X94156162Y-62192819D02*
X94346638Y-62192819D01*
X94346638Y-62192819D02*
X94441876Y-62240438D01*
X94441876Y-62240438D02*
X94489495Y-62288057D01*
X94489495Y-62288057D02*
X94537114Y-62383295D01*
X94537114Y-62383295D02*
X94537114Y-62430914D01*
X94537114Y-62430914D02*
X94489495Y-62526152D01*
X94489495Y-62526152D02*
X94441876Y-62573771D01*
X94441876Y-62573771D02*
X94346638Y-62621390D01*
X94346638Y-62621390D02*
X94156162Y-62621390D01*
X94156162Y-62621390D02*
X94060924Y-62669009D01*
X94060924Y-62669009D02*
X94013305Y-62716628D01*
X94013305Y-62716628D02*
X93965686Y-62811866D01*
X93965686Y-62811866D02*
X93965686Y-63002342D01*
X93965686Y-63002342D02*
X94013305Y-63097580D01*
X94013305Y-63097580D02*
X94060924Y-63145200D01*
X94060924Y-63145200D02*
X94156162Y-63192819D01*
X94156162Y-63192819D02*
X94346638Y-63192819D01*
X94346638Y-63192819D02*
X94441876Y-63145200D01*
X94441876Y-63145200D02*
X94489495Y-63097580D01*
X94489495Y-63097580D02*
X94537114Y-63002342D01*
X94537114Y-63002342D02*
X94537114Y-62811866D01*
X94537114Y-62811866D02*
X94489495Y-62716628D01*
X94489495Y-62716628D02*
X94441876Y-62669009D01*
X94441876Y-62669009D02*
X94346638Y-62621390D01*
X151130095Y-68082438D02*
X151034857Y-68034819D01*
X151034857Y-68034819D02*
X150892000Y-68034819D01*
X150892000Y-68034819D02*
X150749143Y-68082438D01*
X150749143Y-68082438D02*
X150653905Y-68177676D01*
X150653905Y-68177676D02*
X150606286Y-68272914D01*
X150606286Y-68272914D02*
X150558667Y-68463390D01*
X150558667Y-68463390D02*
X150558667Y-68606247D01*
X150558667Y-68606247D02*
X150606286Y-68796723D01*
X150606286Y-68796723D02*
X150653905Y-68891961D01*
X150653905Y-68891961D02*
X150749143Y-68987200D01*
X150749143Y-68987200D02*
X150892000Y-69034819D01*
X150892000Y-69034819D02*
X150987238Y-69034819D01*
X150987238Y-69034819D02*
X151130095Y-68987200D01*
X151130095Y-68987200D02*
X151177714Y-68939580D01*
X151177714Y-68939580D02*
X151177714Y-68606247D01*
X151177714Y-68606247D02*
X150987238Y-68606247D01*
X151606286Y-69034819D02*
X151606286Y-68034819D01*
X151606286Y-68034819D02*
X152177714Y-69034819D01*
X152177714Y-69034819D02*
X152177714Y-68034819D01*
X152653905Y-69034819D02*
X152653905Y-68034819D01*
X152653905Y-68034819D02*
X152892000Y-68034819D01*
X152892000Y-68034819D02*
X153034857Y-68082438D01*
X153034857Y-68082438D02*
X153130095Y-68177676D01*
X153130095Y-68177676D02*
X153177714Y-68272914D01*
X153177714Y-68272914D02*
X153225333Y-68463390D01*
X153225333Y-68463390D02*
X153225333Y-68606247D01*
X153225333Y-68606247D02*
X153177714Y-68796723D01*
X153177714Y-68796723D02*
X153130095Y-68891961D01*
X153130095Y-68891961D02*
X153034857Y-68987200D01*
X153034857Y-68987200D02*
X152892000Y-69034819D01*
X152892000Y-69034819D02*
X152653905Y-69034819D01*
X114300095Y-70066819D02*
X114300095Y-70876342D01*
X114300095Y-70876342D02*
X114347714Y-70971580D01*
X114347714Y-70971580D02*
X114395333Y-71019200D01*
X114395333Y-71019200D02*
X114490571Y-71066819D01*
X114490571Y-71066819D02*
X114681047Y-71066819D01*
X114681047Y-71066819D02*
X114776285Y-71019200D01*
X114776285Y-71019200D02*
X114823904Y-70971580D01*
X114823904Y-70971580D02*
X114871523Y-70876342D01*
X114871523Y-70876342D02*
X114871523Y-70066819D01*
X115776285Y-70066819D02*
X115585809Y-70066819D01*
X115585809Y-70066819D02*
X115490571Y-70114438D01*
X115490571Y-70114438D02*
X115442952Y-70162057D01*
X115442952Y-70162057D02*
X115347714Y-70304914D01*
X115347714Y-70304914D02*
X115300095Y-70495390D01*
X115300095Y-70495390D02*
X115300095Y-70876342D01*
X115300095Y-70876342D02*
X115347714Y-70971580D01*
X115347714Y-70971580D02*
X115395333Y-71019200D01*
X115395333Y-71019200D02*
X115490571Y-71066819D01*
X115490571Y-71066819D02*
X115681047Y-71066819D01*
X115681047Y-71066819D02*
X115776285Y-71019200D01*
X115776285Y-71019200D02*
X115823904Y-70971580D01*
X115823904Y-70971580D02*
X115871523Y-70876342D01*
X115871523Y-70876342D02*
X115871523Y-70638247D01*
X115871523Y-70638247D02*
X115823904Y-70543009D01*
X115823904Y-70543009D02*
X115776285Y-70495390D01*
X115776285Y-70495390D02*
X115681047Y-70447771D01*
X115681047Y-70447771D02*
X115490571Y-70447771D01*
X115490571Y-70447771D02*
X115395333Y-70495390D01*
X115395333Y-70495390D02*
X115347714Y-70543009D01*
X115347714Y-70543009D02*
X115300095Y-70638247D01*
D11*
X150384000Y-80718000D02*
X150384000Y-80733000D01*
X150384000Y-80718000D02*
X154924000Y-80718000D01*
X150384000Y-82843000D02*
X150384000Y-82858000D01*
X150384000Y-82858000D02*
X154924000Y-82858000D01*
X154924000Y-80718000D02*
X154924000Y-80733000D01*
X154924000Y-82843000D02*
X154924000Y-82858000D01*
X91344000Y-76313000D02*
X91344000Y-77571000D01*
X89504000Y-76313000D02*
X89504000Y-77571000D01*
X100217000Y-70770000D02*
X98959000Y-70770000D01*
X100217000Y-68930000D02*
X98959000Y-68930000D01*
X111139000Y-70770000D02*
X109881000Y-70770000D01*
X111139000Y-68930000D02*
X109881000Y-68930000D01*
X122061000Y-70770000D02*
X120803000Y-70770000D01*
X122061000Y-68930000D02*
X120803000Y-68930000D01*
X132983000Y-70770000D02*
X131725000Y-70770000D01*
X132983000Y-68930000D02*
X131725000Y-68930000D01*
X143905000Y-70770000D02*
X142647000Y-70770000D01*
X143905000Y-68930000D02*
X142647000Y-68930000D01*
X155628000Y-74114000D02*
X150188000Y-74114000D01*
X155628000Y-73984000D02*
X155628000Y-74114000D01*
X155628000Y-71304000D02*
X155628000Y-71174000D01*
X155628000Y-71174000D02*
X150188000Y-71174000D01*
X154848000Y-74114000D02*
X154848000Y-71174000D01*
X154728000Y-74114000D02*
X154728000Y-71174000D01*
X154608000Y-74114000D02*
X154608000Y-71174000D01*
X150188000Y-74114000D02*
X150188000Y-73984000D01*
X150188000Y-71174000D02*
X150188000Y-71304000D01*
X149638000Y-75846000D02*
X156178000Y-75846000D01*
X149638000Y-76176000D02*
X149638000Y-75846000D01*
X149638000Y-78256000D02*
X149638000Y-78586000D01*
X149638000Y-78586000D02*
X156178000Y-78586000D01*
X156178000Y-75846000D02*
X156178000Y-76176000D01*
X156178000Y-78586000D02*
X156178000Y-78256000D01*
X91895600Y-83648800D02*
X91895600Y-90188800D01*
X91565600Y-83648800D02*
X91895600Y-83648800D01*
X89485600Y-83648800D02*
X89155600Y-83648800D01*
X89155600Y-83648800D02*
X89155600Y-90188800D01*
X91895600Y-90188800D02*
X91565600Y-90188800D01*
X89155600Y-90188800D02*
X89485600Y-90188800D01*
X139986000Y-61114000D02*
X146526000Y-61114000D01*
X139986000Y-61444000D02*
X139986000Y-61114000D01*
X139986000Y-63524000D02*
X139986000Y-63854000D01*
X139986000Y-63854000D02*
X146526000Y-63854000D01*
X146526000Y-61114000D02*
X146526000Y-61444000D01*
X146526000Y-63854000D02*
X146526000Y-63524000D01*
X94378000Y-71568000D02*
X94378000Y-92008000D01*
X94378000Y-92008000D02*
X99678000Y-92008000D01*
X96028000Y-71568000D02*
X94378000Y-71568000D01*
X99678000Y-71568000D02*
X98028000Y-71568000D01*
X99678000Y-92008000D02*
X99678000Y-71568000D01*
X96028000Y-71568000D02*
G75*
G03*
X98028000Y-71568000I1000000J0D01*
G01*
X105300000Y-71568000D02*
X105300000Y-92008000D01*
X105300000Y-92008000D02*
X110600000Y-92008000D01*
X106950000Y-71568000D02*
X105300000Y-71568000D01*
X110600000Y-71568000D02*
X108950000Y-71568000D01*
X110600000Y-92008000D02*
X110600000Y-71568000D01*
X106950000Y-71568000D02*
G75*
G03*
X108950000Y-71568000I1000000J0D01*
G01*
X127144000Y-71568000D02*
X127144000Y-89468000D01*
X127144000Y-89468000D02*
X132444000Y-89468000D01*
X128794000Y-71568000D02*
X127144000Y-71568000D01*
X132444000Y-71568000D02*
X130794000Y-71568000D01*
X132444000Y-89468000D02*
X132444000Y-71568000D01*
X128794000Y-71568000D02*
G75*
G03*
X130794000Y-71568000I1000000J0D01*
G01*
D12*
X75780000Y-83862000D02*
X75780000Y-70062000D01*
X79280000Y-83862000D02*
X75780000Y-83862000D01*
X88580000Y-83862000D02*
X83280000Y-83862000D01*
X75780000Y-70062000D02*
X79280000Y-70062000D01*
X88580000Y-70062000D02*
X88580000Y-83862000D01*
X88580000Y-70062000D02*
X83280000Y-70062000D01*
D11*
X138066000Y-71568000D02*
X138066000Y-89468000D01*
X138066000Y-89468000D02*
X143366000Y-89468000D01*
X139716000Y-71568000D02*
X138066000Y-71568000D01*
X143366000Y-71568000D02*
X141716000Y-71568000D01*
X143366000Y-89468000D02*
X143366000Y-71568000D01*
X139716000Y-71568000D02*
G75*
G03*
X141716000Y-71568000I1000000J0D01*
G01*
X91895600Y-63811400D02*
X91895600Y-70351400D01*
X91565600Y-63811400D02*
X91895600Y-63811400D01*
X89485600Y-63811400D02*
X89155600Y-63811400D01*
X89155600Y-63811400D02*
X89155600Y-70351400D01*
X91895600Y-70351400D02*
X91565600Y-70351400D01*
X89155600Y-70351400D02*
X89485600Y-70351400D01*
X99567801Y-64060000D02*
X99167801Y-64060000D01*
X99367801Y-64260000D02*
X99367801Y-63860000D01*
X97298000Y-64945000D02*
X97298000Y-60785000D01*
X97258000Y-64945000D02*
X97258000Y-60785000D01*
X97218000Y-64944000D02*
X97218000Y-60786000D01*
X97178000Y-64942000D02*
X97178000Y-60788000D01*
X97138000Y-64939000D02*
X97138000Y-60791000D01*
X97098000Y-64936000D02*
X97098000Y-63705000D01*
X97098000Y-62025000D02*
X97098000Y-60794000D01*
X97058000Y-64932000D02*
X97058000Y-63705000D01*
X97058000Y-62025000D02*
X97058000Y-60798000D01*
X97018000Y-64927000D02*
X97018000Y-63705000D01*
X97018000Y-62025000D02*
X97018000Y-60803000D01*
X96978000Y-64921000D02*
X96978000Y-63705000D01*
X96978000Y-62025000D02*
X96978000Y-60809000D01*
X96938000Y-64915000D02*
X96938000Y-63705000D01*
X96938000Y-62025000D02*
X96938000Y-60815000D01*
X96898000Y-64907000D02*
X96898000Y-63705000D01*
X96898000Y-62025000D02*
X96898000Y-60823000D01*
X96858000Y-64899000D02*
X96858000Y-63705000D01*
X96858000Y-62025000D02*
X96858000Y-60831000D01*
X96818000Y-64890000D02*
X96818000Y-63705000D01*
X96818000Y-62025000D02*
X96818000Y-60840000D01*
X96778000Y-64881000D02*
X96778000Y-63705000D01*
X96778000Y-62025000D02*
X96778000Y-60849000D01*
X96738000Y-64870000D02*
X96738000Y-63705000D01*
X96738000Y-62025000D02*
X96738000Y-60860000D01*
X96698000Y-64859000D02*
X96698000Y-63705000D01*
X96698000Y-62025000D02*
X96698000Y-60871000D01*
X96658000Y-64847000D02*
X96658000Y-63705000D01*
X96658000Y-62025000D02*
X96658000Y-60883000D01*
X96618000Y-64833000D02*
X96618000Y-63705000D01*
X96618000Y-62025000D02*
X96618000Y-60897000D01*
X96577000Y-64819000D02*
X96577000Y-63705000D01*
X96577000Y-62025000D02*
X96577000Y-60911000D01*
X96537000Y-64805000D02*
X96537000Y-63705000D01*
X96537000Y-62025000D02*
X96537000Y-60925000D01*
X96497000Y-64789000D02*
X96497000Y-63705000D01*
X96497000Y-62025000D02*
X96497000Y-60941000D01*
X96457000Y-64772000D02*
X96457000Y-63705000D01*
X96457000Y-62025000D02*
X96457000Y-60958000D01*
X96417000Y-64754000D02*
X96417000Y-63705000D01*
X96417000Y-62025000D02*
X96417000Y-60976000D01*
X96377000Y-64735000D02*
X96377000Y-63705000D01*
X96377000Y-62025000D02*
X96377000Y-60995000D01*
X96337000Y-64716000D02*
X96337000Y-63705000D01*
X96337000Y-62025000D02*
X96337000Y-61014000D01*
X96297000Y-64695000D02*
X96297000Y-63705000D01*
X96297000Y-62025000D02*
X96297000Y-61035000D01*
X96257000Y-64673000D02*
X96257000Y-63705000D01*
X96257000Y-62025000D02*
X96257000Y-61057000D01*
X96217000Y-64650000D02*
X96217000Y-63705000D01*
X96217000Y-62025000D02*
X96217000Y-61080000D01*
X96177000Y-64625000D02*
X96177000Y-63705000D01*
X96177000Y-62025000D02*
X96177000Y-61105000D01*
X96137000Y-64600000D02*
X96137000Y-63705000D01*
X96137000Y-62025000D02*
X96137000Y-61130000D01*
X96097000Y-64573000D02*
X96097000Y-63705000D01*
X96097000Y-62025000D02*
X96097000Y-61157000D01*
X96057000Y-64545000D02*
X96057000Y-63705000D01*
X96057000Y-62025000D02*
X96057000Y-61185000D01*
X96017000Y-64515000D02*
X96017000Y-63705000D01*
X96017000Y-62025000D02*
X96017000Y-61215000D01*
X95977000Y-64484000D02*
X95977000Y-63705000D01*
X95977000Y-62025000D02*
X95977000Y-61246000D01*
X95937000Y-64452000D02*
X95937000Y-63705000D01*
X95937000Y-62025000D02*
X95937000Y-61278000D01*
X95897000Y-64417000D02*
X95897000Y-63705000D01*
X95897000Y-62025000D02*
X95897000Y-61313000D01*
X95857000Y-64381000D02*
X95857000Y-63705000D01*
X95857000Y-62025000D02*
X95857000Y-61349000D01*
X95817000Y-64343000D02*
X95817000Y-63705000D01*
X95817000Y-62025000D02*
X95817000Y-61387000D01*
X95777000Y-64303000D02*
X95777000Y-63705000D01*
X95777000Y-62025000D02*
X95777000Y-61427000D01*
X95737000Y-64261000D02*
X95737000Y-63705000D01*
X95737000Y-62025000D02*
X95737000Y-61469000D01*
X95697000Y-64216000D02*
X95697000Y-63705000D01*
X95697000Y-62025000D02*
X95697000Y-61514000D01*
X95657000Y-64169000D02*
X95657000Y-63705000D01*
X95657000Y-62025000D02*
X95657000Y-61561000D01*
X95617000Y-64119000D02*
X95617000Y-63705000D01*
X95617000Y-62025000D02*
X95617000Y-61611000D01*
X95577000Y-64065000D02*
X95577000Y-63705000D01*
X95577000Y-62025000D02*
X95577000Y-61665000D01*
X95537000Y-64007000D02*
X95537000Y-63705000D01*
X95537000Y-62025000D02*
X95537000Y-61723000D01*
X95497000Y-63945000D02*
X95497000Y-63705000D01*
X95497000Y-62025000D02*
X95497000Y-61785000D01*
X95457000Y-63878000D02*
X95457000Y-61852000D01*
X95417000Y-63805000D02*
X95417000Y-61925000D01*
X95377000Y-63724000D02*
X95377000Y-62006000D01*
X95337000Y-63633000D02*
X95337000Y-62097000D01*
X95297000Y-63529000D02*
X95297000Y-62201000D01*
X95257000Y-63402000D02*
X95257000Y-62328000D01*
X95217000Y-63235000D02*
X95217000Y-62495000D01*
X99418000Y-62865000D02*
G75*
G03*
X99418000Y-62865000I-2120000J0D01*
G01*
X85004600Y-62678000D02*
X86334600Y-62678000D01*
X85004600Y-64008000D02*
X85004600Y-62678000D01*
X85004600Y-65278000D02*
X85004600Y-67878000D01*
X85004600Y-65278000D02*
X87664600Y-65278000D01*
X85004600Y-67878000D02*
X87664600Y-67878000D01*
X87664600Y-65278000D02*
X87664600Y-67878000D01*
X150036000Y-67564000D02*
G75*
G03*
X150036000Y-67564000I-1700000J0D01*
G01*
X116222000Y-71568000D02*
X116222000Y-89468000D01*
X116222000Y-89468000D02*
X121522000Y-89468000D01*
X117872000Y-71568000D02*
X116222000Y-71568000D01*
X121522000Y-71568000D02*
X119872000Y-71568000D01*
X121522000Y-89468000D02*
X121522000Y-71568000D01*
X117872000Y-71568000D02*
G75*
G03*
X119872000Y-71568000I1000000J0D01*
G01*
%LPC*%
D13*
X150154000Y-81788000D03*
X155154000Y-81788000D03*
X90424000Y-75692000D03*
X90424000Y-78192000D03*
X100838000Y-69850000D03*
X98338000Y-69850000D03*
X111760000Y-69850000D03*
X109260000Y-69850000D03*
X122682000Y-69850000D03*
X120182000Y-69850000D03*
X133604000Y-69850000D03*
X131104000Y-69850000D03*
X144526000Y-69850000D03*
X142026000Y-69850000D03*
D14*
X156718000Y-72644000D03*
D15*
X149098000Y-72644000D03*
D13*
X149098000Y-77216000D03*
D16*
X156718000Y-77216000D03*
D13*
X90525600Y-83108800D03*
D16*
X90525600Y-90728800D03*
D13*
X139446000Y-62484000D03*
D16*
X147066000Y-62484000D03*
D17*
X93218000Y-72898000D03*
D16*
X93218000Y-75438000D03*
X93218000Y-77978000D03*
X93218000Y-80518000D03*
X93218000Y-83058000D03*
X93218000Y-85598000D03*
X93218000Y-88138000D03*
X93218000Y-90678000D03*
X100838000Y-90678000D03*
X100838000Y-88138000D03*
X100838000Y-85598000D03*
X100838000Y-83058000D03*
X100838000Y-80518000D03*
X100838000Y-77978000D03*
X100838000Y-75438000D03*
X100838000Y-72898000D03*
D17*
X104140000Y-72898000D03*
D16*
X104140000Y-75438000D03*
X104140000Y-77978000D03*
X104140000Y-80518000D03*
X104140000Y-83058000D03*
X104140000Y-85598000D03*
X104140000Y-88138000D03*
X104140000Y-90678000D03*
X111760000Y-90678000D03*
X111760000Y-88138000D03*
X111760000Y-85598000D03*
X111760000Y-83058000D03*
X111760000Y-80518000D03*
X111760000Y-77978000D03*
X111760000Y-75438000D03*
X111760000Y-72898000D03*
D17*
X125984000Y-72898000D03*
D16*
X125984000Y-75438000D03*
X125984000Y-77978000D03*
X125984000Y-80518000D03*
X125984000Y-83058000D03*
X125984000Y-85598000D03*
X125984000Y-88138000D03*
X133604000Y-88138000D03*
X133604000Y-85598000D03*
X133604000Y-83058000D03*
X133604000Y-80518000D03*
X133604000Y-77978000D03*
X133604000Y-75438000D03*
X133604000Y-72898000D03*
D18*
X84405000Y-78262000D03*
X84405000Y-75662000D03*
X84405000Y-80362000D03*
X84405000Y-73562000D03*
X87030000Y-80362000D03*
X87030000Y-73562000D03*
D19*
X81280000Y-83962000D03*
D20*
X80480000Y-76962000D03*
D19*
X81280000Y-69962000D03*
D21*
X80010000Y-89916000D03*
X154686000Y-64262000D03*
X154686000Y-89916000D03*
X80010000Y-64262000D03*
D17*
X136906000Y-72898000D03*
D16*
X136906000Y-75438000D03*
X136906000Y-77978000D03*
X136906000Y-80518000D03*
X136906000Y-83058000D03*
X136906000Y-85598000D03*
X136906000Y-88138000D03*
X144526000Y-88138000D03*
X144526000Y-85598000D03*
X144526000Y-83058000D03*
X144526000Y-80518000D03*
X144526000Y-77978000D03*
X144526000Y-75438000D03*
X144526000Y-72898000D03*
D13*
X90525600Y-63271400D03*
D16*
X90525600Y-70891400D03*
D22*
X98298000Y-62865000D03*
D23*
X96298000Y-62865000D03*
D24*
X86334600Y-64008000D03*
D25*
X86334600Y-66548000D03*
D26*
X148336000Y-67564000D03*
D17*
X115062000Y-72898000D03*
D16*
X115062000Y-75438000D03*
X115062000Y-77978000D03*
X115062000Y-80518000D03*
X115062000Y-83058000D03*
X115062000Y-85598000D03*
X115062000Y-88138000D03*
X122682000Y-88138000D03*
X122682000Y-85598000D03*
X122682000Y-83058000D03*
X122682000Y-80518000D03*
X122682000Y-77978000D03*
X122682000Y-75438000D03*
X122682000Y-72898000D03*
D24*
X103632000Y-62484000D03*
D25*
X106172000Y-62484000D03*
X108712000Y-62484000D03*
X111252000Y-62484000D03*
X113792000Y-62484000D03*
X116332000Y-62484000D03*
X118872000Y-62484000D03*
X121412000Y-62484000D03*
X123952000Y-62484000D03*
X126492000Y-62484000D03*
X129032000Y-62484000D03*
X131572000Y-62484000D03*
X134112000Y-62484000D03*
%LPD*%
M02*
