M48
; DRILL file {KiCad 7.0.5-0} date 2023 June 23, Friday 22:43:04
; FORMAT={-:-/ absolute / metric / decimal}
; #@! TF.CreationDate,2023-06-23T22:43:04+02:00
; #@! TF.GenerationSoftware,Kicad,Pcbnew,7.0.5-0
; #@! TF.FileFunction,Plated,1,2,PTH
FMAT,2
METRIC
; #@! TA.AperFunction,Plated,PTH,ViaDrill
T1C0.300
; #@! TA.AperFunction,Plated,PTH,ComponentDrill
T2C0.500
; #@! TA.AperFunction,Plated,PTH,ComponentDrill
T3C0.600
; #@! TA.AperFunction,Plated,PTH,ComponentDrill
T4C0.800
; #@! TA.AperFunction,Plated,PTH,ComponentDrill
T5C0.900
; #@! TA.AperFunction,Plated,PTH,ComponentDrill
T6C1.000
; #@! TA.AperFunction,Plated,PTH,ComponentDrill
T7C1.100
; #@! TA.AperFunction,Plated,PTH,ComponentDrill
T8C1.600
; #@! TA.AperFunction,Plated,PTH,ComponentDrill
T9C3.200
%
G90
G05
T1
X128.778Y-89.408
X135.382Y-76.454
X144.018Y-74.93
T3
X86.349Y-62.992
X88.349Y-62.992
T4
X90.678Y-73.66
X90.678Y-81.28
X90.678Y-84.074
X90.678Y-91.694
X93.726Y-73.66
X93.726Y-76.454
X93.726Y-78.994
X93.726Y-81.534
X93.726Y-84.074
X93.726Y-86.614
X93.726Y-89.154
X93.726Y-91.694
X96.226Y-73.66
X101.346Y-76.454
X101.346Y-78.994
X101.346Y-81.534
X101.346Y-84.074
X101.346Y-86.614
X101.346Y-89.154
X101.346Y-91.694
X102.616Y-69.596
X104.125Y-73.416
X104.125Y-75.916
X104.125Y-84.338
X104.125Y-86.838
X107.183Y-84.318
X107.183Y-91.938
X107.188Y-73.396
X107.188Y-81.016
X109.723Y-84.318
X109.723Y-91.938
X109.728Y-73.396
X109.728Y-81.016
X110.236Y-69.596
X112.263Y-84.318
X112.263Y-91.938
X112.268Y-73.396
X112.268Y-81.016
X113.07Y-69.596
X114.803Y-84.318
X114.803Y-91.938
X114.808Y-73.396
X114.808Y-81.016
X117.343Y-84.318
X117.343Y-91.938
X117.348Y-73.396
X117.348Y-81.016
X118.07Y-69.596
X119.883Y-84.318
X119.883Y-91.938
X119.888Y-73.396
X119.888Y-81.016
X120.65Y-69.596
X122.423Y-84.318
X122.423Y-91.938
X122.428Y-73.396
X122.428Y-81.016
X125.476Y-73.406
X125.476Y-75.906
X125.476Y-84.328
X125.476Y-86.828
X128.27Y-69.596
X128.524Y-73.406
X128.524Y-81.026
X128.524Y-84.328
X128.524Y-91.948
X131.064Y-73.406
X131.064Y-81.026
X131.064Y-84.328
X131.064Y-91.948
X133.604Y-73.406
X133.604Y-81.026
X133.604Y-84.328
X133.604Y-91.948
X136.144Y-73.406
X136.144Y-81.026
X136.144Y-84.328
X136.144Y-91.948
X138.684Y-73.406
X138.684Y-81.026
X138.684Y-84.328
X138.684Y-91.948
X141.224Y-73.406
X141.224Y-81.026
X141.224Y-84.328
X141.224Y-91.948
X143.764Y-73.406
X143.764Y-81.026
X143.764Y-84.328
X143.764Y-91.948
X146.304Y-73.406
X146.304Y-81.026
X146.304Y-84.328
X146.304Y-91.948
X147.066Y-68.346
X147.066Y-70.846
X149.616Y-69.591
X149.616Y-72.131
X149.616Y-74.671
X149.616Y-77.211
X149.616Y-79.751
X149.616Y-82.291
X149.616Y-84.831
X157.236Y-69.591
X157.236Y-72.131
X157.236Y-74.671
X157.236Y-77.211
X157.236Y-79.751
X157.236Y-82.291
X157.236Y-84.831
T5
X84.405Y-73.562
X84.405Y-75.662
X84.405Y-78.262
X84.405Y-80.362
X87.03Y-73.562
X87.03Y-80.362
T6
X84.587Y-86.868
X87.127Y-86.868
X103.632Y-62.484
X106.172Y-62.484
X108.712Y-62.484
X111.252Y-62.484
X113.792Y-62.484
X116.332Y-62.484
X118.872Y-62.484
X121.412Y-62.484
X123.952Y-62.484
X126.492Y-62.484
X129.032Y-62.484
X131.572Y-62.484
X134.112Y-62.484
X136.652Y-62.484
T7
X91.948Y-62.484
X91.948Y-66.04
X91.948Y-69.596
X99.568Y-62.484
X99.568Y-66.04
X99.568Y-69.596
T8
X148.336Y-64.008
T9
X80.01Y-64.262
X80.01Y-89.916
X154.686Y-64.262
X154.686Y-89.916
T2
X80.48Y-75.962G85X80.48Y-77.962
G05
X82.13Y-69.962G85X80.43Y-69.962
G05
X82.13Y-83.962G85X80.43Y-83.962
G05
T0
M30
