M48
; DRILL file {KiCad 7.0.5-0} date 2023 June 22, Thursday 10:16:07
; FORMAT={-:-/ absolute / metric / decimal}
; #@! TF.CreationDate,2023-06-22T10:16:07+02:00
; #@! TF.GenerationSoftware,Kicad,Pcbnew,7.0.5-0
; #@! TF.FileFunction,Plated,1,2,PTH
FMAT,2
METRIC
; #@! TA.AperFunction,Plated,PTH,ViaDrill
T1C0.300
; #@! TA.AperFunction,Plated,PTH,ComponentDrill
T2C0.500
; #@! TA.AperFunction,Plated,PTH,ComponentDrill
T3C0.600
; #@! TA.AperFunction,Plated,PTH,ComponentDrill
T4C0.800
; #@! TA.AperFunction,Plated,PTH,ComponentDrill
T5C0.900
; #@! TA.AperFunction,Plated,PTH,ComponentDrill
T6C1.000
; #@! TA.AperFunction,Plated,PTH,ComponentDrill
T7C1.100
; #@! TA.AperFunction,Plated,PTH,ComponentDrill
T8C1.600
; #@! TA.AperFunction,Plated,PTH,ComponentDrill
T9C3.200
%
G90
G05
T1
X108.712Y-89.916
X116.84Y-79.756
X119.634Y-82.296
X128.27Y-74.93
X129.286Y-73.914
X130.556Y-66.548
X132.842Y-67.31
T3
X96.298Y-62.865
X98.298Y-62.865
T4
X90.424Y-75.692
X90.424Y-78.192
X90.526Y-63.271
X90.526Y-70.891
X90.526Y-83.109
X90.526Y-90.729
X93.218Y-72.898
X93.218Y-75.438
X93.218Y-77.978
X93.218Y-80.518
X93.218Y-83.058
X93.218Y-85.598
X93.218Y-88.138
X93.218Y-90.678
X98.338Y-69.85
X100.838Y-69.85
X100.838Y-72.898
X100.838Y-75.438
X100.838Y-77.978
X100.838Y-80.518
X100.838Y-83.058
X100.838Y-85.598
X100.838Y-88.138
X100.838Y-90.678
X104.14Y-72.898
X104.14Y-75.438
X104.14Y-77.978
X104.14Y-80.518
X104.14Y-83.058
X104.14Y-85.598
X104.14Y-88.138
X104.14Y-90.678
X109.26Y-69.85
X111.76Y-69.85
X111.76Y-72.898
X111.76Y-75.438
X111.76Y-77.978
X111.76Y-80.518
X111.76Y-83.058
X111.76Y-85.598
X111.76Y-88.138
X111.76Y-90.678
X115.062Y-72.898
X115.062Y-75.438
X115.062Y-77.978
X115.062Y-80.518
X115.062Y-83.058
X115.062Y-85.598
X115.062Y-88.138
X120.182Y-69.85
X122.682Y-69.85
X122.682Y-72.898
X122.682Y-75.438
X122.682Y-77.978
X122.682Y-80.518
X122.682Y-83.058
X122.682Y-85.598
X122.682Y-88.138
X125.984Y-72.898
X125.984Y-75.438
X125.984Y-77.978
X125.984Y-80.518
X125.984Y-83.058
X125.984Y-85.598
X125.984Y-88.138
X131.104Y-69.85
X133.604Y-69.85
X133.604Y-72.898
X133.604Y-75.438
X133.604Y-77.978
X133.604Y-80.518
X133.604Y-83.058
X133.604Y-85.598
X133.604Y-88.138
X136.906Y-72.898
X136.906Y-75.438
X136.906Y-77.978
X136.906Y-80.518
X136.906Y-83.058
X136.906Y-85.598
X136.906Y-88.138
X139.446Y-62.484
X142.026Y-69.85
X144.526Y-69.85
X144.526Y-72.898
X144.526Y-75.438
X144.526Y-77.978
X144.526Y-80.518
X144.526Y-83.058
X144.526Y-85.598
X144.526Y-88.138
X147.066Y-62.484
X149.098Y-77.216
X150.154Y-81.788
X155.154Y-81.788
X156.718Y-77.216
T5
X84.405Y-73.562
X84.405Y-75.662
X84.405Y-78.262
X84.405Y-80.362
X87.03Y-73.562
X87.03Y-80.362
T6
X86.335Y-64.008
X86.335Y-66.548
X103.632Y-62.484
X106.172Y-62.484
X108.712Y-62.484
X111.252Y-62.484
X113.792Y-62.484
X116.332Y-62.484
X118.872Y-62.484
X121.412Y-62.484
X123.952Y-62.484
X126.492Y-62.484
X129.032Y-62.484
X131.572Y-62.484
X134.112Y-62.484
T7
X149.098Y-72.644
X156.718Y-72.644
T8
X148.336Y-67.564
T9
X80.01Y-64.262
X80.01Y-89.916
X154.686Y-64.262
X154.686Y-89.916
T2
X80.48Y-75.962G85X80.48Y-77.962
G05
X82.13Y-69.962G85X80.43Y-69.962
G05
X82.13Y-83.962G85X80.43Y-83.962
G05
T0
M30
