G04 #@! TF.GenerationSoftware,KiCad,Pcbnew,7.0.5-0*
G04 #@! TF.CreationDate,2023-06-23T22:43:01+02:00*
G04 #@! TF.ProjectId,ps2_interface,7073325f-696e-4746-9572-666163652e6b,1.2*
G04 #@! TF.SameCoordinates,Original*
G04 #@! TF.FileFunction,Soldermask,Top*
G04 #@! TF.FilePolarity,Negative*
%FSLAX46Y46*%
G04 Gerber Fmt 4.6, Leading zero omitted, Abs format (unit mm)*
G04 Created by KiCad (PCBNEW 7.0.5-0) date 2023-06-23 22:43:01*
%MOMM*%
%LPD*%
G01*
G04 APERTURE LIST*
%ADD10C,1.600000*%
%ADD11R,2.200000X2.200000*%
%ADD12O,2.200000X2.200000*%
%ADD13O,1.600000X1.600000*%
%ADD14R,1.600000X1.600000*%
%ADD15C,1.700000*%
%ADD16R,3.200000X2.200000*%
%ADD17R,2.200000X3.700000*%
%ADD18C,6.400000*%
%ADD19R,1.200000X1.200000*%
%ADD20C,1.200000*%
%ADD21R,1.700000X1.700000*%
%ADD22O,1.700000X1.700000*%
%ADD23C,3.000000*%
G04 APERTURE END LIST*
D10*
X118070000Y-69596000D03*
X113070000Y-69596000D03*
X147066000Y-70846000D03*
X147066000Y-68346000D03*
X125476000Y-84328000D03*
X125476000Y-86828000D03*
X125476000Y-73406000D03*
X125476000Y-75906000D03*
X104125000Y-84338000D03*
X104125000Y-86838000D03*
X104125000Y-73416000D03*
X104125000Y-75916000D03*
X93726000Y-73660000D03*
X96226000Y-73660000D03*
D11*
X99568000Y-69596000D03*
D12*
X91948000Y-69596000D03*
D10*
X110236000Y-69596000D03*
D13*
X102616000Y-69596000D03*
D10*
X90678000Y-91694000D03*
D13*
X90678000Y-84074000D03*
D10*
X120650000Y-69596000D03*
D13*
X128270000Y-69596000D03*
D14*
X128524000Y-91948000D03*
D13*
X131064000Y-91948000D03*
X133604000Y-91948000D03*
X136144000Y-91948000D03*
X138684000Y-91948000D03*
X141224000Y-91948000D03*
X143764000Y-91948000D03*
X146304000Y-91948000D03*
X146304000Y-84328000D03*
X143764000Y-84328000D03*
X141224000Y-84328000D03*
X138684000Y-84328000D03*
X136144000Y-84328000D03*
X133604000Y-84328000D03*
X131064000Y-84328000D03*
X128524000Y-84328000D03*
D14*
X128524000Y-81026000D03*
D13*
X131064000Y-81026000D03*
X133604000Y-81026000D03*
X136144000Y-81026000D03*
X138684000Y-81026000D03*
X141224000Y-81026000D03*
X143764000Y-81026000D03*
X146304000Y-81026000D03*
X146304000Y-73406000D03*
X143764000Y-73406000D03*
X141224000Y-73406000D03*
X138684000Y-73406000D03*
X136144000Y-73406000D03*
X133604000Y-73406000D03*
X131064000Y-73406000D03*
X128524000Y-73406000D03*
D14*
X107183000Y-91938000D03*
D13*
X109723000Y-91938000D03*
X112263000Y-91938000D03*
X114803000Y-91938000D03*
X117343000Y-91938000D03*
X119883000Y-91938000D03*
X122423000Y-91938000D03*
X122423000Y-84318000D03*
X119883000Y-84318000D03*
X117343000Y-84318000D03*
X114803000Y-84318000D03*
X112263000Y-84318000D03*
X109723000Y-84318000D03*
X107183000Y-84318000D03*
D15*
X84405000Y-78262000D03*
X84405000Y-75662000D03*
X84405000Y-80362000D03*
X84405000Y-73562000D03*
X87030000Y-80362000D03*
X87030000Y-73562000D03*
D16*
X81280000Y-83962000D03*
D17*
X80480000Y-76962000D03*
D16*
X81280000Y-69962000D03*
D18*
X80010000Y-89916000D03*
X154686000Y-64262000D03*
X154686000Y-89916000D03*
X80010000Y-64262000D03*
D14*
X107188000Y-81016000D03*
D13*
X109728000Y-81016000D03*
X112268000Y-81016000D03*
X114808000Y-81016000D03*
X117348000Y-81016000D03*
X119888000Y-81016000D03*
X122428000Y-81016000D03*
X122428000Y-73396000D03*
X119888000Y-73396000D03*
X117348000Y-73396000D03*
X114808000Y-73396000D03*
X112268000Y-73396000D03*
X109728000Y-73396000D03*
X107188000Y-73396000D03*
D10*
X90678000Y-73660000D03*
D13*
X90678000Y-81280000D03*
D19*
X88348600Y-62992000D03*
D20*
X86348600Y-62992000D03*
D21*
X87127000Y-86868000D03*
D22*
X84587000Y-86868000D03*
D23*
X148336000Y-64008000D03*
D14*
X93726000Y-76454000D03*
D13*
X93726000Y-78994000D03*
X93726000Y-81534000D03*
X93726000Y-84074000D03*
X93726000Y-86614000D03*
X93726000Y-89154000D03*
X93726000Y-91694000D03*
X101346000Y-91694000D03*
X101346000Y-89154000D03*
X101346000Y-86614000D03*
X101346000Y-84074000D03*
X101346000Y-81534000D03*
X101346000Y-78994000D03*
X101346000Y-76454000D03*
D11*
X99568000Y-66040000D03*
D12*
X91948000Y-66040000D03*
D11*
X99568000Y-62484000D03*
D12*
X91948000Y-62484000D03*
D14*
X149616000Y-69591000D03*
D13*
X149616000Y-72131000D03*
X149616000Y-74671000D03*
X149616000Y-77211000D03*
X149616000Y-79751000D03*
X149616000Y-82291000D03*
X149616000Y-84831000D03*
X157236000Y-84831000D03*
X157236000Y-82291000D03*
X157236000Y-79751000D03*
X157236000Y-77211000D03*
X157236000Y-74671000D03*
X157236000Y-72131000D03*
X157236000Y-69591000D03*
D21*
X103632000Y-62484000D03*
D22*
X106172000Y-62484000D03*
X108712000Y-62484000D03*
X111252000Y-62484000D03*
X113792000Y-62484000D03*
X116332000Y-62484000D03*
X118872000Y-62484000D03*
X121412000Y-62484000D03*
X123952000Y-62484000D03*
X126492000Y-62484000D03*
X129032000Y-62484000D03*
X131572000Y-62484000D03*
X134112000Y-62484000D03*
X136652000Y-62484000D03*
M02*
