%TF.GenerationSoftware,KiCad,Pcbnew,7.0.5-0*%
%TF.CreationDate,2023-06-23T22:43:04+02:00*%
%TF.ProjectId,ps2_interface,7073325f-696e-4746-9572-666163652e6b,1.2*%
%TF.SameCoordinates,Original*%
%TF.FileFunction,Drillmap*%
%TF.FilePolarity,Positive*%
%FSLAX45Y45*%
G04 Gerber Fmt 4.5, Leading zero omitted, Abs format (unit mm)*
G04 Created by KiCad (PCBNEW 7.0.5-0) date 2023-06-23 22:43:04*
%MOMM*%
%LPD*%
G01*
G04 APERTURE LIST*
%ADD10C,0.100000*%
%ADD11C,0.200000*%
G04 APERTURE END LIST*
D10*
X8026400Y-5994400D02*
X15443200Y-5994400D01*
X7569200Y-8966200D02*
X7569200Y-6451600D01*
X15900400Y-6451600D02*
G75*
G03*
X15443200Y-5994400I-457200J0D01*
G01*
X15443200Y-9423400D02*
X8026400Y-9423400D01*
X8026400Y-5994400D02*
G75*
G03*
X7569200Y-6451600I0J-457200D01*
G01*
X7569200Y-8966200D02*
G75*
G03*
X8026400Y-9423400I457200J0D01*
G01*
X15900400Y-6451600D02*
X15900400Y-8966200D01*
X15443200Y-9423400D02*
G75*
G03*
X15900400Y-8966200I0J457200D01*
G01*
D11*
X7824977Y-9739884D02*
X7824977Y-9539884D01*
X7824977Y-9539884D02*
X7872596Y-9539884D01*
X7872596Y-9539884D02*
X7901167Y-9549408D01*
X7901167Y-9549408D02*
X7920215Y-9568455D01*
X7920215Y-9568455D02*
X7929739Y-9587503D01*
X7929739Y-9587503D02*
X7939262Y-9625598D01*
X7939262Y-9625598D02*
X7939262Y-9654170D01*
X7939262Y-9654170D02*
X7929739Y-9692265D01*
X7929739Y-9692265D02*
X7920215Y-9711312D01*
X7920215Y-9711312D02*
X7901167Y-9730360D01*
X7901167Y-9730360D02*
X7872596Y-9739884D01*
X7872596Y-9739884D02*
X7824977Y-9739884D01*
X8024977Y-9739884D02*
X8024977Y-9606550D01*
X8024977Y-9644646D02*
X8034501Y-9625598D01*
X8034501Y-9625598D02*
X8044024Y-9616074D01*
X8044024Y-9616074D02*
X8063072Y-9606550D01*
X8063072Y-9606550D02*
X8082120Y-9606550D01*
X8148786Y-9739884D02*
X8148786Y-9606550D01*
X8148786Y-9539884D02*
X8139262Y-9549408D01*
X8139262Y-9549408D02*
X8148786Y-9558931D01*
X8148786Y-9558931D02*
X8158310Y-9549408D01*
X8158310Y-9549408D02*
X8148786Y-9539884D01*
X8148786Y-9539884D02*
X8148786Y-9558931D01*
X8272596Y-9739884D02*
X8253548Y-9730360D01*
X8253548Y-9730360D02*
X8244024Y-9711312D01*
X8244024Y-9711312D02*
X8244024Y-9539884D01*
X8377358Y-9739884D02*
X8358310Y-9730360D01*
X8358310Y-9730360D02*
X8348786Y-9711312D01*
X8348786Y-9711312D02*
X8348786Y-9539884D01*
X8605929Y-9739884D02*
X8605929Y-9539884D01*
X8605929Y-9539884D02*
X8672596Y-9682741D01*
X8672596Y-9682741D02*
X8739263Y-9539884D01*
X8739263Y-9539884D02*
X8739263Y-9739884D01*
X8920215Y-9739884D02*
X8920215Y-9635122D01*
X8920215Y-9635122D02*
X8910691Y-9616074D01*
X8910691Y-9616074D02*
X8891644Y-9606550D01*
X8891644Y-9606550D02*
X8853548Y-9606550D01*
X8853548Y-9606550D02*
X8834501Y-9616074D01*
X8920215Y-9730360D02*
X8901167Y-9739884D01*
X8901167Y-9739884D02*
X8853548Y-9739884D01*
X8853548Y-9739884D02*
X8834501Y-9730360D01*
X8834501Y-9730360D02*
X8824977Y-9711312D01*
X8824977Y-9711312D02*
X8824977Y-9692265D01*
X8824977Y-9692265D02*
X8834501Y-9673217D01*
X8834501Y-9673217D02*
X8853548Y-9663693D01*
X8853548Y-9663693D02*
X8901167Y-9663693D01*
X8901167Y-9663693D02*
X8920215Y-9654170D01*
X9015453Y-9606550D02*
X9015453Y-9806550D01*
X9015453Y-9616074D02*
X9034501Y-9606550D01*
X9034501Y-9606550D02*
X9072596Y-9606550D01*
X9072596Y-9606550D02*
X9091644Y-9616074D01*
X9091644Y-9616074D02*
X9101167Y-9625598D01*
X9101167Y-9625598D02*
X9110691Y-9644646D01*
X9110691Y-9644646D02*
X9110691Y-9701789D01*
X9110691Y-9701789D02*
X9101167Y-9720836D01*
X9101167Y-9720836D02*
X9091644Y-9730360D01*
X9091644Y-9730360D02*
X9072596Y-9739884D01*
X9072596Y-9739884D02*
X9034501Y-9739884D01*
X9034501Y-9739884D02*
X9015453Y-9730360D01*
X9196405Y-9720836D02*
X9205929Y-9730360D01*
X9205929Y-9730360D02*
X9196405Y-9739884D01*
X9196405Y-9739884D02*
X9186882Y-9730360D01*
X9186882Y-9730360D02*
X9196405Y-9720836D01*
X9196405Y-9720836D02*
X9196405Y-9739884D01*
X9196405Y-9616074D02*
X9205929Y-9625598D01*
X9205929Y-9625598D02*
X9196405Y-9635122D01*
X9196405Y-9635122D02*
X9186882Y-9625598D01*
X9186882Y-9625598D02*
X9196405Y-9616074D01*
X9196405Y-9616074D02*
X9196405Y-9635122D01*
M02*
