G04 #@! TF.GenerationSoftware,KiCad,Pcbnew,7.0.5-0*
G04 #@! TF.CreationDate,2023-06-22T10:16:06+02:00*
G04 #@! TF.ProjectId,ps2_interface,7073325f-696e-4746-9572-666163652e6b,1.2*
G04 #@! TF.SameCoordinates,Original*
G04 #@! TF.FileFunction,Soldermask,Top*
G04 #@! TF.FilePolarity,Negative*
%FSLAX46Y46*%
G04 Gerber Fmt 4.6, Leading zero omitted, Abs format (unit mm)*
G04 Created by KiCad (PCBNEW 7.0.5-0) date 2023-06-22 10:16:06*
%MOMM*%
%LPD*%
G01*
G04 APERTURE LIST*
%ADD10C,1.600000*%
%ADD11R,2.200000X2.200000*%
%ADD12O,2.200000X2.200000*%
%ADD13O,1.600000X1.600000*%
%ADD14R,1.600000X1.600000*%
%ADD15C,1.700000*%
%ADD16R,3.200000X2.200000*%
%ADD17R,2.200000X3.700000*%
%ADD18C,6.400000*%
%ADD19R,1.200000X1.200000*%
%ADD20C,1.200000*%
%ADD21R,1.700000X1.700000*%
%ADD22O,1.700000X1.700000*%
%ADD23C,3.000000*%
G04 APERTURE END LIST*
D10*
X150154000Y-81788000D03*
X155154000Y-81788000D03*
X90424000Y-75692000D03*
X90424000Y-78192000D03*
X100838000Y-69850000D03*
X98338000Y-69850000D03*
X111760000Y-69850000D03*
X109260000Y-69850000D03*
X122682000Y-69850000D03*
X120182000Y-69850000D03*
X133604000Y-69850000D03*
X131104000Y-69850000D03*
X144526000Y-69850000D03*
X142026000Y-69850000D03*
D11*
X156718000Y-72644000D03*
D12*
X149098000Y-72644000D03*
D10*
X149098000Y-77216000D03*
D13*
X156718000Y-77216000D03*
D10*
X90525600Y-83108800D03*
D13*
X90525600Y-90728800D03*
D10*
X139446000Y-62484000D03*
D13*
X147066000Y-62484000D03*
D14*
X93218000Y-72898000D03*
D13*
X93218000Y-75438000D03*
X93218000Y-77978000D03*
X93218000Y-80518000D03*
X93218000Y-83058000D03*
X93218000Y-85598000D03*
X93218000Y-88138000D03*
X93218000Y-90678000D03*
X100838000Y-90678000D03*
X100838000Y-88138000D03*
X100838000Y-85598000D03*
X100838000Y-83058000D03*
X100838000Y-80518000D03*
X100838000Y-77978000D03*
X100838000Y-75438000D03*
X100838000Y-72898000D03*
D14*
X104140000Y-72898000D03*
D13*
X104140000Y-75438000D03*
X104140000Y-77978000D03*
X104140000Y-80518000D03*
X104140000Y-83058000D03*
X104140000Y-85598000D03*
X104140000Y-88138000D03*
X104140000Y-90678000D03*
X111760000Y-90678000D03*
X111760000Y-88138000D03*
X111760000Y-85598000D03*
X111760000Y-83058000D03*
X111760000Y-80518000D03*
X111760000Y-77978000D03*
X111760000Y-75438000D03*
X111760000Y-72898000D03*
D14*
X125984000Y-72898000D03*
D13*
X125984000Y-75438000D03*
X125984000Y-77978000D03*
X125984000Y-80518000D03*
X125984000Y-83058000D03*
X125984000Y-85598000D03*
X125984000Y-88138000D03*
X133604000Y-88138000D03*
X133604000Y-85598000D03*
X133604000Y-83058000D03*
X133604000Y-80518000D03*
X133604000Y-77978000D03*
X133604000Y-75438000D03*
X133604000Y-72898000D03*
D15*
X84405000Y-78262000D03*
X84405000Y-75662000D03*
X84405000Y-80362000D03*
X84405000Y-73562000D03*
X87030000Y-80362000D03*
X87030000Y-73562000D03*
D16*
X81280000Y-83962000D03*
D17*
X80480000Y-76962000D03*
D16*
X81280000Y-69962000D03*
D18*
X80010000Y-89916000D03*
X154686000Y-64262000D03*
X154686000Y-89916000D03*
X80010000Y-64262000D03*
D14*
X136906000Y-72898000D03*
D13*
X136906000Y-75438000D03*
X136906000Y-77978000D03*
X136906000Y-80518000D03*
X136906000Y-83058000D03*
X136906000Y-85598000D03*
X136906000Y-88138000D03*
X144526000Y-88138000D03*
X144526000Y-85598000D03*
X144526000Y-83058000D03*
X144526000Y-80518000D03*
X144526000Y-77978000D03*
X144526000Y-75438000D03*
X144526000Y-72898000D03*
D10*
X90525600Y-63271400D03*
D13*
X90525600Y-70891400D03*
D19*
X98298000Y-62865000D03*
D20*
X96298000Y-62865000D03*
D21*
X86334600Y-64008000D03*
D22*
X86334600Y-66548000D03*
D23*
X148336000Y-67564000D03*
D14*
X115062000Y-72898000D03*
D13*
X115062000Y-75438000D03*
X115062000Y-77978000D03*
X115062000Y-80518000D03*
X115062000Y-83058000D03*
X115062000Y-85598000D03*
X115062000Y-88138000D03*
X122682000Y-88138000D03*
X122682000Y-85598000D03*
X122682000Y-83058000D03*
X122682000Y-80518000D03*
X122682000Y-77978000D03*
X122682000Y-75438000D03*
X122682000Y-72898000D03*
D21*
X103632000Y-62484000D03*
D22*
X106172000Y-62484000D03*
X108712000Y-62484000D03*
X111252000Y-62484000D03*
X113792000Y-62484000D03*
X116332000Y-62484000D03*
X118872000Y-62484000D03*
X121412000Y-62484000D03*
X123952000Y-62484000D03*
X126492000Y-62484000D03*
X129032000Y-62484000D03*
X131572000Y-62484000D03*
X134112000Y-62484000D03*
M02*
