G04 #@! TF.GenerationSoftware,KiCad,Pcbnew,7.0.5-0*
G04 #@! TF.CreationDate,2023-06-22T10:16:06+02:00*
G04 #@! TF.ProjectId,ps2_interface,7073325f-696e-4746-9572-666163652e6b,1.2*
G04 #@! TF.SameCoordinates,Original*
G04 #@! TF.FileFunction,Copper,L2,Bot*
G04 #@! TF.FilePolarity,Positive*
%FSLAX46Y46*%
G04 Gerber Fmt 4.6, Leading zero omitted, Abs format (unit mm)*
G04 Created by KiCad (PCBNEW 7.0.5-0) date 2023-06-22 10:16:06*
%MOMM*%
%LPD*%
G01*
G04 APERTURE LIST*
G04 #@! TA.AperFunction,ComponentPad*
%ADD10C,1.600000*%
G04 #@! TD*
G04 #@! TA.AperFunction,ComponentPad*
%ADD11R,2.200000X2.200000*%
G04 #@! TD*
G04 #@! TA.AperFunction,ComponentPad*
%ADD12O,2.200000X2.200000*%
G04 #@! TD*
G04 #@! TA.AperFunction,ComponentPad*
%ADD13O,1.600000X1.600000*%
G04 #@! TD*
G04 #@! TA.AperFunction,ComponentPad*
%ADD14R,1.600000X1.600000*%
G04 #@! TD*
G04 #@! TA.AperFunction,ComponentPad*
%ADD15C,1.700000*%
G04 #@! TD*
G04 #@! TA.AperFunction,ComponentPad*
%ADD16R,3.200000X2.200000*%
G04 #@! TD*
G04 #@! TA.AperFunction,ComponentPad*
%ADD17R,2.200000X3.700000*%
G04 #@! TD*
G04 #@! TA.AperFunction,ComponentPad*
%ADD18C,6.400000*%
G04 #@! TD*
G04 #@! TA.AperFunction,ComponentPad*
%ADD19R,1.200000X1.200000*%
G04 #@! TD*
G04 #@! TA.AperFunction,ComponentPad*
%ADD20C,1.200000*%
G04 #@! TD*
G04 #@! TA.AperFunction,ComponentPad*
%ADD21R,1.700000X1.700000*%
G04 #@! TD*
G04 #@! TA.AperFunction,ComponentPad*
%ADD22O,1.700000X1.700000*%
G04 #@! TD*
G04 #@! TA.AperFunction,ComponentPad*
%ADD23C,3.000000*%
G04 #@! TD*
G04 #@! TA.AperFunction,ViaPad*
%ADD24C,0.600000*%
G04 #@! TD*
G04 #@! TA.AperFunction,Conductor*
%ADD25C,0.254000*%
G04 #@! TD*
G04 #@! TA.AperFunction,Conductor*
%ADD26C,0.152400*%
G04 #@! TD*
G04 APERTURE END LIST*
D10*
X150154000Y-81788000D03*
X155154000Y-81788000D03*
X90424000Y-75692000D03*
X90424000Y-78192000D03*
X100838000Y-69850000D03*
X98338000Y-69850000D03*
X111760000Y-69850000D03*
X109260000Y-69850000D03*
X122682000Y-69850000D03*
X120182000Y-69850000D03*
X133604000Y-69850000D03*
X131104000Y-69850000D03*
X144526000Y-69850000D03*
X142026000Y-69850000D03*
D11*
X156718000Y-72644000D03*
D12*
X149098000Y-72644000D03*
D10*
X149098000Y-77216000D03*
D13*
X156718000Y-77216000D03*
D10*
X90525600Y-83108800D03*
D13*
X90525600Y-90728800D03*
D10*
X139446000Y-62484000D03*
D13*
X147066000Y-62484000D03*
D14*
X93218000Y-72898000D03*
D13*
X93218000Y-75438000D03*
X93218000Y-77978000D03*
X93218000Y-80518000D03*
X93218000Y-83058000D03*
X93218000Y-85598000D03*
X93218000Y-88138000D03*
X93218000Y-90678000D03*
X100838000Y-90678000D03*
X100838000Y-88138000D03*
X100838000Y-85598000D03*
X100838000Y-83058000D03*
X100838000Y-80518000D03*
X100838000Y-77978000D03*
X100838000Y-75438000D03*
X100838000Y-72898000D03*
D14*
X104140000Y-72898000D03*
D13*
X104140000Y-75438000D03*
X104140000Y-77978000D03*
X104140000Y-80518000D03*
X104140000Y-83058000D03*
X104140000Y-85598000D03*
X104140000Y-88138000D03*
X104140000Y-90678000D03*
X111760000Y-90678000D03*
X111760000Y-88138000D03*
X111760000Y-85598000D03*
X111760000Y-83058000D03*
X111760000Y-80518000D03*
X111760000Y-77978000D03*
X111760000Y-75438000D03*
X111760000Y-72898000D03*
D14*
X125984000Y-72898000D03*
D13*
X125984000Y-75438000D03*
X125984000Y-77978000D03*
X125984000Y-80518000D03*
X125984000Y-83058000D03*
X125984000Y-85598000D03*
X125984000Y-88138000D03*
X133604000Y-88138000D03*
X133604000Y-85598000D03*
X133604000Y-83058000D03*
X133604000Y-80518000D03*
X133604000Y-77978000D03*
X133604000Y-75438000D03*
X133604000Y-72898000D03*
D15*
X84405000Y-78262000D03*
X84405000Y-75662000D03*
X84405000Y-80362000D03*
X84405000Y-73562000D03*
X87030000Y-80362000D03*
X87030000Y-73562000D03*
D16*
X81280000Y-83962000D03*
D17*
X80480000Y-76962000D03*
D16*
X81280000Y-69962000D03*
D18*
X80010000Y-89916000D03*
X154686000Y-64262000D03*
X154686000Y-89916000D03*
X80010000Y-64262000D03*
D14*
X136906000Y-72898000D03*
D13*
X136906000Y-75438000D03*
X136906000Y-77978000D03*
X136906000Y-80518000D03*
X136906000Y-83058000D03*
X136906000Y-85598000D03*
X136906000Y-88138000D03*
X144526000Y-88138000D03*
X144526000Y-85598000D03*
X144526000Y-83058000D03*
X144526000Y-80518000D03*
X144526000Y-77978000D03*
X144526000Y-75438000D03*
X144526000Y-72898000D03*
D10*
X90525600Y-63271400D03*
D13*
X90525600Y-70891400D03*
D19*
X98298000Y-62865000D03*
D20*
X96298000Y-62865000D03*
D21*
X86334600Y-64008000D03*
D22*
X86334600Y-66548000D03*
D23*
X148336000Y-67564000D03*
D14*
X115062000Y-72898000D03*
D13*
X115062000Y-75438000D03*
X115062000Y-77978000D03*
X115062000Y-80518000D03*
X115062000Y-83058000D03*
X115062000Y-85598000D03*
X115062000Y-88138000D03*
X122682000Y-88138000D03*
X122682000Y-85598000D03*
X122682000Y-83058000D03*
X122682000Y-80518000D03*
X122682000Y-77978000D03*
X122682000Y-75438000D03*
X122682000Y-72898000D03*
D21*
X103632000Y-62484000D03*
D22*
X106172000Y-62484000D03*
X108712000Y-62484000D03*
X111252000Y-62484000D03*
X113792000Y-62484000D03*
X116332000Y-62484000D03*
X118872000Y-62484000D03*
X121412000Y-62484000D03*
X123952000Y-62484000D03*
X126492000Y-62484000D03*
X129032000Y-62484000D03*
X131572000Y-62484000D03*
X134112000Y-62484000D03*
D24*
X129286000Y-73914000D03*
X128270000Y-74930000D03*
X116840018Y-79756000D03*
X130556000Y-66548000D03*
X132842000Y-67310000D03*
X108712000Y-89916000D03*
X119634000Y-82296000D03*
D25*
X158242000Y-67818000D02*
X158242000Y-78700000D01*
X91706600Y-79474600D02*
X91706600Y-89166600D01*
X81280000Y-69962000D02*
X81280000Y-76162000D01*
X91605000Y-72149000D02*
X95944000Y-67810000D01*
X90424000Y-78192000D02*
X91605000Y-77011000D01*
X81280000Y-76162000D02*
X80480000Y-76962000D01*
X81280000Y-83962000D02*
X81280000Y-88646000D01*
X96298000Y-67810000D02*
X98338000Y-69850000D01*
X91605000Y-77011000D02*
X91605000Y-72149000D01*
X96298000Y-62865000D02*
X96298000Y-67810000D01*
X142026000Y-67524000D02*
X147066000Y-62484000D01*
X95944000Y-67810000D02*
X96298000Y-67810000D01*
X142026000Y-69850000D02*
X142026000Y-67524000D01*
X154686000Y-64262000D02*
X158242000Y-67818000D01*
X90424000Y-78192000D02*
X91706600Y-79474600D01*
X148336000Y-67564000D02*
X148336000Y-63754000D01*
X80010000Y-64262000D02*
X81280000Y-65532000D01*
X81280000Y-88646000D02*
X80010000Y-89916000D01*
X158242000Y-78700000D02*
X155154000Y-81788000D01*
X155154000Y-81788000D02*
X155154000Y-89448000D01*
X81280000Y-65532000D02*
X81280000Y-69962000D01*
X91706600Y-89166600D02*
X93218000Y-90678000D01*
X80480000Y-76962000D02*
X80480000Y-83162000D01*
X148336000Y-63754000D02*
X147066000Y-62484000D01*
X80480000Y-83162000D02*
X81280000Y-83962000D01*
D26*
X156718000Y-72644000D02*
X156718000Y-77216000D01*
D25*
X98298000Y-67310000D02*
X100838000Y-69850000D01*
X98298000Y-62865000D02*
X98298000Y-67310000D01*
X133604000Y-69850000D02*
X133604000Y-72898000D01*
X143040201Y-74383799D02*
X143040201Y-84112201D01*
X144526000Y-72898000D02*
X143040201Y-74383799D01*
X89344600Y-64452400D02*
X90525600Y-63271400D01*
X100838000Y-69850000D02*
X100838000Y-72898000D01*
X90424000Y-75692000D02*
X89344600Y-74612600D01*
X111760000Y-69850000D02*
X111760000Y-72898000D01*
X89344600Y-74612600D02*
X89344600Y-64452400D01*
X122682000Y-69850000D02*
X122682000Y-72898000D01*
X144526000Y-69850000D02*
X144526000Y-72898000D01*
X143040201Y-84112201D02*
X144526000Y-85598000D01*
D26*
X149098000Y-78486000D02*
X149098000Y-77216000D01*
X144526000Y-83058000D02*
X149098000Y-78486000D01*
X149098000Y-77216000D02*
X149098000Y-72644000D01*
X129286000Y-67031414D02*
X129286000Y-73914000D01*
X133833414Y-62484000D02*
X129286000Y-67031414D01*
X128270000Y-65786000D02*
X128270000Y-74930000D01*
X131572000Y-62484000D02*
X128270000Y-65786000D01*
X124650600Y-86169400D02*
X122682000Y-88138000D01*
X124650600Y-66865400D02*
X124650600Y-86169400D01*
X129032000Y-62484000D02*
X124650600Y-66865400D01*
X126492000Y-62484000D02*
X124206000Y-64770000D01*
X124206000Y-84074000D02*
X122682000Y-85598000D01*
X124206000Y-64770000D02*
X124206000Y-84074000D01*
X123901200Y-81838800D02*
X122682000Y-83058000D01*
X123901200Y-62534800D02*
X123901200Y-81838800D01*
X121412000Y-62484000D02*
X121412000Y-79248000D01*
X121412000Y-79248000D02*
X122682000Y-80518000D01*
X116864604Y-80518000D02*
X115062000Y-80518000D01*
X118872000Y-78510604D02*
X116864604Y-80518000D01*
X118872000Y-62484000D02*
X118872000Y-78510604D01*
X116332000Y-62484000D02*
X116332000Y-79247982D01*
X116332000Y-79247982D02*
X116840018Y-79756000D01*
X144526000Y-80518000D02*
X143497400Y-79489400D01*
X143497400Y-79489400D02*
X143497400Y-76466600D01*
X82296000Y-73481893D02*
X82296000Y-81026000D01*
X87030000Y-87233200D02*
X90525600Y-90728800D01*
X85604000Y-81788000D02*
X87030000Y-80362000D01*
X84074000Y-66268600D02*
X84074000Y-71703893D01*
X83058000Y-81788000D02*
X85604000Y-81788000D01*
X143497400Y-76466600D02*
X144526000Y-75438000D01*
X86334600Y-64008000D02*
X84074000Y-66268600D01*
X87030000Y-80362000D02*
X87030000Y-87233200D01*
X84074000Y-71703893D02*
X82296000Y-73481893D01*
X82296000Y-81026000D02*
X83058000Y-81788000D01*
X86334600Y-69874345D02*
X86334600Y-66548000D01*
X83135800Y-76992800D02*
X83135800Y-73073145D01*
X83135800Y-73073145D02*
X86334600Y-69874345D01*
X84405000Y-78262000D02*
X83135800Y-76992800D01*
X136906000Y-77978000D02*
X139446000Y-75438000D01*
X139446000Y-75438000D02*
X139446000Y-62484000D01*
X132334000Y-68326000D02*
X132334000Y-86868000D01*
X132334000Y-86868000D02*
X133604000Y-88138000D01*
X130556000Y-66548000D02*
X132334000Y-68326000D01*
X132842000Y-67310000D02*
X134874000Y-69342000D01*
X135877400Y-84569400D02*
X136906000Y-85598000D01*
X134874000Y-77699414D02*
X135877400Y-78702814D01*
X134874000Y-69342000D02*
X134874000Y-77699414D01*
X135877400Y-78702814D02*
X135877400Y-84569400D01*
X125984000Y-80518000D02*
X125984000Y-83058000D01*
X108966000Y-89662000D02*
X108966000Y-80772000D01*
X108712000Y-89916000D02*
X108966000Y-89662000D01*
X108966000Y-80772000D02*
X111760000Y-77978000D01*
X125984000Y-72898000D02*
X125984000Y-75438000D01*
X125984000Y-75438000D02*
X124955400Y-76466600D01*
X124955400Y-84569400D02*
X125984000Y-85598000D01*
X124955400Y-76466600D02*
X124955400Y-84569400D01*
X111760000Y-80518000D02*
X113030000Y-81788000D01*
X113030000Y-81788000D02*
X119126000Y-81788000D01*
X101942800Y-87033200D02*
X101942800Y-81622800D01*
X119126000Y-81788000D02*
X119634000Y-82296000D01*
X101942800Y-81622800D02*
X100838000Y-80518000D01*
X100838000Y-88138000D02*
X101942800Y-87033200D01*
X133604000Y-85598000D02*
X134632600Y-84569400D01*
X134632600Y-84569400D02*
X134632600Y-81546600D01*
X134632600Y-81546600D02*
X133604000Y-80518000D01*
M02*
